<?xml version="1.0" encoding="utf-8"?>
<!-- Generator: Adobe Illustrator 25.0.0, SVG Export Plug-In . SVG Version: 6.00 Build 0)  -->
<svg version="1.1" id="Layer_1" xmlns="http://www.w3.org/2000/svg" xmlns:xlink="http://www.w3.org/1999/xlink" x="0px" y="0px"
	 viewBox="0 0 612 792" style="enable-background:new 0 0 612 792;" xml:space="preserve">
<style type="text/css">
	.st0{fill:#FFFFFF;stroke:#000000;stroke-width:0.25;}
	.st1{fill:none;stroke:#000000;stroke-width:0.25;}
	.st2{fill:#FC832B;}
	.st3{fill:none;stroke:#C0BC00;stroke-width:1.17;}
	.st4{fill:#FBBA2F;}
	.st5{stroke:#000000;stroke-width:1.17;}
	.st6{fill:#B87001;}
	.st7{fill:none;stroke:#B87001;stroke-width:1.17;}
	.st8{fill:#FFE600;stroke:#000000;stroke-width:0.25;}
	.st9{fill:#807073;}
	.st10{fill:#1F77B2;}
	.st11{fill:#CC0000;stroke:#000000;stroke-width:0.25;}
	.st12{stroke:#000000;stroke-width:4.914;}
	.st13{fill:#FFFFFF;}
	.st14{fill:#4D588B;stroke:#000000;stroke-width:0.25;}
	.st15{fill:#D2D5E2;}
	.st16{fill:#363604;}
	.st17{fill:#E4EB81;stroke:#363604;stroke-width:0.364;}
	.st18{stroke:#000000;stroke-width:0.25;}
	.st19{fill:#FFCC33;}
	.st20{fill:#9F9F57;}
	.st21{fill:#BEBB8C;}
	.st22{fill:#B4B17B;}
	.st23{fill:#969646;}
	.st24{fill:#C9C69F;}
	.st25{fill:#889026;}
	.st26{fill:#758F29;}
	.st27{fill:#92A45F;}
	.st28{fill:#84902E;}
	.st29{fill:#7D9D36;}
	.st30{fill:#BDC4A0;}
	.st31{fill:#949A4E;}
	.st32{fill:#B2DF3B;}
	.st33{fill:#89B033;}
</style>
<rect x="70.3" y="187" class="st0" width="229.3" height="131"/>
<rect x="313.9" y="43.7" class="st0" width="229.3" height="131"/>
<g>
	<rect class="st1" width="612" height="792"/>
</g>
<g>
	<rect x="313.9" y="330.3" class="st0" width="229.3" height="131"/>
	<g>
		<path class="st2" d="M460.3,371.1c1.4-1.4,4.3-2.5,9.1-3.4c10.5-1.1,20.1,0.9,24.7,5.1c2.1,2.3,1.4,4.3-1.4,5.7
			c-2.1,1-4.9,1.4-9,1.5c-9.6,0.8-19.2,0.2-23.2-2.9C458,375.4,458.3,373.1,460.3,371.1z M413.1,433.1l3.2-3.6
			c0.6-1.2,1.1-2.1,1.7-3.1c4.1-7.2,8.7-13.7,13.2-18.9c10.5-10.8,19.3-15.6,33.2-21c10.9-2.7,19.9-4.1,31.5-6.7
			c8.2-0.9,16.6-1.8,22.6-3c7.1-0.9,9.1-4,0.3-6c-23.4-5.4-36-6.5-53.7-4.2c-10.6,1.4-15.8,7.1-21.6,14.4
			c-5.1,6.9-5.3,10.4-0.5,10.3l-0.3,0.4c-7.8,5.1-15.3,13.3-21.8,24.1C417.3,422.2,415,427.7,413.1,433.1z"/>
		<g>
			<path d="M347.2,387.5c0-0.9,0.7-1.6,1.6-1.6s1.6,0.7,1.6,1.6v4.9h1.5c0.8,0,1.4,0.6,1.4,1.4s-0.6,1.4-1.4,1.4h-1.5V410
				c0,0.9-0.8,1.6-1.6,1.6c-0.9,0-1.6-0.7-1.6-1.6v-14.8h-1.5c-0.8,0-1.4-0.6-1.4-1.4s0.6-1.4,1.4-1.4h1.5V387.5z"/>
			<path d="M356.4,393.4h-1v-1.1h9.1v1.1h-1c-1.5,0-2.2,0.5-1.6,2l4.7,12.4l4.1-11.1l-0.5-1.3c-0.6-1.5-1.3-2-2.4-2h-1v-1.1h3.2
				c1.7,0,2.4,0.6,3.3,3.1l3.9,10.2l4.8-12.9c0.2-0.5,0.8-0.9,1.4-0.9c0.7,0,1.5,0.6,1.5,1.5c0,0.1-0.1,0.4-0.1,0.5l-6.2,16.6
				c-0.6,1.6-2.1,1.6-2.8,0l-4.4-11.7l-4.4,11.7c-0.6,1.6-2.1,1.6-2.8,0l-5.6-14.9C358.3,393.9,357.5,393.4,356.4,393.4z"/>
			<path d="M397.5,411.6c-4.6,0-8.4-4.4-8.4-9.9s3.8-9.9,8.4-9.9c1.9,0,3.7,0.8,5.2,2.1v-0.5c0-0.9,0.7-1.6,1.6-1.6s1.6,0.7,1.6,1.6
				V410c0,0.9-0.8,1.6-1.6,1.6c-0.9,0-1.6-0.7-1.6-1.6v-0.5C401.3,410.8,399.5,411.6,397.5,411.6z M392.4,401.7
				c0,3.8,2.3,6.9,5.2,6.9c2.8,0,5.2-3.1,5.2-6.9s-2.3-6.9-5.2-6.9C394.7,394.8,392.4,397.9,392.4,401.7z"/>
			<path d="M418.3,410h1v1.1h-8.5V410h1c1.1,0,2-0.9,2-2v-12c0-1.1-0.9-2-2-2h-1v-1l5.7-0.6l-0.2,2c1.2-1.6,3.1-2.6,5.3-2.6
				c3.7,0,6.7,3,6.7,6.7V410c0,0.9-0.7,1.6-1.6,1.6s-1.6-0.7-1.6-1.6v-11.1c0-2.4-2-4.4-4.4-4.4s-4.4,2-4.4,4.4v9
				C416.3,409.1,417.2,410,418.3,410z"/>
			<path d="M436.1,406.9c0-1.4,1-2.6,2.4-3.1c-2.1-1.1-3.6-3.2-3.6-5.6c0-3.5,3.2-6.4,7.2-6.4c1.1,0,2.2,0.2,3.1,0.6l2.3-2.3
				c0.6-0.6,1.7-0.6,2.3,0c0.6,0.6,0.6,1.6,0,2.3l-1.9,1.9c0.9,1.1,1.4,2.4,1.4,3.8c0,3.5-3.2,6.4-7.2,6.4h-2.5
				c-0.9,0-1.7,0.7-1.7,1.5s0.8,1.5,1.7,1.5h3.3c5.5,0,8,2.1,8,5.1c0,3.6-3.7,6.1-8.3,6.1c-4.6,0-8.3-1.7-8.3-5
				c0-1.7,1.5-3.3,3.7-4.1C436.8,409.1,436.1,408.1,436.1,406.9z M442.7,417.7c3,0,5.5-1.7,5.5-3.7s-1.3-3.7-5.5-3.7
				c-4.1,0-5.5,1.7-5.5,3.7S439.7,417.7,442.7,417.7z M442.1,392.8c-2.8,0-3.8,2.4-3.8,5.4s1,5.4,3.8,5.4s3.8-2.4,3.8-5.4
				C445.9,395.2,444.9,392.8,442.1,392.8z"/>
		</g>
	</g>
</g>
<g>
	<rect x="313.9" y="617" class="st0" width="229.3" height="131"/>
	<g>
		<path class="st3" d="M399.5,655.5c8.1,1.9,15.2,7.9,17.8,18.8c2.1,9.1,0.2,17.2-11.7,23.8c19.5-6.5,18.1-29.1,5.2-43.3
			c-12.5-12.4-31-10-44.7-2.9c5-3.1,8.2-5.8,13.7-7c14.5-3.4,28.9,0.9,40.4,17.3c6.2,10,5.9,25.4-6.4,37.9
			c-11,10.2-29.3,1.9-32.4-7.7c1.3,7.8,5.8,11.9,16.2,15.1c-13-0.7-21.8-7.3-18.5-21.5c1.6-6.8,9-8.2,16.9-4.7
			c-9.4,3.2-7.6,11,2.1,11.7s13.8-4.3,15.1-11.9c1.3-7.6-0.8-13.5-7.9-17.3s-13.5-3.8-22.8,1.8c-8.1,5-11.7,11.6-10.2,28.9
			c0.9,10.4,11.3,19.1,18.6,24l-5.9-2.2c9.4,7.4,23.4,9.8,37,2.8c-6.4,5.3-13.5,7-23.6,5.5s-18.9-5.5-25.6-11.2
			s-11.6-14.9-13.6-25.5c-2.1,9.7,0.7,13.1,3.5,21c-5.3-6.1-7.8-14.1-7.1-20.1C357.2,676.5,373.4,650.2,399.5,655.5z"/>
		<g>
			<path d="M377.8,678.9c0,1.3,1.2,2.7,3.8,3.6l5.2,1.7c3.6,1.2,5.2,3.5,5.2,5.6c-0.1,4-3.3,7.6-8.4,7.9c-2.9,0.1-3.5-0.1-4.2-0.2
				c-0.8-0.1-2.2-0.5-3.1-1.2c1.8,0.5,2.8,0.6,6,0.4c3.1-0.1,5.6-3,5.6-5.6c0-1.5-1.5-2.9-4-3.9l-5.3-1.9c-3.4-1.3-4.8-3.2-4.8-5.3
				c0-2.8,3.4-4.9,8.1-4.9c3,0,6,0.5,7.8,1.7c0.4,0.3,0.8-0.3,0.8-0.8h0.6l0.7,5.6l-1.1-0.1c-1.5-5.2-5.1-5.3-8.3-5.3
				C379.6,676.3,377.8,677.5,377.8,678.9z"/>
			<path d="M396,676.4v-1.2h8.3v1.2h-1.7l7.3,13l6.8-12.6c0.6-1.7,3.8-2.8,6-0.8c0.1,0.1,0-0.1,0,0c0,0.3,0.2,0.8,0.2,0.8
				c-1.9-1-1.6,1.5-1.6,2.6v11.1c0,2,0.2,2,2.9,2.1v1.2h-9.6v-1.2c2.7-0.1,3.1-0.1,3.1-2.1v-12.2l-8.4,15.5h-0.7l-8.5-15.5v11.8
				c0,2.4,0.5,2.5,3.1,2.5v1.2h-7.7v-1.2c2.4,0,3-0.2,3-2.6v-13.6H396z"/>
			<path d="M440.6,693.9c-6.1,0.1-10.7-3.9-10.9-9.1c-0.3-5.1,4.3-9.5,10.1-9.7c5.8-0.3,10.7,3.9,11,9c0,0.3,0,0.7,0,1v7.4h1.2v1.2
				h-4.9v-8.2c0-0.3,0-0.7,0-1c-0.1-5.2-2.2-8.4-6.9-8.4c-4.6,0-6.7,4.1-6.7,8.2c0,3.7,1.7,10.8,12.6,8
				C445.4,692.6,443.3,693.9,440.6,693.9z"/>
			<path d="M459.7,684.4c0,3.7,1.7,10.8,12.6,8c-0.7,0.1-2.7,1.5-5.4,1.5c-6.1,0.1-10.7-3.9-10.9-9.1c-0.3-5.1,4.3-9.5,10.1-9.7
				c3.3-0.1,6.4,1.1,8.5,3.3v-1.2h1.2v4.9h-2.7c-0.7-3.7-2.8-6-6.7-6C461.8,676.2,459.7,680.4,459.7,684.4z"/>
			<path d="M479.2,667.7c2.2-1.9,5.2-0.5,5.2,1.1v15.1h6.7c4-0.3,4.3-3,4.6-7.4h-1.8v-1.2h6.7v1.2h-1.2c-0.3,3.9-1.6,7.2-5.7,8.3
				c3.4,1.3,5.9,4.2,6.3,7.9h1.1v1.2h-6.7v-1.2h1.9c-0.3-4.7-2.5-7.5-6.9-7.5c-4.6,0-2.8,0-5,0v7.5h1.5v1.2h-6.7v-1.2h1.5v-21.6
				c0-1.1,0.4-3.5-1.6-2.4C479.1,668.5,479.2,667.9,479.2,667.7C479.2,667.6,479.1,667.7,479.2,667.7z"/>
		</g>
	</g>
</g>
<g>
	<rect x="313.9" y="187" class="st0" width="229.3" height="131"/>
	<g>
		<path class="st4" d="M380.2,267.6c5.8,3.3,8.8,5,18.2,5l-7.7-2.7c19.2-1.9,38.8-2,52.3-1.7c13.6,0.3,34.2,1.8,34.2,1.8
			c-11.5,2.5-17.9,3-30.6,1.9c-0.9-0.1,8.4,3.2,19.9,4.1c34.1,2.6,58-3.7,57.1-3.6c-19.3,2.2-27.3,2.3-49.7,1.4
			c17.4-1.9,36.5-5.3,35.5-5.4c-0.4,0-35.8-1.8-57.5-2.5C430.6,265.1,413.2,265.1,380.2,267.6z"/>
		<g>
			<path class="st5" d="M441.4,251.3c0,4.9-3.4,8.6-9,8.2c-5.6-0.1-8-5.1-7.8-8.9c0.1-4.2,2.8-8.4,8.5-8.2
				C438.9,242.6,441.4,245.9,441.4,251.3z M445.8,249.3c0.1-1,0-2.3,0-2.3c0.1-1.4-0.1-4.5,2.3-3.1c0,0-0.1-0.7-0.1-1.1
				c0-0.1,0.1,0.1,0,0c-2.5-2.3-5.5-1.2-6.6,0.9c-2.4-1.5-5.4-2.5-8.7-2.4c-7.2,0.1-12.9,4.4-12.8,9.7c0.1,4.6,4.6,8.5,10.4,9.5
				l-0.1,4.5l9.4,0.3c0.2,0,0.4,14.2-16,9.7c-0.8-0.2,3.4,1.9,6.9,2.1c7.8,0.3,14.4-4.7,14-13.4l-9.4-0.2l0.1-3
				c6.3-0.7,11-4.7,10.9-9.6C446,250.4,445.9,249.8,445.8,249.3z"/>
			<path d="M381.1,248.3h0.8c0.9,0,1.6-0.7,1.6-1.6v-10.1c0-0.9-0.7-1.6-1.6-1.6h-0.8v-0.9h2.7c0.9,0,1.6,0.7,1.6,1.6v11.8
				c0,0.9-0.7,1.6-1.6,1.6h-2.7V248.3z M385.6,229.7c0,0.9-0.7,1.6-1.6,1.6s-1.6-0.7-1.6-1.6c0-0.9,0.7-1.6,1.6-1.6
				C384.9,228.1,385.6,228.8,385.6,229.7z"/>
			<path d="M359.1,260.8h18.3l-0.1,1.7h-25.7v-1.2l19.2-22.9h-16.7v5.7h-1.7v-7.4h26.2v0.5L359.1,260.8z"/>
			<path d="M395.9,256.4h0.8v0.9h-7.2v-0.9h0.8c0.9,0,1.7-0.8,1.7-1.7v-10.1c0-0.9-0.8-1.7-1.7-1.7h-0.8V242l4.8-0.5l-0.2,1.7
				c1-1.3,2.7-2.2,4.5-2.2c3.1,0,5.7,2.5,5.7,5.7v9.8c0,0.7-0.6,1.4-1.4,1.4c-0.7,0-1.4-0.6-1.4-1.4V247c0-2-1.7-3.7-3.7-3.7
				s-3.7,1.7-3.7,3.7v7.7C394.2,255.6,394.9,256.4,395.9,256.4z"/>
		</g>
	</g>
</g>
<g>
	<rect x="313.9" y="473.6" class="st0" width="229.3" height="131"/>
	<g>
		<path class="st6" d="M456.4,525.8c-2.4-1.3-7.3-0.5-11,0c5.7-6.6,10.3-13.1,10.1-17.6c15.9-11.6,19.1-0.4,24.3,4.7
			c1.2,1.4,4.6,1.3,8.8,0.1c1.1,0,0.6,2.2,0.2,4.3c-3.4,6.1-8.6,11.7-15.6,18.4c-0.8,1.1-3.9,2.5-5.5,3.2
			c6.2-8.6,11.6-20.6,4.4-22.8l-2.3,1.7c-1.2,1.6-1.1,3.1-2.2,4.7c-4.3,7.6-15.9,16.3-17,23.9c-1.6,0.7-2.7,2.3-4.3,3
			C444,548,452.8,524.7,456.4,525.8z"/>
		<path class="st7" d="M403.7,582.5l-3.4,3.3c4.6-12.7,19.7-34.4,36.4-50.5c8.5-7.4,16.1-10.5,19.7-9.4c-2.4-1.3-7.3-0.5-11,0
			c5.7-6.6,10.3-13.1,10.1-17.6c15.9-11.6,19.1-0.4,24.3,4.7c1.2,1.4,4.6,1.3,8.8,0.1c1.1,0,0.6,2.2,0.2,4.3
			c-3.4,6.1-8.6,11.8-15.6,18.4c-0.8,1.1-3.9,2.5-5.5,3.2c6.2-8.6,11.6-20.6,4.4-22.8l-2.3,1.7c-1.2,1.6-1.1,3.1-2.2,4.7
			c-4.3,7.6-15.9,16.3-17,23.9c-1.6,0.7-2.7,2.3-4.3,3c-2.3-1.4,1.3-7.9-0.4-10.1c-2.8-2.2-15.8,11.6-23.3,20.8
			c-0.1,9.4,11.9,5.9,33-10.3c10.2-6.8-0.4,3.4,1.4,3.9c-22.1,19-34.6,20.4-46.5,23.6C408.7,578.3,405.4,581.5,403.7,582.5
			L403.7,582.5z"/>
		<g>
			<path d="M390.7,541.6h-4h-2.4c-4.7,0-6.7-0.6-8.7-2.3c-2.2-1.8-3.6-4.8-3.6-7.7c0-5.7,4.3-10.4,9.6-10.4c2.1,0,3.6,0.6,5.9,2.3
				v-13.8h6.9l-3.7,1.6L390.7,541.6L390.7,541.6z M381.8,523.1c-3.6,0-6.3,3.4-6.3,8.1c0,2.3,0.8,4.6,2.1,6.2
				c1.6,1.9,3.3,2.6,6.8,2.6h3v-13.6C386.1,524.3,384,523.1,381.8,523.1z"/>
			<path d="M406.7,539.7c-3,2-4,2.4-5.4,2.4c-2.4,0-4.5-2.5-4.5-5.1c0-2.1,0.9-3.7,2.5-4.5c0.9-0.4,2.1-0.8,3.6-1.2l3.3-0.8l0.5-0.1
				v-2.7c0-2.9-1-4.1-3.6-4.1c-1.6,0-2.8,0.4-5,1.8l-0.3,0.2l-0.3-1.1c2.4-2.3,4.4-3.2,6.8-3.2c2.2,0,4,0.9,4.9,2.5
				c0.7,1.3,0.9,2.2,0.9,5v6.4v6.4l-2.8-2.3L406.7,539.7z M399.9,536.5c0,1.7,1.4,3,3.2,3c1,0,1.9-0.4,3.3-1.4l0.3-0.2v-5.7
				C402.1,532.8,399.9,534.2,399.9,536.5z"/>
			<path d="M417.6,536.1l0.1,0.4c1.2,2.9,3.5,4.2,6.1,4.2c2.1,0,4-1.5,4-3.2s-0.9-2.5-4.3-4.3c-3.3-1.7-3.8-2-4.9-3.3
				c-0.7-0.9-1.1-2-1.1-3.2c0-3.2,2.4-5.4,5.7-5.4c1.5,0,2.7,0.3,4.5,1.2l0.2-1.2h1v6.9c-1.7-4.8-3.2-5.6-5.4-5.6
				c-1.9,0-3.4,1.3-3.4,3s1,2.7,5,4.8c3.1,1.6,4.1,2.4,4.9,3.8c0.3,0.6,0.5,1.4,0.5,2.3c0,3.2-2.7,5.5-6.4,5.5c-1.7,0-3-0.4-5.2-1.5
				l-1.5,1.4v-5.8L417.6,536.1L417.6,536.1z"/>
			<path d="M449.9,541.6v-13.4c0-3.5-1.5-5.1-4.7-5.1c-1.7,0-3.1,0.7-5.3,2.4v16.1h-6.8l3.7-1.6v-28.6l-3.7-1.6h6.8v14.3
				c3-2,5-2.9,7.2-2.9c3.8,0,6,2.4,6,6.6v12.1l3.7,1.6h-6.9L449.9,541.6L449.9,541.6z"/>
		</g>
	</g>
</g>
<g>
	<rect x="70.3" y="617" class="st8" width="229.3" height="131"/>
	<g>
		<g>
			<path d="M243.2,652.1c0.4,0.4,0.5,1.1,0.4,1.5c-0.4,2-0.2,3.8-0.2,5.8c0,1.8,0.2,3.8,0,5.6c0,1.8,0.2,3.8,0.2,5.6
				c-0.2,4-0.2,8.2,0.9,12.2c0.7,2.4,1.6,4.9,0.9,7.5c-0.4,1.1-1.5,2-2.4,2.4c-1.5,0.5-3.1-0.9-4.7-0.7c-0.5,0-1.3,0-1.8,0
				c-2.2-0.4-4.4-0.5-6.6-0.5c-0.7,0-1.5-0.2-2.2-0.2c-0.7,0.2-1.5-0.2-2.2-0.2c-1.5,0.2-3.1,0-4.6,0.2c-1.1,0-2,0-3.1,0
				c-0.9,0.2-1.8,0.2-2.7,0.2c-1.1,0-2.2,0.2-3.3,0.4c-0.7,0-1.5-0.4-2-0.7c-0.7-0.4-1.1-1.6-0.9-2.5c0.4-0.5,0.7-1.3,0.7-1.6
				c0.5-5.8,1.6-11.1,2.4-16.9c0.4-2.5,0.7-5.1,1.3-7.8c1.1-3.8,0.5-7.6,1.3-11.5c0.2-0.4,0.7-0.9,1.1-0.7c1.1,0,2.5,0.4,3.5,0.5
				c3.8,0.2,7.6,0.2,11.5,0.4c1.5,0,2.7,0.4,4.2,0.2c0.5,0,1.1,0.5,1.6,0c0.9,0.7,2,0.4,2.9,0.4
				C240.4,651.2,242.3,651.2,243.2,652.1z"/>
			<path d="M207.5,651c0,0.3,0.2,0.5,0.2,0.7c-3.8,10.7-5.8,21.5-7.1,32.8c-0.2,0.5,0,1.5,0.4,1.6c1.1,0.9,2.4,1.3,2.7,2.5
				c0.4,1.1-0.2,2-1.3,2.2c-3.3,0.5-6.4-0.7-9.5-0.5h-0.5c-2.5-0.2-5.1,0.2-7.6-0.2c-2.9-0.4-5.8,1.1-8.7,0.4
				c-0.5,0-1.1-0.5-1.3-1.3c-0.2-1.3,0-2.4-0.2-3.6c-1.3-5.6-1.6-10.7-2.7-16.4c-1.1-5.8-1.6-11.3-2.9-17.1
				c-0.2-0.4-0.5-0.9-0.5-1.3c-0.2-0.9,0-1.8,1.1-2.2c0.5-0.2,1.1-0.2,1.6,0c3.3,1.3,6.7,0.4,10.2,0.5c0.5,0,1.3,0,1.6,0
				c5.5-0.2,11.1-0.5,16.6-0.2c1.1,0,2.4,0.4,3.5,0.4c0.7,0,1.6-0.4,2.5-0.2C206.4,649.6,207.3,649.9,207.5,651z"/>
			<path d="M162,650.3c-0.8,1.2-0.2,2.5,0,3.8c0.4,1.6,0.2,3.3,0.5,4.9c0.4,0.7,0.7,1.3,1.1,2c0.2,0.5-0.4,1.3-0.2,1.8
				c0.5,3.6,1.3,7.1,2.2,10.7c1.1,4.2,2.9,8,3.6,12.4c0,0.2-0.5,0.4-0.5,0.5c-0.2,1.1-0.7,2.4-1.8,2.5c-1.3,0.2-2.4-0.7-3.5-0.9
				c-1.5-0.4-3.1-0.5-4.5-0.4c-0.2,0-0.5-0.2-0.7,0.2c-1.1-0.5-2.4-0.2-3.5-0.2c-3.1,0.4-6.4,0.5-9.5,0.4
				c-5.6-0.2-11.1-0.9-16.7-0.5c-0.7,0-1.6,0.2-2.4,0.2c-0.9-0.2-1.8-0.5-1.6-1.5c0.2-4.4,0.9-8.7,1.3-13.3c0-1.6,0.2-3.1,0.4-4.7
				c0.7-4.5,0.9-9.1,0.9-13.7c0.2-1.1-0.4-2.2-0.2-3.3c0-2.5,3.1-1.5,4.7-1.6c8.6-0.5,16.9,0,25.7-1.1c1.5-0.2,2.9-0.9,4.2,0
				C161.8,649,162.4,649.8,162,650.3z"/>
			<path class="st9" d="M240.1,666.1c0,5.6,0.4,11.1,0.9,16.7c0,0.2-0.2,0.4-0.4,0.2c-4.6-5.6-8.2-10.9-12-16.9
				c-0.7-0.9-1.1-1.8-1.8-2.7c-0.9-1.6-2-3.1-3.1-4.7c-1.1-1.8-2.5-3.3-3.1-5.1c1.1-0.4,2.4,0,3.5-0.2s2,0.4,2.9,0.2
				c4.2,0,8.4,0.4,12.6,1.3c0.5,0.2,0.4,0.9,0.4,1.3C240.1,659.4,240.1,662.9,240.1,666.1z"/>
			<path class="st10" d="M233.5,679.8c2.2,3.1,4.5,5.3,6.2,8.6c0.2,0.4-0.4,0.9-0.5,0.7c-8.2-0.2-16.4-0.5-24.6-0.7
				c-0.4,0-1.3,0.4-1.3-0.4c-0.2-10.7,2.9-21.1,4.2-31.7C223.3,663.8,227.7,671.8,233.5,679.8z"/>
			<path class="st10" d="M198.2,680.3c-0.2,1.8-0.9,3.5-1.8,4.9c-0.4,0.7,0.2,1.5,0.4,2.2c-0.7,0.2-1.3,0.4-2,0.4
				c-5.3-0.4-10.4,0.5-15.7-0.7c-0.7-0.4-1.6-0.9-1.8-1.6c-1.1-6.4-2-12.2-3.1-18.6c-0.5-3.1-0.7-6-1.5-8.9
				c-0.5-1.6-0.9-3.5-0.5-4.9c0.5-1.1,2.2-0.4,3.6-0.5c0.4-0.2,0.7-0.4,0.9-0.4c1.3,0.5,2.5-0.4,3.8,0.2c0.5,3.8,0.5,7.5,0.2,11.3
				c-0.2,1.1,0.9,2.4,2,2.4c2.9,0,5.6-1.1,8.6-0.5c1.6,0.4,4.5,2.5,4.7,0c0.5-3.6-0.7-7.3-0.5-10.9c0-1.1-0.4-2.5,0.4-2.9
				c1.8-0.9,4.2,0,6.4,0.5c0.5,0,1.5,0.5,1.5,0.9C202.2,662.3,199.5,671.1,198.2,680.3"/>
			<path class="st9" d="M192.2,658.1c0.3,1.1,0.2,2.2,0,3.1c-0.2,0.4-0.7,0.5-1.1,0.5c-2,0.4-4,0.5-6,0.5c-0.4-0.2-0.5-0.5-0.7-0.9
				c0-1.5,0.2-2.7,0-4.2c0-0.4,0-1.1,0-1.5c0-1.3-0.2-2.5,0.2-3.8c2.4-0.2,4.9-0.4,7.3-0.4c0.2,1.5,0,2.7,0.2,4.2
				C192,656.5,192,657.4,192.2,658.1z"/>
			<path class="st9" d="M163.4,676.5c0.6,2.5,1.6,4.9,1.6,7.5c0,0.4-0.4,0.7-0.7,0.9c-6.4,1.1-12.6,1.1-18.9,0.9
				c-5.5-0.2-11.1,0.4-16.6-1.5c-0.2,0-0.7-0.2-0.9-0.5c-0.4-0.5-0.4-0.9-0.4-1.5c0.2-2.9,0.5-5.8,0.7-8.7c2.4-1.5,4.7-2.4,7.3-3.5
				c0.4,0,0.9,0,1.3-0.2c1.5-0.5,2.9-1.1,4.4-1.8c0.4,0,0.9-0.4,1.3-0.4c5.8-1.8,11.1-4,17.1-4.7c0.2,0,0.7,0.2,0.9,0.5
				C161.4,668,162.4,672.2,163.4,676.5z"/>
			<path class="st10" d="M159.4,657.4c0.3,1.1-0.2,2.2-1.1,2.4c-10,3.3-19.7,6.2-29.3,9.6c0.2-5.3,0.4-10.6,1.3-16
				c0-0.4,0.5-0.5,0.9-0.7c1.3-0.5,2.7-0.5,4.2-0.7c7.5-1.1,14.7-1.1,22.2-0.5c0.2,0,1.1,0.7,1.1,1.5
				C158.7,654.5,159.1,656,159.4,657.4z"/>
		</g>
		<g>
			<path d="M147.8,702.2v2.7H146v9.9h-4v-9.9h-1.8v-2.7h1.8v-0.6c0-3.7,2.3-5.7,5.5-5.7c0.8,0,1.8,0.2,2.4,0.2v3.2
				c-1-0.1-1.3-0.2-1.8-0.2c-1.2,0-2.2,0.5-2.2,2.2v0.8L147.8,702.2L147.8,702.2z"/>
			<path d="M158.4,713c-1.3,1.4-2.5,2-4.1,2c-2.5,0-4.6-1.5-4.6-4.8v-8.1h4v7.8c0,1.8,1,2.4,2,2.4c1.2,0,2.3-0.9,2.7-2.2v-8h4v12.6
				h-4L158.4,713L158.4,713z"/>
			<path d="M169.6,704c1.3-1.4,2.5-2,4.1-2c2,0,4.6,1.1,4.6,4.8v8h-4v-7.7c0-1.8-0.8-2.5-2-2.5c-1,0-1.7,0.5-2.8,2.1v8.1h-4v-12.6h4
				L169.6,704L169.6,704z"/>
			<path d="M187.8,702.2v2.7H186v9.9h-4v-9.9h-1.8v-2.7h1.8v-0.6c0-3.7,2.3-5.7,5.5-5.7c0.8,0,1.8,0.2,2.4,0.2v3.2
				c-1-0.1-1.3-0.2-1.8-0.2c-1.2,0-2.2,0.5-2.2,2.2v0.8L187.8,702.2L187.8,702.2z"/>
			<path d="M206.3,714.8h-2.7l-2.5-5.5h-7.9l-2.3,5.5h-2.7l8-18.7h1.9L206.3,714.8z M194.2,706.9h5.8l-3-6.7L194.2,706.9z"/>
			<path d="M211.1,714.8h-2.7v-18.6h2.7V714.8z"/>
			<path d="M219.9,696.1c3.8,0,6.1,2,6.1,5.2c0,2.2-1.1,3.8-3.1,4.6c1.7,1.1,2.7,2.8,4.1,5.2c0.8,1.3,1.3,1.9,2.5,3.7h-3.2l-2.5-3.8
				c-2.5-3.8-3.6-4.3-4.9-4.3h-1.1v8.1h-2.7v-18.6h4.8L219.9,696.1L219.9,696.1z M217.9,704.3h1.7c2.9,0,3.7-1.5,3.7-3
				c0-1.7-1.1-2.8-3.7-2.8h-1.7V704.3z"/>
		</g>
	</g>
</g>
<g>
	<rect x="70.3" y="473.6" class="st11" width="229.3" height="131"/>
	<g>
		<path class="st12" d="M244.5,523.7c-1,0.6-2,0.9-3,0.9c-0.7,0-1.3-0.1-1.9-0.4c-0.1-0.1-1-0.7-2.9-1.8c-1.2-0.7-1.9-1.6-2-2.7
			c0-1,0.6-2,1.8-3c0.9-0.8,1.8-1.6,2.7-2.4c1,0.1,2,0.3,3.1,0.4c1,0.2,1.8,0.6,2.3,1.3c0.7,1.5,1,3,1,4.4
			C245.5,521.7,245.2,522.8,244.5,523.7z"/>
		<path class="st12" d="M174.7,550.7c-1,0.8-2.6,1.1-4.6,1c-2.5-0.2-4.1-0.2-4.9,0c-4.2,0.9-8.5,1.2-13.1,1.1
			c-0.5,0.6-0.7,1.5-0.7,2.7c0,0.1,0,0.3,0,0.6c0,0.2,0,0.4,0,0.6c0,1-0.2,1.8-0.5,2.3c-0.3,0.1-0.6,0.1-0.8,0.1
			c-0.6,0-1.3-0.2-2.1-0.7c-0.7-0.4-1.3-0.8-2-1.2c-0.4-0.2-0.6-0.4-0.6-0.7c0-0.1,0-0.3,0.1-0.5s0.1-0.4,0.1-0.5
			c0-0.2-0.1-0.4-0.2-0.6c-0.1-0.9-0.5-2.8-1.1-5.8c-0.5-2.4-0.8-4.4-0.8-5.9c-0.1-0.8-0.6-2-1.7-3.5c-1.1-1.5-1.6-2.7-1.6-3.6
			c0-0.7,0.2-1.4,0.7-2.1c0.7-0.8,1.4-1.7,2.1-2.5c0.9-1,1.8-1.6,2.7-1.8c1.5,0.6,4.2,1,8.1,1.2c3.9,0.2,6.6,0.6,8.2,1.2
			c2.6,1.1,4.1,3.2,4.6,6.2c0,1.3-0.6,2.6-1.8,3.9c-1.1,1-2.2,2.1-3.2,3.1c0.7,0.4,1.6,0.6,2.7,0.6c0.6,0,1.5-0.1,2.8-0.3
			c1.2-0.2,2.1-0.3,2.7-0.3c2.4,0,3.8,1.3,4.3,3.9C174.6,549.3,174.8,549.9,174.7,550.7z M156.9,538.4c-0.9-0.2-1.8-0.4-2.7-0.4
			c-1.3,0-2.7,0.3-4.1,0.8c-0.3,0.3-0.5,0.7-0.5,1.1c0,0.2,0.1,0.5,0.2,1c0.1,0.5,0.2,0.8,0.2,1.1
			C151.9,541.9,154.2,540.7,156.9,538.4z"/>
		<path class="st12" d="M207.7,547.4c0,1.7-0.2,4.1-0.8,7.4c-0.6,3.4-0.9-0.3-0.9,1.2c0,1.4,0.2,2.6,0.5,3.8
			c0.1,0.4,0.2,0.8,0.2,1.3c0,0.3-0.1,1.3-0.4,3.1c-0.1,0.5-0.1,1.1-0.1,1.8c-0.8,0.3-1.6,0.4-2.4,0.4c-1,0-2.1-0.2-3.1-0.7
			l-0.9-1.4l0.4-6.8c0.3-0.4,0.4-0.8,0.4-1.4c0-1,0-1.5,0-1.4c0-0.1,0-0.3,0-0.4l-0.3,0.3c-1.9,1.6-3.6,2.5-5,2.5
			c-0.5,0-0.9-0.1-1.4-0.2c-2.5-0.4-4.2-2.6-5.1-6.8c0.1-0.2,0.1-0.4,0.1-0.7c0-0.5-0.2-1.3-0.6-2.2c-0.4-1-0.6-1.7-0.6-2.3
			c0-0.7,0.2-1.3,0.7-1.9c0.2-0.4,0.6-0.7,1.2-1c0.7-0.3,1.2-0.6,1.4-0.7c2.3,0.1,4,1.3,5,3.7c0.1,0.2,0.1,0.5,0.1,0.7
			c0,0.4-0.1,0.8-0.3,1.4c-0.2,0.6-0.3,1.1-0.2,1.4c1.3-0.7,2.8-1.8,4.5-3.5c0.1-0.1,0.8-0.8,1.9-2.2c0.7-0.9,1.6-1.3,2.5-1.3
			l0.7,0.6l0,0c0.7,0,1.2,0.3,1.5,0.7c0.3,0.6,0.5,1.2,0.8,1.9s0.5,1.4,0.5,1.9C207.8,547,207.8,547.2,207.7,547.4z"/>
		<path class="st12" d="M228.1,533.7c-0.1,0.7-0.6,1.4-1.5,2.1c-1.1,0.2-2.6,0.6-4.5,1.1c-2,0.6-3.5,0.9-4.4,1.1
			c-0.1,0-0.2-0.1-0.4-0.1s-0.4,0-0.7,0.1c-0.4,0.1-0.6,0.2-0.7,0.3c-0.2,0.7-0.3,1.6-0.4,2.5c0,0.7-0.1,1.6,0,2.6
			c0.1,1.4,0.1,2.2,0.1,2.5c0,2.3,0.2,31.3,0.5,32.1c0.5-0.3,0.8-0.4,1-0.1c0.1,0.1,0.1,0.3,0.1,0.4c0,0.1,0,0.4-0.1,0.6
			c-0.1,0.3-0.1,0.5-0.1,0.6c0,0.2,0.1,0.5,0.2,0.6c0,0,0.1,0,0.3-0.1c0.1-0.1,0.3-0.1,0.4-0.1c0.1,0.2,0.2,0.4,0.2,0.7
			c0,0.2-0.1,0.6-0.3,1.1s-0.2,0.9-0.2,1.2c-0.2,0.2-0.4,0.5-0.8,0.7c-0.3,0.2-0.6,0.4-0.9,0.6c-0.2-0.2-0.6-0.4-1.1-0.6
			c-0.6-0.2-1-0.4-1.2-0.5c-0.6,0.1-1.2-0.2-1.9-0.8c-0.9-1.2-1.4-30.1-1.4-31.9c0-0.3,0-0.7,0-1c-0.1-0.2-0.2-0.4-0.2-0.7
			c0-0.1,0-0.2,0-0.4s0-0.3,0-0.4c0-0.3-0.1-0.5-0.2-0.6c0-0.7-0.1-2-0.3-3.8c-0.1-1.6-0.2-3-0.2-3.9c-0.3-0.5-0.9-0.7-1.5-0.7
			c-0.2,0-0.5,0-1,0.1c-0.4,0.1-0.8,0.1-1,0.1c-0.4-0.1-1.1,0-1.9,0.2c-1,0.2-1.6,0.3-2,0.3c-1,0-1.6-0.5-2-1.5
			c-0.3-0.2-0.6-0.5-0.8-0.9c-0.3-0.6-0.5-0.9-0.6-1c0-0.3,0.2-0.8,0.5-1.4c0.3-0.3,0.7-0.5,1.4-0.7s1.2-0.4,1.4-0.7
			c1.6-0.4,3.5-0.7,5.7-0.8c0.5,0,0.8-0.4,1.1-1.1c-0.3-0.9-0.3-13.4,0.1-14.1c0.5-0.6,0.8-0.9,0.8-1c0.3-0.3,0.7-0.5,1.1-0.4
			c0.1-0.1,0.3-0.1,0.4-0.1c0.3,0,0.8,0.2,1.3,0.6c0.5,0.4,0.9,0.6,1.3,0.6c0.3,0.2,0.6,0.7,0.7,1.4c0.1,0.3,0.3,0.5,0.5,0.7
			s0.4,12.1,0.7,12.1c0.9-0.2,2-0.5,3.3-0.9c1.1-0.4,2.1-0.7,3.2-1.1c0.2,0.1,0.7,0.2,1.6,0.3c0.7,0.1,1.3,0.2,1.6,0.5
			c0.5,0.5,0.9,1,1.4,1.5c0.5,0.6,0.8,1.2,0.8,1.7C228.2,533.3,228.1,533.5,228.1,533.7z"/>
		<path class="st12" d="M239.4,530.8c0.1,0.3,0.1,0.7,0.1,1c0,0.9-0.3,2.1-1,3.7c-0.7,1.6-1,2.9-1,3.7c0,0.2,0,0.5,0,0.8
			c0,0.4,0.1,1,0.2,1.8c0.2,0.8,0.2,1.3,0.2,1.7c0,0.6-0.1,1.1-0.4,1.5c0,0.2,0,0.5,0,0.8c0,0.6,0.2,1.6,0.5,2.8s0.5,2.1,0.5,2.8
			c0,0.3,0,0.6,0,0.8c-0.5,0.3-1,0.4-1.5,0.4c-0.7,0-1.7-0.3-2.8-0.9c-0.3-0.8-0.7-1.5-1-2.3c-0.4-0.9-0.6-1.7-0.7-2.4l-0.6-0.5
			l-5.7,0.9c-0.3,0.3-0.4,0.7-0.4,1c0,0.2,0,0.4,0.1,0.5l1-0.4c0,0.5,0.1,0.8,0.3,0.8c0.1,0,0.3-0.1,0.5-0.3s0.4-0.3,0.5-0.3
			s0.2,0,0.3,0.1c-0.1,2.3-0.5,4.8-1.4,7.6c-0.3,0.3-0.6,0.4-0.9,0.4c-0.2,0-0.7-0.1-1.3-0.4c-0.6-0.3-1.1-0.4-1.5-0.4
			c-0.9-0.8-1.6-2-2-3.5c0-0.2-0.3-1.7-0.7-4.3c-0.3-1.7-0.7-3-1.3-3.9c0-0.2-0.1-0.5-0.1-0.7c0-0.7,0.2-1.6,0.7-2.8
			c0.5-1.1,0.7-2,0.7-2.7c0-0.4-0.1-0.8-0.2-1.3c0.3-0.8,0.4-1.9,0.4-3.4c0-1.6,0.1-2.7,0.3-3.4c0.3-1.2,0.9-2.1,1.8-2.7
			c1.1-0.1,2.1,0.2,3,1.1c0.7,0.9,1.4,1.8,2.1,2.7c0.1,0.3,0.1,0.6,0.1,0.9c0,0.7-0.4,1.5-1.1,2.6c-0.7,1.1-1.1,2-1.1,2.7
			c0,0.2,0,0.5,0.1,0.7c0,0.8,0,1.3,0.1,1.4c1-0.3,1.8-1.3,2.3-3c2.5-2.3,4.3-5,5.5-8c0.6-0.7,1.2-1,1.8-1c0.2,0,0.3,0,0.5,0.1
			c0.1,0.1,0.1,0.2,0.1,0.5c0,0.2,0.1,0.4,0.3,0.5c0.2-0.1,0.3-0.1,0.5-0.1c0.4,0,0.8,0.3,1.1,1
			C238.8,530.2,239.1,530.7,239.4,530.8z M231.4,538.4c-2.1,0.1-3.7,0.8-4.8,2.2l3.3-0.6c0.1-0.1,0.4-0.3,0.9-0.5
			c0.4-0.2,0.6-0.4,0.6-0.7C231.5,538.7,231.5,538.6,231.4,538.4z"/>
		<path class="st12" d="M270.8,553.1c0.1,0.2,0.1,0.4,0.1,0.6c0,0.5-0.4,1.1-1.1,1.7c-0.4,0.1-0.7,0.1-1.1,0.1
			c-0.7,0-1.4-0.1-2.3-0.4c-0.7-0.2-1.4-0.5-2.1-0.8c-0.9-1.7-1.8-3.4-2.7-5.2c-1-2.1-1.8-3.8-2.3-5.3c-1,0.9-1.6,2.2-1.8,3.9
			c-0.1,1.5-0.2,3-0.3,4.4c-0.8,0.4-1.6,0.7-2.5,0.7c-1.5,0-3.4-0.8-5.7-2.3c-0.5-0.9-1-1.8-1.4-2.8c-0.6-1.1-1.1-1.9-1.7-2.5
			c-0.3,0.6-0.6,1.5-0.9,2.8c-0.3,1.4-0.6,2.3-0.7,2.7c-0.2,0.4-0.3,1.1-0.4,2c-0.1,1-0.3,1.7-0.4,2.1c-0.3,0.7-0.9,1.1-1.6,1.3
			c-2.1-0.1-3.6-0.6-4.5-1.4c-0.9-0.9-1.3-2-1.3-3.2c0-0.9,0.2-2.1,0.7-3.6c0.5-1.7,0.9-2.9,1-3.6c0.7-2.4,1.4-4.8,2.1-7.2
			c0.8-2.8,1.4-5.2,1.7-7.3c0.8-0.9,2.1-1.3,3.7-1.3c0.4,0,0.8,0,1.3,0c1.1,0.4,1.8,0.7,2.2,1c0.8,0.4,1.4,1,1.8,1.7
			c0,0.2,0,0.5,0.1,0.9s0.1,0.7,0.1,0.9c0,0.6-0.2,1.2-0.5,1.6c0,1,0,2,0,3c0.1,1.1,0.4,2,0.9,2.6c0.6-0.5,1.1-1.3,1.5-2.4
			c0.5-1.4,0.8-2.3,1.1-2.7c0.6-1.4,1.3-3.6,2.2-6.4c0.8-1.3,2-2,3.4-2c0.3,0,0.6,0,0.9,0.1c0.2,0.1,0.9,0.5,2.1,1.1
			c0.9,0.4,1.5,1,1.8,1.6c0.1,0.7,0.2,1.6,0.2,2.6c0,0.4,0,1.1-0.1,2c0,0.9-0.1,1.5-0.1,2c0,1.4,0.1,2.5,0.4,3.4
			C265.8,543.3,267.8,547.9,270.8,553.1z"/>
		<g>
			<path class="st12" d="M131.9,556.4c-0.1,0.3-0.3,0.4-0.6,0.5c-0.3,0-0.5,0.2-0.5,0.5c-0.4,0.1-0.8,0.1-1.2,0.1
				c-1.2,0-2.3-0.5-3.4-1.4c-0.6-0.5-1.5-1.5-2.7-2.9c-1.1-1.3-2.1-2.3-2.8-2.8c-0.3,0.6-0.4,1.5-0.4,2.7l0,0c0,0.6,0,1.1,0,1.4
				c0.1,0.1,0.2,0.2,0.2,0.4c0,0.1-0.1,0.3-0.2,0.6c-0.2,0.2-0.2,0.4-0.3,0.5c-0.5,0.6-1.1,1-1.9,1c-0.3,0-0.5,0-0.8-0.1
				c-0.9-0.2-1.9-0.9-3-2c-0.1-0.7-0.2-1.4-0.2-2.2c0-1.6,0.4-4,1.2-7.4c-0.4-0.6-0.6-1.2-0.6-2c0-1.2,0.4-2.3,1.1-3.3
				c0.3-0.3,0.6-0.4,1-0.4c0.2,0,0.5,0,0.9,0.1s0.7,0.1,0.9,0.1c0.7,0.7,1.4,1.4,2.2,2c0.8,0.9,1.3,1.7,1.4,2.5
				c0.3,0.6,0.8,1.2,1.5,2c0.6,0.6,1.1,1.2,1.7,1.8c0-1.5-0.3-3.4-0.8-5.8c-0.7-3.1-1.1-5-1.2-5.7c0.3-0.2,0.7-0.9,1.1-2
				c0.3-0.9,0.8-1.4,1.3-1.4c0.3,0,0.7,0.1,1.1,0.4c0.3,0.5,0.5,0.8,0.6,0.9c0.3,0.3,0.5,0.6,0.9,0.6c0.3,0.4,0.5,1,0.4,1.8
				c-0.1,1-0.1,1.6,0.1,1.9c1.4,4.2,2.3,9.6,2.8,16.4c0.3,0.4,0.4,0.7,0.4,0.8C132,556.2,132,556.3,131.9,556.4z"/>
		</g>
		<path class="st12" d="M139.9,543.5c0.4,0.7,0.6,1.4,0.6,2.1c0,0.5-0.1,0.9-0.3,1.3c-0.1,0.1-0.5,0.7-1.3,2
			c-0.5,0.8-1.1,1.3-1.9,1.4c-0.7,0-1.4-0.4-2.1-1.2c-0.6-0.6-1.1-1.2-1.7-1.9c0.1-0.7,0.2-1.4,0.3-2.1c0.1-0.7,0.4-1.3,0.9-1.6
			c1.1-0.5,2.1-0.7,3.1-0.7S139.3,543,139.9,543.5z"/>
		<path class="st12" d="M186,545.7c-0.5-1.1-0.7-2-0.7-2.7c0-0.4,0.1-0.8,0.2-1.3c-0.3-0.8-0.4-1.9-0.4-3.4c0-1.6-0.1-2.7-0.3-3.4
			c-0.3-1.2-0.9-2.1-1.8-2.7c-1.1-0.1-2.1,0.2-3,1.1c-0.7,0.9-1.4,1.8-2.1,2.7c-0.1,0.3-0.1,0.6-0.1,0.9c0,0.7,0.4,1.5,1.1,2.6
			c0.7,1.1,1.1,2,1.1,2.7c0,0.2,0,0.5-0.1,0.7c0,0.8-0.1,1.4-0.1,1.4l-0.4,1l-3.4-0.6c-0.1-0.1-0.4-0.3-0.9-0.5
			c-0.4-0.2-0.6-0.4-0.6-0.7c0-0.1,0-0.2,0.1-0.4c0.2-1.1-2-8.1-2.7-9.8c-0.6-0.7-1.2-1-1.8-1c-0.2,0-0.3,0-0.5,0.1
			c-0.1,0.1-0.1,0.2-0.1,0.5c0,0.2-0.1,0.4-0.3,0.5c-0.2-0.1-0.3-0.1-0.5-0.1c-0.4,0-0.8,0.3-1.1,1c-0.4,0.7-0.7,1.2-1,1.3
			c-0.1,0.3-0.1,0.7-0.1,1c0,0.9,0.3,2.1,1,3.7c0.7,1.6,1,2.9,1,3.7c0,0.2,0,0.5,0,0.8c0,0.4-0.1,1-0.2,1.8
			c-0.2,0.8-0.2,1.3-0.2,1.7c0,0.6,0.1,1.1,0.4,1.5c0,0.2,0,0.5,0,0.8c0,0.6-0.2,1.6-0.5,2.8s-0.5,2.1-0.5,2.8c0,0.3,0,0.6,0,0.8
			c0.5,0.3,1,0.4,1.5,0.4c0.7,0,1.7-0.3,2.8-0.9c0.3-0.8,0.7-1.5,1-2.3c0.4-0.9,0.6-1.7,0.7-2.4l0.6-0.5l5.7,0.9
			c0.3,0.3,0.4,0.7,0.4,1c0,0.2,0,0.4-0.1,0.5l-1-0.4c0,0.5-0.1,0.8-0.3,0.9c-0.1,0-0.3-0.1-0.5-0.3s-0.4-0.3-0.5-0.3
			s-0.2,0-0.3,0.1c0.1,2.3,0.5,4.8,1.4,7.6c0.3,0.3,0.6,0.4,0.9,0.4c0.2,0,0.7-0.1,1.3-0.4c0.6-0.3,1.1-0.4,1.5-0.4
			c0.9-0.8,1.6-2,2-3.5c0-0.2,0.3-1.7,0.7-4.3c0.3-1.7,0.7-3,1.3-3.9c0-0.2,0.1-0.5,0.1-0.7C186.7,547.7,186.4,546.8,186,545.7z"/>
		<path class="st12" d="M110.7,539.1c-0.6,0.4-1.3,0.6-2,0.6c-0.5,0-0.9-0.1-1.2-0.3c-0.1-0.1-0.7-0.5-1.9-1.2
			c-0.8-0.5-1.2-1.1-1.4-1.8c0-0.7,0.4-1.3,1.2-2c0.6-0.5,1.2-1.1,1.8-1.6c0.7,0.1,1.3,0.2,2,0.3s1.2,0.4,1.5,0.9
			c0.5,1,0.7,2,0.7,2.9C111.4,537.8,111.2,538.5,110.7,539.1z M113.1,562c-0.3,0.4-0.8,0.6-1.4,0.6c-0.4,0-1-0.1-1.8-0.3
			c-1.4-0.4-2.3-1.2-2.8-2.7c-0.2-0.6-0.5-1.9-0.7-3.9c-0.4-3-0.6-6.8-0.5-11.3c0.2-0.8,0.7-1.5,1.4-2.1c0.7-0.6,1.4-0.9,2.2-0.9
			c0.8,0,1.5,0.3,2,1c0.7,1.7,1,3,1,3.9c0,0.8-0.2,1.5-0.5,2c-0.1,0.9-0.1,1.7-0.1,2.5c0,2.3,0.3,4.5,1,6.6c0.5,0.3,0.7,0.8,0.7,1.5
			c0,0.3-0.1,0.7-0.2,1.4C113.1,561.2,113.1,561.7,113.1,562z"/>
	</g>
	<g>
		<path class="st13" d="M244.5,523.7c-1,0.6-2,0.9-3,0.9c-0.7,0-1.3-0.1-1.9-0.4c-0.1-0.1-1-0.7-2.9-1.8c-1.2-0.7-1.9-1.6-2-2.7
			c0-1,0.6-2,1.8-3c0.9-0.8,1.8-1.6,2.7-2.4c1,0.1,2,0.3,3.1,0.4c1,0.2,1.8,0.6,2.3,1.3c0.7,1.5,1,3,1,4.4
			C245.5,521.7,245.2,522.8,244.5,523.7z"/>
		<path class="st13" d="M174.7,550.7c-1,0.8-2.6,1.1-4.6,1c-2.5-0.2-4.1-0.2-4.9,0c-4.2,0.9-8.5,1.2-13.1,1.1
			c-0.5,0.6-0.7,1.5-0.7,2.7c0,0.1,0,0.3,0,0.6c0,0.2,0,0.4,0,0.6c0,1-0.2,1.8-0.5,2.3c-0.3,0.1-0.6,0.1-0.8,0.1
			c-0.6,0-1.3-0.2-2.1-0.7c-0.7-0.4-1.3-0.8-2-1.2c-0.4-0.2-0.6-0.4-0.6-0.7c0-0.1,0-0.3,0.1-0.5s0.1-0.4,0.1-0.5
			c0-0.2-0.1-0.4-0.2-0.6c-0.1-0.9-0.5-2.8-1.1-5.8c-0.5-2.4-0.8-4.4-0.8-5.9c-0.1-0.8-0.6-2-1.7-3.5c-1.1-1.5-1.6-2.7-1.6-3.6
			c0-0.7,0.2-1.4,0.7-2.1c0.7-0.8,1.4-1.7,2.1-2.5c0.9-1,1.8-1.6,2.7-1.8c1.5,0.6,4.2,1,8.1,1.2c3.9,0.2,6.6,0.6,8.2,1.2
			c2.6,1.1,4.1,3.2,4.6,6.2c0,1.3-0.6,2.6-1.8,3.9c-1.1,1-2.2,2.1-3.2,3.1c0.7,0.4,1.6,0.6,2.7,0.6c0.6,0,1.5-0.1,2.8-0.3
			c1.2-0.2,2.1-0.3,2.7-0.3c2.4,0,3.8,1.3,4.3,3.9C174.6,549.3,174.8,549.9,174.7,550.7z M156.9,538.4c-0.9-0.2-1.8-0.4-2.7-0.4
			c-1.3,0-2.7,0.3-4.1,0.8c-0.3,0.3-0.5,0.7-0.5,1.1c0,0.2,0.1,0.5,0.2,1c0.1,0.5,0.2,0.8,0.2,1.1
			C151.9,541.9,154.2,540.7,156.9,538.4z"/>
		<path class="st13" d="M207.7,547.4c0,1.7-0.2,4.1-0.8,7.4c-0.6,3.4-0.9-0.3-0.9,1.2c0,1.4,0.2,2.6,0.5,3.8
			c0.1,0.4,0.2,0.8,0.2,1.3c0,0.3-0.1,1.3-0.4,3.1c-0.1,0.5-0.1,1.1-0.1,1.8c-0.8,0.3-1.6,0.4-2.4,0.4c-1,0-2.1-0.2-3.1-0.7
			l-0.9-1.4l0.4-6.8c0.3-0.4,0.4-0.8,0.4-1.4c0-1,0-1.5,0-1.4c0-0.1,0-0.3,0-0.4l-0.3,0.3c-1.9,1.6-3.6,2.5-5,2.5
			c-0.5,0-0.9-0.1-1.4-0.2c-2.5-0.4-4.2-2.6-5.1-6.8c0.1-0.2,0.1-0.4,0.1-0.7c0-0.5-0.2-1.3-0.6-2.2c-0.4-1-0.6-1.7-0.6-2.3
			c0-0.7,0.2-1.3,0.7-1.9c0.2-0.4,0.6-0.7,1.2-1c0.7-0.3,1.2-0.6,1.4-0.7c2.3,0.1,4,1.3,5,3.7c0.1,0.2,0.1,0.5,0.1,0.7
			c0,0.4-0.1,0.8-0.3,1.4c-0.2,0.6-0.3,1.1-0.2,1.4c1.3-0.7,2.8-1.8,4.5-3.5c0.1-0.1,0.8-0.8,1.9-2.2c0.7-0.9,1.6-1.3,2.5-1.3
			l0.7,0.6l0,0c0.7,0,1.2,0.3,1.5,0.7c0.3,0.6,0.5,1.2,0.8,1.9s0.5,1.4,0.5,1.9C207.8,547,207.8,547.2,207.7,547.4z"/>
		<path class="st13" d="M239.4,530.8c0.1,0.3,0.1,0.7,0.1,1c0,0.9-0.3,2.1-1,3.7c-0.7,1.6-1,2.9-1,3.7c0,0.2,0,0.5,0,0.8
			c0,0.4,0.1,1,0.2,1.8c0.2,0.8,0.2,1.3,0.2,1.7c0,0.6-0.1,1.1-0.4,1.5c0,0.2,0,0.5,0,0.8c0,0.6,0.2,1.6,0.5,2.8s0.5,2.1,0.5,2.8
			c0,0.3,0,0.6,0,0.8c-0.5,0.3-1,0.4-1.5,0.4c-0.7,0-1.7-0.3-2.8-0.9c-0.3-0.8-0.7-1.5-1-2.3c-0.4-0.9-0.6-1.7-0.7-2.4l-0.6-0.5
			l-5.7,0.9c-0.3,0.3-0.4,0.7-0.4,1c0,0.2,0,0.4,0.1,0.5l1-0.4c0,0.5,0.1,0.8,0.3,0.8c0.1,0,0.3-0.1,0.5-0.3s0.4-0.3,0.5-0.3
			s0.2,0,0.3,0.1c-0.1,2.3-0.5,4.8-1.4,7.6c-0.3,0.3-0.6,0.4-0.9,0.4c-0.2,0-0.7-0.1-1.3-0.4c-0.6-0.3-1.1-0.4-1.5-0.4
			c-0.9-0.8-1.6-2-2-3.5c0-0.2-0.3-1.7-0.7-4.3c-0.3-1.7-0.7-3-1.3-3.9c0-0.2-0.1-0.5-0.1-0.7c0-0.7,0.2-1.6,0.7-2.8
			c0.5-1.1,0.7-2,0.7-2.7c0-0.4-0.1-0.8-0.2-1.3c0.3-0.8,0.4-1.9,0.4-3.4c0-1.6,0.1-2.7,0.3-3.4c0.3-1.2,0.9-2.1,1.8-2.7
			c1.1-0.1,2.1,0.2,3,1.1c0.7,0.9,1.4,1.8,2.1,2.7c0.1,0.3,0.1,0.6,0.1,0.9c0,0.7-0.4,1.5-1.1,2.6c-0.7,1.1-1.1,2-1.1,2.7
			c0,0.2,0,0.5,0.1,0.7c0,0.8,0,1.3,0.1,1.4c1-0.3,1.8-1.3,2.3-3c2.5-2.3,4.3-5,5.5-8c0.6-0.7,1.2-1,1.8-1c0.2,0,0.3,0,0.5,0.1
			c0.1,0.1,0.1,0.2,0.1,0.5c0,0.2,0.1,0.4,0.3,0.5c0.2-0.1,0.3-0.1,0.5-0.1c0.4,0,0.8,0.3,1.1,1
			C238.8,530.2,239.1,530.7,239.4,530.8z M231.4,538.4c-2.1,0.1-3.7,0.8-4.8,2.2l3.3-0.6c0.1-0.1,0.4-0.3,0.9-0.5
			c0.4-0.2,0.6-0.4,0.6-0.7C231.5,538.7,231.5,538.6,231.4,538.4z"/>
		<path class="st13" d="M270.8,553.1c0.1,0.2,0.1,0.4,0.1,0.6c0,0.5-0.4,1.1-1.1,1.7c-0.4,0.1-0.7,0.1-1.1,0.1
			c-0.7,0-1.4-0.1-2.3-0.4c-0.7-0.2-1.4-0.5-2.1-0.8c-0.9-1.7-1.8-3.4-2.7-5.2c-1-2.1-1.8-3.8-2.3-5.3c-1,0.9-1.6,2.2-1.8,3.9
			c-0.1,1.5-0.2,3-0.3,4.4c-0.8,0.4-1.6,0.7-2.5,0.7c-1.5,0-3.4-0.8-5.7-2.3c-0.5-0.9-1-1.8-1.4-2.8c-0.6-1.1-1.1-1.9-1.7-2.5
			c-0.3,0.6-0.6,1.5-0.9,2.8c-0.3,1.4-0.6,2.3-0.7,2.7c-0.2,0.4-0.3,1.1-0.4,2c-0.1,1-0.3,1.7-0.4,2.1c-0.3,0.7-0.9,1.1-1.6,1.3
			c-2.1-0.1-3.6-0.6-4.5-1.4c-0.9-0.9-1.3-2-1.3-3.2c0-0.9,0.2-2.1,0.7-3.6c0.5-1.7,0.9-2.9,1-3.6c0.7-2.4,1.4-4.8,2.1-7.2
			c0.8-2.8,1.4-5.2,1.7-7.3c0.8-0.9,2.1-1.3,3.7-1.3c0.4,0,0.8,0,1.3,0c1.1,0.4,1.8,0.7,2.2,1c0.8,0.4,1.4,1,1.8,1.7
			c0,0.2,0,0.5,0.1,0.9s0.1,0.7,0.1,0.9c0,0.6-0.2,1.2-0.5,1.6c0,1,0,2,0,3c0.1,1.1,0.4,2,0.9,2.6c0.6-0.5,1.1-1.3,1.5-2.4
			c0.5-1.4,0.8-2.3,1.1-2.7c0.6-1.4,1.3-3.6,2.2-6.4c0.8-1.3,2-2,3.4-2c0.3,0,0.6,0,0.9,0.1c0.2,0.1,0.9,0.5,2.1,1.1
			c0.9,0.4,1.5,1,1.8,1.6c0.1,0.7,0.2,1.6,0.2,2.6c0,0.4,0,1.1-0.1,2c0,0.9-0.1,1.5-0.1,2c0,1.4,0.1,2.5,0.4,3.4
			C265.8,543.3,267.8,547.9,270.8,553.1z"/>
		<g>
			<path class="st13" d="M131.9,556.4c-0.1,0.3-0.3,0.4-0.6,0.5c-0.3,0-0.5,0.2-0.5,0.5c-0.4,0.1-0.8,0.1-1.2,0.1
				c-1.2,0-2.3-0.5-3.4-1.4c-0.6-0.5-1.5-1.5-2.7-2.9c-1.1-1.3-2.1-2.3-2.8-2.8c-0.3,0.6-0.4,1.5-0.4,2.7l0,0c0,0.6,0,1.1,0,1.4
				c0.1,0.1,0.2,0.2,0.2,0.4c0,0.1-0.1,0.3-0.2,0.6c-0.2,0.2-0.2,0.4-0.3,0.5c-0.5,0.6-1.1,1-1.9,1c-0.3,0-0.5,0-0.8-0.1
				c-0.9-0.2-1.9-0.9-3-2c-0.1-0.7-0.2-1.4-0.2-2.2c0-1.6,0.4-4,1.2-7.4c-0.4-0.6-0.6-1.2-0.6-2c0-1.2,0.4-2.3,1.1-3.3
				c0.3-0.3,0.6-0.4,1-0.4c0.2,0,0.5,0,0.9,0.1s0.7,0.1,0.9,0.1c0.7,0.7,1.4,1.4,2.2,2c0.8,0.9,1.3,1.7,1.4,2.5
				c0.3,0.6,0.8,1.2,1.5,2c0.6,0.6,1.1,1.2,1.7,1.8c0-1.5-0.3-3.4-0.8-5.8c-0.7-3.1-1.1-5-1.2-5.7c0.3-0.2,0.7-0.9,1.1-2
				c0.3-0.9,0.8-1.4,1.3-1.4c0.3,0,0.7,0.1,1.1,0.4c0.3,0.5,0.5,0.8,0.6,0.9c0.3,0.3,0.5,0.6,0.9,0.6c0.3,0.4,0.5,1,0.4,1.8
				c-0.1,1-0.1,1.6,0.1,1.9c1.4,4.2,2.3,9.6,2.8,16.4c0.3,0.4,0.4,0.7,0.4,0.8C132,556.2,132,556.3,131.9,556.4z"/>
		</g>
		<path class="st13" d="M139.9,543.5c0.4,0.7,0.6,1.4,0.6,2.1c0,0.5-0.1,0.9-0.3,1.3c-0.1,0.1-0.5,0.7-1.3,2
			c-0.5,0.8-1.1,1.3-1.9,1.4c-0.7,0-1.4-0.4-2.1-1.2c-0.6-0.6-1.1-1.2-1.7-1.9c0.1-0.7,0.2-1.4,0.3-2.1c0.1-0.7,0.4-1.3,0.9-1.6
			c1.1-0.5,2.1-0.7,3.1-0.7S139.3,543,139.9,543.5z"/>
		<path class="st13" d="M186,545.7c-0.5-1.1-0.7-2-0.7-2.7c0-0.4,0.1-0.8,0.2-1.3c-0.3-0.8-0.4-1.9-0.4-3.4c0-1.6-0.1-2.7-0.3-3.4
			c-0.3-1.2-0.9-2.1-1.8-2.7c-1.1-0.1-2.1,0.2-3,1.1c-0.7,0.9-1.4,1.8-2.1,2.7c-0.1,0.3-0.1,0.6-0.1,0.9c0,0.7,0.4,1.5,1.1,2.6
			c0.7,1.1,1.1,2,1.1,2.7c0,0.2,0,0.5-0.1,0.7c0,0.8-0.1,1.4-0.1,1.4l-0.4,1l-3.4-0.6c-0.1-0.1-0.4-0.3-0.9-0.5
			c-0.4-0.2-0.6-0.4-0.6-0.7c0-0.1,0-0.2,0.1-0.4c0.2-1.1-2-8.1-2.7-9.8c-0.6-0.7-1.2-1-1.8-1c-0.2,0-0.3,0-0.5,0.1
			c-0.1,0.1-0.1,0.2-0.1,0.5c0,0.2-0.1,0.4-0.3,0.5c-0.2-0.1-0.3-0.1-0.5-0.1c-0.4,0-0.8,0.3-1.1,1c-0.4,0.7-0.7,1.2-1,1.3
			c-0.1,0.3-0.1,0.7-0.1,1c0,0.9,0.3,2.1,1,3.7c0.7,1.6,1,2.9,1,3.7c0,0.2,0,0.5,0,0.8c0,0.4-0.1,1-0.2,1.8
			c-0.2,0.8-0.2,1.3-0.2,1.7c0,0.6,0.1,1.1,0.4,1.5c0,0.2,0,0.5,0,0.8c0,0.6-0.2,1.6-0.5,2.8s-0.5,2.1-0.5,2.8c0,0.3,0,0.6,0,0.8
			c0.5,0.3,1,0.4,1.5,0.4c0.7,0,1.7-0.3,2.8-0.9c0.3-0.8,0.7-1.5,1-2.3c0.4-0.9,0.6-1.7,0.7-2.4l0.6-0.5l5.7,0.9
			c0.3,0.3,0.4,0.7,0.4,1c0,0.2,0,0.4-0.1,0.5l-1-0.4c0,0.5-0.1,0.8-0.3,0.9c-0.1,0-0.3-0.1-0.5-0.3s-0.4-0.3-0.5-0.3
			s-0.2,0-0.3,0.1c0.1,2.3,0.5,4.8,1.4,7.6c0.3,0.3,0.6,0.4,0.9,0.4c0.2,0,0.7-0.1,1.3-0.4c0.6-0.3,1.1-0.4,1.5-0.4
			c0.9-0.8,1.6-2,2-3.5c0-0.2,0.3-1.7,0.7-4.3c0.3-1.7,0.7-3,1.3-3.9c0-0.2,0.1-0.5,0.1-0.7C186.7,547.7,186.4,546.8,186,545.7z"/>
		<path class="st13" d="M110.7,539.1c-0.6,0.4-1.3,0.6-2,0.6c-0.5,0-0.9-0.1-1.2-0.3c-0.1-0.1-0.7-0.5-1.9-1.2
			c-0.8-0.5-1.2-1.1-1.4-1.8c0-0.7,0.4-1.3,1.2-2c0.6-0.5,1.2-1.1,1.8-1.6c0.7,0.1,1.3,0.2,2,0.3s1.2,0.4,1.5,0.9
			c0.5,1,0.7,2,0.7,2.9C111.4,537.8,111.2,538.5,110.7,539.1z M113.1,562c-0.3,0.4-0.8,0.6-1.4,0.6c-0.4,0-1-0.1-1.8-0.3
			c-1.4-0.4-2.3-1.2-2.8-2.7c-0.2-0.6-0.5-1.9-0.7-3.9c-0.4-3-0.6-6.8-0.5-11.3c0.2-0.8,0.7-1.5,1.4-2.1c0.7-0.6,1.4-0.9,2.2-0.9
			c0.8,0,1.5,0.3,2,1c0.7,1.7,1,3,1,3.9c0,0.8-0.2,1.5-0.5,2c-0.1,0.9-0.1,1.7-0.1,2.5c0,2.3,0.3,4.5,1,6.6c0.5,0.3,0.7,0.8,0.7,1.5
			c0,0.3-0.1,0.7-0.2,1.4C113.1,561.2,113.1,561.7,113.1,562z"/>
		<path class="st13" d="M228.1,533.7c-0.1,0.7-0.6,1.4-1.5,2.1c-1.1,0.2-2.6,0.6-4.5,1.1c-2,0.6-3.5,0.9-4.4,1.1
			c-0.1,0-0.2-0.1-0.4-0.1s-0.4,0-0.7,0.1c-0.4,0.1-0.6,0.2-0.7,0.3c-0.2,0.7-0.3,1.6-0.4,2.5c0,0.7-0.1,1.6,0,2.6
			c0.1,1.4,0.1,2.2,0.1,2.5c0,2.3,0.2,31.3,0.5,32.1c0.5-0.3,0.8-0.4,1-0.1c0.1,0.1,0.1,0.3,0.1,0.4c0,0.1,0,0.4-0.1,0.6
			c-0.1,0.3-0.1,0.5-0.1,0.6c0,0.2,0.1,0.5,0.2,0.6c0,0,0.1,0,0.3-0.1c0.1-0.1,0.3-0.1,0.4-0.1c0.1,0.2,0.2,0.4,0.2,0.7
			c0,0.2-0.1,0.6-0.3,1.1s-0.2,0.9-0.2,1.2c-0.2,0.2-0.4,0.5-0.8,0.7c-0.3,0.2-0.6,0.4-0.9,0.6c-0.2-0.2-0.6-0.4-1.1-0.6
			c-0.6-0.2-1-0.4-1.2-0.5c-0.6,0.1-1.2-0.2-1.9-0.8c-0.9-1.2-1.4-30.1-1.4-31.9c0-0.3,0-0.7,0-1c-0.1-0.2-0.2-0.4-0.2-0.7
			c0-0.1,0-0.2,0-0.4s0-0.3,0-0.4c0-0.3-0.1-0.5-0.2-0.6c0-0.7-0.1-2-0.3-3.8c-0.1-1.6-0.2-3-0.2-3.9c-0.3-0.5-0.9-0.7-1.5-0.7
			c-0.2,0-0.5,0-1,0.1c-0.4,0.1-0.8,0.1-1,0.1c-0.4-0.1-1.1,0-1.9,0.2c-1,0.2-1.6,0.3-2,0.3c-1,0-1.6-0.5-2-1.5
			c-0.3-0.2-0.6-0.5-0.8-0.9c-0.3-0.6-0.5-0.9-0.6-1c0-0.3,0.2-0.8,0.5-1.4c0.3-0.3,0.7-0.5,1.4-0.7s1.2-0.4,1.4-0.7
			c1.6-0.4,3.5-0.7,5.7-0.8c0.5,0,0.8-0.4,1.1-1.1c-0.3-0.9-0.3-13.4,0.1-14.1c0.5-0.6,0.8-0.9,0.8-1c0.3-0.3,0.7-0.5,1.1-0.4
			c0.1-0.1,0.3-0.1,0.4-0.1c0.3,0,0.8,0.2,1.3,0.6c0.5,0.4,0.9,0.6,1.3,0.6c0.3,0.2,0.6,0.7,0.7,1.4c0.1,0.3,0.3,0.5,0.5,0.7
			s0.4,12.1,0.7,12.1c0.9-0.2,2-0.5,3.3-0.9c1.1-0.4,2.1-0.7,3.2-1.1c0.2,0.1,0.7,0.2,1.6,0.3c0.7,0.1,1.3,0.2,1.6,0.5
			c0.5,0.5,0.9,1,1.4,1.5c0.5,0.6,0.8,1.2,0.8,1.7C228.2,533.3,228.1,533.5,228.1,533.7z"/>
	</g>
</g>
<g>
	<rect x="70.3" y="330.3" class="st14" width="229.3" height="131"/>
	<g>
		<g>
			<path class="st15" d="M139.8,415.3c-6.4,0-11.6-12.8-11.9-28.9c1.3-0.2,2.6-0.5,3.8-0.8c-1.1,0.1-2.2,0.2-3.4,0.3
				c-0.2,0-0.3,0-0.5,0c0-0.3,0-0.6,0-0.9c0-0.2,0-0.4,0-0.6c6.3-0.5,11.7-2.2,13.8-4.1c0.6-0.5,1-1.1,1-1.7c0-0.1,0-0.2,0-0.4
				c-0.2-2.8-7.4-4.6-16-3.9c-8.4,0.6-15,3.2-15.3,5.9c-2.1,1.2-3.3,2.4-3.1,3.6c0.4,2.8,8.1,4.2,17.4,3h0.1
				c-0.4,9.7-5.4,18.2-12.8,23.5c7-3,12.3-8.9,14.1-16.2c0.7,14,5.2,24.8,10.8,24.8c2.7,0,5.1-2.5,7-6.6
				C143.5,414.2,141.7,415.3,139.8,415.3z M127.9,383.1c0-1.1,0.1-2.3,0.2-3.4c-0.4,0.1-0.9,0.2-1.4,0.2c-0.4,0-0.9-0.1-1.3-0.1
				c0.2,1.1,0.3,2.2,0.4,3.3c-6-0.2-10.8-1.6-11.6-3.4c3.1-1.2,8-2.2,13.6-2.5c4.4-0.2,8.4,0,11.5,0.5c0.6,0.4,0.9,0.9,0.9,1.4
				C140.3,381.3,134.8,383,127.9,383.1z M127.3,375.3c3.9,0,7.4,0.5,9.8,1.3c-3.2-0.6-7.7-0.7-12.6-0.1c-3.9,0.5-7.5,1.4-10.3,2.5
				C114.6,376.9,120.3,375.3,127.3,375.3z M111,382.5c0-0.5,0.2-0.9,0.7-1.4c1.2,2.2,7,3.6,14.2,3.3c0,0.3,0,0.6,0,0.9
				c0,0.2,0,0.4,0,0.6C117.6,386.1,111.1,384.7,111,382.5z"/>
			<g>
				<g>
					<path class="st15" d="M139.7,394.3L139.7,394.3c0.7-0.8,1.4-1.2,2.4-1.2c1.1,0,2,0.4,2.6,1.4c0.5-0.9,1.5-1.4,2.6-1.4
						c1.9,0,2.6,1.3,2.6,3v4.8h-2.7v-3.6c0-0.8,0-2.1-1.1-2.1c-1.2,0-1.3,1.2-1.3,2.1v3.6h-2.7v-3.6c0-0.8,0-2.1-1.2-2.1
						s-1.2,1.3-1.2,2.1v3.6H137v-7.6h2.7V394.3z"/>
					<path class="st15" d="M159.5,397.5h-5.6c0,1.1,0.6,1.7,1.7,1.7c0.6,0,1-0.2,1.3-0.7h2.6c-0.4,1.8-2.1,2.6-3.8,2.6
						c-2.5,0-4.4-1.4-4.4-4c0-2.5,1.7-4,4.2-4c2.6,0,4.1,1.6,4.1,4.2v0.2L159.5,397.5L159.5,397.5z M157,396
						c-0.1-0.7-0.8-1.2-1.5-1.2c-0.8,0-1.4,0.4-1.6,1.2H157z"/>
					<path class="st15" d="M163.6,394.5L163.6,394.5c0.5-0.9,1.4-1.3,2.5-1.3h0.5v2.6c-0.4-0.2-0.7-0.3-1.1-0.3
						c-1.5,0-1.9,1-1.9,2.3v3.1h-2.7v-7.6h2.7V394.5z"/>
					<path class="st15" d="M170.6,390.4c0,0.8-0.7,1.5-1.5,1.5s-1.5-0.7-1.5-1.5s0.7-1.5,1.5-1.5
						C169.9,388.9,170.6,389.6,170.6,390.4z M170.4,400.9h-2.7v-7.6h2.7V400.9z"/>
					<path class="st15" d="M178,400L178,400c-0.5,0.8-1.4,1.1-2.3,1.1c-2.2,0-3.8-1.9-3.8-4c0-2.2,1.5-4,3.8-4c0.9,0,1.8,0.3,2.3,1
						v-5.4h2.7v12.2H178V400z M174.6,397.1c0,1,0.6,1.7,1.7,1.7c1.1,0,1.7-0.7,1.7-1.7c0-0.9-0.6-1.7-1.7-1.7
						C175.3,395.4,174.6,396.2,174.6,397.1z"/>
					<path class="st15" d="M185.4,390.4c0,0.8-0.7,1.5-1.5,1.5s-1.5-0.7-1.5-1.5s0.7-1.5,1.5-1.5S185.4,389.6,185.4,390.4z
						 M185.2,400.9h-2.7v-7.6h2.7V400.9z"/>
					<path class="st15" d="M195.4,400.9h-2.7V400l0,0c-0.5,0.8-1.4,1.1-2.3,1.1c-2.2,0-3.8-1.9-3.8-4c0-2.2,1.5-4,3.8-4
						c0.9,0,1.8,0.3,2.3,1v-0.7h2.7V400.9z M189.3,397.1c0,1,0.6,1.7,1.7,1.7c1.1,0,1.7-0.7,1.7-1.7c0-0.9-0.6-1.7-1.7-1.7
						C190,395.4,189.3,396.2,189.3,397.1z"/>
					<path class="st15" d="M200,394.3L200,394.3c0.6-0.9,1.4-1.2,2.4-1.2c2,0,2.8,1.3,2.8,3.1v4.7h-2.7v-3.7c0-0.7,0.1-2-1.2-2
						c-1.1,0-1.4,0.8-1.4,1.8v3.9h-2.7v-7.6h2.7L200,394.3L200,394.3z"/>
					<path class="st15" d="M209.6,394.4c-0.3,0-0.3,0.1-0.3,0.4v3.4c0,1.1,0.1,2,1.3,2c0.2,0,0.3,0,0.5-0.1s0.4-0.3,0.5-0.3
						s0.2,0.2,0.2,0.3c-0.3,0.4-1,0.8-1.9,0.8c-1.6,0-1.9-0.9-1.9-2V395c0-0.5,0-0.5-0.4-0.5H207c-0.1-0.1-0.1-0.3-0.1-0.4
						c0.5-0.2,1-0.4,1.2-0.6s0.6-0.7,0.8-1.1c0.1,0,0.3,0,0.4,0.1v0.8c0,0.3,0,0.3,0.3,0.3h2c0.2,0.2,0.2,0.7,0,0.8L209.6,394.4
						L209.6,394.4z"/>
					<path class="st15" d="M214.3,396.2c-0.5,0-0.5,0-0.5,0.5c0,1.8,1.1,3.4,3,3.4c0.6,0,1.1-0.2,1.7-0.9c0.2-0.1,0.3,0.1,0.3,0.2
						c-0.6,1.2-1.9,1.7-2.9,1.7c-1.2,0-2.1-0.5-2.6-1.2s-0.8-1.6-0.8-2.4c0-2.2,1.5-4.1,3.7-4.1c1.6,0,2.6,1.1,2.6,2.2
						c0,0.3,0,0.4-0.1,0.5s-0.3,0.1-1.1,0.1L214.3,396.2L214.3,396.2z M215.4,395.7c1.4,0,1.8-0.1,1.9-0.2c0.1,0,0.1-0.1,0.1-0.3
						c0-0.5-0.3-1.1-1.4-1.1c-1.1,0-2,1-2,1.6c0,0,0,0.1,0.1,0.1h1.3L215.4,395.7L215.4,395.7z"/>
					<path class="st15" d="M222.1,398.8c0,1.3,0,1.5,0.7,1.6l0.4,0.1c0.1,0.1,0.1,0.4,0,0.5c-0.6,0-1.1-0.1-1.8-0.1s-1.2,0-1.8,0.1
						c-0.1-0.1-0.2-0.4,0-0.5l0.4-0.1c0.7-0.1,0.7-0.3,0.7-1.6v-8.2c0-1.1,0-1.2-0.6-1.5L220,389c-0.1-0.1-0.1-0.3,0-0.4
						c0.5-0.1,1.3-0.4,2-0.8c0.1,0,0.1,0,0.2,0.1c0,0.5-0.1,1.5-0.1,2.3L222.1,398.8L222.1,398.8z"/>
					<path class="st15" d="M226,396.2c-0.5,0-0.5,0-0.5,0.5c0,1.8,1.1,3.4,3,3.4c0.6,0,1.1-0.2,1.7-0.9c0.2-0.1,0.3,0.1,0.3,0.2
						c-0.6,1.2-1.9,1.7-2.9,1.7c-1.2,0-2.1-0.5-2.6-1.2s-0.8-1.6-0.8-2.4c0-2.2,1.5-4.1,3.7-4.1c1.6,0,2.6,1.1,2.6,2.2
						c0,0.3,0,0.4-0.1,0.5s-0.3,0.1-1.1,0.1L226,396.2L226,396.2z M227.2,395.7c1.4,0,1.8-0.1,1.9-0.2c0.1,0,0.1-0.1,0.1-0.3
						c0-0.5-0.3-1.1-1.4-1.1c-1.1,0-2,1-2,1.6c0,0,0,0.1,0.1,0.1h1.3L227.2,395.7L227.2,395.7z"/>
					<path class="st15" d="M237.6,393.7c0.1,0.1,0.3,0.4,0.3,0.7c0,0.3-0.2,0.7-0.4,0.7c-0.1,0-0.2,0-0.3-0.1c-0.4-0.5-1.1-1-1.8-1
						c-1.3,0-2.5,1-2.5,2.9c0,1.4,1,3.1,2.9,3.1c1.1,0,1.6-0.5,2-1.1c0.1,0,0.3,0.1,0.3,0.3c-0.6,1.4-2,1.9-3,1.9s-1.9-0.3-2.5-0.9
						s-1.1-1.5-1.1-2.7c0-2,1.4-4.1,4.4-4.1C236.4,393.4,237.1,393.5,237.6,393.7z"/>
					<path class="st15" d="M246.4,397.2c0,2.3-1.6,3.9-3.9,3.9c-2.1,0-3.7-1.5-3.7-3.8s1.7-3.9,3.9-3.9
						C244.8,393.4,246.4,395,246.4,397.2z M242.5,394c-1.2,0-2.1,1.1-2.1,3.2c0,1.7,0.7,3.4,2.4,3.4c1.6,0,2.1-1.7,2.1-3.1
						C244.8,395.9,244.2,394,242.5,394z"/>
					<path class="st15" d="M258.5,396.2c0-1.2-0.5-1.9-1.7-1.9c-0.7,0-1.3,0.3-1.5,0.6c-0.2,0.3-0.3,0.5-0.3,1.1v2.8
						c0,1.3,0,1.5,0.7,1.6l0.4,0.1c0.1,0.1,0.1,0.4,0,0.5c-0.5,0-1.1-0.1-1.7-0.1c-0.7,0-1.1,0-1.7,0.1c-0.1-0.1-0.2-0.4,0-0.5
						l0.3-0.1c0.7-0.1,0.7-0.3,0.7-1.6v-2.6c0-1.2-0.5-1.9-1.7-1.9c-0.7,0-1.3,0.3-1.5,0.7c-0.2,0.2-0.3,0.5-0.3,1v2.8
						c0,1.3,0,1.5,0.7,1.6l0.3,0.1c0.1,0.1,0.1,0.4,0,0.5c-0.5,0-1-0.1-1.7-0.1s-1.2,0-1.8,0.1c-0.1-0.1-0.2-0.4,0-0.5l0.4-0.1
						c0.7-0.1,0.7-0.3,0.7-1.6v-3.2c0-0.7,0-0.8-0.5-1.1l-0.2-0.1c-0.1-0.1-0.1-0.3,0-0.3c0.4-0.1,1.5-0.6,1.8-0.9
						c0.1,0,0.2,0,0.2,0.1c0,0.4,0,0.7,0,0.9c0,0.1,0.1,0.2,0.2,0.2c0.7-0.5,1.6-0.9,2.4-0.9c0.9,0,1.4,0.3,1.9,1.1
						c0.2,0,0.3,0,0.5-0.1c0.7-0.5,1.6-0.9,2.5-0.9c1.5,0,2.2,1,2.2,2.3v3.1c0,1.3,0,1.5,0.7,1.6l0.4,0.1c0.1,0.1,0.1,0.4,0,0.5
						c-0.6,0-1.1-0.1-1.8-0.1c-0.7,0-1.1,0-1.7,0.1c-0.1-0.1-0.2-0.4,0-0.5l0.3-0.1c0.7-0.1,0.7-0.3,0.7-1.6v-2.8L258.5,396.2
						L258.5,396.2z"/>
				</g>
			</g>
		</g>
		<g>
			<path class="st15" d="M233.6,406.8h-0.5v-0.5h0.5V406.8z"/>
		</g>
	</g>
</g>
<g>
	<g>
		<path class="st16" d="M122.6,282.8c-0.1,0-0.1-0.1-0.1-0.1l0,0c0.4-0.1,1.6-0.1,2.4-0.1c2.4,0,3.5,1.2,3.5,3.1
			c0,2.5-1.8,3.9-4,3.9c-0.2,0-0.8,0-1,0c-0.3,0-0.7,0-0.9,0l0,0c0,0,0-0.1,0.1-0.1l0.5-0.1c0.1,0,0.1,0,0.1-0.2c0-0.4,0-2.7,0-3.2
			s0-2.7,0-2.9c0-0.1,0-0.2-0.1-0.2L122.6,282.8z M124.6,289.3c1.5,0,2.9-1,2.9-3.6c0-1.8-0.9-3-2.6-3c-0.5,0-0.5,0.1-0.5,0.2
			c-0.1,0.8-0.2,5.9-0.1,6.2C124.2,289.3,124.3,289.3,124.6,289.3L124.6,289.3z"/>
		<path class="st16" d="M137.9,289.5C137.9,289.5,137.8,289.6,137.9,289.5c-0.2,0.1-1,0-3.4,0c-0.3,0-0.8,0-1.1,0l0,0
			c0,0,0-0.1,0.1-0.1l0.5-0.1c0.1,0,0.1-0.1,0.1-0.2c0-0.4,0-2.7,0-3.2c0-0.4,0-2.6,0-2.9c0-0.1,0-0.2-0.1-0.2l-0.5-0.1l-0.1-0.1
			l0,0c0.4,0,0.8,0,1.1,0c2.3,0,3.1,0,3.3,0c0.1,0,0.1,0,0.1,0.1v1.4l-0.1,0.1l0,0c-0.1-0.3-0.2-0.7-0.4-1c0-0.1-0.1-0.1-0.2-0.1
			c-0.7-0.1-1.6-0.1-2-0.1c-0.1,0-0.1,0-0.1,0.1c-0.1,0.7-0.1,2.6-0.1,2.9c0.9,0,2.1,0.1,2.4,0.1l0,0c0,0.1,0,0.2-0.1,0.2
			c-0.3,0-1.3,0.1-2.2,0.1c-0.1,0-0.1,0.1-0.1,0.1c0,0.4-0.1,2.7-0.1,2.9c0,0.1,0,0.1,0.1,0.1c0.5,0,1.7,0,2.3-0.1
			c0.2,0,0.2-0.1,0.3-0.2c0.2-0.3,0.3-0.5,0.5-0.8l0,0l0.1,0.1L137.9,289.5z"/>
		<path class="st16" d="M145.5,282.6L145.5,282.6c0,0.1,0,0.1,0,0.1l-0.6,0.1c-0.1,0-0.1,0.1-0.1,0.2c0,0.6-0.1,2.3-0.1,3
			c0,0.5-0.1,3-0.1,3.2c0,0.1,0.1,0.1,0.1,0.1c0.5,0,1.6,0,2.3-0.2c0.1,0,0.2-0.1,0.3-0.2l0.5-0.9l0,0l0.1,0.1l-0.2,1.3
			c0,0.1,0,0.1-0.1,0.1c-0.2,0-1-0.1-3.4,0c-0.3,0-0.7,0-1.1,0l0,0c0,0,0-0.1,0.1-0.1l0.5-0.1c0.1,0,0.1,0,0.1-0.2
			c0-0.4,0-2.6,0-3.1c0-0.4,0-2.7,0-3c0-0.1,0-0.2-0.1-0.2l-0.5-0.1l-0.1-0.1l0,0L145.5,282.6L145.5,282.6z"/>
		<path class="st16" d="M154.7,282.6L154.7,282.6c0,0.1,0,0.2,0,0.2l-0.5,0.1c-0.1,0-0.1,0.1-0.1,0.1c0,0.7-0.1,2.6-0.1,3.1
			s0,2.9,0,3.1c0,0.1,0,0.1,0.1,0.1l0.5,0.1l0.1,0.1l0,0c-0.2,0-0.6,0-1.1,0s-0.9,0-1.1,0l0,0c0,0,0-0.1,0.1-0.1l0.5-0.1
			c0.1,0,0.1,0,0.1-0.2c0-0.4,0-2.6,0-3.2s0-2.6-0.1-2.9c0-0.1,0-0.2-0.1-0.2l-0.5-0.1l-0.1-0.1l0,0H154.7z"/>
		<path class="st16" d="M172,285.8C172.1,285.8,172.1,285.8,172,285.8c0,0.1,0,0.1,0,0.1l-0.4,0.1c-0.1,0-0.1,0.1-0.2,0.3
			c-0.1,0.6-0.4,1.3-0.7,1.7c0.4,0.4,0.9,1,1.2,1.5c0,0,0,0.1-0.1,0.1c-0.2,0-0.3,0-0.4-0.1c-0.3-0.3-0.7-0.7-1.1-1.1
			c-0.6,0.6-1.3,1.1-2.5,1.1c-1.1,0-2.1-0.5-2.1-1.6c0-0.9,0.7-1.5,1.4-1.8c0.1,0,0.2-0.1,0.3-0.1l0,0l-0.1-0.1
			c-0.5-0.4-0.9-0.9-0.9-1.6c0-0.9,0.9-1.6,2-1.6c0.9,0,1.7,0.5,1.7,1.4c0,0.7-0.7,1.3-1.4,1.6c0,0-0.1,0.1-0.2,0.1l0,0
			c0.8,0.7,1.6,1.5,2.1,2c0.2-0.4,0.4-1.1,0.4-1.5c0-0.2,0-0.2-0.1-0.2h-0.5l-0.1-0.1l0,0L172,285.8z M166.7,287.8
			c0,0.9,0.8,1.5,1.6,1.5s1.5-0.4,1.9-0.9c-0.7-0.6-1.9-1.7-2.5-2.2C167.1,286.5,166.7,287.1,166.7,287.8L166.7,287.8z M168.3,282.9
			c-0.5,0-1.1,0.4-1.1,1.2c0,0.6,0.3,1,1,1.6c0.6-0.3,1-0.9,1-1.6C169.2,283.3,168.8,282.9,168.3,282.9L168.3,282.9z"/>
		<path class="st16" d="M183.1,286.5c0-1.3,0.5-2.3,1.2-2.9c0.6-0.7,1.6-1.1,2.5-1.1c0.4,0,0.8,0.1,1.1,0.2l0.1,0.1l0.1,1.4
			c0,0.1-0.1,0.1-0.1,0.1l0,0c-0.2-0.4-0.3-0.8-0.5-1.2c0-0.1-0.1-0.2-0.2-0.2c-0.1-0.1-0.3-0.2-0.6-0.2c-0.6,0-1.2,0.3-1.6,0.9
			c-0.5,0.6-0.9,1.6-0.9,2.7c0,1.9,1.1,2.8,2.2,2.8c0.3,0,0.6,0,0.7-0.1c0.3-0.1,0.7-0.2,1-0.3c0,0,0,0,0,0.1v0.1
			c-0.3,0.2-0.8,0.4-1.3,0.5c-0.2,0-0.5,0.1-0.8,0.1C184.5,289.6,183.1,288.6,183.1,286.5L183.1,286.5z"/>
		<path class="st16" d="M195.8,282.6c0.2,0,0.4,0,0.6,0h0.1c0.4,1.4,1.6,5,2,6.4c0,0.1,0.1,0.2,0.2,0.2l0.4,0.1l0.1,0.1l0,0
			c-0.2,0-0.6,0-1,0c-0.5,0-1,0-1.3,0l0,0c0-0.1,0-0.1,0.1-0.1l0.6-0.1c0.1,0,0.1-0.1,0.1-0.2c-0.2-0.5-0.6-1.5-0.7-2
			c-0.5,0-1.9,0-2.6,0.1c-0.1,0-0.1,0-0.1,0.1c-0.1,0.4-0.4,1.3-0.5,1.8c0,0.1,0,0.2,0.1,0.2l0.7,0.1l0.1,0.1l0,0
			c-0.2,0-0.7,0-1.2,0c-0.3,0-0.7,0-0.8,0l0,0c0,0,0-0.1,0.1-0.1l0.3-0.1c0.1,0,0.2-0.1,0.2-0.2c0.6-1.4,1.8-4.8,2.3-6.2
			C195.5,282.6,195.5,282.6,195.8,282.6L195.8,282.6z M195.5,283.1c0,0.1-0.1,0.3-0.1,0.4c-0.3,1-0.8,2.4-1,3.1c0,0.1,0,0.1,0,0.1
			c0.5,0,2,0.1,2.5,0.1c-0.2-0.6-0.8-2.4-1.2-3.3C195.7,283.5,195.6,283.3,195.5,283.1L195.5,283.1z"/>
		<path class="st16" d="M208.6,284.1l-0.1,0.1l0,0l-0.4-1.1c0-0.1-0.1-0.2-0.2-0.2c-0.5-0.1-1.3-0.1-1.7-0.1c0,0.7-0.1,2.6-0.1,3.1
			c0,0.7-0.1,2.9-0.1,3.3c0,0.1,0.1,0.1,0.1,0.1l0.7,0.1l0.1,0.1l0,0c-0.2,0-0.7,0-1.3,0c-0.5,0-0.9,0-1.2,0l0,0c0,0,0-0.1,0.1-0.1
			l0.6-0.1c0.1,0,0.1,0,0.1-0.2c0-0.4,0-2.7,0-3.2c0-0.4,0-2.5,0-3.1c-0.4,0-1.2,0-1.7,0.1c-0.1,0-0.2,0.1-0.2,0.2l-0.4,1l0,0
			c0,0-0.1,0-0.1-0.1l0.1-1.4c0-0.1,0-0.1,0.1-0.1s0.6,0.1,2.8,0.1s2.7,0,2.8,0s0.1,0,0.1,0.1L208.6,284.1z"/>
		<path class="st16" d="M217.7,289.5C217.7,289.5,217.7,289.6,217.7,289.5c-0.2,0.1-1,0-3.4,0c-0.3,0-0.8,0-1.1,0l0,0
			c0,0,0-0.1,0.1-0.1l0.5-0.1c0.1,0,0.1-0.1,0.1-0.2c0-0.4,0-2.7,0-3.2c0-0.4,0-2.6,0-2.9c0-0.1,0-0.2-0.1-0.2l-0.5-0.1l-0.1-0.1
			l0,0c0.4,0,0.8,0,1.1,0c2.3,0,3.1,0,3.3,0c0.1,0,0.1,0,0.1,0.1v1.4l-0.1,0.1l0,0c-0.1-0.3-0.2-0.7-0.4-1c0-0.1-0.1-0.1-0.2-0.1
			c-0.7-0.1-1.6-0.1-2-0.1c-0.1,0-0.1,0-0.1,0.1c-0.1,0.7-0.1,2.6-0.1,2.9c0.9,0,2.1,0.1,2.4,0.1l0,0c0,0.1,0,0.2-0.1,0.2
			c-0.3,0-1.3,0.1-2.2,0.1c-0.1,0-0.1,0.1-0.1,0.1c0,0.4-0.1,2.7-0.1,2.9c0,0.1,0,0.1,0.1,0.1c0.5,0,1.6,0,2.3-0.1
			c0.2,0,0.2-0.1,0.3-0.2c0.2-0.3,0.3-0.5,0.5-0.8l0,0l0.1,0.1L217.7,289.5z"/>
		<path class="st16" d="M227.7,284.3c0,1-0.9,1.6-1.5,1.9c0.5,0.7,1.3,2,1.7,2.9c0,0.1,0.1,0.1,0.2,0.1l0.5,0.1l0.1,0.1l0,0
			c-0.2,0-0.5,0-0.9,0s-0.7,0-1.2,0l0,0c0,0,0-0.1,0.1-0.1l0.5-0.1c0.1,0,0.2-0.1,0.1-0.1c-0.5-0.7-1.3-1.9-1.9-2.6l-0.1-0.1
			c-0.2,0-0.6,0-0.9,0c0,0.4-0.1,2.2-0.1,2.6c0,0.1,0,0.1,0.1,0.2l0.6,0.1l0.1,0.1l0,0c-0.4,0-0.8,0-1.2,0s-0.8,0-1.1,0l0,0
			c0-0.1,0-0.1,0.1-0.1l0.5-0.1c0.1,0,0.1-0.1,0.1-0.2c0-0.4,0-2.6,0-3.1c0-0.4,0-2.6,0-2.9c0-0.1,0-0.2-0.1-0.2h-0.5l-0.1-0.1l0,0
			c0.4,0,1.4-0.1,2.4-0.1C226.9,282.6,227.7,283.3,227.7,284.3L227.7,284.3z M224.8,286.3c1,0,1.9-0.7,1.9-1.9c0-1-0.7-1.7-1.8-1.7
			c-0.4,0-0.5,0-0.5,0.2c-0.1,0.8-0.1,3-0.1,3.2C224.3,286.3,224.4,286.3,224.8,286.3L224.8,286.3z"/>
		<path class="st16" d="M235.3,282.6L235.3,282.6c0,0.1,0,0.2,0,0.2l-0.5,0.1c-0.1,0-0.1,0.1-0.1,0.1c0,0.7-0.1,2.6-0.1,3.1
			s0,2.9,0,3.1c0,0.1,0,0.1,0.1,0.1l0.5,0.1l0.1,0.1l0,0c-0.2,0-0.6,0-1.1,0s-0.9,0-1.1,0l0,0c0,0,0-0.1,0.1-0.1l0.5-0.1
			c0.1,0,0.1,0,0.1-0.2c0-0.4,0-2.6,0-3.2s0-2.6-0.1-2.9c0-0.1,0-0.2-0.1-0.2l-0.5-0.1l-0.1-0.1l0,0H235.3z"/>
		<path class="st16" d="M241.6,282.6c0.1,0,0.1,0,0.1,0.1c0.5,0.8,2.6,4.3,3.3,5.6c0.1,0.1,0.1,0.3,0.2,0.4l0,0c0-0.2,0-0.3,0-0.5
			c0-1,0-4.6-0.1-5.1c0-0.1-0.1-0.2-0.2-0.2l-0.6-0.1l-0.1-0.1l0,0h1.9l0,0c0,0,0,0.1-0.1,0.1l-0.4,0.1c-0.1,0-0.2,0.1-0.2,0.3
			c0,0.4-0.1,2.1-0.1,2.9c0,0.5-0.1,3.1-0.1,3.5v0.1c-0.1,0-0.3,0.1-0.3,0.1c-0.1,0-0.1,0-0.2-0.1c-0.7-1.1-2.6-4.1-3.5-5.5
			c-0.1-0.1-0.1-0.2-0.2-0.3h-0.1c0,0.2,0,0.3,0,0.4c0,1-0.1,4.6-0.1,5c0,0.1,0,0.1,0.1,0.1l0.7,0.1l0.1,0.1l0,0c-0.2,0-0.6,0-1,0
			c-0.3,0-0.7,0-0.9,0l0,0c0,0,0-0.1,0.1-0.1l0.5-0.1c0.1,0,0.1,0,0.1-0.2c0-0.3,0-2.6,0-3.1s-0.1-2.7-0.1-2.9c0-0.1,0-0.2-0.2-0.2
			l-0.5-0.1l-0.1-0.1l0,0h2L241.6,282.6L241.6,282.6z"/>
		<path class="st16" d="M256.9,286.5L256.9,286.5c0,0.1,0,0.1,0,0.2l-0.5,0.1c-0.1,0-0.1,0.1-0.1,0.1c-0.1,0.5-0.1,1.7-0.1,2.4
			c0,0,0,0.1-0.1,0.1c-0.3,0.1-0.9,0.2-1.7,0.2c-1.9,0-3.4-0.9-3.4-3.1c0-1.3,0.6-2.3,1.3-3c0.8-0.7,1.7-1,2.6-1
			c0.5,0,0.9,0.1,1.1,0.2c0.1,0,0.1,0.1,0.1,0.1l0.1,1.3l-0.1,0.1l0,0c-0.2-0.4-0.3-0.7-0.5-1.1c0-0.1-0.1-0.1-0.1-0.2
			c-0.1-0.1-0.4-0.2-0.7-0.2c-0.6,0-1.2,0.3-1.8,0.9c-0.5,0.6-1,1.5-1,2.8c0,2,1.2,3,2.6,3c0.2,0,0.5,0,0.7-0.1l0.1-0.1
			c0-0.7,0-1.8-0.1-2.2c0-0.1,0-0.2-0.1-0.2l-0.8-0.1l-0.1-0.1l0,0L256.9,286.5L256.9,286.5z"/>
	</g>
	<g>
		<path class="st17" d="M151.4,265.2l0.1-0.1h0.4c0.3-0.4,0.4-0.4,1.4-0.6l2.3-0.4l0.7,0.1l0.8-0.2l1.5-0.2c0.4-0.1,0.8-0.4,0.8-0.7
			V263l-0.2-0.8l0.1-1.2c-0.1-0.5-0.3-0.7-0.9-0.8l-0.3-0.4c-0.6-0.9-0.7-1-1.6-1.2l-1-0.2h-1l-0.5,0.1c-0.3-0.1-0.3-0.2-0.4-0.5
			l-0.5,0.2l-0.6,0.5l-1.8,0.9c-0.3,0.2-0.6,0.4-0.7,0.6l-0.3,0.4c-0.1,0.2-0.3,0.3-0.5,0.3l-0.4-0.1l-0.5-0.3l-0.6-0.1
			c-0.4-0.1-0.8-0.5-0.8-0.7v-0.1l0.3-0.2l0.6-0.4l0.6-0.1l1-0.5l1.2-0.4l0.3-0.1l0.8-0.4l0.6,0.1l2.2-0.5h0.9h0.7l0.7,0.3l2.2,0.4
			l0.3,0.2v0.3l-0.3,0.2c0.1,0.4,0.2,0.6,0.4,0.6h0.1l0.5-0.2h0.1c0.1,0,0.2,0.1,0.2,0.2l0.4,0.7l0.4,0.3v0.4l-0.1,0.9
			c0,0.4,0.2,0.7,0.6,1l0.2,2.7l-0.5,0.7l0.6,0.7v0.2l-0.1,1.7l0.2,1.3v0.3v0.4l-0.3,0.1c0,0.7,0,0.7,0.4,1.5l0.3,0.6l-0.2,0.3
			l-0.3,0.4l-0.5,0.2l-0.7,0.4l-0.7,0.2c-0.4,0.1-0.7,0.3-0.8,0.3c-0.2,0-0.4-0.2-0.4-0.4c0-0.1,0.1-0.4,0.2-0.8
			c0.1-0.1,0.1-0.3,0.1-0.6l-0.4,0.2l-1.6,0.6c-0.3,0.1-0.7,0.2-1,0.2l0,0h-0.7l-0.9,0.4l-0.6,0.1l-1.7,0.3l-0.7-0.1l-0.5,0.2
			l-0.3,0.1h-0.6l-1.2-0.3l-0.8-0.1c-1.1-0.2-2-0.8-2.3-1.7l-0.5-0.2l-0.1-0.4v-0.3l-0.3-0.9l0.7-1.3l0.2-0.6
			c0.1-0.3,0.1-0.2,0.7-0.7l1.4-1.2l0.6-0.2l1-0.4c0,0,0.1,0,0.2,0C150.3,265.4,150.7,265.1,151.4,265.2z M148.2,269.2l0.4,1.6
			l-0.4,1l0.3,0.4l0.5-0.6c0.6,0.5,0.7,0.6,1.8,0.8l0.4,0.5l1.3,0.1l0.3-0.3l0.4,0.2l0.3-0.1l0.2-0.1c0.2,0.1,0.5,0.1,0.5,0.1
			c0.3,0,0.9-0.2,1.4-0.5c0.1,0,0.2-0.1,0.4-0.2c1.2,0,1.7-0.2,2.2-0.7l0.4-0.5l0.9-0.7V270v-0.2c0.4-0.1,0.4-0.2,0.4-0.7
			c-0.2-0.2-0.3-0.3-0.3-0.4l0.1-0.7l-0.1-1.7l0.2-0.5l-0.6-0.3l-0.3,0.1l-1.7-0.1h-0.8l-0.6-0.4l-0.4,0.2h-1l-0.7,0.3l-0.4-0.2
			l-0.5,0.3l-2.7,1.3l-0.6,0.4l-0.5,0.7l-0.6,0.4c-0.1,0.1-0.1,0.2-0.1,0.3c0,0,0,0,0,0.1l0.2,0.2L148.2,269.2z"/>
		<path class="st17" d="M169.4,256.8c0.7,0.6,0.7,0.7,0.7,1.3v0.7v0.7l0.7-0.1l0.7-0.7l0.5-0.2l0.7-0.6l2-0.7l0.3-0.1l0.4-0.1
			c0.3,0.3,0.3,0.4,0.3,0.8l0.3,0.1l0.3-0.1v-0.5c0.3-0.2,0.5-0.3,0.7-0.3c0,0,0.1,0,0.3,0.1l0.1-0.1c0.2,0,0.3,0,0.4,0
			c0.7,0,1.3,0.6,1.5,1.6c0.1,0.4,0.1,0.5,0.4,0.6l0.3-0.3l0.6-0.6l0.7-0.4l1-0.6l0.4-0.1l0,0h0.8l0.7-0.2h1.1l0.6-0.1l0.6,0.3
			l0.7,0.2c0.7,0.2,1.1,0.6,1,1.2c-0.2,0.1-0.3,0.3-0.3,0.4s0.1,0.2,0.3,0.2c0.1,0,0.1,0,0.3-0.1l0.1,0.4l0.1,1l0.2,0.4v0.3
			l-0.1,1.2v1v0.4l-0.2,0.3c-0.1,0.2-0.2,0.3-0.2,0.4l0.2,2l0.1,0.6l0,0v1.2l0,0l0.1,0.6c0,0.1-0.2,0.2-0.4,0.4v0.6l0.3-0.1l0.1,0.4
			v1.3l0.3,0.8l-0.5,0.3l-0.9,0.5l-1,0.7c-0.1,0-0.2,0-0.3,0s-0.3,0-0.5-0.1l-0.1-0.9l0.1-0.5l0.3-0.9l-0.2-1.8l0.2-1v-0.9l0.4-0.9
			v-0.1c0-0.2-0.1-0.3-0.3-0.5v-0.4l-0.1-1.9c0-0.1,0-0.2,0-0.3l0.4-1.3l-0.5-0.7l-0.3-1.7l-0.2-0.4l-0.3-0.1l-0.8-0.5
			c-0.2-0.1-0.4-0.1-0.8-0.1c-1.1,0-1.9,0.1-2.9,0.6c-0.9,0.4-1.3,0.8-1.3,1.1v1.3l-0.5,0.3v0.1c0,0.2,0.2,0.4,0.5,0.6l0.1,4.2
			c-0.1,0.1-0.3,0.1-0.4,0.1c-0.1,0-0.1,0-0.3-0.1v0.4l0.5,1l-0.1,0.6l0.1,0.4c0.2,0.6,0.4,2,0.4,2.7c0,0,0,0.1-0.1,0.1l-0.3,0.1
			l-0.7,0.5l-1.1,0.4l-0.3,0.1c-0.1,0-0.3-0.1-0.4-0.3v-0.2l0.1-1.9l-0.1-1.6c0-0.5,0.1-0.6,0.5-0.9V268l-0.3-0.6L177,267l-0.3-0.5
			l0.1-0.5v-1.5l0.6-0.7c0-0.1,0-0.2,0-0.2c0-0.3-0.1-0.5-0.3-0.5c-0.1,0-0.2,0-0.2,0l-0.2-0.4v-0.4v-0.7c0-1.8-0.3-2.7-1.2-2.7
			c-0.2,0-0.3,0-0.6,0.1l-0.4-0.6l-0.4,0.1l-0.3,0.3l-0.9,0.1l-0.9,0.4l-0.7,0.1l-0.4,0.2l-0.2,0.4c-0.6,1.4-0.8,1.9-0.8,2.8v0.3
			l0.1,2.5v0.4l-0.5,0.2l0.1,0.4l0.4,0.6v1.9l0.3,3.3c0,0.2-0.1,0.3-0.5,0.5l-1.2,0.6c-0.1,0.1-0.3,0.1-0.5,0.1
			c-0.1,0-0.3,0-0.6-0.1v-0.4V273v-1.8l-0.1-0.7l0.3-0.5l0.1-0.5l-0.3-0.3v-0.4v-0.3l0.1-0.3l0.3-0.5l0.1-0.4V267
			c-0.5,0-0.6-0.1-0.6-2.1V264v-0.4h0.3v-0.8l-0.1-0.6l-0.3-0.7l-0.1-1.4l-0.1-0.7l-0.1-0.5l-0.1,0.2l-0.4-0.4
			C167.2,257.9,167.8,257.5,169.4,256.8z"/>
		<path class="st17" d="M215.2,266.8c0-1,0.2-1.9,0.8-3.3c0.6-1.3,0.8-1.7,1-1.8l0.7-0.5l0.4-0.7c0.1-0.3,0.3-0.4,0.5-0.5l1.7-0.9
			l1-0.8l1.2-0.4l2-0.7l1.7-0.1h1.3c0.9,0,1.1,0.1,1.1,0.6c0.2,0.1,0.3,0.3,0.4,0.3c0.2,0,0.4-0.2,0.6-0.5l0.4,0.1l1.2,0.4l0.5,0.4
			l0.7,0.4l0.7,1c0.2,0.3,0.5,0.3,1.1,0.3c0.8,1,1,1.6,1.1,3.6l0.1,0.6l-0.4-0.1l0.1,0.4l-0.4,0.3c0.1,0.4,0.1,0.4,0.5,0.6v0.4
			c0,1.3-0.6,2.8-1.5,4.3c-0.6,0.8-1.1,1.3-1.5,1.8l-0.6,0.1l-3.4,1.6l-1.9,0.1l-1.4,0.3h-1.6l-0.6,0.1l-1.6-0.3h-0.7l-0.4-0.4
			l-1-0.1l-0.5-0.3c-1.3-1-1.7-1.2-1.7-1.4l-0.4-0.8l-0.6-0.4l-0.4-1.1l-0.2-0.5l0.2-0.1c0-0.3,0.1-0.4,0.4-0.5l-0.1-0.3l-0.6-0.4
			L215.2,266.8L215.2,266.8z M217.6,267.2c0,0,0,0.1,0.1,0.2c0.1-0.1,0.2-0.2,0.3-0.2s0.2,0,0.2,0.1l0.4,1.3l0.9,1.5l-0.1,0.9
			c0.1,0.1,0.2,0.1,0.3,0.1s0.3,0,0.4-0.2l0.4,0.1l2.2,1.3l2.2,0.2l1.3,0.2l1.4-0.3l0.9-0.2l1.2-1.2l0.9-0.3l0.4-0.4l1-2l0.5-0.4
			c0.1-0.2,0.3-0.3,0.3-0.4c0,0,0,0,0-0.1l-0.3-0.9l0.3-2.1l-0.7-2.1l-0.1-0.9l-0.2-0.3h-0.1c-0.2,0-0.3,0-0.4-0.3l-0.9-1.1
			l-0.3-0.4l-1.5-0.7c-0.4-0.6-0.4-0.7-0.7-0.7c-0.2,0-0.3,0-0.7,0.2c-0.3-0.1-0.6-0.2-0.7-0.2L226,258h-0.9l-1.2,0.4l-0.3-0.3
			l-0.2,0.3l-1.2,0.7l-2.3,2l-0.4,0.4c-0.1,0.8-0.3,1.2-0.8,2.1l-0.3,0.4v0.1c0,0.5-0.1,0.6-0.6,0.7c0,0.1-0.1,0.2-0.1,0.3v0.1
			l0.6,0.6l0.1,0.4C217.8,266.9,217.6,267.1,217.6,267.2z"/>
		<path class="st17" d="M237.8,266.8c0-1,0.2-1.9,0.8-3.3c0.6-1.3,0.8-1.7,1-1.8l0.7-0.5l0.4-0.7c0.1-0.3,0.3-0.4,0.5-0.5l1.7-0.9
			l1-0.8l1.2-0.4l2-0.7l1.7-0.1h1.3c0.9,0,1.1,0.1,1.1,0.6c0.2,0.1,0.3,0.3,0.4,0.3c0.1,0,0.4-0.2,0.6-0.5l0.5,0.1l1.2,0.4l0.5,0.4
			l0.7,0.4l0.7,1c0.2,0.3,0.5,0.3,1.1,0.3c0.8,1,1,1.6,1.1,3.6l0.1,0.6l-0.4-0.1l0.1,0.4l-0.4,0.3c0.1,0.4,0.1,0.4,0.5,0.6v0.4
			c0,1.3-0.6,2.8-1.5,4.3c-0.6,0.8-1.1,1.3-1.5,1.8l-0.6,0.1l-3.4,1.6l-1.9,0.1l-1.4,0.3H246l-0.6,0.1l-1.6-0.3h-0.7l-0.4-0.4
			l-1-0.1l-0.5-0.3c-1.3-1-1.7-1.2-1.7-1.4l-0.4-0.8l-0.6-0.4l-0.4-1.1l-0.1-0.5l0.2-0.1c0-0.3,0.1-0.4,0.4-0.5l-0.1-0.3l-0.6-0.4
			L237.8,266.8L237.8,266.8L237.8,266.8z M240.2,267.2c0,0,0,0.1,0.1,0.2c0.1-0.1,0.2-0.2,0.3-0.2s0.2,0,0.2,0.1l0.4,1.3l0.9,1.5
			L242,271c0.1,0.1,0.2,0.1,0.3,0.1s0.3,0,0.4-0.2l0.4,0.1l2.2,1.3l2.2,0.2l1.3,0.2l1.4-0.3l0.9-0.2l1.2-1.2l0.9-0.3l0.4-0.4l1-2
			l0.5-0.4c0.1-0.2,0.3-0.3,0.3-0.4c0,0,0,0,0-0.1l-0.3-0.9l0.3-2.1l-0.7-2.1l-0.1-0.9l-0.2-0.3h-0.1c-0.2,0-0.3,0-0.4-0.3L253,260
			l-0.3-0.4l-1.5-0.7c-0.4-0.6-0.4-0.7-0.7-0.7c-0.2,0-0.3,0-0.7,0.2c-0.3-0.1-0.6-0.2-0.7-0.2l-0.5,0.1h-0.9l-1.2,0.4l-0.3-0.3
			l-0.2,0.3l-1.2,0.7l-2.3,2l-0.4,0.4c-0.1,0.8-0.3,1.2-0.8,2.1l-0.3,0.4v0.1c0,0.5-0.1,0.6-0.6,0.7c0,0.1-0.1,0.2-0.1,0.3v0.1
			l0.6,0.6l0.1,0.4C240.4,266.9,240.2,267.1,240.2,267.2z"/>
		<g>
			<path class="st17" d="M192.6,231.9c-0.3-0.5-0.8-1-1.2-1.4c-0.1-0.3-0.7-0.2-0.7-0.5c-0.3,0-0.5-0.2-0.6-0.3l0.1-0.1
				c0.1-0.4,0.2-0.9-0.1-1.3c-0.2-0.1-0.6,0-0.8,0.1c-0.1-0.1-0.2-0.1-0.3-0.1l-0.5,0.1c-0.1,0.2-0.2,0.4-0.2,0.7
				c-0.6,0.2-1.2,0.4-1.8,0.3c-0.2,0.3-0.6,0.3-0.7,0.6c-0.4,0.2-0.8,0.5-1,0.8c-0.7,0.3-1.2,0.9-1.9,1.2c-0.2,0.5-0.9,0.5-1,1.1
				h-0.1c-0.6,0.4-0.7,1-1.3,1.5l-2.6,3.1l-0.9,1.2l-2.9,3.7l-3.1,3.9l-1.9,2.6c-0.1,0.3-0.3,0.6-0.6,0.9c0.6-0.1,0.8-0.8,1.2-1.1
				l2.9-2.8c1-0.4,1.8-1.3,2.7-1.9v-0.1c1.1-0.9,2.1-2,3.2-2.8c0.5-0.8,1.4-1.1,1.9-1.8c0.4,0,0.6-0.2,0.9-0.4
				c0.1-0.4,0.7-0.4,0.8-0.7c0.4-0.1,0.7-0.6,1-0.7v-0.1c0.1-0.1,0.1-0.2,0.2-0.1v-0.1c0.1,0,0.2,0,0.2,0.1v-0.1
				c0.1-0.1,0.1-0.1,0.2-0.1c-0.1-0.2,0.1-0.3,0.3-0.5c0.1,0,0.1,0,0.2,0.1v-0.1c0.5,0,0.4-0.8,0.9-0.5c0.1-0.1,0.5-0.5,0.6-0.6
				c0.1,0,0.1,0,0.2,0.1v-0.1h0.1c0.1-0.1,0.4-0.2,0.5-0.3c0.2,0.1,0.2-0.2,0.3-0.2h0.1l-0.8,5.3l-0.3,2.8l-0.7,4.3
				c-0.3,2.5-0.2,4.9-0.5,7.4c0.4-0.7,0.5-1.6,0.5-2.4c0.4-0.3,0.2-0.9,0.4-1.2c-0.1-0.2,0.2-0.3,0.2-0.6c-0.2-0.5,0.6-0.7,0.5-1.2
				c0.4-0.3,0.1-0.8,0.5-1.1c0.1-0.4,0.1-1,0.3-1.3v-0.1c0.1-0.2,0.3-0.6,0.2-0.9c0.1-0.2,0.3-0.3,0.2-0.5l0.1-0.1
				c0-0.1,0.1-0.2,0-0.3c0.3-0.1,0-0.5,0.3-0.6c0.1-0.4-0.1-0.9,0.4-1.1c0.2-0.1,0.3-0.4,0.2-0.5c0.1-0.1,0.4-0.2,0.2-0.4l0.2-0.1
				c0-0.1,0.2-0.2,0.1-0.3l0.4-0.3l0.1,0.1c0.1-0.1,0-0.2,0-0.3c0.1-0.4,0.5-0.9,0.7-1.4c0.2-0.2-0.1-0.5,0.2-0.5l-0.1-0.2h0.1
				l-0.1-0.1c0.3-0.1,0-0.4,0.3-0.5l-0.1-0.1c0.1-0.2,0.2-0.7,0.5-1c-0.1-0.4,0.3-0.5,0.2-0.8c0.1-0.3,0.2-0.4,0.3-0.8
				c0-0.6,0.5-1.2,0.5-2c0.2-0.4,0.2-1.3,0.4-1.5v-0.1l0.1-0.1C192.5,232.2,192.6,232.1,192.6,231.9z"/>
			<path class="st17" d="M219.6,241.6h0.1l0,0c-1-4.6-3.9-8.8-7.1-12.1c-0.7-0.4-0.9-1.3-1.7-1.7c-0.2-0.3-0.5-0.6-0.8-0.6
				c-0.1-0.4-0.5-0.7-0.7-0.7c0.1-0.3-0.4-0.2-0.2-0.5h-0.1c-0.3-0.2-0.6-0.6-1-0.5c-0.4-0.4-1-0.5-1.5-0.4c-0.3-0.3-0.8-0.1-1.2,0
				c-0.5,0.7-1.5,0.8-2.3,1.2l-0.4-0.2c0-0.5-0.6-0.8-0.6-1.4c-0.3-0.1-0.2-0.6-0.6-0.5l-0.1-0.1c-0.3-0.2-0.5-0.2-0.8,0
				c-0.6,0.6-0.6,1.4-0.7,2.1c-0.3,0.1,0,0.4-0.2,0.5c-0.2,0.3-0.2,0.6-0.6,0.9l0.1,0.1c-0.3,0.4-0.5,0.9-0.3,1.4
				c-0.2,1,0.3,1.9,0.4,2.7c0,0.4,0.4,0.7,0.2,1c0.3,0.8,0.5,1.5,0.6,2.2c0.8,1.8,0.2,3.7,0.4,5.6c0,0.8,0,1.6,0.2,2.3h-0.1
				c0.1,0.7-0.1,1.5,0,2.2h-0.1l0.1,0.2c-0.1-0.3,0.3-0.5,0.2-0.7l0.2-0.1c0.3,0.3-0.1,0.8-0.1,1.2c0.4-1,0.7-1.7,0.9-2.7
				c-0.1-0.2,0.1-0.5,0.2-0.6c0.1-0.3,0.1-0.6,0.2-0.9l0.7-4.3c0.2-1.5,0.4-3.1,0.5-4.6c0.3-1.3,0-2.4,0.1-3.7
				c-0.2-0.7-0.2-1.6-0.2-2.2c0.4-0.3,0.8-0.4,1.3-0.6c1.1-0.4,1.6,0.5,2.2,1.2c0.4,0.7,0.5,1.4,1,2c0.1,0.9,1,1.2,1.6,1.6
				c0.2,0.1,0.2,0.5,0.5,0.4c0.2,0.1,0.2,0.4,0.5,0.3c0.1,0.1,0.1,0.3,0.3,0.4c0.6,0.1,0.8,0.8,1.4,0.9c0.3,0.3,0.6,0.5,0.9,0.9h0.1
				c0.7,0.6,1.2,1.3,1.9,1.9c0.7,0.8,1.5,1.5,2.1,2.4c1,0.6,1.4,1.8,2.1,2.7l-0.3-0.8h0.1C219.2,240.6,219.6,241.1,219.6,241.6z"/>
			<path class="st17" d="M219.8,241.7v0.1C219.8,241.7,219.8,241.7,219.8,241.7L219.8,241.7z"/>
			<path class="st17" d="M212.4,263l-0.3-1.3l-0.1-0.3l-0.6-0.6l-0.3-0.8l-0.6-0.5l-0.3-0.4c0-0.1-0.1-0.1-0.2-0.1
				c-0.1,0-0.3,0.1-0.4,0.3l-0.6-0.1c-0.2-0.9-0.5-1.2-1.7-1.4c-0.6-0.1-0.9-0.2-2.2-0.2c-0.1-0.2-0.3-0.3-0.4-0.3h-0.9h-0.4
				l-0.1,0.4c-0.2,0.1-0.4,0.1-0.6,0.1c-0.2,0-0.4-0.1-0.6-0.4l-1.7,0.6c-0.5,0.2-1,0.3-1.3,0.3c-0.1,0-0.3,0-0.5-0.1
				c-0.4,0.4-0.6,0.6-0.9,0.6c-0.1,0-0.2,0-0.3-0.1v1.5c0-0.2-0.1-0.4-0.2-0.5c-0.6-1.5-0.7-1.8-0.4-2c0.1-0.1,0.4-0.1,0.6-0.2
				l-0.1-0.6v-1.4l-0.7-0.8c-0.2-0.3,0-0.6,0.7-1c-0.1-0.4-0.2-0.8-0.4-0.9l-0.6-0.5l0.3-0.5l0.4-0.7v-1.3l0.1-1.6l-0.2-1.7l0.1-1.3
				c-0.2-0.1-0.4-0.2-0.5-0.3c-0.2-0.2-0.2-0.3,0.3-1.5l0.1-1.5l-0.1-2.7c-0.5-1.1-0.6-1.1,0.1-1.6l-0.1-0.8v-0.9l0.4-4.5l-0.5-0.8
				l0.3-0.7v-2.5l0.1-1.7c0.8-0.5,1.5-0.8,2.1-1.5c0.6-0.3,1.4-0.7,1.5-1.5c-0.1-0.2-0.1-0.4-0.3-0.4c-0.8-0.1-1.6-0.6-2.3-0.3
				c-0.4-0.2-0.8,0-1.2-0.1v-0.2l0.6-0.4l0.4-2.7l-0.1-1.3l0.3-0.9c-0.8-0.4-1.2-0.3-1.9,0.2c-0.8,0.5-1.3,0.9-2.1,1.9
				c0.2,0.7,0.2,0.9-0.2,1.5l0.2,0.6l0.2,1.5v0.1c-1,0.1-2.1,0.2-3.1,0.1l-3.5,0.4c-3.2,0.5-6.5,1.2-9.6,2.3v0.1
				c1.1-0.2,2.3,0.1,3.4-0.1c0.3-0.1,0.7-0.2,0.9,0h0.1l0.1,0.2l0.3-0.1c0.4,0.4,0.9,0,1.2,0.3c0.3,0.2,0.6-0.2,0.8,0.2
				c1.2-0.1,2.5,0.4,3.6,0.3l0.1,0.1c0.9,0.1,2-0.2,2.8-0.3c0.9,0.1,1.9,0.2,2.8,0.2v0.8l0.3,1.8l-0.2,3.2c0.1,0.5,0.2,0.7,0.6,1.1
				l-0.7,0.9v4.7c0.3,0.2,0.5,0.3,0.6,0.4c0.4,0.4,0.2,0.8-0.5,1.2v0.7l0.5,0.4l-0.1,0.5l-0.3,0.7c-0.1,0-0.2,0-0.4,0l-0.1,1
				l0.3,2.4l-0.1,2.2v0.8c0,0.3,0.1,0.4,0.2,0.6h0.4c0.3,0.7,0.3,1.1,0.1,1.3c-0.1,0.1-0.4,0.1-0.7,0.2l0.1,1l0.5,0.5
				c-0.6,0.9-0.9,1.3-0.8,1.6l0.4,1.8l-0.3,5.5l0.3,1.7v9.1l0.5,2.9l-0.1,2.4l-0.1,1.8l0.8,0.6l0.8-0.1l0.9-0.8
				c1.8-1.2,2.2-1.9,1.9-3.2c-0.4-0.1-0.7-0.2-0.8-0.3c-0.1-0.1-0.2-0.2-0.2-0.5h0.5c0.2-0.3,0.1-0.4-0.1-0.7c0,0,0,0-0.1-0.1
				l1.3,0.4h0.8l1.1,0.3l0,0l1.6-0.3l1.4-0.3l1.6-0.6l0.9-0.4l1.9-1.8l0.9-0.6l0.7-1l0.4-0.5l0.1-0.4l0.1-0.2
				c-0.1-0.3-0.1-0.6-0.1-0.7c0-0.3,0.1-0.4,0.3-0.7l0.3,0.1c0.7-1,0.9-1.6,0.9-2.4c0-0.2,0-0.4-0.1-0.6L212.4,263z M209.5,266.5
				l-0.2,1.2l-0.4,0.9l-0.7,1.3l-0.6,0.6l-0.8,0.9c-0.4,0.5-1.2,0.9-2.2,1l-1.3,0.4l-1.7-0.1h-0.3l-0.4,0.2v-0.2l-0.5-0.1l-0.7-0.3
				h-0.6l-0.6-0.3l0,0l-0.3-1.1l-0.1-2.3l-0.3-1.5l-0.1-0.8l-0.6-1.1v-1l0.3-0.1l-0.1-0.8v-2.4c0-0.1,0-0.2,0-0.3l0.9-0.5l1.7-1
				c0.2-0.1,0.6-0.2,0.9-0.2l1.4,0.3l2.5,0.2l0.9,0.5l1.5,0.8c0.5,0.3,0.8,0.6,1,0.8l0.4,0.7l0.7,0.5c0.1,0,0.2,0.2,0.2,0.4v0.6
				l0.3,2.3L209.5,266.5z"/>
		</g>
		<g>
			<path class="st17" d="M104.7,264.9L104.7,264.9L104.7,264.9L104.7,264.9z"/>
			<path class="st17" d="M118.6,265.8L118.6,265.8L118.6,265.8z"/>
			<path class="st17" d="M119.7,259.4L119.7,259.4L119.7,259.4L119.7,259.4z"/>
			<path class="st17" d="M104.5,265.9v-0.1V265.9L104.5,265.9z"/>
			<path class="st17" d="M117.8,266.4L117.8,266.4C117.8,266.5,117.8,266.4,117.8,266.4z"/>
			<path class="st17" d="M105.7,263.8C105.6,263.9,105.7,263.9,105.7,263.8L105.7,263.8z"/>
			<path class="st17" d="M118.9,264.7c0.1-0.5,0.4-0.8,0.5-1.3l0.2,0.2l-0.1,0.1c0.1,0,0.1,0.3,0.1,0.1l0.2-0.7h-0.1
				c-0.1-0.1-0.2-0.3-0.1-0.4c0.4-0.5-0.3-1.1,0.2-1.3c-0.1,0-0.1,0-0.2-0.1l0.2-0.2c0-0.1,0-0.1-0.1-0.2l0.1-0.1l-0.1-0.1
				c0-0.4,0-0.8,0-1.2l-0.1-0.1l0.1-0.1l-0.1-0.1c0.3-0.2-0.1-0.4,0.2-0.7c-0.3-0.3-0.1-0.5-0.2-0.9c0.2-0.2-0.1-0.4,0-0.6l-0.1-0.1
				l0.2-0.2c0,0.1,0.2,0.1,0.2,0.3c0-0.1-0.1-0.3,0.1-0.3l-0.1-0.1l0.1-0.1c-0.5-0.4,0-1-0.3-1.4c0.3-0.3-0.2-0.5,0-0.8
				c-0.3-0.5,0-0.9-0.3-1.4c0.1-0.1,0.3-0.2,0.1-0.3c0.1-0.9-0.2-1.8-0.3-2.7c0.3-1.6-1.8-1.7-2.6-2.7c-0.1-0.4-0.7-0.1-0.8-0.6
				c-0.4-0.1-0.6-0.4-0.8-0.7c-0.4-0.2-0.7-0.8-0.7-1.2c-0.3-0.6-0.9-1.1-1.3-1.8c0.3-0.8,0.7-1.5,1-2.3c0.2-0.3,0.1-0.8,0.1-1.1
				l0.1-0.1l-0.2-0.3c-1,0.3-2,0.5-3,0.8c-0.2,0-0.4,0.3-0.5,0.2c-3.1,1.5-6.1,3.5-8.9,5.6l-7.1,5.6c-0.6,0.3-1.2,0.6-1.6,1.1
				c1-0.5,2.2-1,3.3-1.5c0.8-0.6,1.8-1,2.7-1.6c0.6,0,0.7-0.6,1.3-0.5c1.1-0.6,2.2-0.9,3.4-1.3c0.8-0.4,1.7-0.4,2.4-1l0.1,0.1
				c0.1,0,0.2,0,0.3-0.1c0,0,0.1,0.1,0.2,0.1c0-0.1,0-0.1,0.1-0.2l0.1,0.1l0.1-0.1c0.1-0.1,0.3-0.3,0.3-0.1c1.2-0.7,2.3-1.3,3.6-1.8
				c-0.2,1.3-1.2,2.5-1.4,3.9h-0.1c-0.2,1.3-0.8,2.5-1.1,3.8c-0.1,0.3-0.3,0.6-0.3,0.9c-0.4,1.2-0.5,2.3-0.9,3.5l-1.3,4.1
				c-0.4,1-0.6,2-0.8,3c-0.3,0.2-0.2,0.7-0.2,1c0.1-0.4,0.3-0.8,0.5-1.3c0.2,0.3,0,0.8-0.2,1.2h0.1c0.2-0.2,0.3-0.5,0.3-0.7l0.3-0.3
				c0.1,0,0.1,0.1,0.1,0.1l0,0h0.1l-0.1-0.1l0.2-0.2l-0.1-0.1c0.3-0.1,0.1-0.6,0.6-0.6c0.5-0.1,0.3-0.8,0.8-0.9
				c0-0.5,0.5-0.5,0.8-0.8c0,0,0.1,0.1,0.1,0.2l0.3-0.7l0.1,0.1c0.3-0.3,0.4-0.7,0.6-1c0.4-0.1,0.1-0.7,0.6-0.7
				c0.1-0.6,0.4-1.2,0.7-1.6c-0.1-0.3,0.2-0.6,0.3-0.8c0-0.1,0-0.2,0.1-0.3l-0.1-0.1l0.1-0.1c-0.1-0.4,0.3-0.7,0.4-1
				c0.2-0.2,0.3-0.5,0.3-0.7c0-0.3,0.3-0.5,0.5-0.6c0.5-1.3,0.8-2.6,1.7-3.8c0.4,0.9,0.3,1.8,0.7,2.7c0,1.1,0.7,1.8,0.7,2.9
				c0,0.3,0.4,0.7,0.3,1c0.1,0.2,0,0.5,0.2,0.7c0.3,2.5,1.3,4.5,1.7,7.1c0.2,0.3,0.3,0.8,0.3,1.3c0,0.2,0.3,0.3,0.2,0.5
				c0.1,0,0.1,0.1,0.1,0.2l0.1-0.1l-0.1-0.1c0-0.1,0.1-0.2,0.2-0.2c0,0,0.1,0.1,0.1,0.2c0.1,0,0.2,0,0.3-0.1c0,0.1,0.2,0.3,0.1,0.3
				h0.1c0-0.2,0-0.4-0.1-0.6c0.1-0.2,0.2,0,0.3,0.1l0.1-0.1C118.5,265.4,119,265.1,118.9,264.7z"/>
			<path class="st17" d="M104.7,264.9c-0.2,0.2-0.2,0.6-0.2,0.8C104.5,265.5,104.6,265.2,104.7,264.9z"/>
			<path class="st17" d="M104.5,265.9c-0.1,0.1-0.1,0.1-0.1,0.2C104.4,266.1,104.4,266,104.5,265.9z"/>
			<path class="st17" d="M143.8,244.9c0,0.1,0,0.1,0,0.1V244.9L143.8,244.9z"/>
			<path class="st17" d="M144.5,245.7c-0.1-0.2-0.2-0.3-0.4-0.4l0.1-0.1c-0.1-0.2-0.4,0-0.5-0.2c-0.2-0.1-0.1-0.5-0.3-0.5l0.1-0.1
				l-0.1-0.1l-0.1,0.1l-0.2-0.2l0.1-0.1L143,244l-0.1,0.1c-0.1,0-0.1,0-0.2-0.1l0.1-0.1l-0.1-0.1l-0.1,0.1l-0.3-0.3l0.1-0.1
				c-0.1,0-0.1,0-0.2,0.1c-0.1,0-0.1-0.2-0.1-0.3l-0.1,0.1c-0.1-0.3-0.4-0.4-0.7-0.6l0.1-0.1c-0.2,0-0.1-0.3-0.4-0.3l-0.1,0.1
				c0-0.3-0.4-0.1-0.5-0.4c-0.1-0.1-0.3-0.2-0.3-0.4l-0.1,0.1l-0.3-0.4c-0.3-0.3-0.7-0.5-1-0.8h-0.2c-2.2-2.3-5-3.6-7.5-5.6
				l-0.1,0.1l-0.2-0.2c-0.2-0.2-0.6-0.4-0.8-0.3c-0.1-0.1-0.1-0.2-0.2-0.3c-0.1-0.1-0.3-0.2-0.4-0.1c-0.6-0.6-1.4-0.5-2-1
				c-0.4,0-0.7-0.4-1-0.3c-0.5-0.4-0.8,0.3-1.2,0.5c-0.3,1.2,1.1,1.5,1.6,2.4c1.2,0.8,1,2.4,2.6,2.7c1.6,0.3,3.1,0.7,4.6,1.3
				c1.9,0.9,3.7,2.2,5.6,3.1l3.2,1.9l1.3,0.9c-0.2-0.1-0.2-0.4-0.5-0.4c0-0.2-0.5-0.3-0.3-0.6C143.7,245.2,144.2,245.3,144.5,245.7z
				"/>
			<path class="st17" d="M142.2,263.2l-0.1-0.1c0.2-0.1,0.3-0.3,0.3-0.4c0-0.3-0.3-0.9-0.7-1.5l-0.3,0.1c-0.1,0-0.4-0.2-0.6-0.5
				c0.1-0.2,0.1-0.4,0.1-0.6c0-0.3-0.2-0.5-0.9-0.8l-0.4-0.2V259l-2-1.1l-0.3,0.1l-0.3-0.3h-0.3c-0.2-0.4-0.4-0.5-0.9-0.5h-0.4
				c-0.2,0.2-0.4,0.3-0.6,0.3c-0.2,0-0.3-0.3-0.3-0.9l-1.2-0.4l-0.1,0.2l-0.5-0.2l-0.5-0.4l-0.5-0.3v-0.2l0.6-0.5l1.7-0.9l0.6-0.6
				l0.8-0.3v-0.6c0-0.2,0.2-0.4,0.4-0.4h0.3l0.2-0.4c0.3-0.4,0.4-0.9,0.4-1.1c0-0.3-0.2-0.4-1-0.9l-0.5-0.1h-0.6l-0.4-0.1l-0.7-0.1
				l-0.3,0.3c-0.6-0.4-1-0.5-1.7-0.5L130,249l-1.5-0.2l-0.7,0.2l-0.1,0.1l-0.4-0.1l-0.3-0.3l-2,0.1c0.2-0.2,0.2-0.4,0.2-0.5
				l-0.5-1.5l0.3-4.4l-0.4-1.3v-7.3l-0.5-2.3l0.1-1.9l0.1-1.5l-0.8-0.5l-0.9,0.1l-1,0.6c-1.9,0.9-2.4,1.5-2,2.5
				c0.5,0.1,0.8,0.2,0.9,0.3s0.2,0.2,0.2,0.4h-0.6c-0.2,0.2-0.1,0.3,0.1,0.5c0,0,0.1,0.1,0.2,0.1l-0.4,0.3l0.2,0.5l0.4,1.3l0.1,1.8
				l0.3,1.2l0.2,0.6l0.7,0.9v0.8l-0.4,0.1l0.1,0.6v1.9c0,0.4,0.1,0.7,0.2,1c0.7,1.2,0.8,1.4,0.4,1.6c-0.2,0.1-0.4,0.1-0.6,0.2
				l0.1,0.5v1.2l0.8,0.7c0.2,0.2,0,0.5-0.7,0.8c0.1,0.2,0.1,0.4,0.2,0.6c-0.2,0-0.4,0.1-0.6,0.3l-0.4,0.3l-1,0.4l-0.4,0.3v0.3h0.1
				l0.1,0.2l0.6-0.1c0.4,0.3,0.6,0.4,1,0.4l0,0h0.5v0.4l-0.1,1.3l0.2,1.4l-0.1,1c0.2,0.1,0.4,0.1,0.5,0.2c0.2,0.2,0.2,0.3-0.3,1.2
				l-0.1,1.2l0.1,2.2c0.6,0.8,0.6,0.9-0.1,1.3l0.1,0.7v0.7l-0.5,3.6l0.5,0.6l-0.3,0.5v2l-0.2,2.5h-0.9l-1.4,0.6l-0.5,0.3v0.3
				l0.1,0.6c0.1,0.1,0.3,0.1,0.4,0.1s0.3-0.1,0.6-0.3l0.3-0.2l-0.1-0.3l0.7,0.1c0.1,0.2,0.3,0.4,0.4,0.4l0.6-0.1l0,0v0.4l-0.7,0.3
				l-0.5,2.2l0.1,1l-0.4,0.7c0.9,0.3,1.3,0.2,2.1-0.1c0.8-0.4,1.4-0.7,2.3-1.5c-0.2-0.5-0.2-0.7,0.3-1.2l-0.2-0.5l-0.2-0.9l0.5,0.2
				l0.3-0.4c1.7,0.8,2.5,0.9,4.9,0.9c2.7,0,4-0.2,5.8-1.5c0.6-0.2,0.7-0.3,1.5-0.8l1.1-0.7l1.3-1.1l-0.1-0.2l-0.4-0.2h0.4v-0.6
				l0.4-0.1c0.1,0,0.3,0.1,0.5,0.3l0.2-0.4l0.7-1.4l0.6-0.9V266l0.2-1.1c0,0,0-0.1,0-0.2c0-0.4-0.2-0.7-0.7-1.4L142.2,263.2z
				 M126.8,250.1l1.8,0.2l0.4-0.1l0.4,0.3l0.5-0.1c0.6,0,1.2,0.2,2.6,1c0,0.9-0.1,1.3-0.2,1.6c-0.2,0.5-1,1.2-1.5,1.4l-1.8,0.5
				l-0.6,0.6c-0.1,0.1-0.2,0.1-0.3,0.1c-0.1,0-0.3-0.1-0.5-0.3l-0.5,0.1c-0.3,0.1-0.5,0.2-0.7,0.2H125l-0.1,0.1l-0.2-1.1l0.1-1.8
				v-0.7c0-0.2-0.1-0.3-0.3-0.5h-0.4c-0.3-0.6-0.4-0.9-0.1-1c0.2-0.1,0.5-0.1,0.8-0.1v-0.3c0.3-0.1,0.7-0.1,1.1-0.1L126.8,250.1z
				 M138.9,267.6l-0.1,0.7l-0.3,0.5l-0.6,1.2c-0.2,0.5-0.5,0.9-0.8,1.1l-1,0.6l-0.7,0.6l-0.6,0.3l-0.6,0.2c-0.2,0.1-0.3,0.1-0.6,0.1
				h-2.3l-1.7,0.1l-1.9-0.4l-1.4-0.1l-1.3-0.3l-0.5-0.1l-0.1-0.4l0.1-0.3l0.6-0.1v-0.7l0.1-0.9l-0.3-1.4l0.2-2.6
				c-0.1-0.4-0.2-0.6-0.7-0.9l0.7-0.7v-3.8c-0.3-0.1-0.6-0.3-0.7-0.3c-0.4-0.3-0.3-0.6,0.5-1v-0.5l-0.6-0.3l0.1-0.4l0.3-0.6
				c0.1,0,0.2,0,0.4,0v-0.4c0,0.2,0.1,0.3,0.1,0.3l1.2,0.1l0.8,0.2h0.8l0.9,0.2l0.4,0.2h0.3v-0.3l0.4,0.1c0.1-0.2,0.1-0.3,0.3-0.3
				s0.4,0.1,0.6,0.3l0.6,0.7l0.9,0.1l0.5,0.3l2.7,0.9c0.2,0.1,0.4,0.3,1,0.8h0.4l0.7,0.2l0.2,0.3l0.2,0.5c0,0.1,0.2,0.3,0.5,0.6
				c0.4,0.5,0.6,0.9,0.7,2.2l0.3,1.6v0.2L138.9,267.6z"/>
		</g>
	</g>
</g>
<rect x="70.3" y="43.7" class="st18" width="229.3" height="131"/>
<path class="st19" d="M117.2,109.8h-7c-0.5,0-0.7-0.3-0.7-0.6c0-0.4,0.3-0.6,0.7-0.6h7c0.5,0,0.7,0.3,0.7,0.6
	C118,109.6,117.7,109.8,117.2,109.8z"/>
<path class="st19" d="M132.8,109.8h-7c-0.5,0-0.7-0.3-0.7-0.6c0-0.4,0.3-0.6,0.7-0.6h7c0.5,0,0.7,0.3,0.7,0.6
	C133.6,109.6,133.3,109.8,132.8,109.8z"/>
<path class="st19" d="M145.3,117.3c-3.7,0-6.1-2.6-6.1-5.6v-5c0-3,2.4-5.6,6.1-5.6c3,0,4.9,1.7,5.5,3.4c0.1,0.2,0.2,0.7-0.2,1
	l-1.6,1c-0.4,0.2-0.8,0.2-1-0.2c-0.6-1.1-1.2-2.1-2.7-2.1c-1.6,0-2.5,1.3-2.5,2.4v5c0,1.2,0.9,2.4,2.5,2.4c1.5,0,2.1-1,2.7-2.1
	c0.2-0.4,0.6-0.4,1-0.2l1.6,1c0.4,0.3,0.3,0.8,0.2,1C150.2,115.6,148.3,117.3,145.3,117.3z"/>
<path class="st19" d="M165.9,117h-2.1c-0.5,0-0.7-0.3-0.7-0.7v-5.2c0-0.2-0.1-0.4-0.4-0.4h-4.2c-0.2,0-0.4,0.1-0.4,0.4v5.2
	c0,0.5-0.3,0.7-0.7,0.7h-2.1c-0.5,0-0.7-0.3-0.7-0.7v-14.1c0-0.5,0.3-0.7,0.7-0.7h2.1c0.5,0,0.7,0.3,0.7,0.7v5.2
	c0,0.2,0.1,0.4,0.4,0.4h4.2c0.2,0,0.4-0.1,0.4-0.4v-5.2c0-0.5,0.3-0.7,0.7-0.7h2.1c0.5,0,0.7,0.3,0.7,0.7v14.1
	C166.7,116.7,166.4,117,165.9,117z"/>
<path class="st19" d="M180.8,110.7h-6.7c-0.2,0-0.4,0.1-0.4,0.4v0.6c0,1.2,0.9,2.4,2.5,2.4c1.5,0,2.1-1,2.7-2.1
	c0.2-0.4,0.6-0.4,1-0.2l1.6,1c0.4,0.3,0.3,0.8,0.2,1c-0.6,1.7-2.5,3.4-5.5,3.4c-3.7,0-6.1-2.6-6.1-5.6v-5c0-3,2.4-5.6,6.1-5.6
	c3.6,0,6.1,2.6,6.1,5.6v2.5C182.3,110.2,181.7,110.7,180.8,110.7z M178.7,106.7c0-1.2-0.9-2.4-2.5-2.4s-2.5,1.3-2.5,2.4v0.6
	c0,0.2,0.1,0.4,0.4,0.4h4.2c0.2,0,0.4-0.1,0.4-0.4L178.7,106.7L178.7,106.7z"/>
<path class="st19" d="M197.1,117H195c-0.5,0-0.7-0.3-0.7-0.7v-9.6c0-1.2-0.9-2.4-2.5-2.4s-2.5,1.3-2.5,2.4v9.6
	c0,0.5-0.3,0.7-0.7,0.7h-2.1c-0.5,0-0.7-0.3-0.7-0.7v-14.1c0-0.5,0.3-0.7,0.7-0.7h1.3c0.3,0,0.5,0.1,0.6,0.3
	c0.2,0.2,0.3,0.2,0.5,0.1c0.9-0.5,1.8-0.8,2.9-0.8c3.6,0,6.1,2.6,6.1,5.6v9.6C197.9,116.7,197.6,117,197.1,117z"/>
<path class="st19" d="M207.1,124c-2.3,0-4.2-1-5.4-1.8c-0.4-0.3-0.5-0.7-0.3-1l0.9-1.4c0.3-0.5,0.7-0.5,1-0.3c1,0.6,2.2,1.3,3.8,1.3
	c1.5,0,2.8-0.5,2.8-1.9s-1.4-1.9-2.8-1.9h-2.5c-0.5,0-0.7-0.3-0.7-0.7v-4.1c0-0.5-0.2-0.8-0.4-1c-1.1-1-2.1-2.4-2.1-4.4
	c0-3,2.4-5.6,6.1-5.6c1,0,1.5,0.2,1.9,0.2c1.1,0,1.7-1,3.4-1c0.5,0,0.7,0.3,0.7,0.7v1.8c0,0.5-0.2,0.7-0.5,0.7
	c-0.2,0.1-0.3,0.3-0.2,0.6c0.3,0.6,0.6,1.4,0.6,2.7c0,2.9-2.4,5.4-5.7,5.6c-0.2,0-0.4,0.1-0.4,0.4v0.8c0,0.2,0.1,0.4,0.4,0.4
	c3.2,0.1,5.7,1.8,5.7,5C213.5,121.9,211.1,124,207.1,124z M207.4,104.3c-1.6,0-2.5,1.3-2.5,2.4c0,1.2,0.9,2.4,2.5,2.4
	s2.5-1.2,2.5-2.4S209,104.3,207.4,104.3z"/>
<path class="st19" d="M227.5,104.5c-0.4,0-0.7-0.3-0.9-0.8l-2.2-5c-0.7-1.5-2-1.5-2.6,0l-2.3,5c-0.2,0.5-0.5,0.8-0.9,0.8
	c-0.6,0-0.7-0.5-0.5-1l3.8-8.1c0.2-0.5,0.5-1,1.1-1s1,0.5,1.2,1l3.8,8.1C228.2,104,228.1,104.5,227.5,104.5z"/>
<path class="st19" d="M244,117h-10.7c-0.5,0-0.7-0.3-0.7-0.7c0-4.4,1.9-6.2,7.6-9c0.5-0.3,0.7-0.6,0.7-1.2c0-0.8-0.8-1.9-2.2-1.9
	s-2.1,0.8-2.8,2c-0.2,0.4-0.6,0.4-1,0.2l-1.5-0.9c-0.3-0.2-0.4-0.6-0.2-1c0.8-1.7,2.6-3.4,5.5-3.4c3.4,0,5.7,2.3,5.7,5
	c0,2-0.9,3.1-2.4,3.9c-3.5,1.9-5.2,2.8-5.3,3.6c0,0.2,0.1,0.4,0.3,0.4h7c0.5,0,0.7,0.3,0.7,0.7v1.6C244.7,116.7,244.5,117,244,117z"
	/>
<g>
	<path class="st20" d="M396.2,154.6c3,2.5,6.8,3.8,10.6,3.5c2.9-0.2,5.5-1.3,7.8-3.1c-6.9-0.2-13.6-0.8-19.9-1.9
		C395.2,153.7,395.7,154.2,396.2,154.6z"/>
	<path class="st21" d="M389.6,147.2c-0.8-0.1-1.5-0.2-2.3-0.3l0.1,0.3l0.5,2.7c1,0.3,2.1,0.5,3.2,0.8c-0.6-1-1-2.1-1.4-3.3h-0.1
		C389.6,147.4,389.6,147.3,389.6,147.2z"/>
	<path class="st22" d="M416.7,153c1-1.2,1.8-2.5,2.4-3.8c-6.2-0.2-12.3-0.5-18.2-0.9c-3.2-0.2-6.3-0.3-9.3-0.6
		c0.4,1.3,0.9,2.5,1.7,3.6c7,1.4,14.7,2.4,22.7,2.6C416.2,153.6,416.5,153.3,416.7,153z"/>
	<path class="st20" d="M431.6,153.5c12.3-1,24.1-3.3,34.4-6.8c-10.4,1.3-21.3,2.2-32.4,2.5c-4.7,0.1-9.4,0.1-14.1,0
		c-0.7,1.6-1.5,3.1-2.7,4.5c-0.1,0.1-0.1,0.1-0.2,0.2C421.6,154,426.6,153.9,431.6,153.5z"/>
	<path class="st23" d="M471.4,146c-0.9,0.1-1.9,0.3-2.8,0.4c-10.9,4.1-23.6,7-36.9,8.1c-5.5,0.4-10.9,0.6-16.2,0.5
		c-2.5,2.4-5.8,3.8-9.3,4.1c-4.1,0.3-8.2-1-11.4-3.7c-1-0.8-1.8-1.7-2.5-2.7c-1.4-0.3-2.8-0.6-4.1-0.9l1,5.3
		c11.8,3.2,25.5,5.5,40.2,6.4c11.4,0.7,22.3,0.6,32.3-0.3C466.2,158.1,469.7,152.2,471.4,146z"/>
	<path class="st22" d="M472.9,136.6c0.1,2.6,0,5.2-0.5,7.8c1.1-0.4,2.2-0.9,3.3-1.4C475.1,140.7,474.1,138.6,472.9,136.6z"/>
	<path class="st24" d="M389.5,146.8c-0.2-0.7-0.3-1.5-0.4-2.2l-2.1,0.7l0.2,1.3C388,146.6,388.7,146.7,389.5,146.8z"/>
	<path class="st20" d="M476.4,145.4c-1.4,0.2-2.8,0.4-4.2,0.6c-1.3,6.1-4.1,12-8.3,17.2c3.8-0.4,7.5-0.8,10.9-1.4
		c1.7-4.2,2.5-8.6,2-13.2C476.8,147.5,476.6,146.4,476.4,145.4z"/>
	<path class="st22" d="M475.9,143.4c-1,0.5-2.1,0.9-3.2,1.4c1.2-0.2,2.3-0.3,3.5-0.5C476.1,144,476,143.7,475.9,143.4z"/>
	<path class="st13" d="M406.5,85.9c-11.9,17.9-16.1,38.8-9.6,56.1c0.6,1.5,1.2,3,1.9,4.4c1.7-0.6,3.4-1.4,5.2-2.4
		C400.1,125.8,400.9,105.4,406.5,85.9z"/>
	<path class="st24" d="M423.6,117.3l-4.2,0.1c-0.3,0-0.4-0.1-0.4-0.3s0.1-0.2,0.5-0.2l1-0.2c0.7-0.1,0.8-0.4,0.6-0.9l-1-2.2
		c-0.4-0.8-0.5-1-1.2-1h-3.2c-0.5,0-1,0.1-1.1,0.2s-0.1,0.1-0.4,0.7l-0.8,2c-0.4,1.1,0.8,1.5,1.6,1.5h0.6c0.1,0,0.2,0,0.2,0.2
		s-0.1,0.3-0.4,0.3c-0.4,0-2.4-0.2-2.9-0.2c-0.7,0-1.9,0.2-2.2,0.2c-0.3,0-0.6,0-0.6-0.2c0-0.3,0.3-0.3,0.9-0.3s1.3-0.4,1.9-1.7
		l4.2-10c0-0.1,0.1-0.3-0.4-0.5l-0.8-0.3c-0.3-0.1-0.6-0.3-0.6-0.4s0.1-0.2,0.2-0.2l3.9-0.6c0.2,0,0.4-0.1,0.6-0.1s0.2,0.3,0.2,0.7
		c0,0.2,0,0.7,0.2,1l4.6,10.7c0.3,0.7,0.8,1.1,1.4,1.2c7.1-19.4,3.6-40.5,11.6-59.8c-12.6,7-23,16.8-30.5,27.8
		c-5.6,19.3-4.8,39.7-1,57.7c2.5-1.7,5.2-3.9,7.8-6.7c5.6-5.9,9.3-12.1,11.7-18.6L423.6,117.3z"/>
	<path class="st24" d="M415.4,110.6c-0.1,0.1-0.2,0.5-0.2,0.8c0,0.2,0.4,0.4,1.3,0.4h2.2c0.4,0,0.7-0.1,0.7-0.3c0,0,0-0.1,0-0.2
		l-2-5.1L415.4,110.6z"/>
	<path class="st13" d="M440,105.2l-0.3,1c-0.2,0.6-0.4,0.9-0.8,0.9c-0.2,0-0.4-0.1-0.9-0.7s-1.6-1.3-2.5-1.3c-2.3,0-1.9,3.2-1.9,4.8
		v5.1c0,0.8,0,1.6,0.6,1.7l0.9,0.1c0.2,0,0.3,0.1,0.3,0.2c0,0.2-0.3,0.3-0.8,0.3h-4.1l-2.1,0.1c-0.4,0-0.5-0.1-0.5-0.2
		s0-0.2,0.1-0.2l1.6-0.2c0.4-0.1,0.8,0,0.8-1.7c0-6.7,2-11.7,7.5-11.7c1.7,0,2.3,0.3,2.3,0.9C440.1,104.6,440,105,440,105.2z"/>
	<path class="st13" d="M456.5,106.7c-1.2,0-0.9-0.7-2.1-0.7c-0.4,0-1.4,0-1.1,0.6c0.4,0.7,0.7,2,0.7,2.5c0,2-1,4.8-5.6,5.3
		c0,0.2-0.1,0.6-0.1,1.3l0.1,1.3c0,0.4,0.3,0.4,1.1,0.4c2.9,0,4.3,1.7,4.3,5.1c0,2.9-2.3,6.6-5.9,6.6c-0.7,0-1.8-0.4-1.8-1.4
		c0-0.8,0.4-1.7,2.3-2c2.5-0.4,4.4-1.2,4.4-2.9c0-1.8-1.7-2-3.5-2.1H447c-0.1,0-0.3,0-0.3-0.3c0-0.8,0.6-1.1,0.6-3.7
		c0-1.4-0.1-2.2-0.2-2.2c-4-0.5-5.3-3.1-5.3-5.4c0-1.8,1.4-5.2,6.1-5.2c3.2,0,4.1,1.6,4.6,1.6c0.7,0,2-1.2,3.5-1.2
		c1.1,0,1.6,0.5,1.6,1.6C457.5,106.3,457.1,106.7,456.5,106.7z M447.9,104.4c-1.5,0-2.6,0.8-2.6,4.6c0,3.1,0.8,4.6,2.5,4.6
		c1.8,0,2.7-1.3,2.7-4.2C450.4,106,449.6,104.4,447.9,104.4z"/>
	<path class="st13" d="M466.6,117.6c-4.1,0-7.5-2.6-7.5-7.1c0-4.4,3.5-7.1,7.5-7.1s7.5,2.6,7.5,7.1
		C474.1,114.9,470.6,117.6,466.6,117.6z M466.6,104.1c-2,0-3.7,1.9-3.7,6.4s1.7,6.4,3.7,6.4s3.7-1.9,3.7-6.4
		C470.3,105.9,468.6,104.1,466.6,104.1z"/>
	<path class="st25" d="M458.3,121.5L458.3,121.5c-0.3,0-0.3,0-0.3-0.1s0-0.1,0.2-0.1h0.8h1c0.1,0,0.1,0,0.1,0.1s0,0.1-0.1,0.1
		l-0.3,0.1c-0.2,0-0.2,0.3-0.2,0.5v2.9c0,1.2,0.4,1.8,1.5,1.8s1.5-0.6,1.5-1.8v-3c0-0.2-0.1-0.4-0.2-0.5l-0.3-0.1
		c-0.1,0-0.1-0.1-0.1-0.1s0-0.1,0.1-0.1h1h0.8c0.2,0,0.2,0,0.2,0.1s-0.1,0.1-0.2,0.1h-0.1c-0.2,0-0.5,0.2-0.5,0.5v2.8
		c0,1.2-0.9,2.1-2.2,2.1h-0.3c-1.2,0-2.2-1-2.2-2.1V122C458.8,121.7,458.5,121.5,458.3,121.5z"/>
	<path class="st25" d="M467.4,126.9c-1.3,0-2-0.7-2-1.2c0-0.2,0.1-0.4,0.3-0.4c0.3,0,0.4,0.2,0.5,0.5c0.2,0.4,0.5,0.8,1.2,0.8
		s1.2-0.5,1.2-1c0-0.4-0.5-0.8-1-1c-1.6-0.7-2-1.3-2-2c0-0.8,0.7-1.4,1.6-1.4s1.5,0.3,1.6,0.4v0.1l0.1,1c0,0.1,0,0.2-0.1,0.2
		s-0.1,0-0.1-0.1l-0.3-0.6c-0.2-0.4-0.7-0.8-1.1-0.8c-0.6,0-1.1,0.4-1.1,0.9c0,0.3,0.2,0.7,0.9,1l0.9,0.5c0.7,0.3,1.1,0.8,1.1,1.4
		C469.2,126.2,468.4,126.9,467.4,126.9z"/>
	<path class="st25" d="M472.3,126.7c0,0.1-0.1,0.1-0.2,0.1s-0.9-0.1-1.1-0.1c-0.3,0-0.7,0.1-0.9,0.1c-0.1,0-0.2,0-0.2-0.1
		s0.1-0.1,0.4-0.1c0.2,0,0.5-0.1,0.7-0.7l1.6-3.9c0,0,0-0.1-0.2-0.2l-0.3-0.1c-0.1-0.1-0.2-0.1-0.2-0.2c0,0,0-0.1,0.1-0.1l1.1-0.2
		c0.1,0,0.2-0.1,0.2-0.1s0.1,0.1,0.1,0.3c0,0.1,0,0.3,0.1,0.4l1.8,4.2c0.1,0.3,0.3,0.5,0.6,0.5c0.2,0,0.3,0,0.3,0.1s0,0.1-0.1,0.1
		h-1l-1.3,0.1c-0.1,0-0.2,0-0.2-0.1s0-0.1,0.2-0.1l0.5-0.1c0.3,0,0.3-0.2,0.3-0.3l-0.4-0.9c-0.1-0.3-0.2-0.4-0.5-0.4h-1.4
		c-0.2,0-0.4,0-0.4,0.1c0,0-0.1,0-0.2,0.3l-0.3,0.8c-0.2,0.4,0.4,0.6,0.7,0.6L472.3,126.7C472.3,126.6,472.3,126.6,472.3,126.7z
		 M472,124.5c0,0.1,0.2,0.1,0.5,0.1h1c0.2,0,0.3,0,0.3-0.1c0,0,0,0,0-0.1l-0.8-2.2l-0.8,1.9C472.1,124.2,472,124.4,472,124.5z"/>
	<g>
		<path class="st26" d="M396.2,154.6c3,2.5,6.8,3.8,10.6,3.5c2.9-0.2,5.5-1.3,7.8-3.1c-6.9-0.2-13.6-0.8-19.9-1.9
			C395.2,153.7,395.7,154.2,396.2,154.6z"/>
		<path class="st27" d="M389.6,147.2c-0.8-0.1-1.5-0.2-2.3-0.3l0.1,0.3l0.5,2.7c1,0.3,2.1,0.5,3.2,0.8c-0.6-1-1-2.1-1.4-3.3h-0.1
			C389.6,147.4,389.6,147.3,389.6,147.2z"/>
		<path class="st27" d="M416.7,153c1-1.2,1.8-2.5,2.4-3.8c-6.2-0.2-12.3-0.5-18.2-0.9c-3.2-0.2-6.3-0.3-9.3-0.6
			c0.4,1.3,0.9,2.5,1.7,3.6c7,1.4,14.7,2.4,22.7,2.6C416.2,153.6,416.5,153.3,416.7,153z"/>
		<path class="st26" d="M431.6,153.5c12.3-1,24.1-3.3,34.4-6.8c-10.4,1.3-21.3,2.2-32.4,2.5c-4.7,0.1-9.4,0.1-14.1,0
			c-0.7,1.6-1.5,3.1-2.7,4.5c-0.1,0.1-0.1,0.1-0.2,0.2C421.6,154,426.6,153.9,431.6,153.5z"/>
		<path class="st28" d="M471.4,146c-0.9,0.1-1.9,0.3-2.8,0.4c-10.9,4.1-23.6,7-36.9,8.1c-5.5,0.4-10.9,0.6-16.2,0.5
			c-2.5,2.4-5.8,3.8-9.3,4.1c-4.1,0.3-8.2-1-11.4-3.7c-1-0.8-1.8-1.7-2.5-2.7c-1.4-0.3-2.8-0.6-4.1-0.9l1,5.3
			c11.8,3.2,25.5,5.5,40.2,6.4c11.4,0.7,22.3,0.6,32.3-0.3C466.2,158.1,469.7,152.2,471.4,146z"/>
		<path class="st29" d="M472.9,136.6c0.1,2.6,0,5.2-0.5,7.8c1.1-0.4,2.2-0.9,3.3-1.4C475.1,140.7,474.1,138.6,472.9,136.6z"/>
		<path class="st30" d="M389.5,146.8c-0.2-0.7-0.3-1.5-0.4-2.2l-2.1,0.7l0.2,1.3C388,146.6,388.7,146.7,389.5,146.8z"/>
		<path class="st31" d="M476.4,145.4c-1.4,0.2-2.8,0.4-4.2,0.6c-1.3,6.1-4.1,12-8.3,17.2c3.8-0.4,7.5-0.8,10.9-1.4
			c1.7-4.2,2.5-8.6,2-13.2C476.8,147.5,476.6,146.4,476.4,145.4z"/>
		<path class="st31" d="M475.9,143.4c-1,0.5-2.1,0.9-3.2,1.4c1.2-0.2,2.3-0.3,3.5-0.5C476.1,144,476,143.7,475.9,143.4z"/>
	</g>
	<path class="st32" d="M406.5,85.9c-11.9,17.9-16.1,38.8-9.6,56.1c0.6,1.5,1.2,3,1.9,4.4c1.7-0.6,3.4-1.4,5.2-2.4
		C400.1,125.8,400.9,105.4,406.5,85.9z"/>
	<g>
		<path class="st33" d="M423.6,117.3l-4.2,0.1c-0.3,0-0.4-0.1-0.4-0.3s0.1-0.2,0.5-0.2l1-0.2c0.7-0.1,0.8-0.4,0.6-0.9l-1-2.2
			c-0.4-0.8-0.5-1-1.2-1h-3.2c-0.5,0-1,0.1-1.1,0.2s-0.1,0.1-0.4,0.7l-0.8,2c-0.4,1.1,0.8,1.5,1.6,1.5h0.6c0.1,0,0.2,0,0.2,0.2
			s-0.1,0.3-0.4,0.3c-0.4,0-2.4-0.2-2.9-0.2c-0.7,0-1.9,0.2-2.2,0.2c-0.3,0-0.6,0-0.6-0.2c0-0.3,0.3-0.3,0.9-0.3s1.3-0.4,1.9-1.7
			l4.2-10c0-0.1,0.1-0.3-0.4-0.5l-0.8-0.3c-0.3-0.1-0.6-0.3-0.6-0.4s0.1-0.2,0.2-0.2l3.9-0.6c0.2,0,0.4-0.1,0.6-0.1s0.2,0.3,0.2,0.7
			c0,0.2,0,0.7,0.2,1l4.6,10.7c0.3,0.7,0.8,1.1,1.4,1.2c7.1-19.4,3.6-40.5,11.6-59.8c-12.6,7-23,16.8-30.5,27.8
			c-5.6,19.3-4.8,39.7-1,57.7c2.5-1.7,5.2-3.9,7.8-6.7c5.6-5.9,9.3-12.1,11.7-18.6L423.6,117.3z"/>
		<path class="st33" d="M415.4,110.6c-0.1,0.1-0.2,0.5-0.2,0.8c0,0.2,0.4,0.4,1.3,0.4h2.2c0.4,0,0.7-0.1,0.7-0.3c0,0,0-0.1,0-0.2
			l-2-5.1L415.4,110.6z"/>
	</g>
	<path class="st32" d="M440,105.2l-0.3,1c-0.2,0.6-0.4,0.9-0.8,0.9c-0.2,0-0.4-0.1-0.9-0.7s-1.6-1.3-2.5-1.3c-2.3,0-1.9,3.2-1.9,4.8
		v5.1c0,0.8,0,1.6,0.6,1.7l0.9,0.1c0.2,0,0.3,0.1,0.3,0.2c0,0.2-0.3,0.3-0.8,0.3h-4.1l-2.1,0.1c-0.4,0-0.5-0.1-0.5-0.2
		s0-0.2,0.1-0.2l1.6-0.2c0.4-0.1,0.8,0,0.8-1.7c0-6.7,2-11.7,7.5-11.7c1.7,0,2.3,0.3,2.3,0.9C440.1,104.6,440,105,440,105.2z"/>
	<path class="st32" d="M456.5,106.7c-1.2,0-0.9-0.7-2.1-0.7c-0.4,0-1.4,0-1.1,0.6c0.4,0.7,0.7,2,0.7,2.5c0,2-1,4.8-5.6,5.3
		c0,0.2-0.1,0.6-0.1,1.3l0.1,1.3c0,0.4,0.3,0.4,1.1,0.4c2.9,0,4.3,1.7,4.3,5.1c0,2.9-2.3,6.6-5.9,6.6c-0.7,0-1.8-0.4-1.8-1.4
		c0-0.8,0.4-1.7,2.3-2c2.5-0.4,4.4-1.2,4.4-2.9c0-1.8-1.7-2-3.5-2.1H447c-0.1,0-0.3,0-0.3-0.3c0-0.8,0.6-1.1,0.6-3.7
		c0-1.4-0.1-2.2-0.2-2.2c-4-0.5-5.3-3.1-5.3-5.4c0-1.8,1.4-5.2,6.1-5.2c3.2,0,4.1,1.6,4.6,1.6c0.7,0,2-1.2,3.5-1.2
		c1.1,0,1.6,0.5,1.6,1.6C457.5,106.3,457.1,106.7,456.5,106.7z M447.9,104.4c-1.5,0-2.6,0.8-2.6,4.6c0,3.1,0.8,4.6,2.5,4.6
		c1.8,0,2.7-1.3,2.7-4.2C450.4,106,449.6,104.4,447.9,104.4z"/>
	<path class="st32" d="M466.6,117.6c-4.1,0-7.5-2.6-7.5-7.1c0-4.4,3.5-7.1,7.5-7.1s7.5,2.6,7.5,7.1
		C474.1,114.9,470.6,117.6,466.6,117.6z M466.6,104.1c-2,0-3.7,1.9-3.7,6.4s1.7,6.4,3.7,6.4s3.7-1.9,3.7-6.4
		C470.3,105.9,468.6,104.1,466.6,104.1z"/>
	<path class="st25" d="M458.3,121.5L458.3,121.5c-0.3,0-0.3,0-0.3-0.1s0-0.1,0.2-0.1h0.8h1c0.1,0,0.1,0,0.1,0.1s0,0.1-0.1,0.1
		l-0.3,0.1c-0.2,0-0.2,0.3-0.2,0.5v2.9c0,1.2,0.4,1.8,1.5,1.8s1.5-0.6,1.5-1.8v-3c0-0.2-0.1-0.4-0.2-0.5l-0.3-0.1
		c-0.1,0-0.1-0.1-0.1-0.1s0-0.1,0.1-0.1h1h0.8c0.2,0,0.2,0,0.2,0.1s-0.1,0.1-0.2,0.1h-0.1c-0.2,0-0.5,0.2-0.5,0.5v2.8
		c0,1.2-0.9,2.1-2.2,2.1h-0.3c-1.2,0-2.2-1-2.2-2.1V122C458.8,121.7,458.5,121.5,458.3,121.5z"/>
	<path class="st25" d="M467.4,126.9c-1.3,0-2-0.7-2-1.2c0-0.2,0.1-0.4,0.3-0.4c0.3,0,0.4,0.2,0.5,0.5c0.2,0.4,0.5,0.8,1.2,0.8
		s1.2-0.5,1.2-1c0-0.4-0.5-0.8-1-1c-1.6-0.7-2-1.3-2-2c0-0.8,0.7-1.4,1.6-1.4s1.5,0.3,1.6,0.4v0.1l0.1,1c0,0.1,0,0.2-0.1,0.2
		s-0.1,0-0.1-0.1l-0.3-0.6c-0.2-0.4-0.7-0.8-1.1-0.8c-0.6,0-1.1,0.4-1.1,0.9c0,0.3,0.2,0.7,0.9,1l0.9,0.5c0.7,0.3,1.1,0.8,1.1,1.4
		C469.2,126.2,468.4,126.9,467.4,126.9z"/>
	<path class="st25" d="M472.3,126.7c0,0.1-0.1,0.1-0.2,0.1s-0.9-0.1-1.1-0.1c-0.3,0-0.7,0.1-0.9,0.1c-0.1,0-0.2,0-0.2-0.1
		s0.1-0.1,0.4-0.1c0.2,0,0.5-0.1,0.7-0.7l1.6-3.9c0,0,0-0.1-0.2-0.2l-0.3-0.1c-0.1-0.1-0.2-0.1-0.2-0.2c0,0,0-0.1,0.1-0.1l1.1-0.2
		c0.1,0,0.2-0.1,0.2-0.1s0.1,0.1,0.1,0.3c0,0.1,0,0.3,0.1,0.4l1.8,4.2c0.1,0.3,0.3,0.5,0.6,0.5c0.2,0,0.3,0,0.3,0.1s0,0.1-0.1,0.1
		h-1l-1.3,0.1c-0.1,0-0.2,0-0.2-0.1s0-0.1,0.2-0.1l0.5-0.1c0.3,0,0.3-0.2,0.3-0.3l-0.4-0.9c-0.1-0.3-0.2-0.4-0.5-0.4h-1.4
		c-0.2,0-0.4,0-0.4,0.1c0,0-0.1,0-0.2,0.3l-0.3,0.8c-0.2,0.4,0.4,0.6,0.7,0.6L472.3,126.7C472.3,126.6,472.3,126.6,472.3,126.7z
		 M472,124.5c0,0.1,0.2,0.1,0.5,0.1h1c0.2,0,0.3,0,0.3-0.1c0,0,0,0,0-0.1l-0.8-2.2l-0.8,1.9C472.1,124.2,472,124.4,472,124.5z"/>
</g>
</svg>
