<?xml version="1.0" encoding="utf-8"?>
<!-- Generator: Adobe Illustrator 25.0.0, SVG Export Plug-In . SVG Version: 6.00 Build 0)  -->
<svg version="1.1" id="Layer_1" xmlns="http://www.w3.org/2000/svg" xmlns:xlink="http://www.w3.org/1999/xlink" x="0px" y="0px"
	 viewBox="0 0 610 370" style="enable-background:new 0 0 610 370;" xml:space="preserve">
<style type="text/css">
	.st0{fill:#4D588B;stroke:#000000;stroke-width:0.25;}
	.st1{fill:#D2D5E2;}
	.st2{fill:#FFFFFF;stroke:#000000;stroke-width:0.25;}
	.st3{fill:#FC832B;}
	.st4{fill:#FBBA2F;}
	.st5{stroke:#000000;stroke-width:1.17;}
	.st6{fill:#B87001;}
	.st7{fill:none;stroke:#B87001;stroke-width:1.17;}
	.st8{fill:#FFE600;stroke:#000000;stroke-width:0.25;}
	.st9{fill:#807073;}
	.st10{fill:#1F77B2;}
	.st11{fill:#CC0000;stroke:#000000;stroke-width:0.25;}
	.st12{stroke:#000000;stroke-width:4.914;}
	.st13{fill:#FFFFFF;}
	.st14{fill:#363604;}
	.st15{fill:#E4EB81;stroke:#363604;stroke-width:0.364;}
	.st16{stroke:#000000;stroke-width:0.25;}
	.st17{fill:#FFCC33;}
	.st18{fill:#9F9F57;}
	.st19{fill:#BEBB8C;}
	.st20{fill:#B4B17B;}
	.st21{fill:#969646;}
	.st22{fill:#C9C69F;}
	.st23{fill:#889026;}
	.st24{fill:#758F29;}
	.st25{fill:#92A45F;}
	.st26{fill:#84902E;}
	.st27{fill:#7D9D36;}
	.st28{fill:#BDC4A0;}
	.st29{fill:#949A4E;}
	.st30{fill:#B2DF3B;}
	.st31{fill:#89B033;}
</style>
<g>
	<rect x="205.1" y="249" class="st0" width="200" height="120"/>
	<g>
		<g>
			<path class="st1" d="M265.6,325.5c-5.6,0-10.3-11.3-10.5-25.5c1.1-0.2,2.3-0.4,3.3-0.7c-0.9,0.1-2,0.2-3,0.3c-0.2,0-0.3,0-0.4,0
				c0-0.3,0-0.5,0-0.8c0-0.2,0-0.3,0-0.5c5.5-0.4,10.3-2,12.2-3.6c0.5-0.4,0.8-0.9,0.8-1.5c0-0.1,0-0.2,0-0.3
				c-0.2-2.5-6.6-4.1-14.1-3.4c-7.4,0.5-13.2,2.8-13.5,5.2c-1.9,1-2.9,2.1-2.7,3.2c0.3,2.5,7.2,3.7,15.4,2.6h0.1
				c-0.3,8.5-4.8,16.1-11.3,20.8c6.1-2.6,10.8-7.9,12.5-14.4c0.6,12.4,4.6,21.9,9.6,21.9c2.4,0,4.5-2.2,6.1-5.8
				C268.8,324.5,267.2,325.5,265.6,325.5z M255.1,296.9c0-0.9,0.1-2.1,0.2-3c-0.3,0.1-0.8,0.2-1.2,0.2c-0.3,0-0.8-0.1-1.1-0.1
				c0.2,0.9,0.3,2,0.3,2.9c-5.3-0.2-9.6-1.5-10.3-3c2.7-1,7.1-2,12-2.2c3.8-0.2,7.4,0,10.2,0.4c0.5,0.3,0.8,0.8,0.8,1.2
				C266,295.4,261.1,296.9,255.1,296.9z M254.5,290.1c3.4,0,6.6,0.4,8.6,1.1c-2.8-0.5-6.8-0.6-11.1-0.1c-3.4,0.4-6.7,1.2-9.1,2.2
				C243.3,291.5,248.3,290.1,254.5,290.1z M240.1,296.4c0-0.4,0.2-0.8,0.6-1.2c1,2,6.1,3.2,12.6,2.9c0,0.3,0,0.5,0,0.8
				c0,0.2,0,0.3,0,0.5C245.9,299.7,240.2,298.4,240.1,296.4z"/>
			<g>
				<g>
					<path class="st1" d="M265.5,306.9L265.5,306.9c0.6-0.7,1.2-1,2.1-1c0.9,0,1.8,0.3,2.3,1.2c0.4-0.8,1.4-1.2,2.3-1.2
						c1.7,0,2.3,1.1,2.3,2.6v4.3H272v-3.2c0-0.7,0-1.9-0.9-1.9c-1,0-1.1,1-1.1,1.9v3.2h-2.4v-3.2c0-0.7,0-1.9-1-1.9s-1,1.1-1,1.9
						v3.2h-2.4V306h2.4V306.9L265.5,306.9z"/>
					<path class="st1" d="M282.9,309.7h-5c0,0.9,0.5,1.5,1.5,1.5c0.5,0,0.8-0.2,1.1-0.6h2.3c-0.3,1.6-1.9,2.3-3.3,2.3
						c-2.2,0-3.8-1.2-3.8-3.5c0-2.2,1.5-3.5,3.7-3.5s3.6,1.5,3.6,3.7L282.9,309.7L282.9,309.7L282.9,309.7z M280.7,308.4
						c-0.1-0.6-0.7-1-1.4-1c-0.7,0-1.2,0.3-1.5,1H280.7z"/>
					<path class="st1" d="M286.6,307L286.6,307c0.4-0.8,1.2-1.1,2.2-1.1h0.4v2.3c-0.3-0.2-0.6-0.3-0.9-0.3c-1.4,0-1.7,0.8-1.7,2.1
						v2.7h-2.4v-6.8h2.4V307z"/>
					<path class="st1" d="M292.7,303.4c0,0.7-0.6,1.4-1.4,1.4c-0.7,0-1.4-0.6-1.4-1.4s0.6-1.4,1.4-1.4
						C292.2,302.2,292.7,302.8,292.7,303.4z M292.6,312.8h-2.4V306h2.4V312.8z"/>
					<path class="st1" d="M299.3,311.9L299.3,311.9c-0.4,0.7-1.2,0.9-2.1,0.9c-2,0-3.3-1.7-3.3-3.5c0-2,1.4-3.5,3.3-3.5
						c0.8,0,1.6,0.3,2.1,0.8v-4.8h2.4v10.8h-2.4V311.9z M296.2,309.3c0,0.8,0.5,1.5,1.5,1.5s1.5-0.6,1.5-1.5s-0.5-1.5-1.5-1.5
						C296.9,307.9,296.2,308.6,296.2,309.3z"/>
					<path class="st1" d="M305.8,303.4c0,0.7-0.6,1.4-1.4,1.4s-1.4-0.6-1.4-1.4s0.6-1.4,1.4-1.4
						C305.2,302.2,305.8,302.8,305.8,303.4z M305.6,312.8h-2.4V306h2.4V312.8z"/>
					<path class="st1" d="M314.7,312.8h-2.4v-0.8l0,0c-0.4,0.7-1.2,0.9-2.1,0.9c-2,0-3.3-1.7-3.3-3.5c0-2,1.4-3.5,3.3-3.5
						c0.8,0,1.6,0.3,2.1,0.8V306h2.4V312.8z M309.3,309.3c0,0.8,0.5,1.5,1.5,1.5s1.5-0.6,1.5-1.5s-0.5-1.5-1.5-1.5
						C309.9,307.9,309.3,308.6,309.3,309.3z"/>
					<path class="st1" d="M318.7,306.9L318.7,306.9c0.5-0.8,1.2-1,2.1-1c1.8,0,2.5,1.1,2.5,2.7v4.2h-2.4v-3.2c0-0.6,0.1-1.8-1-1.8
						c-0.9,0-1.2,0.7-1.2,1.6v3.4h-2.4V306h2.4L318.7,306.9L318.7,306.9z"/>
					<path class="st1" d="M327.2,306.9c-0.3,0-0.3,0.1-0.3,0.3v3c0,0.9,0.1,1.8,1.1,1.8c0.2,0,0.3,0,0.4-0.1
						c0.2-0.1,0.3-0.3,0.4-0.3s0.2,0.2,0.2,0.3c-0.3,0.3-0.8,0.7-1.7,0.7c-1.5,0-1.7-0.8-1.7-1.8v-3.4c0-0.4,0-0.4-0.3-0.4H325
						c-0.1-0.1-0.1-0.3-0.1-0.3c0.4-0.2,0.8-0.3,1-0.5s0.5-0.6,0.7-0.9c0.1,0,0.3,0,0.3,0.1v0.7c0,0.3,0,0.3,0.3,0.3h1.8
						c0.2,0.2,0.2,0.6,0,0.7L327.2,306.9L327.2,306.9z"/>
					<path class="st1" d="M331.4,308.6c-0.4,0-0.4,0-0.4,0.4c0,1.6,0.9,3,2.6,3c0.5,0,0.9-0.2,1.5-0.8c0.2-0.1,0.3,0.1,0.3,0.2
						c-0.5,1-1.7,1.5-2.6,1.5c-1,0-1.9-0.4-2.3-1c-0.4-0.6-0.7-1.5-0.7-2.1c0-2,1.4-3.6,3.2-3.6c1.5,0,2.3,0.9,2.3,2
						c0,0.3,0,0.3-0.1,0.4s-0.3,0.1-0.9,0.1H331.4L331.4,308.6z M332.3,308.1c1.2,0,1.6-0.1,1.7-0.2c0.1,0,0.1-0.1,0.1-0.3
						c0-0.4-0.3-0.9-1.2-0.9s-1.8,0.8-1.8,1.5c0,0,0,0.1,0.1,0.1L332.3,308.1L332.3,308.1L332.3,308.1z"/>
					<path class="st1" d="M338.3,310.9c0,1.1,0,1.4,0.6,1.5l0.3,0.1c0.1,0.1,0.1,0.3,0,0.4c-0.5,0-0.9-0.1-1.6-0.1s-1,0-1.6,0.1
						c-0.1-0.1-0.2-0.3,0-0.4l0.3-0.1c0.6-0.1,0.6-0.3,0.6-1.5v-7.3c0-0.9,0-1-0.5-1.4l-0.1-0.1c-0.1-0.1-0.1-0.3,0-0.3
						c0.4-0.1,1.1-0.3,1.8-0.7c0.1,0,0.1,0,0.2,0.1c0,0.4-0.1,1.4-0.1,2.1V310.9L338.3,310.9z"/>
					<path class="st1" d="M341.7,308.6c-0.4,0-0.4,0-0.4,0.4c0,1.6,0.9,3,2.6,3c0.5,0,0.9-0.2,1.5-0.8c0.2-0.1,0.3,0.1,0.3,0.2
						c-0.5,1-1.7,1.5-2.6,1.5c-1,0-1.9-0.4-2.3-1c-0.4-0.6-0.7-1.5-0.7-2.1c0-2,1.4-3.6,3.2-3.6c1.5,0,2.3,0.9,2.3,2
						c0,0.3,0,0.3-0.1,0.4s-0.3,0.1-0.9,0.1H341.7L341.7,308.6z M342.7,308.1c1.2,0,1.6-0.1,1.7-0.2c0.1,0,0.1-0.1,0.1-0.3
						c0-0.4-0.3-0.9-1.2-0.9s-1.8,0.8-1.8,1.5c0,0,0,0.1,0.1,0.1L342.7,308.1L342.7,308.1L342.7,308.1z"/>
					<path class="st1" d="M351.9,306.3c0.1,0.1,0.3,0.3,0.3,0.6c0,0.3-0.2,0.6-0.3,0.6c-0.1,0-0.2,0-0.3-0.1
						c-0.3-0.4-0.9-0.8-1.6-0.8c-1.1,0-2.2,0.8-2.2,2.6c0,1.2,0.8,2.7,2.6,2.7c0.9,0,1.5-0.4,1.8-0.9c0.1,0,0.3,0.1,0.3,0.3
						c-0.5,1.2-1.8,1.7-2.6,1.7s-1.7-0.3-2.2-0.8s-0.9-1.4-0.9-2.4c0-1.8,1.2-3.6,3.8-3.6C350.9,306.1,351.5,306.2,351.9,306.3z"/>
					<path class="st1" d="M359.7,309.4c0,2.1-1.5,3.4-3.4,3.4c-1.9,0-3.2-1.4-3.2-3.3s1.5-3.4,3.4-3.4
						C358.4,306.1,359.7,307.6,359.7,309.4z M356.3,306.6c-1,0-1.9,0.9-1.9,2.8c0,1.5,0.6,3,2.1,3s1.9-1.5,1.9-2.7
						C358.4,308.3,357.7,306.6,356.3,306.6z"/>
					<path class="st1" d="M370.4,308.6c0-1-0.4-1.7-1.5-1.7c-0.6,0-1.1,0.3-1.4,0.5c-0.2,0.3-0.3,0.4-0.3,0.9v2.5
						c0,1.1,0,1.4,0.6,1.5l0.3,0.1c0.1,0.1,0.1,0.3,0,0.4c-0.4,0-0.9-0.1-1.5-0.1c-0.6,0-0.9,0-1.5,0.1c-0.1-0.1-0.2-0.3,0-0.4
						l0.3-0.1c0.6-0.1,0.6-0.3,0.6-1.5v-2.3c0-1-0.4-1.7-1.5-1.7c-0.6,0-1.1,0.3-1.4,0.6c-0.2,0.2-0.3,0.4-0.3,0.8v2.5
						c0,1.1,0,1.4,0.6,1.5l0.3,0.1c0.1,0.1,0.1,0.3,0,0.4c-0.4,0-0.8-0.1-1.5-0.1s-1,0-1.6,0.1c-0.1-0.1-0.2-0.3,0-0.4l0.3-0.1
						c0.6-0.1,0.6-0.3,0.6-1.5v-2.8c0-0.6,0-0.7-0.4-0.9l-0.2-0.1c-0.1-0.1-0.1-0.3,0-0.3c0.3-0.1,1.4-0.5,1.6-0.8
						c0.1,0,0.2,0,0.2,0.1c0,0.3,0,0.6,0,0.8c0,0.1,0.1,0.2,0.2,0.2c0.6-0.4,1.5-0.8,2.1-0.8c0.8,0,1.2,0.3,1.7,0.9
						c0.2,0,0.3,0,0.4-0.1c0.6-0.4,1.5-0.8,2.2-0.8c1.4,0,2,0.8,2,2.1v2.7c0,1.1,0,1.4,0.6,1.5l0.3,0.1c0.1,0.1,0.1,0.3,0,0.4
						c-0.5,0-0.9-0.1-1.6-0.1s-0.9,0-1.5,0.1c-0.1-0.1-0.2-0.3,0-0.4l0.3-0.1c0.6-0.1,0.6-0.3,0.6-1.5L370.4,308.6L370.4,308.6
						L370.4,308.6z"/>
				</g>
			</g>
		</g>
		<g>
			<path class="st1" d="M348.4,318H348v-0.4h0.4V318z"/>
		</g>
	</g>
</g>
<g>
	<rect x="1" y="249" class="st2" width="200" height="120"/>
	<g>
		<path class="st3" d="M123.8,284.1c1.2-1.2,3.8-2.2,8-3c9.3-0.9,17.8,0.8,21.8,4.5c1.9,2.1,1.2,3.8-1.2,5c-1.9,0.8-4.4,1.2-7.9,1.4
			c-8.5,0.7-17,0.2-20.5-2.6C121.9,287.8,122.1,285.9,123.8,284.1z M82.2,338.8l2.8-3.2c0.5-1,0.9-1.9,1.5-2.7
			c3.6-6.3,7.7-12.1,11.7-16.6c9.3-9.6,17.1-13.7,29.3-18.5c9.7-2.4,17.6-3.6,27.8-5.9c7.3-0.8,14.7-1.6,20-2.6
			c6.2-0.8,8-3.5,0.3-5.3c-20.7-4.8-31.8-5.7-47.4-3.7c-9.4,1.2-13.9,6.2-19,12.7c-4.5,6.1-4.7,9.2-0.4,9.1l-0.3,0.3
			c-6.9,4.5-13.5,11.8-19.2,21.3C85.9,329.1,83.9,334,82.2,338.8z"/>
		<g>
			<path d="M24,298.6c0-0.8,0.6-1.5,1.5-1.5c0.8,0,1.5,0.6,1.5,1.5v4.4h1.4c0.7,0,1.2,0.5,1.2,1.2s-0.5,1.2-1.2,1.2h-1.4v13.1
				c0,0.8-0.7,1.5-1.5,1.5c-0.8,0-1.5-0.6-1.5-1.5v-13.1h-1.4c-0.7,0-1.2-0.5-1.2-1.2s0.5-1.2,1.2-1.2H24V298.6z"/>
			<path d="M32.1,303.8h-0.8v-0.9h8v0.9h-0.8c-1.4,0-2,0.4-1.5,1.8l4.2,10.9l3.6-9.8l-0.5-1.1c-0.5-1.4-1.1-1.8-2.1-1.8h-0.8v-0.9
				h2.8c1.5,0,2.1,0.5,2.9,2.7l3.4,9.1l4.3-11.4c0.2-0.4,0.7-0.8,1.2-0.8c0.6,0,1.4,0.5,1.4,1.4c0,0.1-0.1,0.3-0.1,0.4l-5.5,14.7
				c-0.5,1.5-1.9,1.5-2.5,0l-3.8-10.3l-3.8,10.3c-0.5,1.5-1.9,1.5-2.5,0l-5-13.2C33.7,304.2,33.1,303.8,32.1,303.8z"/>
			<path d="M68.4,319.8c-4.1,0-7.4-3.8-7.4-8.7s3.3-8.7,7.4-8.7c1.7,0,3.2,0.7,4.6,1.9v-0.4c0-0.8,0.6-1.5,1.5-1.5s1.5,0.6,1.5,1.5
				v14.7c0,0.8-0.7,1.5-1.5,1.5c-0.8,0-1.5-0.6-1.5-1.5V318C71.7,319.2,70.2,319.8,68.4,319.8z M63.9,311c0,3.3,2.1,6.1,4.6,6.1
				s4.6-2.7,4.6-6.1s-2.1-6.1-4.6-6.1C65.9,305,63.9,307.7,63.9,311z"/>
			<path d="M86.8,318.4h0.8v0.9h-7.5v-0.9H81c0.9,0,1.8-0.8,1.8-1.8v-10.6c0-0.9-0.8-1.8-1.8-1.8h-0.8v-0.8l5-0.5l-0.2,1.8
				c1-1.5,2.7-2.3,4.7-2.3c3.2,0,5.9,2.6,5.9,5.9v10.2c0,0.8-0.6,1.5-1.5,1.5s-1.5-0.6-1.5-1.5v-9.9c0-2.1-1.8-3.8-3.8-3.8
				c-2.1,0-3.8,1.8-3.8,3.8v7.9C85,317.6,85.8,318.4,86.8,318.4z"/>
			<path d="M102.5,315.7c0-1.2,0.8-2.3,2.1-2.7c-1.9-0.9-3.2-2.8-3.2-5c0-3.1,2.8-5.6,6.3-5.6c0.9,0,2,0.2,2.7,0.5l2.1-2.1
				c0.5-0.5,1.5-0.5,2.1,0c0.5,0.5,0.5,1.5,0,2.1l-1.7,1.7c0.8,0.9,1.2,2.1,1.2,3.3c0,3.1-2.8,5.6-6.3,5.6h-2.2
				c-0.8,0-1.5,0.6-1.5,1.4c0,0.7,0.7,1.4,1.5,1.4h2.9c4.9,0,7.1,1.9,7.1,4.5c0,3.2-3.2,5.4-7.3,5.4c-4.1,0-7.3-1.5-7.3-4.4
				c0-1.5,1.4-2.9,3.2-3.6C103.1,317.6,102.5,316.8,102.5,315.7z M108.3,325.2c2.6,0,4.9-1.5,4.9-3.2s-1.1-3.2-4.9-3.2
				c-3.6,0-4.9,1.5-4.9,3.2S105.7,325.2,108.3,325.2z M107.8,303.2c-2.5,0-3.3,2.1-3.3,4.8s0.8,4.8,3.3,4.8c2.5,0,3.3-2.1,3.3-4.8
				S110.3,303.2,107.8,303.2z"/>
		</g>
	</g>
</g>
<g>
	<rect x="205.1" y="125" class="st2" width="200" height="120"/>
	<g>
		<path class="st4" d="M254.4,198.3c5.1,2.9,7.8,4.4,16.1,4.4l-6.8-2.4c17-1.7,34.2-1.8,46.2-1.5s30.2,1.6,30.2,1.6
			c-10.2,2.2-15.8,2.6-27,1.7c-0.8-0.1,7.4,2.8,17.6,3.6c30.2,2.3,51.2-3.2,50.5-3.2c-17.1,2-24.1,2.1-43.9,1.2
			c15.4-1.7,32.2-4.7,31.3-4.8c-0.3,0-31.6-1.6-50.8-2.2C298.9,196,283.5,196,254.4,198.3z"/>
		<g>
			<path class="st5" d="M308.4,183.8c0,4.4-3,7.6-7.9,7.3c-5-0.1-7.1-4.5-6.9-7.9c0.1-3.7,2.5-7.4,7.5-7.3
				C306.2,176.1,308.4,179,308.4,183.8z M312.3,182c0.1-0.8,0-2.1,0-2.1c0.1-1.2-0.1-4,2.1-2.7c0,0-0.1-0.6-0.1-0.9
				c0-0.1,0.1,0.1,0,0c-2.2-2.1-4.9-1-5.8,0.8c-2.1-1.4-4.8-2.2-7.7-2.1c-6.3,0.1-11.4,3.8-11.3,8.5c0.1,4.1,4.1,7.5,9.2,8.4l-0.1,4
				l8.3,0.3c0.2,0,0.3,12.6-14.1,8.5c-0.7-0.2,3,1.7,6.1,1.9c6.9,0.3,12.7-4.2,12.4-11.9l-8.3-0.2l0.1-2.6c5.5-0.6,9.7-4.2,9.7-8.5
				C312.5,183.1,312.4,182.5,312.3,182z"/>
			<path d="M255.1,181.2h0.7c0.8,0,1.5-0.6,1.5-1.5v-8.9c0-0.8-0.6-1.5-1.5-1.5h-0.7v-0.7h2.4c0.8,0,1.5,0.6,1.5,1.5v10.4
				c0,0.8-0.6,1.5-1.5,1.5h-2.4V181.2z M259.2,164.8c0,0.8-0.6,1.5-1.5,1.5c-0.8,0-1.5-0.6-1.5-1.5c0-0.8,0.6-1.5,1.5-1.5
				C258.6,163.3,259.2,163.9,259.2,164.8z"/>
			<path d="M235.8,192.2h16.1l-0.1,1.5h-22.7v-1l17-20.2h-14.8v5h-1.5v-6.6h23.1v0.4L235.8,192.2z"/>
			<path d="M268.2,188.4h0.7v0.8h-6.3v-0.8h0.7c0.8,0,1.5-0.7,1.5-1.5V178c0-0.8-0.7-1.5-1.5-1.5h-0.7v-0.8l4.3-0.4l-0.2,1.5
				c0.8-1.1,2.4-2,4-2c2.7,0,5,2.2,5,5v8.6c0,0.6-0.5,1.2-1.2,1.2c-0.6,0-1.2-0.5-1.2-1.2v-8.3c0-1.8-1.5-3.2-3.2-3.2
				s-3.2,1.5-3.2,3.2v6.8C266.8,187.6,267.4,188.4,268.2,188.4z"/>
		</g>
	</g>
</g>
<g>
	<rect x="409" y="249" class="st2" width="200" height="120"/>
	<g>
		<path class="st6" d="M531.8,292.5c-2.1-1.1-6.4-0.4-9.7,0c5-5.8,9.1-11.5,8.9-15.5c14-10.3,16.9-0.3,21.4,4.2
			c1,1.2,4.1,1.1,7.8,0.1c0.9,0,0.5,2,0.2,3.8c-3,5.4-7.6,10.3-13.7,16.2c-0.7,0.9-3.4,2.2-4.9,2.8c5.5-7.6,10.2-18.2,3.8-20.2
			l-2.1,1.5c-1,1.5-0.9,2.7-2,4.2c-3.8,6.8-14,14.4-15,21.1c-1.5,0.6-2.4,2.1-3.8,2.6C520.8,312.1,528.6,291.5,531.8,292.5z"/>
		<path class="st7" d="M485.3,342.6l-3,2.9c4.1-11.2,17.4-30.4,32.1-44.6c7.5-6.6,14.3-9.3,17.4-8.3c-2.1-1.1-6.4-0.4-9.7,0
			c5-5.8,9.1-11.5,8.9-15.5c14-10.3,16.9-0.3,21.4,4.2c1,1.2,4.1,1.1,7.8,0.1c0.9,0,0.5,2,0.2,3.8c-3,5.4-7.6,10.4-13.7,16.2
			c-0.7,0.9-3.4,2.2-4.9,2.8c5.5-7.6,10.2-18.2,3.8-20.2l-2.1,1.5c-1,1.5-0.9,2.7-2,4.2c-3.8,6.8-14,14.4-15,21.1
			c-1.5,0.6-2.4,2.1-3.8,2.6c-2.1-1.2,1.1-7-0.3-8.9c-2.5-2-13.9,10.3-20.6,18.4c-0.1,8.3,10.5,5.2,29.1-9.1c9.1-6-0.3,3,1.2,3.4
			c-19.6,16.7-30.6,18-41.1,20.8C489.6,338.9,486.7,341.7,485.3,342.6L485.3,342.6z"/>
		<g>
			<path d="M473.7,306.5h-3.5h-2.1c-4.2,0-5.9-0.5-7.7-2.1c-2-1.6-3.2-4.3-3.2-6.8c0-5,3.8-9.2,8.5-9.2c1.9,0,3.2,0.5,5.2,2.1v-12.2
				h6.1l-3.2,1.5v26.6H473.7z M465.9,290.1c-3.2,0-5.5,3-5.5,7.2c0,2.1,0.7,4.1,1.9,5.5c1.5,1.7,2.9,2.3,6,2.3h2.6v-12
				C469.6,291.2,467.9,290.1,465.9,290.1z"/>
			<path d="M487.9,304.7c-2.6,1.8-3.5,2.1-4.8,2.1c-2.1,0-4-2.2-4-4.5c0-1.9,0.8-3.2,2.2-4c0.8-0.3,1.9-0.7,3.2-1l2.9-0.7l0.4-0.1
				v-2.4c0-2.6-0.8-3.6-3.2-3.6c-1.5,0-2.5,0.3-4.4,1.6l-0.3,0.2l-0.3-0.9c2.1-2.1,3.8-2.8,6-2.8c2,0,3.5,0.8,4.4,2.2
				c0.6,1.1,0.8,2,0.8,4.4v5.6v5.6l-2.5-2.1L487.9,304.7z M481.9,301.9c0,1.5,1.2,2.6,2.8,2.6c0.8,0,1.7-0.3,2.9-1.2l0.3-0.2v-5
				C483.8,298.7,481.9,300,481.9,301.9z"/>
			<path d="M497.5,301.6l0.1,0.3c1,2.6,3.1,3.7,5.4,3.7c1.9,0,3.5-1.4,3.5-2.8s-0.8-2.2-3.8-3.8c-2.9-1.5-3.3-1.8-4.4-2.9
				c-0.6-0.8-0.9-1.8-0.9-2.8c0-2.8,2.1-4.8,5-4.8c1.4,0,2.4,0.3,4,1l0.2-1h0.8v6.1c-1.5-4.3-2.8-5-4.8-5c-1.7,0-3,1.1-3,2.6
				s0.8,2.4,4.4,4.3c2.7,1.5,3.6,2.1,4.4,3.3c0.3,0.5,0.4,1.2,0.4,2.1c0,2.8-2.4,4.9-5.6,4.9c-1.5,0-2.6-0.3-4.6-1.4l-1.4,1.2v-5.1
				L497.5,301.6L497.5,301.6z"/>
			<path d="M526,306.5v-11.9c0-3.1-1.4-4.5-4.2-4.5c-1.5,0-2.7,0.6-4.7,2.1v14.3h-6l3.2-1.5v-25.3l-3.2-1.5h6v12.6
				c2.6-1.8,4.4-2.6,6.3-2.6c3.3,0,5.3,2.1,5.3,5.8V305l3.2,1.5L526,306.5L526,306.5L526,306.5z"/>
		</g>
	</g>
</g>
<g>
	<rect x="409" y="125" class="st8" width="200" height="120"/>
	<g>
		<g>
			<path d="M560.3,159c0.3,0.3,0.4,0.9,0.3,1.4c-0.3,1.8-0.2,3.3-0.2,5.1c0,1.6,0.2,3.3,0,5c0,1.6,0.2,3.3,0.2,5
				c-0.2,3.5-0.2,7.3,0.8,10.8c0.6,2.1,1.5,4.4,0.8,6.7c-0.3,0.9-1.4,1.8-2.1,2.1c-1.4,0.4-2.7-0.8-4.2-0.6c-0.4,0-1.1,0-1.6,0
				c-2-0.3-3.8-0.4-5.8-0.4c-0.6,0-1.4-0.2-2-0.2c-0.6,0.2-1.4-0.2-2-0.2c-1.4,0.2-2.7,0-4.1,0.2c-0.9,0-1.8,0-2.7,0
				c-0.8,0.2-1.6,0.2-2.4,0.2c-0.9,0-2,0.2-2.9,0.3c-0.6,0-1.4-0.3-1.8-0.6c-0.6-0.3-0.9-1.5-0.8-2.2c0.3-0.4,0.6-1.1,0.6-1.5
				c0.4-5.1,1.5-9.8,2.1-15c0.3-2.2,0.6-4.5,1.1-6.9c0.9-3.3,0.4-6.8,1.1-10.2c0.2-0.3,0.6-0.8,0.9-0.6c0.9,0,2.2,0.3,3.1,0.4
				c3.3,0.2,6.8,0.2,10.2,0.3c1.4,0,2.4,0.3,3.7,0.2c0.4,0,0.9,0.4,1.5,0c0.8,0.6,1.8,0.3,2.6,0.3
				C557.9,158.3,559.6,158.3,560.3,159z"/>
			<path d="M528.8,158.1c0,0.3,0.2,0.4,0.2,0.6c-3.3,9.5-5.1,19-6.2,29c-0.2,0.4,0,1.4,0.3,1.5c0.9,0.8,2.1,1.1,2.4,2.2
				c0.3,0.9-0.2,1.8-1.1,2c-2.9,0.4-5.6-0.6-8.4-0.4h-0.4c-2.2-0.2-4.5,0.2-6.8-0.2c-2.6-0.3-5.1,0.9-7.7,0.3
				c-0.4,0-0.9-0.4-1.1-1.1c-0.2-1.1,0-2.1-0.2-3.2c-1.1-5-1.5-9.5-2.4-14.5c-0.9-5.1-1.5-10-2.6-15.1c-0.2-0.3-0.4-0.8-0.4-1.1
				c-0.2-0.8,0-1.6,0.9-2c0.4-0.2,0.9-0.2,1.5,0c2.9,1.1,5.9,0.3,9.1,0.4c0.4,0,1.1,0,1.5,0c4.9-0.2,9.8-0.4,14.7-0.2
				c0.9,0,2.1,0.3,3.1,0.3c0.6,0,1.5-0.3,2.2-0.2C527.9,156.9,528.7,157.2,528.8,158.1z"/>
			<path d="M488.7,157.5c-0.7,1-0.2,2.2,0,3.3c0.3,1.5,0.2,2.9,0.4,4.4c0.3,0.6,0.6,1.1,0.9,1.8c0.2,0.4-0.3,1.1-0.2,1.6
				c0.4,3.2,1.1,6.2,2,9.5c0.9,3.7,2.6,7.1,3.2,10.9c0,0.2-0.4,0.3-0.4,0.4c-0.2,0.9-0.6,2.1-1.6,2.2c-1.1,0.2-2.1-0.6-3.1-0.8
				c-1.4-0.3-2.7-0.4-4-0.3c-0.2,0-0.4-0.2-0.6,0.2c-0.9-0.4-2.1-0.2-3.1-0.2c-2.7,0.3-5.6,0.4-8.4,0.3c-5-0.2-9.8-0.8-14.8-0.4
				c-0.6,0-1.5,0.2-2.1,0.2c-0.8-0.2-1.6-0.4-1.5-1.4c0.2-3.8,0.8-7.7,1.1-11.8c0-1.5,0.2-2.7,0.3-4.2c0.6-4,0.8-8,0.8-12.1
				c0.2-0.9-0.3-2-0.2-2.9c0-2.2,2.7-1.4,4.2-1.5c7.6-0.4,15,0,22.7-0.9c1.4-0.2,2.6-0.8,3.7,0C488.5,156.3,489,157.1,488.7,157.5z"
				/>
			<path class="st9" d="M557.6,171.4c0,5,0.3,9.8,0.8,14.8c0,0.2-0.2,0.3-0.3,0.2c-4.1-5-7.3-9.7-10.6-15c-0.6-0.8-0.9-1.6-1.6-2.4
				c-0.8-1.5-1.8-2.7-2.7-4.2c-0.9-1.6-2.2-2.9-2.7-4.5c0.9-0.3,2.1,0,3.1-0.2c0.9-0.2,1.8,0.3,2.6,0.2c3.7,0,7.4,0.3,11.1,1.1
				c0.4,0.2,0.3,0.8,0.3,1.1C557.6,165.5,557.6,168.6,557.6,171.4z"/>
			<path class="st10" d="M551.8,183.6c2,2.7,4,4.7,5.5,7.6c0.2,0.3-0.3,0.8-0.4,0.6c-7.3-0.2-14.5-0.4-21.7-0.6
				c-0.3,0-1.1,0.3-1.1-0.3c-0.2-9.5,2.6-18.6,3.7-28C542.8,169.5,546.7,176.5,551.8,183.6z"/>
			<path class="st10" d="M520.6,184c-0.2,1.6-0.8,3.1-1.6,4.4c-0.3,0.6,0.2,1.4,0.3,2c-0.6,0.2-1.1,0.3-1.8,0.3
				c-4.7-0.3-9.2,0.4-13.8-0.6c-0.6-0.3-1.5-0.8-1.6-1.5c-0.9-5.6-1.8-10.8-2.7-16.4c-0.4-2.7-0.6-5.3-1.4-7.9
				c-0.4-1.5-0.8-3.1-0.4-4.4c0.4-0.9,2-0.3,3.2-0.4c0.3-0.2,0.6-0.3,0.8-0.3c1.1,0.4,2.2-0.3,3.3,0.2c0.4,3.3,0.4,6.7,0.2,10
				c-0.2,0.9,0.8,2.1,1.8,2.1c2.6,0,5-0.9,7.6-0.4c1.5,0.3,4,2.2,4.2,0c0.4-3.2-0.6-6.4-0.4-9.7c0-0.9-0.3-2.2,0.3-2.6
				c1.6-0.8,3.7,0,5.6,0.4c0.4,0,1.4,0.4,1.4,0.8C524.1,168.1,521.7,175.9,520.6,184"/>
			<path class="st9" d="M515.3,164.4c0.3,0.9,0.2,2,0,2.7c-0.2,0.3-0.6,0.4-0.9,0.4c-1.8,0.3-3.5,0.4-5.3,0.4
				c-0.3-0.2-0.4-0.4-0.6-0.8c0-1.4,0.2-2.4,0-3.7c0-0.3,0-0.9,0-1.4c0-1.1-0.2-2.2,0.2-3.3c2.1-0.2,4.4-0.3,6.4-0.3
				c0.2,1.4,0,2.4,0.2,3.7C515.2,163,515.2,163.7,515.3,164.4z"/>
			<path class="st9" d="M489.9,180.7c0.5,2.2,1.5,4.4,1.5,6.7c0,0.3-0.3,0.6-0.6,0.8c-5.6,0.9-11.1,0.9-16.6,0.8
				c-4.9-0.2-9.8,0.3-14.7-1.4c-0.2,0-0.6-0.2-0.8-0.4c-0.3-0.4-0.3-0.8-0.3-1.4c0.2-2.6,0.4-5.1,0.6-7.7c2.1-1.4,4.2-2.1,6.4-3.1
				c0.3,0,0.8,0,1.1-0.2c1.4-0.4,2.6-0.9,3.8-1.6c0.3,0,0.8-0.3,1.1-0.3c5.1-1.6,9.8-3.5,15.1-4.2c0.2,0,0.6,0.2,0.8,0.4
				C488.1,173.1,489,176.8,489.9,180.7z"/>
			<path class="st10" d="M486.4,163.7c0.3,0.9-0.2,2-0.9,2.1c-8.8,2.9-17.4,5.5-25.9,8.5c0.2-4.7,0.3-9.4,1.1-14.1
				c0-0.3,0.4-0.4,0.8-0.6c1.1-0.4,2.4-0.4,3.7-0.6c6.7-0.9,13-0.9,19.7-0.4c0.2,0,0.9,0.6,0.9,1.4
				C485.7,161.2,486.1,162.5,486.4,163.7z"/>
		</g>
		<g>
			<path d="M476.1,203.4v2.4h-1.6v8.7H471v-8.7h-1.6v-2.4h1.6v-0.5c0-3.2,2.1-5,4.9-5c0.7,0,1.6,0.2,2.1,0.2v2.8
				c-0.8-0.1-1.1-0.2-1.6-0.2c-1,0-2,0.4-2,2v0.7L476.1,203.4L476.1,203.4z"/>
			<path d="M485.4,212.8c-1.1,1.2-2.2,1.8-3.6,1.8c-2.2,0-4.1-1.4-4.1-4.3v-7.2h3.5v6.9c0,1.6,0.8,2.1,1.8,2.1c1,0,2.1-0.8,2.4-2
				v-7.1h3.5v11.3h-3.5V212.8L485.4,212.8z"/>
			<path d="M495.3,204.9c1.1-1.2,2.2-1.8,3.6-1.8c1.8,0,4.1,0.9,4.1,4.3v7.1h-3.5v-6.8c0-1.6-0.7-2.2-1.8-2.2
				c-0.8,0-1.5,0.4-2.5,1.9v7.2h-3.5v-11.1h3.5L495.3,204.9L495.3,204.9z"/>
			<path d="M511.4,203.4v2.4h-1.6v8.7h-3.5v-8.7h-1.6v-2.4h1.6v-0.5c0-3.2,2.1-5,4.9-5c0.7,0,1.6,0.2,2.1,0.2v2.8
				c-0.8-0.1-1.1-0.2-1.6-0.2c-1,0-2,0.4-2,2v0.7L511.4,203.4L511.4,203.4z"/>
			<path d="M527.8,214.5h-2.4l-2.2-4.9h-7l-2.1,4.9h-2.4l7.1-16.5h1.7L527.8,214.5z M517.1,207.5h5.1l-2.6-5.9L517.1,207.5z"/>
			<path d="M532,214.5h-2.4v-16.4h2.4V214.5z"/>
			<path d="M539.8,198c3.3,0,5.4,1.8,5.4,4.6c0,2-0.9,3.3-2.7,4.1c1.5,0.9,2.4,2.5,3.6,4.6c0.7,1.1,1.1,1.7,2.2,3.2h-2.8l-2.2-3.3
				c-2.2-3.3-3.2-3.8-4.4-3.8h-0.9v7.2h-2.4V198L539.8,198L539.8,198L539.8,198z M538.1,205.2h1.5c2.6,0,3.2-1.4,3.2-2.6
				c0-1.5-0.9-2.5-3.2-2.5h-1.5V205.2z"/>
		</g>
	</g>
</g>
<g>
	<rect x="409" y="1" class="st11" width="200" height="120"/>
	<g>
		<g>
			<path class="st12" d="M559.2,38.4c-0.8,0.5-1.8,0.8-2.6,0.8c-0.6,0-1.1-0.1-1.7-0.3c-0.1-0.1-0.8-0.6-2.6-1.6
				c-1-0.6-1.7-1.5-1.8-2.4c0-0.8,0.5-1.8,1.6-2.6c0.8-0.7,1.6-1.5,2.4-2.1c0.8,0.1,1.8,0.3,2.7,0.3c0.8,0.2,1.6,0.5,2.1,1.1
				c0.6,1.4,0.8,2.6,0.8,3.8C560.2,36.7,559.9,37.6,559.2,38.4z"/>
			<path class="st12" d="M497.7,62.2c-0.8,0.7-2.3,0.9-4.1,0.8c-2.2-0.2-3.6-0.2-4.4,0c-3.7,0.8-7.5,1-11.5,0.9
				c-0.4,0.5-0.6,1.4-0.6,2.4c0,0.1,0,0.3,0,0.5s0,0.3,0,0.5c0,0.8-0.2,1.6-0.4,2.1c-0.3,0.1-0.5,0.1-0.7,0.1
				c-0.5,0-1.1-0.2-1.9-0.6c-0.6-0.3-1.1-0.7-1.8-1c-0.3-0.2-0.5-0.3-0.5-0.6c0-0.1,0-0.3,0.1-0.4c0.1-0.2,0.1-0.3,0.1-0.4
				c0-0.2-0.1-0.3-0.2-0.5c-0.1-0.8-0.4-2.5-0.9-5.1c-0.4-2.1-0.7-3.8-0.7-5.2c-0.1-0.7-0.5-1.8-1.5-3.1s-1.5-2.4-1.5-3.2
				c0-0.6,0.2-1.2,0.6-1.9c0.6-0.7,1.2-1.5,1.9-2.2c0.8-0.8,1.6-1.5,2.4-1.6c1.4,0.5,3.7,0.8,7.2,1c3.4,0.2,5.8,0.5,7.3,1
				c2.3,0.9,3.6,2.8,4.1,5.5c0,1.1-0.5,2.3-1.6,3.4c-0.9,0.8-2,1.9-2.8,2.7c0.6,0.3,1.5,0.5,2.4,0.5c0.5,0,1.4-0.1,2.5-0.3
				c1-0.2,1.9-0.3,2.4-0.3c2.1,0,3.3,1.1,3.8,3.4C497.6,61,497.8,61.5,497.7,62.2z M482,51.4c-0.8-0.2-1.6-0.3-2.4-0.3
				c-1.1,0-2.4,0.3-3.6,0.7c-0.3,0.3-0.4,0.6-0.4,0.9c0,0.2,0.1,0.4,0.2,0.8c0.1,0.4,0.2,0.7,0.2,0.9
				C477.5,54.4,479.6,53.4,482,51.4z"/>
			<path class="st12" d="M526.8,59.3c0,1.5-0.2,3.6-0.7,6.6c-0.5,3-0.8-0.3-0.8,1c0,1.2,0.2,2.3,0.4,3.3c0.1,0.3,0.2,0.7,0.2,1.1
				c0,0.3-0.1,1.1-0.3,2.7c-0.1,0.4-0.1,0.9-0.1,1.6c-0.7,0.3-1.5,0.3-2.1,0.3c-0.8,0-1.9-0.2-2.7-0.6l-0.8-1.2l0.3-6
				c0.3-0.3,0.3-0.7,0.3-1.2c0-0.8,0-1.4,0-1.2c0-0.1,0-0.3,0-0.3l-0.3,0.3c-1.7,1.5-3.2,2.2-4.4,2.2c-0.4,0-0.8-0.1-1.2-0.2
				c-2.2-0.3-3.7-2.3-4.5-6c0.1-0.2,0.1-0.3,0.1-0.6c0-0.4-0.2-1.1-0.5-2c-0.3-0.8-0.5-1.5-0.5-2.1c0-0.6,0.2-1.1,0.6-1.7
				c0.2-0.3,0.5-0.6,1-0.8c0.6-0.3,1-0.5,1.2-0.6c2.1,0.1,3.5,1.1,4.4,3.2c0.1,0.2,0.1,0.4,0.1,0.6c0,0.3-0.1,0.7-0.3,1.2
				c-0.2,0.5-0.3,0.9-0.2,1.2c1.1-0.6,2.5-1.6,4-3.1c0.1-0.1,0.7-0.7,1.7-2c0.6-0.8,1.5-1.1,2.2-1.1l0.6,0.5l0,0
				c0.6,0,1,0.3,1.4,0.6c0.3,0.5,0.4,1,0.7,1.7c0.3,0.6,0.4,1.2,0.4,1.7C526.9,59,526.9,59.1,526.8,59.3z"/>
			<path class="st12" d="M544.8,47.3c-0.1,0.6-0.5,1.2-1.4,1.9c-0.9,0.2-2.3,0.5-4,0.9c-1.8,0.5-3.1,0.8-3.8,0.9
				c-0.1,0-0.2-0.1-0.3-0.1c-0.2,0-0.3,0-0.6,0.1s-0.5,0.2-0.6,0.3c-0.2,0.6-0.3,1.5-0.3,2.2c0,0.6-0.1,1.5,0,2.3
				c0.1,1.2,0.1,2,0.1,2.2c0,2.1,0.2,27.7,0.4,28.4c0.4-0.3,0.7-0.3,0.8-0.1c0.1,0.1,0.1,0.3,0.1,0.3c0,0.1,0,0.3-0.1,0.5
				c-0.1,0.3-0.1,0.4-0.1,0.5c0,0.2,0.1,0.4,0.2,0.5c0,0,0.1,0,0.3-0.1c0.1-0.1,0.3-0.1,0.3-0.1c0.1,0.2,0.2,0.3,0.2,0.6
				c0,0.2-0.1,0.5-0.3,0.9c-0.2,0.4-0.2,0.8-0.2,1c-0.2,0.2-0.3,0.4-0.7,0.6c-0.3,0.2-0.5,0.3-0.8,0.5c-0.2-0.2-0.5-0.3-0.9-0.5
				c-0.5-0.2-0.8-0.3-1-0.4c-0.5,0.1-1-0.2-1.7-0.7c-0.8-1-1.2-26.6-1.2-28.2c0-0.3,0-0.6,0-0.8c-0.1-0.2-0.2-0.3-0.2-0.6
				c0-0.1,0-0.2,0-0.3s0-0.3,0-0.3c0-0.3-0.1-0.4-0.2-0.5c0-0.6-0.1-1.8-0.3-3.3c-0.1-1.5-0.2-2.6-0.2-3.4c-0.3-0.4-0.8-0.6-1.4-0.6
				c-0.2,0-0.4,0-0.8,0.1c-0.3,0.1-0.7,0.1-0.8,0.1c-0.3-0.1-0.9,0-1.7,0.2c-0.8,0.2-1.5,0.3-1.8,0.3c-0.8,0-1.5-0.4-1.8-1.4
				c-0.3-0.2-0.5-0.4-0.7-0.8c-0.3-0.5-0.4-0.8-0.5-0.8c0-0.3,0.2-0.7,0.4-1.2c0.3-0.3,0.6-0.4,1.2-0.6c0.6-0.2,1-0.3,1.2-0.6
				c1.5-0.3,3.1-0.6,5-0.7c0.4,0,0.7-0.3,0.9-0.9c-0.3-0.8-0.3-11.9,0.1-12.5c0.4-0.5,0.7-0.8,0.7-0.8c0.3-0.3,0.6-0.4,0.9-0.3
				c0.1-0.1,0.3-0.1,0.3-0.1c0.3,0,0.7,0.2,1.1,0.5c0.4,0.3,0.8,0.5,1.1,0.5c0.3,0.2,0.5,0.6,0.6,1.2c0.1,0.3,0.3,0.4,0.4,0.6
				c0.2,0.2,0.3,10.7,0.6,10.7c0.8-0.2,1.8-0.4,2.9-0.8c0.9-0.3,1.9-0.6,2.8-0.9c0.2,0.1,0.6,0.2,1.5,0.3c0.6,0.1,1.1,0.2,1.5,0.4
				c0.4,0.4,0.8,0.8,1.2,1.4s0.7,1,0.7,1.5C544.9,46.9,544.8,47.1,544.8,47.3z"/>
			<path class="st12" d="M554.8,44.7c0.1,0.3,0.1,0.6,0.1,0.8c0,0.8-0.3,1.9-0.8,3.2c-0.6,1.5-0.8,2.6-0.8,3.2c0,0.2,0,0.4,0,0.7
				c0,0.3,0.1,0.8,0.2,1.6c0.2,0.7,0.2,1.1,0.2,1.5c0,0.5-0.1,0.9-0.3,1.4c0,0.2,0,0.4,0,0.7c0,0.5,0.2,1.5,0.4,2.5
				c0.3,1,0.4,1.9,0.4,2.5c0,0.3,0,0.5,0,0.7c-0.4,0.3-0.8,0.3-1.4,0.3c-0.6,0-1.5-0.3-2.5-0.8c-0.3-0.7-0.6-1.4-0.8-2.1
				c-0.3-0.8-0.5-1.5-0.6-2.1l-0.5-0.4l-5,0.8c-0.3,0.3-0.3,0.6-0.3,0.8c0,0.2,0,0.3,0.1,0.4l0.8-0.3c0,0.4,0.1,0.7,0.3,0.7
				c0.1,0,0.3-0.1,0.4-0.3c0.2-0.2,0.3-0.3,0.4-0.3c0.1,0,0.2,0,0.3,0.1c-0.1,2.1-0.4,4.3-1.2,6.8c-0.3,0.3-0.5,0.3-0.8,0.3
				c-0.2,0-0.6-0.1-1.1-0.3c-0.5-0.2-0.9-0.3-1.4-0.3c-0.8-0.7-1.5-1.8-1.8-3.1c0-0.2-0.3-1.5-0.6-3.8c-0.3-1.5-0.6-2.6-1.1-3.4
				c0-0.2-0.1-0.4-0.1-0.6c0-0.6,0.2-1.5,0.6-2.5c0.4-0.9,0.6-1.8,0.6-2.4c0-0.3-0.1-0.7-0.2-1.1c0.3-0.7,0.3-1.7,0.3-3
				c0-1.5,0.1-2.4,0.3-3c0.3-1,0.8-1.9,1.6-2.4c0.9-0.1,1.9,0.2,2.6,0.9c0.6,0.8,1.2,1.6,1.9,2.4c0.1,0.3,0.1,0.5,0.1,0.8
				c0,0.6-0.3,1.4-0.9,2.3c-0.6,0.9-0.9,1.8-0.9,2.4c0,0.2,0,0.4,0.1,0.6c0,0.7,0,1.1,0.1,1.2c0.8-0.3,1.6-1.1,2.1-2.6
				c2.2-2.1,3.8-4.4,4.9-7.1c0.5-0.6,1-0.8,1.6-0.8c0.2,0,0.3,0,0.4,0.1c0.1,0.1,0.1,0.2,0.1,0.4c0,0.2,0.1,0.3,0.3,0.4
				c0.2-0.1,0.3-0.1,0.4-0.1c0.3,0,0.7,0.3,0.9,0.8C554.3,44.1,554.6,44.6,554.8,44.7z M547.7,51.4c-1.9,0.1-3.2,0.7-4.3,2l2.9-0.5
				c0.1-0.1,0.3-0.3,0.8-0.4c0.3-0.2,0.5-0.3,0.5-0.6C547.8,51.6,547.8,51.5,547.7,51.4z"/>
			<path class="st12" d="M582.5,64.4c0.1,0.2,0.1,0.3,0.1,0.5c0,0.4-0.3,0.9-0.9,1.5c-0.3,0.1-0.6,0.1-0.9,0.1
				c-0.6,0-1.2-0.1-2.1-0.3c-0.6-0.2-1.2-0.4-1.9-0.7c-0.8-1.5-1.6-3-2.4-4.6c-0.8-1.9-1.6-3.3-2.1-4.7c-0.8,0.8-1.5,2-1.6,3.4
				c-0.1,1.4-0.2,2.6-0.3,3.8c-0.7,0.3-1.5,0.6-2.2,0.6c-1.4,0-3-0.7-5-2.1c-0.4-0.8-0.8-1.6-1.2-2.5c-0.5-0.9-0.9-1.7-1.5-2.2
				c-0.3,0.5-0.5,1.4-0.8,2.5c-0.3,1.2-0.5,2.1-0.6,2.4c-0.2,0.3-0.3,0.9-0.3,1.8c-0.1,0.8-0.3,1.5-0.3,1.9
				c-0.3,0.6-0.8,0.9-1.5,1.1c-1.9-0.1-3.2-0.5-4-1.2C552.3,65,552,64,552,63c0-0.8,0.2-1.9,0.6-3.2c0.4-1.5,0.8-2.6,0.8-3.2
				c0.6-2.1,1.2-4.3,1.9-6.3c0.7-2.5,1.2-4.6,1.5-6.4c0.7-0.8,1.9-1.1,3.2-1.1c0.3,0,0.7,0,1.1,0c0.9,0.3,1.6,0.6,2,0.8
				c0.7,0.3,1.2,0.8,1.6,1.5c0,0.2,0,0.4,0.1,0.8c0.1,0.3,0.1,0.6,0.1,0.8c0,0.5-0.2,1-0.4,1.5c0,0.8,0,1.8,0,2.6
				c0.1,0.9,0.3,1.8,0.8,2.3c0.5-0.4,0.9-1.1,1.4-2.1c0.4-1.2,0.7-2.1,0.9-2.4c0.5-1.2,1.1-3.2,2-5.6c0.7-1.1,1.8-1.8,3-1.8
				c0.3,0,0.5,0,0.8,0.1c0.2,0.1,0.8,0.4,1.9,0.9c0.8,0.3,1.4,0.8,1.6,1.5c0.1,0.6,0.2,1.5,0.2,2.3c0,0.3,0,0.9-0.1,1.8
				c0,0.8-0.1,1.4-0.1,1.8c0,1.2,0.1,2.2,0.3,3C578.1,55.7,579.8,59.8,582.5,64.4z"/>
			<g>
				<path class="st12" d="M459.8,67.3c-0.1,0.3-0.3,0.3-0.5,0.4c-0.3,0-0.4,0.2-0.4,0.4c-0.3,0.1-0.7,0.1-1,0.1c-1,0-2.1-0.4-3-1.2
					c-0.5-0.4-1.4-1.4-2.4-2.6c-0.9-1.1-1.9-2.1-2.5-2.5c-0.3,0.5-0.3,1.4-0.3,2.4l0,0c0,0.5,0,0.9,0,1.2c0.1,0.1,0.2,0.2,0.2,0.3
					c0,0.1-0.1,0.3-0.2,0.5c-0.2,0.2-0.2,0.3-0.3,0.4c-0.4,0.5-0.9,0.8-1.7,0.8c-0.3,0-0.4,0-0.7-0.1c-0.8-0.2-1.7-0.8-2.6-1.8
					c-0.1-0.6-0.2-1.2-0.2-2c0-1.5,0.3-3.5,1-6.6c-0.3-0.5-0.5-1-0.5-1.8c0-1,0.3-2.1,0.9-2.9c0.3-0.3,0.5-0.3,0.8-0.3
					c0.2,0,0.4,0,0.8,0.1c0.3,0.1,0.6,0.1,0.8,0.1c0.6,0.6,1.2,1.2,2,1.8c0.7,0.8,1.1,1.5,1.2,2.2c0.3,0.5,0.7,1,1.4,1.8
					c0.5,0.5,0.9,1,1.5,1.6c0-1.4-0.3-3-0.7-5.1c-0.6-2.7-0.9-4.4-1-5c0.3-0.2,0.6-0.8,0.9-1.8c0.3-0.8,0.7-1.2,1.1-1.2
					c0.3,0,0.6,0.1,0.9,0.3c0.3,0.4,0.4,0.7,0.5,0.8c0.3,0.3,0.4,0.5,0.8,0.5c0.3,0.3,0.4,0.8,0.3,1.6c-0.1,0.8-0.1,1.5,0.1,1.7
					c1.2,3.7,2.1,8.5,2.5,14.5c0.3,0.3,0.3,0.6,0.3,0.7C459.9,67.1,459.9,67.2,459.8,67.3z"/>
			</g>
			<path class="st12" d="M466.9,55.9c0.3,0.6,0.5,1.2,0.5,1.9c0,0.4-0.1,0.8-0.3,1.1c-0.1,0.1-0.4,0.6-1.1,1.8
				c-0.4,0.7-0.9,1.1-1.7,1.2c-0.6,0-1.2-0.3-1.9-1c-0.5-0.5-0.9-1-1.5-1.7c0.1-0.6,0.2-1.2,0.3-1.9c0.1-0.6,0.3-1.1,0.8-1.5
				c0.9-0.4,1.9-0.6,2.7-0.6C465.6,55.3,466.3,55.5,466.9,55.9z"/>
			<path class="st12" d="M507.6,57.9c-0.4-0.9-0.6-1.8-0.6-2.4c0-0.3,0.1-0.7,0.2-1.1c-0.3-0.7-0.3-1.7-0.3-3c0-1.5-0.1-2.4-0.3-3
				c-0.3-1-0.8-1.9-1.6-2.4c-0.9-0.1-1.9,0.2-2.6,0.9c-0.6,0.8-1.2,1.6-1.9,2.4c-0.1,0.3-0.1,0.5-0.1,0.8c0,0.6,0.3,1.4,0.9,2.3
				c0.6,0.9,0.9,1.8,0.9,2.4c0,0.2,0,0.4-0.1,0.6c0,0.7-0.1,1.2-0.1,1.2l-0.3,0.8l-3-0.5c-0.1-0.1-0.3-0.3-0.8-0.4
				c-0.3-0.2-0.5-0.3-0.5-0.6c0-0.1,0-0.2,0.1-0.3c0.2-0.9-1.8-7.2-2.4-8.6c-0.5-0.6-1-0.8-1.6-0.8c-0.2,0-0.3,0-0.4,0.1
				c-0.1,0.1-0.1,0.2-0.1,0.4c0,0.2-0.1,0.3-0.3,0.4c-0.2-0.1-0.3-0.1-0.4-0.1c-0.3,0-0.7,0.3-0.9,0.8c-0.3,0.6-0.6,1-0.8,1.1
				c-0.1,0.3-0.1,0.6-0.1,0.8c0,0.8,0.3,1.9,0.8,3.2s0.8,2.6,0.8,3.2c0,0.2,0,0.4,0,0.7c0,0.3-0.1,0.8-0.2,1.6
				c-0.2,0.7-0.2,1.1-0.2,1.5c0,0.5,0.1,0.9,0.3,1.4c0,0.2,0,0.4,0,0.7c0,0.5-0.2,1.5-0.4,2.5c-0.3,1-0.4,1.9-0.4,2.5
				c0,0.3,0,0.5,0,0.7c0.4,0.3,0.8,0.3,1.4,0.3c0.6,0,1.5-0.3,2.5-0.8c0.3-0.7,0.6-1.4,0.8-2.1c0.3-0.8,0.5-1.5,0.6-2.1l0.5-0.4
				l5,0.8c0.3,0.3,0.3,0.6,0.3,0.8c0,0.2,0,0.3-0.1,0.4l-0.8-0.3c0,0.4-0.1,0.7-0.3,0.8c-0.1,0-0.3-0.1-0.4-0.3
				c-0.2-0.2-0.3-0.3-0.4-0.3s-0.2,0-0.3,0.1c0.1,2.1,0.4,4.3,1.2,6.8c0.3,0.3,0.5,0.3,0.8,0.3c0.2,0,0.6-0.1,1.1-0.3
				c0.5-0.3,0.9-0.3,1.4-0.3c0.8-0.7,1.5-1.8,1.8-3.1c0-0.2,0.3-1.5,0.6-3.8c0.3-1.5,0.6-2.6,1.1-3.4c0-0.2,0.1-0.4,0.1-0.6
				C508.3,59.6,508,58.8,507.6,57.9z"/>
			<path class="st12" d="M441.1,52.1c-0.5,0.3-1.1,0.5-1.8,0.5c-0.4,0-0.8-0.1-1-0.3c-0.1-0.1-0.6-0.4-1.7-1c-0.7-0.4-1-0.9-1.2-1.6
				c0-0.6,0.3-1.1,1-1.8c0.5-0.4,1-0.9,1.6-1.5c0.6,0.1,1.1,0.2,1.8,0.3c0.6,0.1,1,0.3,1.4,0.8c0.4,0.8,0.6,1.8,0.6,2.6
				C441.7,50.9,441.6,51.5,441.1,52.1z M443.3,72.2c-0.3,0.3-0.7,0.5-1.2,0.5c-0.3,0-0.8-0.1-1.6-0.3c-1.2-0.3-2.1-1-2.5-2.4
				c-0.2-0.5-0.4-1.7-0.6-3.4c-0.3-2.6-0.5-6-0.4-10c0.2-0.7,0.6-1.4,1.2-1.9c0.6-0.5,1.2-0.8,2-0.8s1.4,0.3,1.8,0.8
				c0.6,1.5,0.8,2.6,0.8,3.4c0,0.7-0.2,1.4-0.4,1.8c-0.1,0.8-0.1,1.5-0.1,2.2c0,2.1,0.3,4,0.8,5.8c0.4,0.3,0.6,0.7,0.6,1.4
				c0,0.3-0.1,0.6-0.2,1.2C443.3,71.5,443.3,72,443.3,72.2z"/>
		</g>
		<g>
			<path class="st13" d="M559.2,38.4c-0.8,0.5-1.8,0.8-2.6,0.8c-0.6,0-1.1-0.1-1.7-0.3c-0.1-0.1-0.8-0.6-2.6-1.6
				c-1-0.6-1.7-1.5-1.8-2.4c0-0.8,0.5-1.8,1.6-2.6c0.8-0.7,1.6-1.5,2.4-2.1c0.8,0.1,1.8,0.3,2.7,0.3c0.8,0.2,1.6,0.5,2.1,1.1
				c0.6,1.4,0.8,2.6,0.8,3.8C560.2,36.7,559.9,37.6,559.2,38.4z"/>
			<path class="st13" d="M497.7,62.2c-0.8,0.7-2.3,0.9-4.1,0.8c-2.2-0.2-3.6-0.2-4.4,0c-3.7,0.8-7.5,1-11.5,0.9
				c-0.4,0.5-0.6,1.4-0.6,2.4c0,0.1,0,0.3,0,0.5s0,0.3,0,0.5c0,0.8-0.2,1.6-0.4,2.1c-0.3,0.1-0.5,0.1-0.7,0.1
				c-0.5,0-1.1-0.2-1.9-0.6c-0.6-0.3-1.1-0.7-1.8-1c-0.3-0.2-0.5-0.3-0.5-0.6c0-0.1,0-0.3,0.1-0.4c0.1-0.2,0.1-0.3,0.1-0.4
				c0-0.2-0.1-0.3-0.2-0.5c-0.1-0.8-0.4-2.5-0.9-5.1c-0.4-2.1-0.7-3.8-0.7-5.2c-0.1-0.7-0.5-1.8-1.5-3.1s-1.5-2.4-1.5-3.2
				c0-0.6,0.2-1.2,0.6-1.9c0.6-0.7,1.2-1.5,1.9-2.2c0.8-0.8,1.6-1.5,2.4-1.6c1.4,0.5,3.7,0.8,7.2,1c3.4,0.2,5.8,0.5,7.3,1
				c2.3,0.9,3.6,2.8,4.1,5.5c0,1.1-0.5,2.3-1.6,3.4c-0.9,0.8-2,1.9-2.8,2.7c0.6,0.3,1.5,0.5,2.4,0.5c0.5,0,1.4-0.1,2.5-0.3
				c1-0.2,1.9-0.3,2.4-0.3c2.1,0,3.3,1.1,3.8,3.4C497.6,61,497.8,61.5,497.7,62.2z M482,51.4c-0.8-0.2-1.6-0.3-2.4-0.3
				c-1.1,0-2.4,0.3-3.6,0.7c-0.3,0.3-0.4,0.6-0.4,0.9c0,0.2,0.1,0.4,0.2,0.8c0.1,0.4,0.2,0.7,0.2,0.9
				C477.5,54.4,479.6,53.4,482,51.4z"/>
			<path class="st13" d="M526.8,59.3c0,1.5-0.2,3.6-0.7,6.6c-0.5,3-0.8-0.3-0.8,1c0,1.2,0.2,2.3,0.4,3.3c0.1,0.3,0.2,0.7,0.2,1.1
				c0,0.3-0.1,1.1-0.3,2.7c-0.1,0.4-0.1,0.9-0.1,1.6c-0.7,0.3-1.5,0.3-2.1,0.3c-0.8,0-1.9-0.2-2.7-0.6l-0.8-1.2l0.3-6
				c0.3-0.3,0.3-0.7,0.3-1.2c0-0.8,0-1.4,0-1.2c0-0.1,0-0.3,0-0.3l-0.3,0.3c-1.7,1.5-3.2,2.2-4.4,2.2c-0.4,0-0.8-0.1-1.2-0.2
				c-2.2-0.3-3.7-2.3-4.5-6c0.1-0.2,0.1-0.3,0.1-0.6c0-0.4-0.2-1.1-0.5-2c-0.3-0.8-0.5-1.5-0.5-2.1c0-0.6,0.2-1.1,0.6-1.7
				c0.2-0.3,0.5-0.6,1-0.8c0.6-0.3,1-0.5,1.2-0.6c2.1,0.1,3.5,1.1,4.4,3.2c0.1,0.2,0.1,0.4,0.1,0.6c0,0.3-0.1,0.7-0.3,1.2
				c-0.2,0.5-0.3,0.9-0.2,1.2c1.1-0.6,2.5-1.6,4-3.1c0.1-0.1,0.7-0.7,1.7-2c0.6-0.8,1.5-1.1,2.2-1.1l0.6,0.5l0,0
				c0.6,0,1,0.3,1.4,0.6c0.3,0.5,0.4,1,0.7,1.7c0.3,0.6,0.4,1.2,0.4,1.7C526.9,59,526.9,59.1,526.8,59.3z"/>
			<path class="st13" d="M554.8,44.7c0.1,0.3,0.1,0.6,0.1,0.8c0,0.8-0.3,1.9-0.8,3.2c-0.6,1.5-0.8,2.6-0.8,3.2c0,0.2,0,0.4,0,0.7
				c0,0.3,0.1,0.8,0.2,1.6c0.2,0.7,0.2,1.1,0.2,1.5c0,0.5-0.1,0.9-0.3,1.4c0,0.2,0,0.4,0,0.7c0,0.5,0.2,1.5,0.4,2.5
				c0.3,1,0.4,1.9,0.4,2.5c0,0.3,0,0.5,0,0.7c-0.4,0.3-0.8,0.3-1.4,0.3c-0.6,0-1.5-0.3-2.5-0.8c-0.3-0.7-0.6-1.4-0.8-2.1
				c-0.3-0.8-0.5-1.5-0.6-2.1l-0.5-0.4l-5,0.8c-0.3,0.3-0.3,0.6-0.3,0.8c0,0.2,0,0.3,0.1,0.4l0.8-0.3c0,0.4,0.1,0.7,0.3,0.7
				c0.1,0,0.3-0.1,0.4-0.3c0.2-0.2,0.3-0.3,0.4-0.3c0.1,0,0.2,0,0.3,0.1c-0.1,2.1-0.4,4.3-1.2,6.8c-0.3,0.3-0.5,0.3-0.8,0.3
				c-0.2,0-0.6-0.1-1.1-0.3c-0.5-0.2-0.9-0.3-1.4-0.3c-0.8-0.7-1.5-1.8-1.8-3.1c0-0.2-0.3-1.5-0.6-3.8c-0.3-1.5-0.6-2.6-1.1-3.4
				c0-0.2-0.1-0.4-0.1-0.6c0-0.6,0.2-1.5,0.6-2.5c0.4-0.9,0.6-1.8,0.6-2.4c0-0.3-0.1-0.7-0.2-1.1c0.3-0.7,0.3-1.7,0.3-3
				c0-1.5,0.1-2.4,0.3-3c0.3-1,0.8-1.9,1.6-2.4c0.9-0.1,1.9,0.2,2.6,0.9c0.6,0.8,1.2,1.6,1.9,2.4c0.1,0.3,0.1,0.5,0.1,0.8
				c0,0.6-0.3,1.4-0.9,2.3c-0.6,0.9-0.9,1.8-0.9,2.4c0,0.2,0,0.4,0.1,0.6c0,0.7,0,1.1,0.1,1.2c0.8-0.3,1.6-1.1,2.1-2.6
				c2.2-2.1,3.8-4.4,4.9-7.1c0.5-0.6,1-0.8,1.6-0.8c0.2,0,0.3,0,0.4,0.1c0.1,0.1,0.1,0.2,0.1,0.4c0,0.2,0.1,0.3,0.3,0.4
				c0.2-0.1,0.3-0.1,0.4-0.1c0.3,0,0.7,0.3,0.9,0.8C554.3,44.1,554.6,44.6,554.8,44.7z M547.7,51.4c-1.9,0.1-3.2,0.7-4.3,2l2.9-0.5
				c0.1-0.1,0.3-0.3,0.8-0.4c0.3-0.2,0.5-0.3,0.5-0.6C547.8,51.6,547.8,51.5,547.7,51.4z"/>
			<path class="st13" d="M582.5,64.4c0.1,0.2,0.1,0.3,0.1,0.5c0,0.4-0.3,0.9-0.9,1.5c-0.3,0.1-0.6,0.1-0.9,0.1
				c-0.6,0-1.2-0.1-2.1-0.3c-0.6-0.2-1.2-0.4-1.9-0.7c-0.8-1.5-1.6-3-2.4-4.6c-0.8-1.9-1.6-3.3-2.1-4.7c-0.8,0.8-1.5,2-1.6,3.4
				c-0.1,1.4-0.2,2.6-0.3,3.8c-0.7,0.3-1.5,0.6-2.2,0.6c-1.4,0-3-0.7-5-2.1c-0.4-0.8-0.8-1.6-1.2-2.5c-0.5-0.9-0.9-1.7-1.5-2.2
				c-0.3,0.5-0.5,1.4-0.8,2.5c-0.3,1.2-0.5,2.1-0.6,2.4c-0.2,0.3-0.3,0.9-0.3,1.8c-0.1,0.8-0.3,1.5-0.3,1.9
				c-0.3,0.6-0.8,0.9-1.5,1.1c-1.9-0.1-3.2-0.5-4-1.2C552.3,65,552,64,552,63c0-0.8,0.2-1.9,0.6-3.2c0.4-1.5,0.8-2.6,0.8-3.2
				c0.6-2.1,1.2-4.3,1.9-6.3c0.7-2.5,1.2-4.6,1.5-6.4c0.7-0.8,1.9-1.1,3.2-1.1c0.3,0,0.7,0,1.1,0c0.9,0.3,1.6,0.6,2,0.8
				c0.7,0.3,1.2,0.8,1.6,1.5c0,0.2,0,0.4,0.1,0.8c0.1,0.3,0.1,0.6,0.1,0.8c0,0.5-0.2,1-0.4,1.5c0,0.8,0,1.8,0,2.6
				c0.1,0.9,0.3,1.8,0.8,2.3c0.5-0.4,0.9-1.1,1.4-2.1c0.4-1.2,0.7-2.1,0.9-2.4c0.5-1.2,1.1-3.2,2-5.6c0.7-1.1,1.8-1.8,3-1.8
				c0.3,0,0.5,0,0.8,0.1c0.2,0.1,0.8,0.4,1.9,0.9c0.8,0.3,1.4,0.8,1.6,1.5c0.1,0.6,0.2,1.5,0.2,2.3c0,0.3,0,0.9-0.1,1.8
				c0,0.8-0.1,1.4-0.1,1.8c0,1.2,0.1,2.2,0.3,3C578.1,55.7,579.8,59.8,582.5,64.4z"/>
			<g>
				<path class="st13" d="M459.8,67.3c-0.1,0.3-0.3,0.3-0.5,0.4c-0.3,0-0.4,0.2-0.4,0.4c-0.3,0.1-0.7,0.1-1,0.1c-1,0-2.1-0.4-3-1.2
					c-0.5-0.4-1.4-1.4-2.4-2.6c-0.9-1.1-1.9-2.1-2.5-2.5c-0.3,0.5-0.3,1.4-0.3,2.4l0,0c0,0.5,0,0.9,0,1.2c0.1,0.1,0.2,0.2,0.2,0.3
					c0,0.1-0.1,0.3-0.2,0.5c-0.2,0.2-0.2,0.3-0.3,0.4c-0.4,0.5-0.9,0.8-1.7,0.8c-0.3,0-0.4,0-0.7-0.1c-0.8-0.2-1.7-0.8-2.6-1.8
					c-0.1-0.6-0.2-1.2-0.2-2c0-1.5,0.3-3.5,1-6.6c-0.3-0.5-0.5-1-0.5-1.8c0-1,0.3-2.1,0.9-2.9c0.3-0.3,0.5-0.3,0.8-0.3
					c0.2,0,0.4,0,0.8,0.1c0.3,0.1,0.6,0.1,0.8,0.1c0.6,0.6,1.2,1.2,2,1.8c0.7,0.8,1.1,1.5,1.2,2.2c0.3,0.5,0.7,1,1.4,1.8
					c0.5,0.5,0.9,1,1.5,1.6c0-1.4-0.3-3-0.7-5.1c-0.6-2.7-0.9-4.4-1-5c0.3-0.2,0.6-0.8,0.9-1.8c0.3-0.8,0.7-1.2,1.1-1.2
					c0.3,0,0.6,0.1,0.9,0.3c0.3,0.4,0.4,0.7,0.5,0.8c0.3,0.3,0.4,0.5,0.8,0.5c0.3,0.3,0.4,0.8,0.3,1.6c-0.1,0.8-0.1,1.5,0.1,1.7
					c1.2,3.7,2.1,8.5,2.5,14.5c0.3,0.3,0.3,0.6,0.3,0.7C459.9,67.1,459.9,67.2,459.8,67.3z"/>
			</g>
			<path class="st13" d="M466.9,55.9c0.3,0.6,0.5,1.2,0.5,1.9c0,0.4-0.1,0.8-0.3,1.1c-0.1,0.1-0.4,0.6-1.1,1.8
				c-0.4,0.7-0.9,1.1-1.7,1.2c-0.6,0-1.2-0.3-1.9-1c-0.5-0.5-0.9-1-1.5-1.7c0.1-0.6,0.2-1.2,0.3-1.9c0.1-0.6,0.3-1.1,0.8-1.5
				c0.9-0.4,1.9-0.6,2.7-0.6C465.6,55.3,466.3,55.5,466.9,55.9z"/>
			<path class="st13" d="M507.6,57.9c-0.4-0.9-0.6-1.8-0.6-2.4c0-0.3,0.1-0.7,0.2-1.1c-0.3-0.7-0.3-1.7-0.3-3c0-1.5-0.1-2.4-0.3-3
				c-0.3-1-0.8-1.9-1.6-2.4c-0.9-0.1-1.9,0.2-2.6,0.9c-0.6,0.8-1.2,1.6-1.9,2.4c-0.1,0.3-0.1,0.5-0.1,0.8c0,0.6,0.3,1.4,0.9,2.3
				c0.6,0.9,0.9,1.8,0.9,2.4c0,0.2,0,0.4-0.1,0.6c0,0.7-0.1,1.2-0.1,1.2l-0.3,0.8l-3-0.5c-0.1-0.1-0.3-0.3-0.8-0.4
				c-0.3-0.2-0.5-0.3-0.5-0.6c0-0.1,0-0.2,0.1-0.3c0.2-0.9-1.8-7.2-2.4-8.6c-0.5-0.6-1-0.8-1.6-0.8c-0.2,0-0.3,0-0.4,0.1
				c-0.1,0.1-0.1,0.2-0.1,0.4c0,0.2-0.1,0.3-0.3,0.4c-0.2-0.1-0.3-0.1-0.4-0.1c-0.3,0-0.7,0.3-0.9,0.8c-0.3,0.6-0.6,1-0.8,1.1
				c-0.1,0.3-0.1,0.6-0.1,0.8c0,0.8,0.3,1.9,0.8,3.2s0.8,2.6,0.8,3.2c0,0.2,0,0.4,0,0.7c0,0.3-0.1,0.8-0.2,1.6
				c-0.2,0.7-0.2,1.1-0.2,1.5c0,0.5,0.1,0.9,0.3,1.4c0,0.2,0,0.4,0,0.7c0,0.5-0.2,1.5-0.4,2.5c-0.3,1-0.4,1.9-0.4,2.5
				c0,0.3,0,0.5,0,0.7c0.4,0.3,0.8,0.3,1.4,0.3c0.6,0,1.5-0.3,2.5-0.8c0.3-0.7,0.6-1.4,0.8-2.1c0.3-0.8,0.5-1.5,0.6-2.1l0.5-0.4
				l5,0.8c0.3,0.3,0.3,0.6,0.3,0.8c0,0.2,0,0.3-0.1,0.4l-0.8-0.3c0,0.4-0.1,0.7-0.3,0.8c-0.1,0-0.3-0.1-0.4-0.3
				c-0.2-0.2-0.3-0.3-0.4-0.3s-0.2,0-0.3,0.1c0.1,2.1,0.4,4.3,1.2,6.8c0.3,0.3,0.5,0.3,0.8,0.3c0.2,0,0.6-0.1,1.1-0.3
				c0.5-0.3,0.9-0.3,1.4-0.3c0.8-0.7,1.5-1.8,1.8-3.1c0-0.2,0.3-1.5,0.6-3.8c0.3-1.5,0.6-2.6,1.1-3.4c0-0.2,0.1-0.4,0.1-0.6
				C508.3,59.6,508,58.8,507.6,57.9z"/>
			<path class="st13" d="M441.1,52.1c-0.5,0.3-1.1,0.5-1.8,0.5c-0.4,0-0.8-0.1-1-0.3c-0.1-0.1-0.6-0.4-1.7-1c-0.7-0.4-1-0.9-1.2-1.6
				c0-0.6,0.3-1.1,1-1.8c0.5-0.4,1-0.9,1.6-1.5c0.6,0.1,1.1,0.2,1.8,0.3c0.6,0.1,1,0.3,1.4,0.8c0.4,0.8,0.6,1.8,0.6,2.6
				C441.7,50.9,441.6,51.5,441.1,52.1z M443.3,72.2c-0.3,0.3-0.7,0.5-1.2,0.5c-0.3,0-0.8-0.1-1.6-0.3c-1.2-0.3-2.1-1-2.5-2.4
				c-0.2-0.5-0.4-1.7-0.6-3.4c-0.3-2.6-0.5-6-0.4-10c0.2-0.7,0.6-1.4,1.2-1.9c0.6-0.5,1.2-0.8,2-0.8s1.4,0.3,1.8,0.8
				c0.6,1.5,0.8,2.6,0.8,3.4c0,0.7-0.2,1.4-0.4,1.8c-0.1,0.8-0.1,1.5-0.1,2.2c0,2.1,0.3,4,0.8,5.8c0.4,0.3,0.6,0.7,0.6,1.4
				c0,0.3-0.1,0.6-0.2,1.2C443.3,71.5,443.3,72,443.3,72.2z"/>
			<path class="st13" d="M544.8,47.3c-0.1,0.6-0.5,1.2-1.4,1.9c-0.9,0.2-2.3,0.5-4,0.9c-1.8,0.5-3.1,0.8-3.8,0.9
				c-0.1,0-0.2-0.1-0.3-0.1c-0.2,0-0.3,0-0.6,0.1s-0.5,0.2-0.6,0.3c-0.2,0.6-0.3,1.5-0.3,2.2c0,0.6-0.1,1.5,0,2.3
				c0.1,1.2,0.1,2,0.1,2.2c0,2.1,0.2,27.7,0.4,28.4c0.4-0.3,0.7-0.3,0.8-0.1c0.1,0.1,0.1,0.3,0.1,0.3c0,0.1,0,0.3-0.1,0.5
				c-0.1,0.3-0.1,0.4-0.1,0.5c0,0.2,0.1,0.4,0.2,0.5c0,0,0.1,0,0.3-0.1c0.1-0.1,0.3-0.1,0.3-0.1c0.1,0.2,0.2,0.3,0.2,0.6
				c0,0.2-0.1,0.5-0.3,0.9c-0.2,0.4-0.2,0.8-0.2,1c-0.2,0.2-0.3,0.4-0.7,0.6c-0.3,0.2-0.5,0.3-0.8,0.5c-0.2-0.2-0.5-0.3-0.9-0.5
				c-0.5-0.2-0.8-0.3-1-0.4c-0.5,0.1-1-0.2-1.7-0.7c-0.8-1-1.2-26.6-1.2-28.2c0-0.3,0-0.6,0-0.8c-0.1-0.2-0.2-0.3-0.2-0.6
				c0-0.1,0-0.2,0-0.3s0-0.3,0-0.3c0-0.3-0.1-0.4-0.2-0.5c0-0.6-0.1-1.8-0.3-3.3c-0.1-1.5-0.2-2.6-0.2-3.4c-0.3-0.4-0.8-0.6-1.4-0.6
				c-0.2,0-0.4,0-0.8,0.1c-0.3,0.1-0.7,0.1-0.8,0.1c-0.3-0.1-0.9,0-1.7,0.2c-0.8,0.2-1.5,0.3-1.8,0.3c-0.8,0-1.5-0.4-1.8-1.4
				c-0.3-0.2-0.5-0.4-0.7-0.8c-0.3-0.5-0.4-0.8-0.5-0.8c0-0.3,0.2-0.7,0.4-1.2c0.3-0.3,0.6-0.4,1.2-0.6c0.6-0.2,1-0.3,1.2-0.6
				c1.5-0.3,3.1-0.6,5-0.7c0.4,0,0.7-0.3,0.9-0.9c-0.3-0.8-0.3-11.9,0.1-12.5c0.4-0.5,0.7-0.8,0.7-0.8c0.3-0.3,0.6-0.4,0.9-0.3
				c0.1-0.1,0.3-0.1,0.3-0.1c0.3,0,0.7,0.2,1.1,0.5c0.4,0.3,0.8,0.5,1.1,0.5c0.3,0.2,0.5,0.6,0.6,1.2c0.1,0.3,0.3,0.4,0.4,0.6
				c0.2,0.2,0.3,10.7,0.6,10.7c0.8-0.2,1.8-0.4,2.9-0.8c0.9-0.3,1.9-0.6,2.8-0.9c0.2,0.1,0.6,0.2,1.5,0.3c0.6,0.1,1.1,0.2,1.5,0.4
				c0.4,0.4,0.8,0.8,1.2,1.4s0.7,1,0.7,1.5C544.9,46.9,544.8,47.1,544.8,47.3z"/>
		</g>
	</g>
</g>
<g>
	<rect x="1" y="125" class="st2" width="200" height="120"/>
	<g>
		<g>
			<path class="st14" d="M54.5,211.4C54.5,211.4,54.5,211.3,54.5,211.4L54.5,211.4c0.3-0.2,1.4-0.2,2.1-0.2c2.1,0,3.1,1,3.1,2.7
				c0,2.2-1.6,3.4-3.5,3.4c-0.2,0-0.7,0-0.8,0c-0.3,0-0.6,0-0.8,0l0,0c0,0,0-0.1,0.1-0.1l0.4-0.1c0.1,0,0.1,0,0.1-0.2
				c0-0.3,0-2.4,0-2.8s0-2.4,0-2.6c0-0.1,0-0.2-0.1-0.2L54.5,211.4z M56.3,217.1c1.4,0,2.6-0.8,2.6-3.2c0-1.6-0.8-2.6-2.3-2.6
				c-0.4,0-0.4,0.1-0.4,0.2c-0.1,0.7-0.2,5.2-0.1,5.5C56,217.1,56.1,217.1,56.3,217.1L56.3,217.1z"/>
			<path class="st14" d="M68,217.4C68,217.4,67.9,217.5,68,217.4c-0.2,0.1-0.8,0-3,0c-0.3,0-0.7,0-0.9,0l0,0c0,0,0-0.1,0.1-0.1
				l0.4-0.1c0.1,0,0.1-0.1,0.1-0.2c0-0.3,0-2.4,0-2.8c0-0.3,0-2.3,0-2.6c0-0.1,0-0.2-0.1-0.2l-0.4-0.1l-0.1-0.1l0,0
				c0.3,0,0.7,0,0.9,0c2.1,0,2.7,0,2.9,0c0.1,0,0.1,0,0.1,0.1v1.2l-0.1,0.1l0,0c-0.1-0.3-0.2-0.6-0.3-0.8c0-0.1-0.1-0.1-0.2-0.1
				c-0.6-0.1-1.5-0.1-1.8-0.1c-0.1,0-0.1,0-0.1,0.1c-0.1,0.6-0.1,2.3-0.1,2.6c0.8,0,1.9,0.1,2.1,0.1l0,0c0,0.1,0,0.2-0.1,0.2
				c-0.3,0-1.1,0.1-2,0.1c-0.1,0-0.1,0.1-0.1,0.1c0,0.3-0.1,2.4-0.1,2.6c0,0.1,0,0.1,0.1,0.1c0.4,0,1.5,0,2.1-0.1
				c0.2,0,0.2-0.1,0.3-0.2c0.2-0.3,0.3-0.4,0.4-0.7l0,0l0.1,0.1L68,217.4z"/>
			<path class="st14" d="M74.8,211.2L74.8,211.2C74.8,211.3,74.8,211.3,74.8,211.2l-0.5,0.2c-0.1,0-0.1,0.1-0.1,0.2
				c0,0.5-0.1,2.1-0.1,2.6c0,0.4-0.1,2.6-0.1,2.8c0,0.1,0.1,0.1,0.1,0.1c0.4,0,1.5,0,2.1-0.2c0.1,0,0.2-0.1,0.3-0.2l0.4-0.8l0,0
				L77,216l-0.2,1.2c0,0.1,0,0.1-0.1,0.1c-0.2,0-0.8-0.1-3,0c-0.3,0-0.6,0-0.9,0l0,0c0,0,0-0.1,0.1-0.1l0.4-0.1c0.1,0,0.1,0,0.1-0.2
				c0-0.3,0-2.3,0-2.7c0-0.3,0-2.4,0-2.6c0-0.1,0-0.2-0.1-0.2l-0.4-0.1l-0.1-0.1l0,0L74.8,211.2L74.8,211.2z"/>
			<path class="st14" d="M82.9,211.2L82.9,211.2c0,0.1,0,0.2,0,0.2l-0.4,0.1c-0.1,0-0.1,0.1-0.1,0.1c0,0.6-0.1,2.3-0.1,2.7
				c0,0.4,0,2.6,0,2.7s0,0.1,0.1,0.1l0.4,0.1l0.1,0.1l0,0c-0.2,0-0.5,0-0.9,0s-0.8,0-0.9,0l0,0c0,0,0-0.1,0.1-0.1l0.4-0.1
				c0.1,0,0.1,0,0.1-0.2c0-0.3,0-2.3,0-2.8s0-2.3-0.1-2.6c0-0.1,0-0.2-0.1-0.2l-0.4-0.1l-0.1-0.1l0,0h2V211.2z"/>
			<path class="st14" d="M98.2,214C98.3,214,98.3,214,98.2,214C98.2,214.1,98.2,214.1,98.2,214l-0.3,0.2c-0.1,0-0.1,0.1-0.2,0.3
				c-0.1,0.5-0.3,1.1-0.6,1.5c0.3,0.3,0.8,0.8,1,1.4c0,0,0,0.1-0.1,0.1c-0.2,0-0.3,0-0.3-0.1c-0.3-0.3-0.6-0.6-0.9-0.9
				c-0.5,0.5-1.1,0.9-2.2,0.9c-0.9,0-1.9-0.4-1.9-1.5c0-0.8,0.6-1.4,1.2-1.6c0.1,0,0.2-0.1,0.3-0.1l0,0l-0.1-0.1
				c-0.4-0.3-0.8-0.8-0.8-1.5c0-0.8,0.8-1.5,1.8-1.5c0.8,0,1.5,0.4,1.5,1.2c0,0.6-0.6,1.1-1.2,1.5c0,0-0.1,0.1-0.2,0.1l0,0
				c0.7,0.6,1.5,1.4,1.9,1.8c0.2-0.3,0.3-0.9,0.3-1.4c0-0.2,0-0.2-0.1-0.2h-0.4l-0.1-0.1l0,0L98.2,214z M93.5,215.8
				c0,0.8,0.7,1.4,1.5,1.4c0.7,0,1.4-0.3,1.7-0.8c-0.6-0.5-1.7-1.5-2.2-2C93.8,214.7,93.5,215.2,93.5,215.8L93.5,215.8z M94.9,211.5
				c-0.4,0-0.9,0.3-0.9,1c0,0.5,0.3,0.8,0.8,1.5c0.5-0.3,0.8-0.8,0.8-1.5C95.7,211.8,95.4,211.5,94.9,211.5L94.9,211.5z"/>
			<path class="st14" d="M108,214.7c0-1.1,0.4-2.1,1-2.6c0.5-0.6,1.5-0.9,2.2-0.9c0.3,0,0.7,0.1,0.9,0.2l0.1,0.1l0.1,1.2
				c0,0.1-0.1,0.1-0.1,0.1l0,0c-0.2-0.3-0.3-0.7-0.4-1c0-0.1-0.1-0.2-0.2-0.2c-0.1-0.1-0.3-0.2-0.5-0.2c-0.5,0-1,0.3-1.5,0.8
				c-0.4,0.5-0.8,1.5-0.8,2.4c0,1.7,0.9,2.5,2,2.5c0.3,0,0.5,0,0.6-0.1c0.3-0.1,0.6-0.2,0.8-0.3c0,0,0,0,0,0.1v0.1
				c-0.3,0.2-0.7,0.3-1.1,0.4c-0.2,0-0.4,0.1-0.7,0.1C109.2,217.5,108,216.5,108,214.7L108,214.7z"/>
			<path class="st14" d="M119.2,211.2c0.2,0,0.3,0,0.5,0h0.1c0.3,1.2,1.5,4.4,1.8,5.6c0,0.1,0.1,0.2,0.2,0.2l0.3,0.1l0.1,0.1l0,0
				c-0.2,0-0.5,0-0.8,0c-0.4,0-0.8,0-1.1,0l0,0c0-0.1,0-0.1,0.1-0.1l0.5-0.1c0.1,0,0.1-0.1,0.1-0.2c-0.2-0.4-0.5-1.4-0.6-1.8
				c-0.4,0-1.7,0-2.3,0.1c-0.1,0-0.1,0-0.1,0.1c-0.1,0.3-0.3,1.1-0.4,1.6c0,0.1,0,0.2,0.1,0.2l0.6,0.1l0.1,0.1l0,0c-0.2,0-0.6,0-1,0
				c-0.3,0-0.6,0-0.7,0l0,0c0,0,0-0.1,0.1-0.1l0.3-0.1c0.1,0,0.2-0.1,0.2-0.2c0.5-1.2,1.6-4.3,2.1-5.5
				C118.9,211.2,118.9,211.2,119.2,211.2L119.2,211.2z M118.9,211.6c0,0.1-0.1,0.3-0.1,0.3c-0.3,0.8-0.7,2.1-0.8,2.7
				c0,0.1,0,0.1,0,0.1c0.4,0,1.8,0.1,2.2,0.1c-0.2-0.5-0.7-2.1-1-2.9C119.1,212,119,211.8,118.9,211.6L118.9,211.6z"/>
			<path class="st14" d="M130.5,212.6L130.5,212.6L130.5,212.6l-0.4-0.8c0-0.1-0.1-0.2-0.2-0.2c-0.4-0.1-1.1-0.1-1.5-0.1
				c0,0.6-0.1,2.3-0.1,2.7c0,0.6-0.1,2.6-0.1,2.9c0,0.1,0.1,0.1,0.1,0.1l0.6,0.1l0.1,0.1l0,0c-0.2,0-0.6,0-1.1,0c-0.4,0-0.8,0-1,0
				l0,0c0,0,0-0.1,0.1-0.1l0.5-0.1c0.1,0,0.1,0,0.1-0.2c0-0.3,0-2.4,0-2.8c0-0.3,0-2.2,0-2.7c-0.3,0-1,0-1.5,0.1
				c-0.1,0-0.2,0.1-0.2,0.2l-0.3,0.8l0,0c0,0-0.1,0-0.1-0.1l0.1-1.2c0-0.1,0-0.1,0.1-0.1s0.5,0.1,2.5,0.1c2,0,2.4,0,2.5,0
				c0.1,0,0.1,0,0.1,0.1L130.5,212.6z"/>
			<path class="st14" d="M138.6,217.4C138.6,217.4,138.6,217.5,138.6,217.4c-0.2,0.1-0.8,0-3,0c-0.3,0-0.7,0-0.9,0l0,0
				c0,0,0-0.1,0.1-0.1l0.4-0.1c0.1,0,0.1-0.1,0.1-0.2c0-0.3,0-2.4,0-2.8c0-0.3,0-2.3,0-2.6c0-0.1,0-0.2-0.1-0.2l-0.4-0.1l-0.1-0.1
				l0,0c0.3,0,0.7,0,0.9,0c2.1,0,2.7,0,2.9,0c0.1,0,0.1,0,0.1,0.1v1.2l-0.1,0.1l0,0c-0.1-0.3-0.2-0.6-0.3-0.8c0-0.1-0.1-0.1-0.2-0.1
				c-0.6-0.1-1.5-0.1-1.8-0.1c-0.1,0-0.1,0-0.1,0.1c-0.1,0.6-0.1,2.3-0.1,2.6c0.8,0,1.9,0.1,2.1,0.1l0,0c0,0.1,0,0.2-0.1,0.2
				c-0.3,0-1.1,0.1-2,0.1c-0.1,0-0.1,0.1-0.1,0.1c0,0.3-0.1,2.4-0.1,2.6c0,0.1,0,0.1,0.1,0.1c0.4,0,1.5,0,2.1-0.1
				c0.2,0,0.2-0.1,0.3-0.2c0.2-0.3,0.3-0.4,0.4-0.7l0,0l0.1,0.1L138.6,217.4z"/>
			<path class="st14" d="M147.4,212.8c0,0.8-0.8,1.5-1.4,1.7c0.4,0.6,1.1,1.8,1.5,2.6c0,0.1,0.1,0.1,0.2,0.1l0.4,0.1l0.1,0.1l0,0
				c-0.2,0-0.4,0-0.8,0c-0.3,0-0.6,0-1,0l0,0c0,0,0-0.1,0.1-0.1l0.4-0.1c0.1,0,0.2-0.1,0.1-0.1c-0.4-0.6-1.1-1.7-1.7-2.3l-0.1-0.1
				c-0.2,0-0.5,0-0.8,0c0,0.3-0.1,2-0.1,2.3c0,0.1,0,0.1,0.1,0.2l0.5,0.1l0.1,0.1l0,0c-0.3,0-0.7,0-1,0c-0.3,0-0.7,0-0.9,0l0,0
				c0-0.1,0-0.1,0.1-0.1l0.4-0.1c0.1,0,0.1-0.1,0.1-0.2c0-0.3,0-2.3,0-2.7c0-0.3,0-2.3,0-2.6c0-0.1,0-0.2-0.1-0.2h-0.4l-0.1-0.1l0,0
				c0.3,0,1.2-0.1,2.1-0.1C146.7,211.2,147.4,211.8,147.4,212.8L147.4,212.8z M144.8,214.4c0.8,0,1.7-0.6,1.7-1.7
				c0-0.8-0.6-1.5-1.6-1.5c-0.3,0-0.4,0-0.4,0.2c-0.1,0.7-0.1,2.6-0.1,2.8C144.4,214.4,144.5,214.4,144.8,214.4L144.8,214.4z"/>
			<path class="st14" d="M154.1,211.2L154.1,211.2c0,0.1,0,0.2,0,0.2l-0.4,0.1c-0.1,0-0.1,0.1-0.1,0.1c0,0.6-0.1,2.3-0.1,2.7
				c0,0.4,0,2.6,0,2.7s0,0.1,0.1,0.1l0.4,0.1l0.1,0.1l0,0c-0.2,0-0.5,0-0.9,0s-0.8,0-0.9,0l0,0c0,0,0-0.1,0.1-0.1l0.4-0.1
				c0.1,0,0.1,0,0.1-0.2c0-0.3,0-2.3,0-2.8s0-2.3-0.1-2.6c0-0.1,0-0.2-0.1-0.2l-0.4-0.1l-0.1-0.1l0,0h2V211.2z"/>
			<path class="st14" d="M159.7,211.2C159.8,211.2,159.8,211.2,159.7,211.2c0.5,0.8,2.4,3.8,3,5c0.1,0.1,0.1,0.3,0.2,0.3l0,0
				c0-0.2,0-0.3,0-0.4c0-0.8,0-4.1-0.1-4.5c0-0.1-0.1-0.2-0.2-0.2l-0.5-0.1l-0.1-0.1l0,0h1.7l0,0c0,0,0,0.1-0.1,0.1l-0.3,0.1
				c-0.1,0-0.2,0.1-0.2,0.3c0,0.3-0.1,1.9-0.1,2.6c0,0.4-0.1,2.7-0.1,3.1v0.1c-0.1,0-0.3,0.1-0.3,0.1c-0.1,0-0.1,0-0.2-0.1
				c-0.6-0.9-2.3-3.6-3.1-4.9c-0.1-0.1-0.1-0.2-0.2-0.3h-0.1c0,0.2,0,0.3,0,0.3c0,0.8-0.1,4.1-0.1,4.4c0,0.1,0,0.1,0.1,0.1l0.6,0.1
				l0.1,0.1l0,0c-0.2,0-0.5,0-0.8,0c-0.3,0-0.6,0-0.8,0l0,0c0,0,0-0.1,0.1-0.1l0.4-0.1c0.1,0,0.1,0,0.1-0.2c0-0.3,0-2.3,0-2.7
				c0-0.4-0.1-2.4-0.1-2.6c0-0.1,0-0.2-0.2-0.2l-0.4-0.1l-0.1-0.1l0,0h1.8L159.7,211.2L159.7,211.2z"/>
			<path class="st14" d="M173.2,214.7L173.2,214.7c0,0.1,0,0.1,0,0.2l-0.4,0.1c-0.1,0-0.1,0.1-0.1,0.1c-0.1,0.4-0.1,1.5-0.1,2.1
				c0,0,0,0.1-0.1,0.1c-0.3,0.1-0.8,0.2-1.5,0.2c-1.7,0-3-0.8-3-2.7c0-1.1,0.5-2.1,1.1-2.6c0.7-0.6,1.5-0.8,2.3-0.8
				c0.4,0,0.8,0.1,0.9,0.2c0.1,0,0.1,0.1,0.1,0.1l0.1,1.1l-0.1,0.1l0,0c-0.2-0.3-0.3-0.6-0.4-0.9c0-0.1-0.1-0.1-0.1-0.2
				c-0.1-0.1-0.3-0.2-0.6-0.2c-0.5,0-1,0.3-1.6,0.8c-0.4,0.5-0.8,1.4-0.8,2.5c0,1.8,1,2.6,2.3,2.6c0.2,0,0.4,0,0.6-0.1l0.1-0.1
				c0-0.6,0-1.6-0.1-2c0-0.1,0-0.2-0.1-0.2L171,215l-0.1-0.1l0,0L173.2,214.7L173.2,214.7z"/>
		</g>
		<g>
			<path class="st15" d="M80,195.8L80,195.8l0.4-0.1c0.3-0.3,0.3-0.3,1.2-0.5l2.1-0.3l0.6,0.1l0.7-0.2l1.4-0.2
				c0.3-0.1,0.7-0.3,0.7-0.6v-0.1l-0.2-0.7l0.1-1c-0.1-0.4-0.3-0.6-0.8-0.7l-0.3-0.3c-0.5-0.8-0.6-0.8-1.5-1l-0.8-0.2h-0.8l-0.4,0.1
				c-0.3-0.1-0.3-0.2-0.3-0.4l-0.4,0.2l-0.5,0.4l-1.6,0.8c-0.3,0.2-0.5,0.3-0.6,0.5l-0.3,0.3c-0.1,0.2-0.3,0.3-0.4,0.3l-0.3-0.1
				l-0.4-0.3l-0.5-0.1c-0.3-0.1-0.7-0.4-0.7-0.6v-0.1l0.3-0.2l0.5-0.3l0.5-0.1l0.8-0.4l1-0.3l0.3-0.1l0.7-0.3l0.5,0.1l2-0.4h0.8h0.6
				l0.6,0.3l2,0.3l0.3,0.2v0.3l-0.3,0.2c0.1,0.3,0.2,0.5,0.3,0.5h-0.2l0.4-0.2h0.1c0.1,0,0.2,0.1,0.2,0.2l0.3,0.6l0.3,0.3v0.3
				l-0.1,0.8c0,0.3,0.2,0.6,0.5,0.8l0.2,2.4l-0.4,0.6l0.5,0.6v0.2l-0.1,1.5l0.2,1.1v0.3v0.3l-0.3,0.1c0,0.6,0,0.6,0.3,1.4l0.3,0.5
				l-0.2,0.3l-0.3,0.3l-0.4,0.2l-0.6,0.3l-0.6,0.2c-0.3,0.1-0.6,0.3-0.7,0.3c-0.2,0-0.3-0.2-0.3-0.3s0.1-0.3,0.2-0.7
				c0.1-0.1,0.1-0.3,0.1-0.5l-0.3,0.2l-1.5,0.5c-0.3,0.1-0.6,0.2-0.8,0.2l0,0h-0.6l-0.8,0.3l-0.5,0.1l-1.5,0.3l-0.6-0.1l-0.4,0.2
				l-0.3,0.1h-0.5l-1-0.3l-0.7-0.1c-0.9-0.2-1.8-0.7-2.1-1.5l-0.4-0.2l-0.1-0.3v-0.3l-0.3-0.8l0.6-1.1l0.2-0.5
				c0.1-0.3,0.1-0.2,0.6-0.6l1.2-1l0.5-0.2l0.8-0.3c0,0,0.1,0,0.2,0C79.1,196,79.4,195.7,80,195.8z M77.2,199.4l0.3,1.5l-0.3,0.8
				l0.3,0.3l0.4-0.5c0.5,0.4,0.6,0.5,1.6,0.7l0.3,0.4l1.1,0.1l0.3-0.3l0.3,0.2l0.3-0.1l0.2-0.1c0.2,0.1,0.4,0.1,0.4,0.1
				c0.3,0,0.8-0.2,1.2-0.4c0.1,0,0.2-0.1,0.3-0.2c1,0,1.5-0.2,2-0.6l0.3-0.4l0.8-0.6V200v-0.2c0.3-0.1,0.3-0.2,0.3-0.6
				c-0.2-0.2-0.3-0.3-0.3-0.3l0.1-0.6l-0.1-1.5l0.2-0.4l-0.5-0.3l-0.3,0.1l-1.5-0.1h-0.7l-0.5-0.3l-0.3,0.2h-0.8l-0.6,0.3l-0.3-0.2
				l-0.4,0.3l-2.5,1.1l-0.5,0.3l-0.4,0.6l-0.5,0.3c-0.1,0.1-0.1,0.2-0.1,0.3c0,0,0,0,0,0.1l0.2,0.2L77.2,199.4z"/>
			<path class="st15" d="M95.9,188.4c0.6,0.5,0.6,0.6,0.6,1.1v0.6v0.6l0.6-0.1l0.6-0.6l0.4-0.2l0.6-0.5l1.8-0.6l0.3-0.1l0.3-0.1
				c0.3,0.3,0.3,0.3,0.3,0.7l0.3,0.1l0.3-0.1v-0.4c0.3-0.2,0.4-0.3,0.6-0.3c0,0,0.1,0,0.3,0.1l0.1-0.1c0.2,0,0.3,0,0.3,0
				c0.6,0,1.1,0.5,1.4,1.5c0.1,0.3,0.1,0.4,0.3,0.5l0.3-0.3l0.5-0.5l0.6-0.3l0.8-0.5l0.3-0.1l0,0h0.7l0.6-0.2h0.9l0.5-0.1l0.5,0.3
				l0.6,0.2c0.6,0.2,0.9,0.5,0.8,1c-0.2,0.1-0.3,0.3-0.3,0.3c0,0.1,0.1,0.2,0.3,0.2c0.1,0,0.1,0,0.3-0.1l0.1,0.3l0.1,0.8l0.2,0.3
				v0.3l-0.1,1v0.8v0.3l-0.2,0.3c-0.1,0.2-0.2,0.3-0.2,0.3l0.2,1.8l0.1,0.5l0,0v1l0,0l0.1,0.5c0,0.1-0.2,0.2-0.3,0.3v0.5l0.3-0.1
				l0.1,0.3v1.1l0.3,0.7l-0.4,0.3l-0.8,0.4l-0.8,0.6c-0.1,0-0.2,0-0.3,0c-0.1,0-0.3,0-0.4-0.1l-0.1-0.8l0.1-0.4l0.3-0.8l-0.2-1.6
				l0.2-0.8v-0.8l0.3-0.8v-0.1c0-0.2-0.1-0.3-0.3-0.4V196l-0.1-1.7c0-0.1,0-0.2,0-0.3l0.3-1.1l-0.4-0.6l-0.3-1.5l-0.2-0.3l-0.3-0.1
				l-0.7-0.4c-0.2-0.1-0.3-0.1-0.7-0.1c-0.9,0-1.7,0.1-2.6,0.5c-0.8,0.3-1.1,0.7-1.1,0.9v1.1l-0.4,0.3v0.1c0,0.2,0.2,0.3,0.4,0.5
				l0.1,3.7c-0.1,0.1-0.3,0.1-0.3,0.1c-0.1,0-0.1,0-0.3-0.1v0.3l0.4,0.8l-0.1,0.5l0.1,0.3c0.2,0.5,0.3,1.8,0.3,2.4
				c0,0,0,0.1-0.1,0.1l-0.3,0.1l-0.6,0.4l-0.9,0.3l-0.3,0.1c-0.1,0-0.3-0.1-0.3-0.3v-0.2l0.1-1.7l-0.1-1.5c0-0.4,0.1-0.5,0.4-0.8
				v-0.3l-0.3-0.5l-0.1-0.3l-0.3-0.4l0.1-0.4v-1.4l0.5-0.6c0-0.1,0-0.2,0-0.2c0-0.3-0.1-0.4-0.3-0.4c-0.1,0-0.2,0-0.2,0l-0.2-0.3
				v0.1v-0.6c0-1.6-0.3-2.4-1-2.4c-0.2,0-0.3,0-0.5,0.1l-0.3-0.5l-0.3,0.1l-0.3,0.3l-0.8,0.1l-0.8,0.3l-0.6,0.1l-0.3,0.2l-0.2,0.3
				c-0.5,1.2-0.7,1.7-0.7,2.5v0.3l0.1,2.2v0.3l-0.4,0.2l0.1,0.3l0.3,0.5v1.7l0.3,2.9c0,0.2-0.1,0.3-0.4,0.4l-1,0.5
				c-0.1,0.1-0.3,0.1-0.4,0.1c-0.1,0-0.3,0-0.5-0.1v-0.3v-0.1v-1.6l-0.1-0.6l0.3-0.4l0.1-0.4l-0.3-0.3v-0.3v-0.3l0.1-0.3l0.3-0.4
				l0.1-0.3v-0.3c-0.4,0-0.5-0.1-0.5-1.9v-0.8v-0.3h0.3v-0.7l-0.1-0.5l-0.3-0.6l-0.1-1.2l-0.1-0.6l-0.1-0.4l-0.1,0.2l-0.3-0.3
				C93.9,189.4,94.4,189.1,95.9,188.4z"/>
			<path class="st15" d="M136.4,197.3c0-0.8,0.2-1.7,0.7-2.9c0.5-1.1,0.7-1.5,0.8-1.6l0.6-0.4l0.3-0.6c0.1-0.3,0.3-0.3,0.4-0.4
				l1.5-0.8l0.8-0.7l1-0.3l1.8-0.6l1.5-0.1h1.1c0.8,0,0.9,0.1,0.9,0.5c0.2,0.1,0.3,0.3,0.3,0.3c0.2,0,0.3-0.2,0.5-0.4l0.3,0.1l1,0.3
				l0.4,0.3l0.6,0.3l0.6,0.8c0.2,0.3,0.4,0.3,0.9,0.3c0.7,0.8,0.8,1.5,0.9,3.2l0.1,0.5l-0.3-0.1l0.1,0.3l-0.3,0.3
				c0.1,0.3,0.1,0.3,0.4,0.5v0.3c0,1.1-0.5,2.5-1.4,3.8c-0.5,0.7-0.9,1.1-1.4,1.6l-0.5,0.1l-3,1.5l-1.7,0.1l-1.2,0.3H143l-0.5,0.1
				l-1.5-0.3h-0.6l-0.3-0.3l-0.8-0.1l-0.4-0.3c-1.1-0.8-1.5-1-1.5-1.2l-0.3-0.7l-0.5-0.3l-0.3-0.9l-0.2-0.4l0.2-0.1
				c0-0.3,0.1-0.3,0.3-0.4l-0.1-0.3l-0.5-0.3L136.4,197.3L136.4,197.3z M138.5,197.6c0,0,0,0.1,0.1,0.2c0.1-0.1,0.2-0.2,0.3-0.2
				s0.2,0,0.2,0.1l0.3,1.1l0.8,1.4l-0.1,0.8c0.1,0.1,0.2,0.1,0.3,0.1s0.3,0,0.3-0.2l0.3,0.1l2,1.1l2,0.2l1.1,0.2l1.2-0.3l0.8-0.2
				l1-1l0.8-0.3l0.3-0.3l0.8-1.8l0.4-0.3c0.1-0.2,0.3-0.3,0.3-0.3s0,0,0-0.1l-0.3-0.8l0.3-1.9l-0.6-1.9l-0.1-0.8l-0.2-0.3h-0.1
				c-0.2,0-0.3,0-0.3-0.3l-0.8-0.9l-0.3-0.3l-1.4-0.6c-0.3-0.5-0.3-0.6-0.6-0.6c-0.2,0-0.3,0-0.6,0.2c-0.3-0.1-0.5-0.2-0.6-0.2
				l-0.4,0.1H145l-1,0.3l-0.3-0.3l-0.2,0.3l-1,0.6l-2.1,1.8l-0.3,0.3c-0.1,0.7-0.3,1-0.7,1.9l-0.3,0.3v0.1c0,0.4-0.1,0.5-0.5,0.6
				c0,0.1-0.1,0.2-0.1,0.3v0.1l0.5,0.5l0.1,0.3C138.7,197.4,138.5,197.5,138.5,197.6z"/>
			<path class="st15" d="M156.3,197.3c0-0.8,0.2-1.7,0.7-2.9c0.5-1.1,0.7-1.5,0.8-1.6l0.6-0.4l0.3-0.6c0.1-0.3,0.3-0.3,0.4-0.4
				l1.5-0.8l0.8-0.7l1-0.3l1.8-0.6l1.5-0.1h1.1c0.8,0,0.9,0.1,0.9,0.5c0.2,0.1,0.3,0.3,0.3,0.3c0.1,0,0.3-0.2,0.5-0.4l0.4,0.1l1,0.3
				l0.4,0.3l0.6,0.3l0.6,0.8c0.2,0.3,0.4,0.3,0.9,0.3c0.7,0.8,0.8,1.5,0.9,3.2l0.1,0.5l-0.3-0.1l0.1,0.3l-0.3,0.3
				c0.1,0.3,0.1,0.3,0.4,0.5v0.3c0,1.1-0.5,2.5-1.4,3.8c-0.5,0.7-0.9,1.1-1.4,1.6l-0.5,0.1l-3,1.5l-1.7,0.1l-1.2,0.3h-1.5l-0.5,0.1
				l-1.5-0.3H161l-0.3-0.3l-0.8-0.1l-0.4-0.3c-1.1-0.8-1.5-1-1.5-1.2l-0.3-0.7l-0.5-0.3l-0.3-0.9l-0.1-0.4l0.2-0.1
				c0-0.3,0.1-0.3,0.3-0.4l-0.1-0.3l-0.5-0.3L156.3,197.3L156.3,197.3L156.3,197.3z M158.4,197.6c0,0,0,0.1,0.1,0.2
				c0.1-0.1,0.2-0.2,0.3-0.2s0.2,0,0.2,0.1l0.3,1.1l0.8,1.4l-0.1,0.8c0.1,0.1,0.2,0.1,0.3,0.1s0.3,0,0.3-0.2l0.3,0.1l2,1.1l2,0.2
				l1.1,0.2l1.2-0.3l0.8-0.2l1-1l0.8-0.3l0.3-0.3l0.8-1.8l0.4-0.3c0.1-0.2,0.3-0.3,0.3-0.3s0,0,0-0.1l-0.3-0.8l0.3-1.9l-0.6-1.9
				l-0.1-0.8l-0.2-0.3h-0.1c-0.2,0-0.3,0-0.3-0.3l-0.8-0.7l-0.3-0.3l-1.4-0.6c-0.3-0.5-0.3-0.6-0.6-0.6c-0.2,0-0.3,0-0.6,0.2
				c-0.3-0.1-0.5-0.2-0.6-0.2l-0.4,0.1H165l-1,0.3l-0.3-0.3l-0.2,0.3l-1,0.6l-2.1,1.8l-0.3,0.3c-0.1,0.7-0.3,1-0.7,1.9l-0.3,0.3v0.1
				c0,0.4-0.1,0.5-0.5,0.6c0,0.1-0.1,0.2-0.1,0.3v0.1l0.5,0.5l0.1,0.3C158.6,197.4,158.4,197.5,158.4,197.6z"/>
			<g>
				<path class="st15" d="M116.4,166.5c-0.3-0.4-0.7-0.8-1-1.2c-0.1-0.3-0.6-0.2-0.6-0.4c-0.3,0-0.4-0.2-0.5-0.3l0.1-0.1
					c0.1-0.3,0.2-0.8-0.1-1.1c-0.2-0.1-0.5,0-0.7,0.1c-0.1-0.1-0.2-0.1-0.3-0.1l-0.4,0.1c-0.1,0.2-0.2,0.3-0.2,0.6
					c-0.5,0.2-1,0.3-1.6,0.3c-0.2,0.3-0.5,0.3-0.6,0.5c-0.3,0.2-0.7,0.4-0.8,0.7c-0.6,0.3-1,0.8-1.7,1c-0.2,0.4-0.8,0.4-0.8,0.9
					h-0.1c-0.5,0.3-0.6,0.8-1.1,1.4l-2.3,2.7l-0.8,1l-2.6,3.2l-2.7,3.4l-1.7,2.3c-0.1,0.3-0.3,0.5-0.5,0.8c0.5-0.1,0.7-0.7,1-0.9
					l2.6-2.5c0.8-0.3,1.6-1.1,2.4-1.7v-0.1c0.9-0.8,1.9-1.8,2.8-2.5c0.4-0.7,1.2-0.9,1.7-1.6c0.3,0,0.5-0.2,0.8-0.3
					c0.1-0.3,0.6-0.3,0.7-0.6c0.3-0.1,0.6-0.5,0.8-0.6v-0.1c0.1-0.1,0.1-0.2,0.2-0.1v-0.1c0.1,0,0.2,0,0.2,0.1v-0.1
					c0.1-0.1,0.1-0.1,0.2-0.1c-0.1-0.2,0.1-0.3,0.3-0.4c0.1,0,0.1,0,0.2,0.1v-0.1c0.4,0,0.3-0.7,0.8-0.4c0.1-0.1,0.4-0.4,0.5-0.5
					c0.1,0,0.1,0,0.2,0.1v-0.1h0.1c0.1-0.1,0.3-0.2,0.4-0.3c0.2,0.1,0.2-0.2,0.3-0.2h0.1L111,174l-0.3,2.5l-0.6,3.8
					c-0.3,2.2-0.2,4.4-0.4,6.6c0.3-0.6,0.4-1.5,0.4-2.1c0.3-0.3,0.2-0.8,0.3-1c-0.1-0.2,0.2-0.3,0.2-0.5c-0.2-0.4,0.5-0.6,0.4-1
					c0.3-0.3,0.1-0.7,0.4-0.9c0.1-0.3,0.1-0.8,0.3-1.1V180c0.1-0.2,0.3-0.5,0.2-0.8c0.1-0.2,0.3-0.3,0.2-0.4l0.1-0.1
					c0-0.1,0.1-0.2,0-0.3c0.3-0.1,0-0.4,0.3-0.5c0.1-0.3-0.1-0.8,0.3-0.9c0.2-0.1,0.3-0.3,0.2-0.4c0.1-0.1,0.3-0.2,0.2-0.3l0.2-0.1
					c0-0.1,0.2-0.2,0.1-0.3l0.3-0.3l0.1,0.1c0.1-0.1,0-0.2,0-0.3c0.1-0.3,0.4-0.8,0.6-1.2c0.2-0.2-0.1-0.4,0.2-0.4l-0.1-0.2h0.1
					l-0.1-0.1c0.3-0.1,0-0.3,0.3-0.4l-0.1-0.1c0.1-0.2,0.2-0.6,0.4-0.8c-0.1-0.3,0.3-0.4,0.2-0.7c0.1-0.3,0.2-0.3,0.3-0.7
					c0-0.5,0.4-1,0.4-1.8c0.2-0.3,0.2-1.1,0.3-1.4v-0.1l0.1-0.1C116.3,166.7,116.4,166.6,116.4,166.5z"/>
				<path class="st15" d="M140.2,175L140.2,175L140.2,175c-0.8-4.1-3.3-7.8-6.1-10.7c-0.6-0.3-0.8-1.1-1.5-1.5
					c-0.2-0.3-0.4-0.5-0.7-0.5c-0.1-0.3-0.4-0.6-0.6-0.6c0.1-0.3-0.3-0.2-0.2-0.4H131c-0.3-0.2-0.5-0.5-0.8-0.4
					c-0.3-0.3-0.8-0.4-1.4-0.3c-0.3-0.3-0.7-0.1-1,0c-0.4,0.6-1.4,0.7-2.1,1l-0.3-0.2c0-0.4-0.5-0.7-0.5-1.2
					c-0.3-0.1-0.2-0.5-0.5-0.4l-0.1-0.1c-0.3-0.2-0.4-0.2-0.7,0c-0.5,0.5-0.5,1.2-0.6,1.9c-0.3,0.1,0,0.3-0.2,0.4
					c-0.2,0.3-0.2,0.5-0.5,0.8l0.1,0.1c-0.3,0.3-0.4,0.8-0.3,1.2c-0.2,0.8,0.3,1.7,0.3,2.4c0,0.3,0.3,0.6,0.2,0.8
					c0.3,0.7,0.4,1.4,0.5,2c0.7,1.6,0.2,3.2,0.3,5c0,0.7,0,1.5,0.2,2.1h-0.1c0.1,0.6-0.1,1.4,0,2h-0.1l0.1,0.2
					c-0.1-0.3,0.3-0.4,0.2-0.6l0.2-0.1c0.3,0.3-0.1,0.7-0.1,1c0.3-0.8,0.6-1.5,0.8-2.4c-0.1-0.2,0.1-0.4,0.2-0.5
					c0.1-0.3,0.1-0.5,0.2-0.8l0.6-3.8c0.2-1.4,0.3-2.7,0.4-4.1c0.3-1.1,0-2.1,0.1-3.2c-0.2-0.6-0.2-1.5-0.2-2
					c0.3-0.3,0.7-0.3,1.1-0.5c0.9-0.3,1.5,0.4,2,1c0.3,0.6,0.4,1.2,0.8,1.8c0.1,0.8,0.8,1,1.5,1.5c0.2,0.1,0.2,0.4,0.4,0.3
					c0.2,0.1,0.2,0.3,0.4,0.3c0.1,0.1,0.1,0.3,0.3,0.3c0.5,0.1,0.7,0.7,1.2,0.8c0.3,0.3,0.5,0.4,0.8,0.8h0.1c0.6,0.5,1,1.1,1.7,1.7
					c0.6,0.7,1.4,1.4,1.9,2.1c0.8,0.5,1.2,1.6,1.9,2.4l-0.3-0.7h0.1C139.9,174.1,140.2,174.6,140.2,175z"/>
				<path class="st15" d="M140.4,175.1L140.4,175.1L140.4,175.1L140.4,175.1z"/>
				<path class="st15" d="M133.9,193.9l-0.3-1.1l-0.1-0.3l-0.5-0.5l-0.3-0.7l-0.5-0.4l-0.3-0.3c0-0.1-0.1-0.1-0.2-0.1
					s-0.3,0.1-0.3,0.3l-0.5-0.1c-0.2-0.8-0.4-1-1.5-1.2c-0.5-0.1-0.8-0.2-2-0.2c-0.1-0.2-0.3-0.3-0.3-0.3h-0.8h-0.3l-0.1,0.3
					c-0.2,0.1-0.3,0.1-0.5,0.1s-0.3-0.1-0.5-0.3l-1.5,0.5c-0.4,0.2-0.8,0.3-1.1,0.3c-0.1,0-0.3,0-0.4-0.1c-0.3,0.3-0.5,0.5-0.8,0.5
					c-0.1,0-0.2,0-0.3-0.1v1.4c0-0.2-0.1-0.3-0.2-0.4c-0.5-1.4-0.6-1.6-0.3-1.8c0.1-0.1,0.3-0.1,0.5-0.2l-0.1-0.5v-1.2l-0.6-0.7
					c-0.2-0.3,0-0.5,0.6-0.8c-0.1-0.3-0.2-0.7-0.3-0.8l-0.5-0.4l0.3-0.4l0.3-0.6v-1.1l0.1-1.5l-0.2-1.5l0.1-1.1
					c-0.2-0.1-0.3-0.2-0.4-0.3c-0.2-0.2-0.2-0.3,0.3-1.4l0.1-1.4l-0.1-2.4c-0.4-0.9-0.5-0.9,0.1-1.5l-0.1-0.7v-0.8l0.3-4l-0.4-0.7
					l0.3-0.6v-2.2l0.1-1.5c0.7-0.4,1.4-0.7,1.9-1.4c0.5-0.3,1.2-0.6,1.4-1.4c-0.1-0.2-0.1-0.3-0.3-0.3c-0.7-0.1-1.5-0.5-2.1-0.3
					c-0.3-0.2-0.7,0-1-0.1v-0.2l0.5-0.3l0.3-2.4l-0.1-1.1l0.3-0.8c-0.7-0.3-1-0.3-1.7,0.2c-0.7,0.4-1.1,0.8-1.9,1.7
					c0.2,0.6,0.2,0.8-0.2,1.4l0.2,0.5l0.2,1.4v0.1c-0.8,0.1-1.9,0.2-2.7,0.1l-3.1,0.3c-2.8,0.4-5.7,1-8.5,2.1v0.1
					c0.9-0.2,2.1,0.1,3-0.1c0.3-0.1,0.6-0.2,0.8,0h0.1l0.1,0.2l0.3-0.1c0.3,0.3,0.8,0,1,0.3c0.3,0.2,0.5-0.2,0.7,0.2
					c1-0.1,2.2,0.3,3.2,0.3l0.1,0.1c0.8,0.1,1.8-0.2,2.5-0.3c0.8,0.1,1.7,0.2,2.5,0.2v0.7l0.3,1.6l-0.2,2.8c0.1,0.4,0.2,0.6,0.5,0.9
					l-0.6,0.8v4.2c0.3,0.2,0.4,0.3,0.5,0.3c0.3,0.3,0.2,0.7-0.4,1v0.6l0.4,0.3l-0.1,0.4l-0.3,0.6c-0.1,0-0.2,0-0.3,0l-0.1,0.8
					l0.3,2.1l-0.1,2v0.7c0,0.3,0.1,0.3,0.2,0.5h0.3c0.3,0.6,0.3,0.9,0.1,1.1c-0.1,0.1-0.3,0.1-0.6,0.2l0.1,0.8l0.4,0.4
					c-0.5,0.8-0.8,1.1-0.7,1.5l0.3,1.6l-0.3,4.9l0.3,1.5v8l0.4,2.6l-0.1,2.1l-0.1,1.6l0.7,0.5l0.7-0.1l0.8-0.7c1.6-1,2-1.7,1.7-2.8
					c-0.3-0.1-0.6-0.2-0.7-0.3s-0.2-0.2-0.2-0.4h0.4c0.2-0.3,0.1-0.3-0.1-0.6c0,0,0,0-0.1-0.1l1.1,0.3h0.7l0.9,0.3l0,0l1.5-0.3
					l1.2-0.3l1.5-0.5l0.8-0.3l1.7-1.6l0.8-0.5l0.6-0.8l0.3-0.4l0.1-0.3l0.1-0.2c-0.1-0.3-0.1-0.5-0.1-0.6c0-0.3,0.1-0.3,0.3-0.6
					l0.3,0.1c0.6-0.8,0.8-1.5,0.8-2.1c0-0.2,0-0.3-0.1-0.5L133.9,193.9z M131.3,197l-0.2,1l-0.3,0.8l-0.6,1.1l-0.5,0.5l-0.7,0.8
					c-0.3,0.4-1,0.8-2,0.8l-1.1,0.3l-1.5-0.1H124l-0.3,0.2v-0.2l-0.4-0.1l-0.6-0.3h-0.5l-0.5-0.3l0,0l-0.3-0.9l-0.1-2.1l-0.3-1.4
					l-0.1-0.7l-0.5-0.9v-0.8l0.3-0.1l-0.1-0.7v-2.1c0-0.1,0-0.2,0-0.3l0.8-0.4l1.5-0.8c0.2-0.1,0.5-0.2,0.8-0.2l1.2,0.3l2.2,0.2
					l0.8,0.4l1.4,0.7c0.4,0.3,0.7,0.5,0.8,0.7l0.3,0.6l0.6,0.4c0.1,0,0.2,0.2,0.2,0.3v0.5l0.3,2.1L131.3,197z"/>
			</g>
			<g>
				<path class="st15" d="M38.7,195.6L38.7,195.6L38.7,195.6L38.7,195.6z"/>
				<path class="st15" d="M51,196.3L51,196.3L51,196.3z"/>
				<path class="st15" d="M52,190.7L52,190.7L52,190.7L52,190.7z"/>
				<path class="st15" d="M38.6,196.4L38.6,196.4L38.6,196.4L38.6,196.4z"/>
				<path class="st15" d="M50.3,197L50.3,197L50.3,197z"/>
				<path class="st15" d="M39.6,194.6C39.5,194.7,39.6,194.7,39.6,194.6L39.6,194.6z"/>
				<path class="st15" d="M51.3,195.4c0.1-0.4,0.3-0.7,0.4-1.1l0.2,0.2l-0.1,0.1c0.1,0,0.1,0.3,0.1,0.1l0.2-0.6H52
					c-0.1-0.1-0.2-0.3-0.1-0.3c0.3-0.4-0.3-0.9,0.2-1.1c-0.1,0-0.1,0-0.2-0.1l0.2-0.2c0-0.1,0-0.1-0.1-0.2l0.1-0.1l-0.1-0.1
					c0-0.3,0-0.7,0-1l-0.1-0.1l0.1-0.1l-0.1-0.1c0.3-0.2-0.1-0.3,0.2-0.6c-0.3-0.3-0.1-0.4-0.2-0.8c0.2-0.2-0.1-0.3,0-0.5l-0.1-0.1
					l0.2-0.2c0,0.1,0.2,0.1,0.2,0.3c0-0.1-0.1-0.3,0.1-0.3l-0.1-0.1l0.1-0.1c-0.4-0.3,0-0.8-0.3-1.2c0.3-0.3-0.2-0.4,0-0.7
					c-0.3-0.4,0-0.8-0.3-1.2c0.1-0.1,0.3-0.2,0.1-0.3c0.1-0.8-0.2-1.6-0.3-2.4c0.3-1.5-1.6-1.5-2.3-2.4c-0.1-0.3-0.6-0.1-0.7-0.5
					c-0.3-0.1-0.5-0.3-0.7-0.6c-0.3-0.2-0.6-0.7-0.6-1c-0.3-0.5-0.8-0.9-1.1-1.6c0.3-0.7,0.6-1.4,0.8-2.1c0.2-0.3,0.1-0.7,0.1-0.9
					l0.1-0.1l-0.2-0.3c-0.8,0.3-1.8,0.4-2.6,0.7c-0.2,0-0.3,0.3-0.4,0.2c-2.7,1.4-5.4,3.1-7.9,5l-6.2,5c-0.5,0.3-1,0.5-1.5,0.9
					c0.8-0.4,2-0.8,2.9-1.4c0.7-0.5,1.6-0.8,2.4-1.5c0.5,0,0.6-0.5,1.1-0.4c0.9-0.5,2-0.8,3-1.1c0.7-0.3,1.5-0.3,2.1-0.8l0.1,0.1
					c0.1,0,0.2,0,0.3-0.1c0,0,0.1,0.1,0.2,0.1c0-0.1,0-0.1,0.1-0.2l0.1,0.1l0.1-0.1c0.1-0.1,0.3-0.3,0.3-0.1c1-0.6,2.1-1.1,3.2-1.6
					c-0.2,1.1-1,2.2-1.2,3.4h-0.1c-0.2,1.1-0.7,2.2-0.9,3.3c-0.1,0.3-0.3,0.5-0.3,0.8c-0.3,1-0.4,2.1-0.8,3.1l-1.1,3.6
					c-0.3,0.8-0.5,1.8-0.7,2.6c-0.3,0.2-0.2,0.6-0.2,0.8c0.1-0.3,0.3-0.7,0.4-1.1c0.2,0.3,0,0.7-0.2,1H39c0.2-0.2,0.3-0.4,0.3-0.6
					l0.3-0.3c0.1,0,0.1,0.1,0.1,0.1l0,0h0.1l-0.1-0.1l0.2-0.2l-0.1-0.1c0.3-0.1,0.1-0.5,0.5-0.5c0.4-0.1,0.3-0.7,0.7-0.8
					c0-0.4,0.4-0.4,0.7-0.7c0,0,0.1,0.1,0.1,0.2l0.3-0.6l0.1,0.1c0.3-0.3,0.3-0.6,0.5-0.8c0.3-0.1,0.1-0.6,0.5-0.6
					c0.1-0.5,0.3-1,0.6-1.5c-0.1-0.3,0.2-0.5,0.3-0.7c0-0.1,0-0.2,0.1-0.3l-0.1-0.1l0.1-0.1c-0.1-0.3,0.3-0.6,0.3-0.8
					c0.2-0.2,0.3-0.4,0.3-0.6c0-0.3,0.3-0.4,0.4-0.5c0.4-1.1,0.7-2.3,1.5-3.3c0.3,0.8,0.3,1.6,0.6,2.4c0,0.9,0.6,1.6,0.6,2.6
					c0,0.3,0.3,0.6,0.3,0.8c0.1,0.2,0,0.4,0.2,0.6c0.3,2.2,1.1,4,1.5,6.2c0.2,0.3,0.3,0.7,0.3,1.1c0,0.2,0.3,0.3,0.2,0.4
					c0.1,0,0.1,0.1,0.1,0.2l0.1-0.1l-0.1-0.1c0-0.1,0.1-0.2,0.2-0.2c0,0,0.1,0.1,0.1,0.2c0.1,0,0.2,0,0.3-0.1c0,0.1,0.2,0.3,0.1,0.3
					h0.1c0-0.2,0-0.3-0.1-0.5c0.1-0.2,0.2,0,0.3,0.1l0.1-0.1C51,196,51.4,195.7,51.3,195.4z"/>
				<path class="st15" d="M38.7,195.6c-0.2,0.2-0.2,0.5-0.2,0.7C38.6,196.1,38.7,195.8,38.7,195.6z"/>
				<path class="st15" d="M38.6,196.4c-0.1,0.1-0.1,0.1-0.1,0.2C38.5,196.7,38.5,196.5,38.6,196.4z"/>
				<path class="st15" d="M73.2,177.9C73.2,178,73.2,178,73.2,177.9L73.2,177.9L73.2,177.9z"/>
				<path class="st15" d="M73.8,178.7c-0.1-0.2-0.2-0.3-0.3-0.3l0.1-0.1c-0.1-0.2-0.3,0-0.4-0.2c-0.2-0.1-0.1-0.4-0.3-0.4l0.1-0.1
					l-0.1-0.1l-0.1,0.1l-0.2-0.2l0.1-0.1l-0.2-0.1l-0.1,0.1c-0.1,0-0.1,0-0.2-0.1l0.1-0.1l-0.1-0.1l-0.1,0.1l-0.3-0.3l0.1-0.1
					c-0.1,0-0.1,0-0.2,0.1c-0.1,0-0.1-0.2-0.1-0.3l-0.1,0.1c-0.1-0.3-0.3-0.3-0.6-0.5l0.1-0.1c-0.2,0-0.1-0.3-0.3-0.3l-0.1,0.1
					c0-0.3-0.3-0.1-0.4-0.3c-0.1-0.1-0.3-0.2-0.3-0.3l-0.1,0.1l-0.3-0.3c-0.3-0.3-0.6-0.4-0.8-0.7h-0.2c-2-2.1-4.4-3.2-6.7-5
					l-0.1,0.1l-0.2-0.2c-0.2-0.2-0.5-0.3-0.7-0.3c-0.1-0.1-0.1-0.2-0.2-0.3s-0.3-0.2-0.3-0.1c-0.5-0.5-1.2-0.4-1.8-0.8
					c-0.3,0-0.6-0.3-0.8-0.3c-0.4-0.3-0.7,0.3-1,0.4c-0.3,1,0.9,1.4,1.5,2.1c1,0.7,0.8,2.1,2.3,2.4s2.7,0.6,4.1,1.1
					c1.7,0.8,3.2,2,5,2.7l2.8,1.7l1.1,0.8c-0.2-0.1-0.2-0.3-0.4-0.3c0-0.2-0.4-0.3-0.3-0.5C73.2,178.1,73.6,178.2,73.8,178.7z"/>
				<path class="st15" d="M71.9,194.1L71.9,194.1c0.1-0.2,0.2-0.3,0.2-0.4c0-0.3-0.3-0.8-0.6-1.4l-0.3,0.1c-0.1,0-0.3-0.2-0.5-0.4
					c0.1-0.2,0.1-0.3,0.1-0.5c0-0.3-0.2-0.4-0.8-0.7l-0.3-0.2v-0.2l-1.8-0.9l-0.3,0.1l-0.3-0.3h-0.3c-0.2-0.3-0.3-0.4-0.8-0.4h-0.3
					c-0.2,0.2-0.3,0.3-0.5,0.3s-0.3-0.3-0.3-0.8l-1-0.3l-0.1,0.2l-0.4-0.2l-0.4-0.3l-0.4-0.3v-0.2l0.5-0.4l1.5-0.8l0.5-0.5l0.7-0.3
					v-0.5c0-0.2,0.2-0.3,0.3-0.3h0.3l0.2-0.3c0.3-0.3,0.3-0.8,0.3-0.9c0-0.3-0.2-0.3-0.8-0.8l-0.4-0.1h-0.5l-0.3-0.1l-0.6-0.1
					l-0.3,0.3c-0.5-0.3-0.8-0.4-1.5-0.4l-1.4-0.1l-1.4-0.2l-0.6,0.2l-0.1,0.1l-0.3-0.1l-0.3-0.3l-1.8,0.1c0.2-0.2,0.2-0.3,0.2-0.4
					l-0.4-1.4l0.3-3.8l-0.3-1.1v-6.4l-0.4-2.1l0.1-1.7l0.1-1.4l-0.7-0.4l-0.8,0.1l-0.8,0.5c-1.7,0.8-2.1,1.4-1.8,2.2
					c0.4,0.1,0.7,0.2,0.8,0.3s0.2,0.2,0.2,0.3h-0.5c-0.2,0.2-0.1,0.3,0.1,0.4c0,0,0.1,0.1,0.2,0.1l-0.3,0.3l0.2,0.4l0.3,1.1l0.1,1.6
					l0.3,1l0.2,0.5l0.6,0.8v0.7l-0.3,0.1l0.1,0.5v1.7c0,0.3,0.1,0.6,0.2,0.8c0.6,1,0.7,1.2,0.3,1.5c-0.2,0.1-0.3,0.1-0.5,0.2
					l0.1,0.4v1l0.7,0.6c0.2,0.2,0,0.4-0.6,0.7c0.1,0.2,0.1,0.3,0.2,0.5c-0.2,0-0.3,0.1-0.5,0.3l-0.3,0.3l-0.8,0.3l-0.3,0.3v0.3h0.1
					l0.1,0.2l0.5-0.1c0.3,0.3,0.5,0.3,0.8,0.3l0,0h-0.2v0.3l-0.1,1.1l0.2,1.2l-0.1,0.8c0.2,0.1,0.3,0.1,0.4,0.2
					c0.2,0.2,0.2,0.3-0.3,1l-0.1,1l0.1,2c0.5,0.7,0.5,0.8-0.1,1.1l0.1,0.6v0.6l-0.4,3.2l0.4,0.5l-0.1,0.3v1.8l-0.2,2.2h-0.8
					l-1.2,0.5l-0.4,0.3v0.3l0.1,0.5c0.1,0.1,0.3,0.1,0.3,0.1s0.3-0.1,0.5-0.3l0.3-0.2l-0.1-0.3l0.6,0.1c0.1,0.2,0.3,0.3,0.3,0.3
					l0.5-0.1l0,0v0.3l-0.6,0.3l-0.4,2l0.1,0.8l-0.3,0.6c0.8,0.3,1.1,0.2,1.9-0.1c0.7-0.3,1.2-0.6,2.1-1.4c-0.2-0.4-0.2-0.6,0.3-1
					l-0.2-0.4l-0.2-0.8l0.4,0.2l0.3-0.3c1.5,0.7,2.2,0.8,4.4,0.8c2.4,0,3.5-0.2,5.1-1.4c0.5-0.2,0.6-0.3,1.4-0.7l0.9-0.6l1.1-0.9
					l-0.1-0.2l-0.3-0.2h0.3v-0.5l0.3-0.1c0.1,0,0.3,0.1,0.4,0.3l0.2-0.3l0.6-1.2L72,197v-0.5l0.2-0.9c0,0,0-0.1,0-0.2
					c0-0.3-0.2-0.6-0.6-1.2L71.9,194.1z M58.2,182.5l1.6,0.2l0.3-0.1l0.3,0.3l0.4-0.1c0.5,0,1,0.2,2.3,0.8c0,0.8-0.1,1.1-0.2,1.5
					c-0.2,0.4-0.8,1-1.4,1.2l-1.6,0.4l-0.5,0.5c-0.1,0.1-0.2,0.1-0.3,0.1s-0.3-0.1-0.4-0.3l-0.4,0.1c-0.3,0.1-0.4,0.2-0.6,0.2h-1.2
					l-0.1,0.1l-0.2-0.9l0.1-1.6v-0.6c0-0.2-0.1-0.3-0.3-0.4h-0.3c-0.3-0.5-0.3-0.8-0.1-0.8c0.2-0.1,0.4-0.1,0.7-0.1v-0.3
					c0.3-0.1,0.6-0.1,0.9-0.1L58.2,182.5z M69,198l-0.1,0.6l-0.3,0.4l-0.5,1c-0.2,0.4-0.4,0.8-0.7,0.9l-0.8,0.5l-0.6,0.5l-0.5,0.3
					l-0.5,0.2c-0.2,0.1-0.3,0.1-0.5,0.1h-2.1l-1.5,0.1l-1.7-0.3l-1.2-0.1l-1.1-0.3l-0.4-0.1l-0.1-0.3l0.1-0.3l0.5-0.1v-0.6l0.1-0.8
					l-0.3-1.2l0.2-2.3c-0.1-0.3-0.2-0.5-0.6-0.8l0.6-0.6v-3.3c-0.3-0.1-0.5-0.3-0.6-0.3c-0.3-0.3-0.3-0.5,0.4-0.8v-0.4l-0.5-0.3
					l0.1-0.3l0.3-0.5c0.1,0,0.2,0,0.3,0v-0.3c0,0.2,0.1,0.3,0.1,0.3l1,0.1l0.7,0.2h0.7l0.7,0.1l0.3,0.2h0.3v-0.3l0.3,0.1
					c0.1-0.2,0.1-0.3,0.3-0.3c0.2,0,0.3,0.1,0.5,0.3l0.5,0.6l0.8,0.1l0.4,0.3L66,191c0.2,0.1,0.3,0.3,0.8,0.7h0.3l0.6,0.2l0.2,0.3
					l0.2,0.4c0,0.1,0.2,0.3,0.4,0.5c0.3,0.4,0.5,0.8,0.6,2l0.3,1.5v0.2L69,198z"/>
			</g>
		</g>
	</g>
</g>
<g>
	<rect x="1" y="1" class="st16" width="200" height="120"/>
	<g>
		<path class="st17" d="M46.8,61.5h-6.1c-0.4,0-0.6-0.3-0.6-0.5c0-0.3,0.3-0.5,0.6-0.5h6.1c0.4,0,0.6,0.3,0.6,0.5
			C47.4,61.3,47.2,61.5,46.8,61.5z"/>
		<path class="st17" d="M60.3,61.5h-6.1c-0.4,0-0.6-0.3-0.6-0.5c0-0.3,0.3-0.5,0.6-0.5h6.1c0.4,0,0.6,0.3,0.6,0.5
			C61,61.3,60.7,61.5,60.3,61.5z"/>
		<path class="st17" d="M71.2,68c-3.2,0-5.3-2.3-5.3-4.9v-4.3c0-2.6,2.1-4.9,5.3-4.9c2.6,0,4.3,1.4,4.8,3c0.1,0.2,0.2,0.6-0.2,0.8
			l-1.4,0.8c-0.3,0.2-0.7,0.2-0.8-0.2c-0.5-0.9-1-1.8-2.4-1.8c-1.4,0-2.2,1.1-2.2,2.1v4.6c0,1,0.8,2.1,2.2,2.1
			c1.3,0,1.8-0.8,2.4-1.8c0.2-0.3,0.5-0.3,0.8-0.2l1.4,0.8c0.3,0.3,0.3,0.7,0.2,0.8C75.5,66.5,73.9,68,71.2,68z"/>
		<path class="st17" d="M89.2,67.8h-1.8c-0.4,0-0.6-0.3-0.6-0.6v-4.5c0-0.2-0.1-0.3-0.3-0.3h-3.7c-0.2,0-0.3,0.1-0.3,0.3v4.5
			c0,0.4-0.3,0.6-0.6,0.6h-1.8c-0.4,0-0.6-0.3-0.6-0.6V54.8c0-0.4,0.3-0.6,0.6-0.6h1.8c0.4,0,0.6,0.3,0.6,0.6v4.5
			c0,0.2,0.1,0.3,0.3,0.3h3.7c0.2,0,0.3-0.1,0.3-0.3v-4.5c0-0.4,0.3-0.6,0.6-0.6h1.8c0.4,0,0.6,0.3,0.6,0.6v12.3
			C89.9,67.5,89.6,67.8,89.2,67.8z"/>
		<path class="st17" d="M102.2,62.2h-5.9c-0.2,0-0.3,0.1-0.3,0.3v0.5c0,1,0.8,2.1,2.2,2.1s1.8-0.8,2.4-1.8c0.2-0.3,0.5-0.3,0.8-0.2
			l1.4,0.8c0.3,0.3,0.3,0.7,0.2,0.8c-0.5,1.4-2.2,3-4.8,3c-3.2,0-5.3-2.3-5.3-4.9v-4.3c0-2.6,2.1-4.9,5.3-4.9c3.2,0,5.3,2.3,5.3,4.9
			v2.2C103.5,61.8,103,62.2,102.2,62.2z M100.4,58.7c0-1-0.8-2.1-2.2-2.1c-1.4,0-2.2,1.1-2.2,2.1v0.5c0,0.2,0.1,0.3,0.3,0.3h3.7
			c0.2,0,0.3-0.1,0.3-0.3L100.4,58.7L100.4,58.7z"/>
		<path class="st17" d="M116.4,67.8h-1.8c-0.4,0-0.6-0.3-0.6-0.6v-8.4c0-1-0.8-2.1-2.2-2.1c-1.4,0-2.2,1.1-2.2,2.1v8.4
			c0,0.4-0.3,0.6-0.6,0.6h-1.8c-0.4,0-0.6-0.3-0.6-0.6V54.8c0-0.4,0.3-0.6,0.6-0.6h1.1c0.3,0,0.4,0.1,0.5,0.3
			c0.2,0.2,0.3,0.2,0.4,0.1c0.8-0.4,1.5-0.7,2.6-0.7c3.2,0,5.3,2.3,5.3,4.9v8.3C117.1,67.5,116.8,67.8,116.4,67.8z"/>
		<path class="st17" d="M125.1,73.8c-2.1,0-3.7-0.8-4.7-1.5c-0.3-0.3-0.4-0.6-0.3-0.8l0.8-1.2c0.3-0.4,0.6-0.4,0.8-0.3
			c0.8,0.5,2,1.1,3.3,1.1c1.3,0,2.5-0.4,2.5-1.6c0-1.2-1.2-1.6-2.5-1.6h-2.2c-0.4,0-0.6-0.3-0.6-0.6v-3.6c0-0.4-0.2-0.7-0.3-0.8
			c-0.9-0.8-1.8-2.1-1.8-3.8c0-2.6,2.1-4.9,5.3-4.9c0.8,0,1.3,0.2,1.6,0.2c0.9,0,1.4-0.8,3-0.8c0.4,0,0.6,0.3,0.6,0.6v1.5
			c0,0.4-0.2,0.6-0.4,0.6c-0.2,0.1-0.3,0.3-0.2,0.5c0.3,0.5,0.5,1.2,0.5,2.4c0,2.6-2.1,4.7-4.9,4.9c-0.2,0-0.3,0.1-0.3,0.3V65
			c0,0.2,0.1,0.3,0.3,0.3c2.8,0.1,4.9,1.5,4.9,4.3C130.7,72.1,128.6,73.8,125.1,73.8z M125.3,56.7c-1.4,0-2.2,1.1-2.2,2.1
			c0,1,0.8,2.1,2.2,2.1c1.3,0,2.2-1,2.2-2.1S126.8,56.7,125.3,56.7z"/>
		<path class="st17" d="M142.9,56.9c-0.3,0-0.6-0.3-0.8-0.7l-2-4.3c-0.6-1.3-1.7-1.3-2.3,0l-2.1,4.3c-0.2,0.4-0.4,0.7-0.8,0.7
			c-0.5,0-0.6-0.4-0.4-0.8l3.3-7.1c0.2-0.4,0.4-0.8,0.9-0.8s0.8,0.4,1,0.8l3.3,7.1C143.5,56.5,143.4,56.9,142.9,56.9z"/>
		<path class="st17" d="M157.3,67.8h-9.3c-0.4,0-0.6-0.3-0.6-0.6c0-3.8,1.6-5.4,6.7-7.8c0.4-0.3,0.6-0.5,0.6-1c0-0.7-0.7-1.6-2-1.6
			s-1.8,0.7-2.5,1.7c-0.2,0.3-0.5,0.3-0.8,0.2l-1.3-0.8c-0.3-0.2-0.3-0.5-0.2-0.8c0.7-1.4,2.3-3,4.8-3c3,0,4.9,2.1,4.9,4.3
			c0,1.7-0.8,2.7-2.1,3.4c-3.1,1.6-4.5,2.5-4.6,3.2c0,0.2,0.1,0.3,0.3,0.3h6.1c0.4,0,0.6,0.3,0.6,0.6v1.3
			C157.9,67.5,157.7,67.8,157.3,67.8z"/>
	</g>
</g>
<path class="st18" d="M271.8,70.3c2.6,2.2,6,3.3,9.4,3.1c2.6-0.2,4.9-1.1,6.9-2.7c-6.1-0.2-12-0.7-17.6-1.7
	C270.9,69.5,271.3,69.9,271.8,70.3z"/>
<g>
	<rect x="205.1" y="1" class="st2" width="200" height="120"/>
	<path class="st19" d="M270.7,93.8c-0.7-0.1-1.4-0.2-2.1-0.3l0.1,0.3l0.4,2.4c0.8,0.3,1.9,0.4,2.8,0.7c-0.5-0.8-0.8-1.9-1.2-2.9
		h-0.1C270.7,94,270.7,93.9,270.7,93.8z"/>
	<path class="st20" d="M294.7,99c0.8-1,1.6-2.2,2.1-3.3c-5.5-0.2-10.8-0.4-16.1-0.8c-2.8-0.2-5.5-0.3-8.2-0.5
		c0.3,1.1,0.8,2.2,1.5,3.2c6.1,1.2,13,2.1,20.1,2.3C294.1,99.5,294.5,99.2,294.7,99z"/>
	<path class="st18" d="M307.8,99.4c10.8-0.8,21.3-2.9,30.4-6c-9.2,1.1-18.8,2-28.6,2.2c-4.2,0.1-8.3,0.1-12.5,0
		c-0.6,1.5-1.4,2.7-2.4,4c-0.1,0.1-0.1,0.1-0.2,0.2C298.9,99.8,303.4,99.7,307.8,99.4z"/>
	<path class="st21" d="M342.9,92.7c-0.8,0.1-1.7,0.3-2.5,0.3c-9.7,3.6-20.8,6.1-32.6,7.2c-4.9,0.3-9.7,0.5-14.4,0.4
		c-2.2,2.1-5.1,3.3-8.2,3.6c-3.6,0.3-7.3-0.8-10.1-3.2c-0.8-0.7-1.6-1.5-2.2-2.4c-1.2-0.3-2.5-0.5-3.6-0.8l0.8,4.7
		c10.4,2.8,22.6,4.9,35.5,5.6c10.1,0.6,19.7,0.5,28.5-0.3C338.4,103.4,341.5,98.2,342.9,92.7z"/>
	<path class="st20" d="M344.3,84.4c0.1,2.3,0,4.6-0.4,6.9c0.9-0.3,2-0.8,2.9-1.2C346.3,88,345.3,86.2,344.3,84.4z"/>
	<path class="st22" d="M270.6,93.4c-0.2-0.6-0.3-1.4-0.3-2l-1.9,0.6l0.2,1.1C269.3,93.2,269.9,93.3,270.6,93.4z"/>
	<path class="st18" d="M347.4,92.2c-1.2,0.2-2.5,0.3-3.7,0.5c-1.1,5.4-3.6,10.6-7.3,15.2c3.3-0.3,6.7-0.7,9.7-1.2
		c1.5-3.7,2.2-7.6,1.8-11.7C347.7,94.1,347.5,93.1,347.4,92.2z"/>
	<path class="st20" d="M346.9,90.4c-0.8,0.4-1.9,0.8-2.8,1.2c1-0.2,2.1-0.3,3.1-0.4C347.1,91,347,90.7,346.9,90.4z"/>
	<path class="st13" d="M285.6,39.7c-10.5,15.8-14.3,34.2-8.5,49.5c0.5,1.4,1,2.6,1.7,3.8c1.5-0.5,3-1.2,4.6-2.1
		C280,74.9,280.7,56.8,285.6,39.7z"/>
	<path class="st22" d="M300.7,67.3l-3.7,0.1c-0.3,0-0.3-0.1-0.3-0.3c0-0.2,0.1-0.2,0.4-0.2l0.8-0.2c0.6-0.1,0.7-0.3,0.5-0.8l-0.8-2
		c-0.3-0.7-0.4-0.8-1-0.8h-2.8c-0.4,0-0.8,0.1-0.9,0.2s-0.1,0.1-0.3,0.6l-0.7,1.8c-0.3,0.9,0.7,1.4,1.5,1.4h0.5c0.1,0,0.2,0,0.2,0.2
		s-0.1,0.3-0.3,0.3c-0.3,0-2.1-0.2-2.6-0.2c-0.6,0-1.7,0.2-2,0.2s-0.5,0-0.5-0.2c0-0.3,0.3-0.3,0.8-0.3s1.1-0.3,1.7-1.5l3.7-8.8
		c0-0.1,0.1-0.3-0.3-0.4l-0.7-0.3c-0.3-0.1-0.5-0.3-0.5-0.3s0.1-0.2,0.2-0.2l3.4-0.5c0.2,0,0.3-0.1,0.5-0.1s0.2,0.3,0.2,0.6
		c0,0.2,0,0.6,0.2,0.8l4.1,9.5c0.3,0.6,0.7,0.9,1.2,1c6.2-17.2,3.2-35.8,10.3-52.8c-11.1,6.1-20.3,14.9-26.9,24.6
		c-5,17.1-4.3,35.1-0.8,51c2.2-1.5,4.6-3.4,6.9-5.9c5-5.2,8.2-10.7,10.3-16.4L300.7,67.3z"/>
	<path class="st22" d="M293.5,61.5c-0.1,0.1-0.2,0.4-0.2,0.7c0,0.2,0.3,0.3,1.1,0.3h2c0.3,0,0.6-0.1,0.6-0.3c0,0,0-0.1,0-0.2
		l-1.8-4.5L293.5,61.5z"/>
	<path class="st13" d="M315.3,56.7l-0.3,0.8c-0.2,0.5-0.3,0.8-0.7,0.8c-0.2,0-0.3-0.1-0.8-0.6c-0.5-0.5-1.5-1.1-2.2-1.1
		c-2.1,0-1.7,2.8-1.7,4.3v4.5c0,0.7,0,1.5,0.5,1.5l0.8,0.1c0.2,0,0.3,0.1,0.3,0.2c0,0.2-0.3,0.3-0.7,0.3h-3.6l-1.9,0.1
		c-0.3,0-0.4-0.1-0.4-0.2s0-0.2,0.1-0.2l1.5-0.2c0.3-0.1,0.7,0,0.7-1.5c0-5.9,1.8-10.3,6.7-10.3c1.5,0,2.1,0.3,2.1,0.8
		C315.3,56.2,315.3,56.5,315.3,56.7z"/>
	<path class="st13" d="M329.8,58c-1,0-0.8-0.6-1.9-0.6c-0.3,0-1.2,0-0.9,0.5c0.3,0.6,0.6,1.8,0.6,2.2c0,1.8-0.8,4.3-5,4.7
		c0,0.2-0.1,0.5-0.1,1.1l0.1,1.1c0,0.3,0.3,0.3,0.9,0.3c2.6,0,3.8,1.5,3.8,4.5c0,2.6-2.1,5.8-5.2,5.8c-0.6,0-1.6-0.3-1.6-1.2
		c0-0.7,0.3-1.5,2.1-1.8c2.2-0.3,3.8-1,3.8-2.6c0-1.6-1.5-1.8-3.1-1.9h-2.1c-0.1,0-0.3,0-0.3-0.3c0-0.7,0.5-0.9,0.5-3.2
		c0-1.2-0.1-2-0.2-2c-3.5-0.4-4.7-2.7-4.7-4.8c0-1.6,1.2-4.6,5.4-4.6c2.8,0,3.6,1.5,4.1,1.5c0.6,0,1.8-1,3.1-1
		c0.9,0,1.5,0.4,1.5,1.5C330.7,57.7,330.3,58,329.8,58z M322.2,56c-1.4,0-2.3,0.7-2.3,4.1c0,2.7,0.7,4.1,2.2,4.1
		c1.6,0,2.4-1.1,2.4-3.7C324.4,57.4,323.7,56,322.2,56z"/>
	<path class="st13" d="M338.7,67.7c-3.6,0-6.7-2.3-6.7-6.2c0-3.8,3.1-6.2,6.7-6.2s6.7,2.3,6.7,6.2C345.3,65.3,342.2,67.7,338.7,67.7
		z M338.7,55.7c-1.8,0-3.2,1.7-3.2,5.6s1.5,5.6,3.2,5.6s3.2-1.7,3.2-5.6C342,57.4,340.4,55.7,338.7,55.7z"/>
	<path class="st23" d="M331.4,71.1L331.4,71.1c-0.3,0-0.3,0-0.3-0.1s0-0.1,0.2-0.1h0.7h0.8c0.1,0,0.1,0,0.1,0.1s0,0.1-0.1,0.1
		l-0.3,0.1c-0.2,0-0.2,0.3-0.2,0.4v2.6c0,1,0.3,1.6,1.4,1.6s1.4-0.5,1.4-1.6v-2.6c0-0.2-0.1-0.3-0.2-0.4l-0.3-0.1
		c-0.1,0-0.1-0.1-0.1-0.1s0-0.1,0.1-0.1h0.8h0.7c0.2,0,0.2,0,0.2,0.1s-0.1,0.1-0.2,0.1H336c-0.2,0-0.4,0.2-0.4,0.4V74
		c0,1-0.8,1.9-2,1.9h-0.3c-1,0-2-0.8-2-1.9v-2.4C331.8,71.3,331.6,71.1,331.4,71.1z"/>
	<path class="st23" d="M339.4,75.9c-1.1,0-1.8-0.6-1.8-1c0-0.2,0.1-0.3,0.3-0.3c0.3,0,0.3,0.2,0.4,0.4c0.2,0.3,0.4,0.7,1,0.7
		s1-0.4,1-0.8c0-0.3-0.4-0.7-0.8-0.8c-1.5-0.6-1.8-1.1-1.8-1.8c0-0.7,0.6-1.2,1.5-1.2s1.4,0.3,1.5,0.3v0.1l0.1,0.8
		c0,0.1,0,0.2-0.1,0.2s-0.1,0-0.1-0.1l-0.3-0.5c-0.2-0.3-0.6-0.7-0.9-0.7c-0.5,0-0.9,0.3-0.9,0.8c0,0.3,0.2,0.6,0.8,0.8l0.8,0.4
		c0.6,0.3,0.9,0.7,0.9,1.2C341.1,75.2,340.3,75.9,339.4,75.9z"/>
	<path class="st23" d="M343.8,75.7c0,0.1-0.1,0.1-0.2,0.1s-0.8-0.1-0.9-0.1c-0.3,0-0.6,0.1-0.8,0.1c-0.1,0-0.2,0-0.2-0.1
		c0-0.1,0.1-0.1,0.3-0.1c0.2,0,0.4-0.1,0.6-0.6l1.5-3.4c0,0,0-0.1-0.2-0.2l-0.3-0.1c-0.1-0.1-0.2-0.1-0.2-0.2c0,0,0-0.1,0.1-0.1
		l0.9-0.2c0.1,0,0.2-0.1,0.2-0.1s0.1,0.1,0.1,0.3c0,0.1,0,0.3,0.1,0.3l1.6,3.7c0.1,0.3,0.3,0.4,0.5,0.4s0.3,0,0.3,0.1s0,0.1-0.1,0.1
		h-0.7l-1.1,0.1c-0.1,0-0.2,0-0.2-0.1s0-0.1,0.2-0.1l0.4-0.1c0.3,0,0.3-0.2,0.3-0.3l-0.3-0.8c-0.1-0.3-0.2-0.3-0.4-0.3h-1.2
		c-0.2,0-0.3,0-0.3,0.1c0,0-0.1,0-0.2,0.3L343,75c-0.2,0.3,0.3,0.5,0.6,0.5L343.8,75.7C343.8,75.6,343.8,75.6,343.8,75.7z
		 M343.5,73.8c0,0.1,0.2,0.1,0.4,0.1h0.8c0.2,0,0.3,0,0.3-0.1c0,0,0,0,0-0.1l-0.7-2l-0.7,1.7C343.6,73.5,343.5,73.7,343.5,73.8z"/>
	<g>
		<path class="st24" d="M276.6,100.3c2.6,2.2,6,3.3,9.4,3.1c2.6-0.2,4.9-1.1,6.9-2.7c-6.1-0.2-12-0.7-17.6-1.7
			C275.6,99.6,276,100,276.6,100.3z"/>
		<path class="st25" d="M270.7,93.8c-0.7-0.1-1.4-0.2-2.1-0.3l0.1,0.3l0.4,2.4c0.8,0.3,1.9,0.4,2.8,0.7c-0.5-0.8-0.8-1.9-1.2-2.9
			h-0.1C270.7,94,270.7,93.9,270.7,93.8z"/>
		<path class="st25" d="M294.7,99c0.8-1,1.6-2.2,2.1-3.3c-5.5-0.2-10.8-0.4-16.1-0.8c-2.8-0.2-5.5-0.3-8.2-0.5
			c0.3,1.1,0.8,2.2,1.5,3.2c6.1,1.2,13,2.1,20.1,2.3C294.1,99.5,294.5,99.2,294.7,99z"/>
		<path class="st24" d="M307.8,99.4c10.8-0.8,21.3-2.9,30.4-6c-9.2,1.1-18.8,2-28.6,2.2c-4.2,0.1-8.3,0.1-12.5,0
			c-0.6,1.5-1.4,2.7-2.4,4c-0.1,0.1-0.1,0.1-0.2,0.2C298.9,99.8,303.4,99.7,307.8,99.4z"/>
		<path class="st26" d="M342.9,92.7c-0.8,0.1-1.7,0.3-2.5,0.3c-9.7,3.6-20.8,6.1-32.6,7.2c-4.9,0.3-9.7,0.5-14.4,0.4
			c-2.2,2.1-5.1,3.3-8.2,3.6c-3.6,0.3-7.3-0.8-10.1-3.2c-0.8-0.7-1.6-1.5-2.2-2.4c-1.2-0.3-2.5-0.5-3.6-0.8l0.8,4.7
			c10.4,2.8,22.6,4.9,35.5,5.6c10.1,0.6,19.7,0.5,28.5-0.3C338.4,103.4,341.5,98.2,342.9,92.7z"/>
		<path class="st27" d="M344.3,84.4c0.1,2.3,0,4.6-0.4,6.9c0.9-0.3,2-0.8,2.9-1.2C346.3,88,345.3,86.2,344.3,84.4z"/>
		<path class="st28" d="M270.6,93.4c-0.2-0.6-0.3-1.4-0.3-2l-1.9,0.6l0.2,1.1C269.3,93.2,269.9,93.3,270.6,93.4z"/>
		<path class="st29" d="M347.4,92.2c-1.2,0.2-2.5,0.3-3.7,0.5c-1.1,5.4-3.6,10.6-7.3,15.2c3.3-0.3,6.7-0.7,9.7-1.2
			c1.5-3.7,2.2-7.6,1.8-11.7C347.7,94.1,347.5,93.1,347.4,92.2z"/>
		<path class="st29" d="M346.9,90.4c-0.8,0.4-1.9,0.8-2.8,1.2c1-0.2,2.1-0.3,3.1-0.4C347.1,91,347,90.7,346.9,90.4z"/>
	</g>
	<path class="st30" d="M285.6,39.7c-10.5,15.8-14.3,34.2-8.5,49.5c0.5,1.4,1,2.6,1.7,3.8c1.5-0.5,3-1.2,4.6-2.1
		C280,74.9,280.7,56.8,285.6,39.7z"/>
	<g>
		<path class="st31" d="M300.7,67.3l-3.7,0.1c-0.3,0-0.3-0.1-0.3-0.3c0-0.2,0.1-0.2,0.4-0.2l0.8-0.2c0.6-0.1,0.7-0.3,0.5-0.8l-0.8-2
			c-0.3-0.7-0.4-0.8-1-0.8h-2.8c-0.4,0-0.8,0.1-0.9,0.2s-0.1,0.1-0.3,0.6l-0.7,1.8c-0.3,0.9,0.7,1.4,1.5,1.4h0.5
			c0.1,0,0.2,0,0.2,0.2s-0.1,0.3-0.3,0.3c-0.3,0-2.1-0.2-2.6-0.2c-0.6,0-1.7,0.2-2,0.2s-0.5,0-0.5-0.2c0-0.3,0.3-0.3,0.8-0.3
			s1.1-0.3,1.7-1.5l3.7-8.8c0-0.1,0.1-0.3-0.3-0.4l-0.7-0.3c-0.3-0.1-0.5-0.3-0.5-0.3s0.1-0.2,0.2-0.2l3.4-0.5
			c0.2,0,0.3-0.1,0.5-0.1s0.2,0.3,0.2,0.6c0,0.2,0,0.6,0.2,0.8l4.1,9.5c0.3,0.6,0.7,0.9,1.2,1c6.2-17.2,3.2-35.8,10.3-52.8
			c-11.1,6.1-20.3,14.9-26.9,24.6c-5,17.1-4.3,35.1-0.8,51c2.2-1.5,4.6-3.4,6.9-5.9c5-5.2,8.2-10.7,10.3-16.4L300.7,67.3z"/>
		<path class="st31" d="M293.5,61.5c-0.1,0.1-0.2,0.4-0.2,0.7c0,0.2,0.3,0.3,1.1,0.3h2c0.3,0,0.6-0.1,0.6-0.3c0,0,0-0.1,0-0.2
			l-1.8-4.5L293.5,61.5z"/>
	</g>
	<path class="st30" d="M315.3,56.7l-0.3,0.8c-0.2,0.5-0.3,0.8-0.7,0.8c-0.2,0-0.3-0.1-0.8-0.6c-0.5-0.5-1.5-1.1-2.2-1.1
		c-2.1,0-1.7,2.8-1.7,4.3v4.5c0,0.7,0,1.5,0.5,1.5l0.8,0.1c0.2,0,0.3,0.1,0.3,0.2c0,0.2-0.3,0.3-0.7,0.3h-3.6l-1.9,0.1
		c-0.3,0-0.4-0.1-0.4-0.2s0-0.2,0.1-0.2l1.5-0.2c0.3-0.1,0.7,0,0.7-1.5c0-5.9,1.8-10.3,6.7-10.3c1.5,0,2.1,0.3,2.1,0.8
		C315.3,56.2,315.3,56.5,315.3,56.7z"/>
	<path class="st30" d="M329.8,58c-1,0-0.8-0.6-1.9-0.6c-0.3,0-1.2,0-0.9,0.5c0.3,0.6,0.6,1.8,0.6,2.2c0,1.8-0.8,4.3-5,4.7
		c0,0.2-0.1,0.5-0.1,1.1l0.1,1.1c0,0.3,0.3,0.3,0.9,0.3c2.6,0,3.8,1.5,3.8,4.5c0,2.6-2.1,5.8-5.2,5.8c-0.6,0-1.6-0.3-1.6-1.2
		c0-0.7,0.3-1.5,2.1-1.8c2.2-0.3,3.8-1,3.8-2.6c0-1.6-1.5-1.8-3.1-1.9h-2.1c-0.1,0-0.3,0-0.3-0.3c0-0.7,0.5-0.9,0.5-3.2
		c0-1.2-0.1-2-0.2-2c-3.5-0.4-4.7-2.7-4.7-4.8c0-1.6,1.2-4.6,5.4-4.6c2.8,0,3.6,1.5,4.1,1.5c0.6,0,1.8-1,3.1-1
		c0.9,0,1.5,0.4,1.5,1.5C330.7,57.7,330.3,58,329.8,58z M322.2,56c-1.4,0-2.3,0.7-2.3,4.1c0,2.7,0.7,4.1,2.2,4.1
		c1.6,0,2.4-1.1,2.4-3.7C324.4,57.4,323.7,56,322.2,56z"/>
	<path class="st30" d="M338.7,67.7c-3.6,0-6.7-2.3-6.7-6.2c0-3.8,3.1-6.2,6.7-6.2s6.7,2.3,6.7,6.2C345.3,65.3,342.2,67.7,338.7,67.7
		z M338.7,55.7c-1.8,0-3.2,1.7-3.2,5.6s1.5,5.6,3.2,5.6s3.2-1.7,3.2-5.6C342,57.4,340.4,55.7,338.7,55.7z"/>
	<path class="st23" d="M331.4,71.1L331.4,71.1c-0.3,0-0.3,0-0.3-0.1s0-0.1,0.2-0.1h0.7h0.8c0.1,0,0.1,0,0.1,0.1s0,0.1-0.1,0.1
		l-0.3,0.1c-0.2,0-0.2,0.3-0.2,0.4v2.6c0,1,0.3,1.6,1.4,1.6s1.4-0.5,1.4-1.6v-2.6c0-0.2-0.1-0.3-0.2-0.4l-0.3-0.1
		c-0.1,0-0.1-0.1-0.1-0.1s0-0.1,0.1-0.1h0.8h0.7c0.2,0,0.2,0,0.2,0.1s-0.1,0.1-0.2,0.1H336c-0.2,0-0.4,0.2-0.4,0.4V74
		c0,1-0.8,1.9-2,1.9h-0.3c-1,0-2-0.8-2-1.9v-2.4C331.8,71.3,331.6,71.1,331.4,71.1z"/>
	<path class="st23" d="M339.4,75.9c-1.1,0-1.8-0.6-1.8-1c0-0.2,0.1-0.3,0.3-0.3c0.3,0,0.3,0.2,0.4,0.4c0.2,0.3,0.4,0.7,1,0.7
		s1-0.4,1-0.8c0-0.3-0.4-0.7-0.8-0.8c-1.5-0.6-1.8-1.1-1.8-1.8c0-0.7,0.6-1.2,1.5-1.2s1.4,0.3,1.5,0.3v0.1l0.1,0.8
		c0,0.1,0,0.2-0.1,0.2s-0.1,0-0.1-0.1l-0.3-0.5c-0.2-0.3-0.6-0.7-0.9-0.7c-0.5,0-0.9,0.3-0.9,0.8c0,0.3,0.2,0.6,0.8,0.8l0.8,0.4
		c0.6,0.3,0.9,0.7,0.9,1.2C341.1,75.2,340.3,75.9,339.4,75.9z"/>
	<path class="st23" d="M343.8,75.7c0,0.1-0.1,0.1-0.2,0.1s-0.8-0.1-0.9-0.1c-0.3,0-0.6,0.1-0.8,0.1c-0.1,0-0.2,0-0.2-0.1
		c0-0.1,0.1-0.1,0.3-0.1c0.2,0,0.4-0.1,0.6-0.6l1.5-3.4c0,0,0-0.1-0.2-0.2l-0.3-0.1c-0.1-0.1-0.2-0.1-0.2-0.2c0,0,0-0.1,0.1-0.1
		l0.9-0.2c0.1,0,0.2-0.1,0.2-0.1s0.1,0.1,0.1,0.3c0,0.1,0,0.3,0.1,0.3l1.6,3.7c0.1,0.3,0.3,0.4,0.5,0.4s0.3,0,0.3,0.1s0,0.1-0.1,0.1
		h-0.7l-1.1,0.1c-0.1,0-0.2,0-0.2-0.1s0-0.1,0.2-0.1l0.4-0.1c0.3,0,0.3-0.2,0.3-0.3l-0.3-0.8c-0.1-0.3-0.2-0.3-0.4-0.3h-1.2
		c-0.2,0-0.3,0-0.3,0.1c0,0-0.1,0-0.2,0.3L343,75c-0.2,0.3,0.3,0.5,0.6,0.5L343.8,75.7C343.8,75.6,343.8,75.6,343.8,75.7z
		 M343.5,73.8c0,0.1,0.2,0.1,0.4,0.1h0.8c0.2,0,0.3,0,0.3-0.1c0,0,0,0,0-0.1l-0.7-2l-0.7,1.7C343.6,73.5,343.5,73.7,343.5,73.8z"/>
</g>
</svg>
