<?xml version="1.0" encoding="utf-8"?>
<!-- Generator: Adobe Illustrator 25.0.0, SVG Export Plug-In . SVG Version: 6.00 Build 0)  -->
<svg version="1.1" id="Layer_1" xmlns="http://www.w3.org/2000/svg" xmlns:xlink="http://www.w3.org/1999/xlink" x="0px" y="0px"
	 viewBox="0 0 640 400" style="enable-background:new 0 0 640 400;" xml:space="preserve">
<style type="text/css">
	.st0{fill:#4D588B;stroke:#000000;stroke-width:0.25;}
	.st1{fill:#D2D5E2;}
	.st2{fill:#FFFFFF;stroke:#000000;stroke-width:0.25;}
	.st3{fill:#FC832B;}
	.st4{fill:#FBBA2F;}
	.st5{stroke:#000000;stroke-width:1.17;}
	.st6{fill:#B87001;}
	.st7{fill:none;stroke:#B87001;stroke-width:1.17;}
	.st8{fill:#FFE600;stroke:#000000;stroke-width:0.25;}
	.st9{fill:#807073;}
	.st10{fill:#1F77B2;}
	.st11{fill:#CC0000;stroke:#000000;stroke-width:0.25;}
	.st12{stroke:#000000;stroke-width:4.914;}
	.st13{fill:#FFFFFF;}
	.st14{fill:#363604;}
	.st15{fill:#E4EB81;stroke:#363604;stroke-width:0.364;}
	.st16{stroke:#000000;stroke-width:0.25;}
	.st17{fill:#FFCC33;}
	.st18{fill:#9F9F57;}
	.st19{fill:#BEBB8C;}
	.st20{fill:#B4B17B;}
	.st21{fill:#969646;}
	.st22{fill:#C9C69F;}
	.st23{fill:#889026;}
	.st24{fill:#758F29;}
	.st25{fill:#92A45F;}
	.st26{fill:#84902E;}
	.st27{fill:#7D9D36;}
	.st28{fill:#BDC4A0;}
	.st29{fill:#949A4E;}
	.st30{fill:#B2DF3B;}
	.st31{fill:#89B033;}
</style>
<g>
	<rect x="223.1" y="265.7" class="st0" width="194.7" height="111.2"/>
	<g>
		<g>
			<path class="st1" d="M282.1,337.9c-5.4,0-9.9-10.9-10.1-24.5c1.1-0.2,2.2-0.4,3.2-0.7c-0.9,0.1-1.9,0.2-2.9,0.3
				c-0.2,0-0.3,0-0.4,0c0-0.3,0-0.5,0-0.8c0-0.2,0-0.3,0-0.5c5.3-0.4,9.9-1.9,11.7-3.5c0.5-0.4,0.8-0.9,0.8-1.4c0-0.1,0-0.2,0-0.3
				c-0.2-2.4-6.3-3.9-13.6-3.3c-7.1,0.5-12.7,2.7-13,5c-1.8,1-2.8,2-2.6,3.1c0.3,2.4,6.9,3.6,14.8,2.5h0.1
				c-0.3,8.2-4.6,15.5-10.9,20c5.9-2.5,10.4-7.6,12-13.8c0.6,11.9,4.4,21.1,9.2,21.1c2.3,0,4.3-2.1,5.9-5.6
				C285.2,337,283.7,337.9,282.1,337.9z M272,310.5c0-0.9,0.1-2,0.2-2.9c-0.3,0.1-0.8,0.2-1.2,0.2c-0.3,0-0.8-0.1-1.1-0.1
				c0.2,0.9,0.3,1.9,0.3,2.8c-5.1-0.2-9.2-1.4-9.9-2.9c2.6-1,6.8-1.9,11.5-2.1c3.7-0.2,7.1,0,9.8,0.4c0.5,0.3,0.8,0.8,0.8,1.2
				C282.5,309,277.8,310.5,272,310.5z M271.5,303.9c3.3,0,6.3,0.4,8.3,1.1c-2.7-0.5-6.5-0.6-10.7-0.1c-3.3,0.4-6.4,1.2-8.7,2.1
				C260.7,305.3,265.5,303.9,271.5,303.9z M257.6,310c0-0.4,0.2-0.8,0.6-1.2c1,1.9,5.9,3.1,12.1,2.8c0,0.3,0,0.5,0,0.8
				c0,0.2,0,0.3,0,0.5C263.2,313.1,257.7,311.9,257.6,310z"/>
			<g>
				<g>
					<path class="st1" d="M282,320.1L282,320.1c0.6-0.7,1.2-1,2-1c0.9,0,1.7,0.3,2.2,1.2c0.4-0.8,1.3-1.2,2.2-1.2
						c1.6,0,2.2,1.1,2.2,2.5v4.1h-2.3v-3.1c0-0.7,0-1.8-0.9-1.8c-1,0-1.1,1-1.1,1.8v3.1H284v-3.1c0-0.7,0-1.8-1-1.8s-1,1.1-1,1.8
						v3.1h-2.3v-6.5h2.3L282,320.1L282,320.1z"/>
					<path class="st1" d="M298.8,322.8h-4.8c0,0.9,0.5,1.4,1.4,1.4c0.5,0,0.8-0.2,1.1-0.6h2.2c-0.3,1.5-1.8,2.2-3.2,2.2
						c-2.1,0-3.7-1.2-3.7-3.4c0-2.1,1.4-3.4,3.6-3.4c2.2,0,3.5,1.4,3.5,3.6L298.8,322.8L298.8,322.8L298.8,322.8z M296.7,321.5
						c-0.1-0.6-0.7-1-1.3-1c-0.7,0-1.2,0.3-1.4,1H296.7z"/>
					<path class="st1" d="M302.3,320.2L302.3,320.2c0.4-0.8,1.2-1.1,2.1-1.1h0.4v2.2c-0.3-0.2-0.6-0.3-0.9-0.3c-1.3,0-1.6,0.8-1.6,2
						v2.6H300v-6.5h2.3V320.2z"/>
					<path class="st1" d="M308.2,316.7c0,0.7-0.6,1.3-1.3,1.3c-0.7,0-1.3-0.6-1.3-1.3s0.6-1.3,1.3-1.3
						C307.7,315.5,308.2,316.1,308.2,316.7z M308.1,325.7h-2.3v-6.5h2.3V325.7z"/>
					<path class="st1" d="M314.5,324.9L314.5,324.9c-0.4,0.7-1.2,0.9-2,0.9c-1.9,0-3.2-1.6-3.2-3.4c0-1.9,1.3-3.4,3.2-3.4
						c0.8,0,1.5,0.3,2,0.8v-4.6h2.3v10.4h-2.3V324.9z M311.6,322.4c0,0.8,0.5,1.4,1.4,1.4s1.4-0.6,1.4-1.4c0-0.8-0.5-1.4-1.4-1.4
						C312.2,321,311.6,321.7,311.6,322.4z"/>
					<path class="st1" d="M320.8,316.7c0,0.7-0.6,1.3-1.3,1.3c-0.7,0-1.3-0.6-1.3-1.3s0.6-1.3,1.3-1.3
						C320.2,315.5,320.8,316.1,320.8,316.7z M320.6,325.7h-2.3v-6.5h2.3V325.7z"/>
					<path class="st1" d="M329.3,325.7H327v-0.8l0,0c-0.4,0.7-1.2,0.9-2,0.9c-1.9,0-3.2-1.6-3.2-3.4c0-1.9,1.3-3.4,3.2-3.4
						c0.8,0,1.5,0.3,2,0.8v-0.6h2.3V325.7z M324.1,322.4c0,0.8,0.5,1.4,1.4,1.4s1.4-0.6,1.4-1.4c0-0.8-0.5-1.4-1.4-1.4
						C324.7,321,324.1,321.7,324.1,322.4z"/>
					<path class="st1" d="M333.2,320.1L333.2,320.1c0.5-0.8,1.2-1,2-1c1.7,0,2.4,1.1,2.4,2.6v4h-2.3v-3.1c0-0.6,0.1-1.7-1-1.7
						c-0.9,0-1.2,0.7-1.2,1.5v3.3h-2.3v-6.5h2.3L333.2,320.1L333.2,320.1z"/>
					<path class="st1" d="M341.4,320.1c-0.3,0-0.3,0.1-0.3,0.3v2.9c0,0.9,0.1,1.7,1.1,1.7c0.2,0,0.3,0,0.4-0.1
						c0.2-0.1,0.3-0.3,0.4-0.3s0.2,0.2,0.2,0.3c-0.3,0.3-0.8,0.7-1.6,0.7c-1.4,0-1.6-0.8-1.6-1.7v-3.3c0-0.4,0-0.4-0.3-0.4h-0.5
						c-0.1-0.1-0.1-0.3-0.1-0.3c0.4-0.2,0.8-0.3,1-0.5c0.2-0.2,0.5-0.6,0.7-0.9c0.1,0,0.3,0,0.3,0.1v0.7c0,0.3,0,0.3,0.3,0.3h1.7
						c0.2,0.2,0.2,0.6,0,0.7L341.4,320.1L341.4,320.1z"/>
					<path class="st1" d="M345.4,321.7c-0.4,0-0.4,0-0.4,0.4c0,1.5,0.9,2.9,2.5,2.9c0.5,0,0.9-0.2,1.4-0.8c0.2-0.1,0.3,0.1,0.3,0.2
						c-0.5,1-1.6,1.4-2.5,1.4c-1,0-1.8-0.4-2.2-1c-0.4-0.6-0.7-1.4-0.7-2c0-1.9,1.3-3.5,3.1-3.5c1.4,0,2.2,0.9,2.2,1.9
						c0,0.3,0,0.3-0.1,0.4c-0.1,0.1-0.3,0.1-0.9,0.1L345.4,321.7L345.4,321.7z M346.3,321.2c1.2,0,1.5-0.1,1.6-0.2
						c0.1,0,0.1-0.1,0.1-0.3c0-0.4-0.3-0.9-1.2-0.9s-1.7,0.8-1.7,1.4c0,0,0,0.1,0.1,0.1L346.3,321.2L346.3,321.2L346.3,321.2z"/>
					<path class="st1" d="M352,323.9c0,1.1,0,1.3,0.6,1.4l0.3,0.1c0.1,0.1,0.1,0.3,0,0.4c-0.5,0-0.9-0.1-1.5-0.1s-1,0-1.5,0.1
						c-0.1-0.1-0.2-0.3,0-0.4l0.3-0.1c0.6-0.1,0.6-0.3,0.6-1.4v-7c0-0.9,0-1-0.5-1.3l-0.1-0.1c-0.1-0.1-0.1-0.3,0-0.3
						c0.4-0.1,1.1-0.3,1.7-0.7c0.1,0,0.1,0,0.2,0.1c0,0.4-0.1,1.3-0.1,2L352,323.9L352,323.9z"/>
					<path class="st1" d="M355.3,321.7c-0.4,0-0.4,0-0.4,0.4c0,1.5,0.9,2.9,2.5,2.9c0.5,0,0.9-0.2,1.4-0.8c0.2-0.1,0.3,0.1,0.3,0.2
						c-0.5,1-1.6,1.4-2.5,1.4c-1,0-1.8-0.4-2.2-1c-0.4-0.6-0.7-1.4-0.7-2c0-1.9,1.3-3.5,3.1-3.5c1.4,0,2.2,0.9,2.2,1.9
						c0,0.3,0,0.3-0.1,0.4c-0.1,0.1-0.3,0.1-0.9,0.1L355.3,321.7L355.3,321.7z M356.3,321.2c1.2,0,1.5-0.1,1.6-0.2
						c0.1,0,0.1-0.1,0.1-0.3c0-0.4-0.3-0.9-1.2-0.9s-1.7,0.8-1.7,1.4c0,0,0,0.1,0.1,0.1L356.3,321.2L356.3,321.2L356.3,321.2z"/>
					<path class="st1" d="M365.1,319.5c0.1,0.1,0.3,0.3,0.3,0.6c0,0.3-0.2,0.6-0.3,0.6c-0.1,0-0.2,0-0.3-0.1
						c-0.3-0.4-0.9-0.8-1.5-0.8c-1.1,0-2.1,0.8-2.1,2.5c0,1.2,0.8,2.6,2.5,2.6c0.9,0,1.4-0.4,1.7-0.9c0.1,0,0.3,0.1,0.3,0.3
						c-0.5,1.2-1.7,1.6-2.5,1.6c-0.8,0-1.6-0.3-2.1-0.8s-0.9-1.3-0.9-2.3c0-1.7,1.2-3.5,3.7-3.5
						C364.1,319.3,364.7,319.4,365.1,319.5z"/>
					<path class="st1" d="M372.6,322.5c0,2-1.4,3.3-3.3,3.3c-1.8,0-3.1-1.3-3.1-3.2s1.4-3.3,3.3-3.3
						C371.3,319.3,372.6,320.7,372.6,322.5z M369.3,319.8c-1,0-1.8,0.9-1.8,2.7c0,1.4,0.6,2.9,2,2.9c1.4,0,1.8-1.4,1.8-2.6
						C371.3,321.4,370.7,319.8,369.3,319.8z"/>
					<path class="st1" d="M382.9,321.7c0-1-0.4-1.6-1.4-1.6c-0.6,0-1.1,0.3-1.3,0.5c-0.2,0.3-0.3,0.4-0.3,0.9v2.4
						c0,1.1,0,1.3,0.6,1.4l0.3,0.1c0.1,0.1,0.1,0.3,0,0.4c-0.4,0-0.9-0.1-1.4-0.1c-0.6,0-0.9,0-1.4,0.1c-0.1-0.1-0.2-0.3,0-0.4
						l0.3-0.1c0.6-0.1,0.6-0.3,0.6-1.4v-2.2c0-1-0.4-1.6-1.4-1.6c-0.6,0-1.1,0.3-1.3,0.6c-0.2,0.2-0.3,0.4-0.3,0.8v2.4
						c0,1.1,0,1.3,0.6,1.4l0.3,0.1c0.1,0.1,0.1,0.3,0,0.4c-0.4,0-0.8-0.1-1.4-0.1c-0.6,0-1,0-1.5,0.1c-0.1-0.1-0.2-0.3,0-0.4
						l0.3-0.1c0.6-0.1,0.6-0.3,0.6-1.4v-2.7c0-0.6,0-0.7-0.4-0.9l-0.2-0.1c-0.1-0.1-0.1-0.3,0-0.3c0.3-0.1,1.3-0.5,1.5-0.8
						c0.1,0,0.2,0,0.2,0.1c0,0.3,0,0.6,0,0.8c0,0.1,0.1,0.2,0.2,0.2c0.6-0.4,1.4-0.8,2-0.8c0.8,0,1.2,0.3,1.6,0.9
						c0.2,0,0.3,0,0.4-0.1c0.6-0.4,1.4-0.8,2.1-0.8c1.3,0,1.9,0.8,1.9,2v2.6c0,1.1,0,1.3,0.6,1.4l0.3,0.1c0.1,0.1,0.1,0.3,0,0.4
						c-0.5,0-0.9-0.1-1.5-0.1s-0.9,0-1.4,0.1c-0.1-0.1-0.2-0.3,0-0.4l0.3-0.1c0.6-0.1,0.6-0.3,0.6-1.4L382.9,321.7L382.9,321.7
						L382.9,321.7z"/>
				</g>
			</g>
		</g>
		<g>
			<path class="st1" d="M361.7,330.7h-0.4v-0.4h0.4V330.7z"/>
		</g>
	</g>
</g>
<rect x="16.2" y="144" class="st2" width="194.7" height="111.2"/>
<rect x="223.1" y="22.3" class="st2" width="194.7" height="111.2"/>
<g>
	<rect x="16.2" y="265.7" class="st2" width="194.7" height="111.2"/>
	<g>
		<path class="st3" d="M140.5,300.4c1.2-1.2,3.7-2.1,7.7-2.9c8.9-0.9,17.1,0.8,21,4.3c1.8,2,1.2,3.7-1.2,4.8
			c-1.8,0.8-4.2,1.2-7.6,1.3c-8.2,0.7-16.3,0.2-19.7-2.5C138.6,304,138.8,302.1,140.5,300.4z M100.5,353l2.7-3.1
			c0.5-1,0.9-1.8,1.4-2.6c3.5-6.1,7.4-11.6,11.2-16c8.9-9.2,16.4-13.2,28.2-17.8c9.3-2.3,16.9-3.5,26.7-5.7c7-0.8,14.1-1.5,19.2-2.5
			c6-0.8,7.7-3.4,0.3-5.1c-19.9-4.6-30.6-5.5-45.6-3.6c-9,1.2-13.4,6-18.3,12.2c-4.3,5.9-4.5,8.8-0.4,8.7l-0.3,0.3
			c-6.6,4.3-13,11.3-18.5,20.5C104,343.7,102.1,348.4,100.5,353z"/>
		<g>
			<path d="M44.5,314.3c0-0.8,0.6-1.4,1.4-1.4c0.8,0,1.4,0.6,1.4,1.4v4.2h1.3c0.7,0,1.2,0.5,1.2,1.2c0,0.7-0.5,1.2-1.2,1.2h-1.3
				v12.6c0,0.8-0.7,1.4-1.4,1.4c-0.8,0-1.4-0.6-1.4-1.4v-12.6h-1.3c-0.7,0-1.2-0.5-1.2-1.2c0-0.7,0.5-1.2,1.2-1.2h1.3V314.3z"/>
			<path d="M52.3,319.3h-0.8v-0.9h7.7v0.9h-0.8c-1.3,0-1.9,0.4-1.4,1.7l4,10.5l3.5-9.4L64,321c-0.5-1.3-1.1-1.7-2-1.7h-0.8v-0.9h2.7
				c1.4,0,2,0.5,2.8,2.6l3.3,8.7l4.1-11c0.2-0.4,0.7-0.8,1.2-0.8c0.6,0,1.3,0.5,1.3,1.3c0,0.1-0.1,0.3-0.1,0.4l-5.3,14.1
				c-0.5,1.4-1.8,1.4-2.4,0l-3.7-9.9l-3.7,9.9c-0.5,1.4-1.8,1.4-2.4,0l-4.8-12.7C53.9,319.7,53.3,319.3,52.3,319.3z"/>
			<path d="M87.2,334.7c-3.9,0-7.1-3.7-7.1-8.4s3.2-8.4,7.1-8.4c1.6,0,3.1,0.7,4.4,1.8v-0.4c0-0.8,0.6-1.4,1.4-1.4
				c0.8,0,1.4,0.6,1.4,1.4v14.1c0,0.8-0.7,1.4-1.4,1.4c-0.8,0-1.4-0.6-1.4-1.4V333C90.4,334.1,88.9,334.7,87.2,334.7z M82.9,326.3
				c0,3.2,2,5.9,4.4,5.9c2.4,0,4.4-2.6,4.4-5.9s-2-5.9-4.4-5.9C84.8,320.5,82.9,323.1,82.9,326.3z"/>
			<path d="M104.9,333.4h0.8v0.9h-7.2v-0.9h0.8c0.9,0,1.7-0.8,1.7-1.7v-10.2c0-0.9-0.8-1.7-1.7-1.7h-0.8V319l4.8-0.5l-0.2,1.7
				c1-1.4,2.6-2.2,4.5-2.2c3.1,0,5.7,2.5,5.7,5.7v9.8c0,0.8-0.6,1.4-1.4,1.4c-0.8,0-1.4-0.6-1.4-1.4V324c0-2-1.7-3.7-3.7-3.7
				s-3.7,1.7-3.7,3.7v7.6C103.2,332.6,103.9,333.4,104.9,333.4z"/>
			<path d="M120,330.8c0-1.2,0.8-2.2,2-2.6c-1.8-0.9-3.1-2.7-3.1-4.8c0-3,2.7-5.4,6.1-5.4c0.9,0,1.9,0.2,2.6,0.5l2-2
				c0.5-0.5,1.4-0.5,2,0c0.5,0.5,0.5,1.4,0,2l-1.6,1.6c0.8,0.9,1.2,2,1.2,3.2c0,3-2.7,5.4-6.1,5.4H123c-0.8,0-1.4,0.6-1.4,1.3
				c0,0.7,0.7,1.3,1.4,1.3h2.8c4.7,0,6.8,1.8,6.8,4.3c0,3.1-3.1,5.2-7,5.2c-3.9,0-7-1.4-7-4.2c0-1.4,1.3-2.8,3.1-3.5
				C120.6,332.6,120,331.8,120,330.8z M125.6,339.9c2.5,0,4.7-1.4,4.7-3.1s-1.1-3.1-4.7-3.1c-3.5,0-4.7,1.4-4.7,3.1
				S123.1,339.9,125.6,339.9z M125.1,318.8c-2.4,0-3.2,2-3.2,4.6s0.8,4.6,3.2,4.6c2.4,0,3.2-2,3.2-4.6
				C128.3,320.8,127.5,318.8,125.1,318.8z"/>
		</g>
	</g>
</g>
<g>
	<rect x="223.1" y="144" class="st2" width="194.7" height="111.2"/>
	<g>
		<path class="st4" d="M279.4,212.5c4.9,2.8,7.5,4.2,15.5,4.2l-6.5-2.3c16.3-1.6,32.9-1.7,44.4-1.4c11.5,0.3,29,1.5,29,1.5
			c-9.8,2.1-15.2,2.5-26,1.6c-0.8-0.1,7.1,2.7,16.9,3.5c29,2.2,49.2-3.1,48.5-3.1c-16.4,1.9-23.2,2-42.2,1.2
			c14.8-1.6,31-4.5,30.1-4.6c-0.3,0-30.4-1.5-48.8-2.1C322.2,210.3,307.4,210.3,279.4,212.5z"/>
		<g>
			<path class="st5" d="M331.3,198.6c0,4.2-2.9,7.3-7.6,7c-4.8-0.1-6.8-4.3-6.6-7.6c0.1-3.6,2.4-7.1,7.2-7
				C329.2,191.2,331.3,194,331.3,198.6z M335.1,196.9c0.1-0.8,0-2,0-2c0.1-1.2-0.1-3.8,2-2.6c0,0-0.1-0.6-0.1-0.9c0-0.1,0.1,0.1,0,0
				c-2.1-2-4.7-1-5.6,0.8c-2-1.3-4.6-2.1-7.4-2c-6.1,0.1-11,3.7-10.9,8.2c0.1,3.9,3.9,7.2,8.8,8.1l-0.1,3.8l8,0.3
				c0.2,0,0.3,12.1-13.6,8.2c-0.7-0.2,2.9,1.6,5.9,1.8c6.6,0.3,12.2-4,11.9-11.4l-8-0.2l0.1-2.5c5.3-0.6,9.3-4,9.3-8.2
				C335.3,197.9,335.2,197.4,335.1,196.9z"/>
			<path d="M280.1,196.1h0.7c0.8,0,1.4-0.6,1.4-1.4v-8.6c0-0.8-0.6-1.4-1.4-1.4h-0.7V184h2.3c0.8,0,1.4,0.6,1.4,1.4v10
				c0,0.8-0.6,1.4-1.4,1.4h-2.3V196.1z M284,180.3c0,0.8-0.6,1.4-1.4,1.4c-0.8,0-1.4-0.6-1.4-1.4c0-0.8,0.6-1.4,1.4-1.4
				C283.4,178.9,284,179.5,284,180.3z"/>
			<path d="M261.5,206.7H277l-0.1,1.4h-21.8v-1l16.3-19.4h-14.2v4.8h-1.4v-6.3H278v0.4L261.5,206.7z"/>
			<path d="M292.7,203h0.7v0.8h-6.1V203h0.7c0.8,0,1.4-0.7,1.4-1.4v-8.6c0-0.8-0.7-1.4-1.4-1.4h-0.7v-0.8l4.1-0.4l-0.2,1.4
				c0.8-1.1,2.3-1.9,3.8-1.9c2.6,0,4.8,2.1,4.8,4.8v8.3c0,0.6-0.5,1.2-1.2,1.2c-0.6,0-1.2-0.5-1.2-1.2V195c0-1.7-1.4-3.1-3.1-3.1
				s-3.1,1.4-3.1,3.1v6.5C291.3,202.3,291.9,203,292.7,203z"/>
		</g>
	</g>
</g>
<g>
	<rect x="429.9" y="265.7" class="st2" width="194.7" height="111.2"/>
	<g>
		<path class="st6" d="M550.9,310c-2-1.1-6.2-0.4-9.3,0c4.8-5.6,8.7-11.1,8.6-14.9c13.5-9.9,16.2-0.3,20.6,4c1,1.2,3.9,1.1,7.5,0.1
			c0.9,0,0.5,1.9,0.2,3.7c-2.9,5.2-7.3,9.9-13.2,15.6c-0.7,0.9-3.3,2.1-4.7,2.7c5.3-7.3,9.8-17.5,3.7-19.4l-2,1.4
			c-1,1.4-0.9,2.6-1.9,4c-3.7,6.5-13.5,13.8-14.4,20.3c-1.4,0.6-2.3,2-3.7,2.5C540.4,328.9,547.9,309.1,550.9,310z"/>
		<path class="st7" d="M506.2,358.2l-2.9,2.8c3.9-10.8,16.7-29.2,30.9-42.9c7.2-6.3,13.7-8.9,16.7-8c-2-1.1-6.2-0.4-9.3,0
			c4.8-5.6,8.7-11.1,8.6-14.9c13.5-9.9,16.2-0.3,20.6,4c1,1.2,3.9,1.1,7.5,0.1c0.9,0,0.5,1.9,0.2,3.7c-2.9,5.2-7.3,10-13.2,15.6
			c-0.7,0.9-3.3,2.1-4.7,2.7c5.3-7.3,9.8-17.5,3.7-19.4l-2,1.4c-1,1.4-0.9,2.6-1.9,4c-3.7,6.5-13.5,13.8-14.4,20.3
			c-1.4,0.6-2.3,2-3.7,2.5c-2-1.2,1.1-6.7-0.3-8.6c-2.4-1.9-13.4,9.9-19.8,17.7c-0.1,8,10.1,5,28-8.7c8.7-5.8-0.3,2.9,1.2,3.3
			c-18.8,16.1-29.4,17.3-39.5,20C510.4,354.6,507.6,357.3,506.2,358.2L506.2,358.2z"/>
		<g>
			<path d="M495.1,323.5h-3.4h-2c-4,0-5.7-0.5-7.4-2c-1.9-1.5-3.1-4.1-3.1-6.5c0-4.8,3.7-8.8,8.2-8.8c1.8,0,3.1,0.5,5,2v-11.7h5.9
				l-3.1,1.4V323.5L495.1,323.5z M487.6,307.7c-3.1,0-5.3,2.9-5.3,6.9c0,2,0.7,3.9,1.8,5.3c1.4,1.6,2.8,2.2,5.8,2.2h2.5v-11.5
				C491.2,308.8,489.5,307.7,487.6,307.7z"/>
			<path d="M508.7,321.8c-2.5,1.7-3.4,2-4.6,2c-2,0-3.8-2.1-3.8-4.3c0-1.8,0.8-3.1,2.1-3.8c0.8-0.3,1.8-0.7,3.1-1l2.8-0.7l0.4-0.1
				v-2.3c0-2.5-0.8-3.5-3.1-3.5c-1.4,0-2.4,0.3-4.2,1.5l-0.3,0.2l-0.3-0.9c2-2,3.7-2.7,5.8-2.7c1.9,0,3.4,0.8,4.2,2.1
				c0.6,1.1,0.8,1.9,0.8,4.2v5.4v5.4l-2.4-2L508.7,321.8z M503,319.1c0,1.4,1.2,2.5,2.7,2.5c0.8,0,1.6-0.3,2.8-1.2l0.3-0.2v-4.8
				C504.8,316,503,317.2,503,319.1z"/>
			<path d="M518,318.8l0.1,0.3c1,2.5,3,3.6,5.2,3.6c1.8,0,3.4-1.3,3.4-2.7s-0.8-2.1-3.7-3.7c-2.8-1.4-3.2-1.7-4.2-2.8
				c-0.6-0.8-0.9-1.7-0.9-2.7c0-2.7,2-4.6,4.8-4.6c1.3,0,2.3,0.3,3.8,1l0.2-1h0.8v5.9c-1.4-4.1-2.7-4.8-4.6-4.8
				c-1.6,0-2.9,1.1-2.9,2.5s0.8,2.3,4.2,4.1c2.6,1.4,3.5,2,4.2,3.2c0.3,0.5,0.4,1.2,0.4,2c0,2.7-2.3,4.7-5.4,4.7
				c-1.4,0-2.5-0.3-4.4-1.3l-1.3,1.2v-4.9L518,318.8L518,318.8z"/>
			<path d="M545.4,323.5v-11.4c0-3-1.3-4.3-4-4.3c-1.4,0-2.6,0.6-4.5,2v13.7h-5.8l3.1-1.4v-24.3l-3.1-1.4h5.8v12.1
				c2.5-1.7,4.2-2.5,6.1-2.5c3.2,0,5.1,2,5.1,5.6V322l3.1,1.4L545.4,323.5L545.4,323.5L545.4,323.5z"/>
		</g>
	</g>
</g>
<g>
	<rect x="429.9" y="144" class="st8" width="194.7" height="111.2"/>
	<g>
		<g>
			<path d="M576.7,173.8c0.3,0.3,0.4,0.9,0.3,1.3c-0.3,1.7-0.2,3.2-0.2,4.9c0,1.5,0.2,3.2,0,4.8c0,1.5,0.2,3.2,0.2,4.8
				c-0.2,3.4-0.2,7,0.8,10.4c0.6,2,1.4,4.2,0.8,6.4c-0.3,0.9-1.3,1.7-2,2c-1.3,0.4-2.6-0.8-4-0.6c-0.4,0-1.1,0-1.5,0
				c-1.9-0.3-3.7-0.4-5.6-0.4c-0.6,0-1.3-0.2-1.9-0.2c-0.6,0.2-1.3-0.2-1.9-0.2c-1.3,0.2-2.6,0-3.9,0.2c-0.9,0-1.7,0-2.6,0
				c-0.8,0.2-1.5,0.2-2.3,0.2c-0.9,0-1.9,0.2-2.8,0.3c-0.6,0-1.3-0.3-1.7-0.6c-0.6-0.3-0.9-1.4-0.8-2.1c0.3-0.4,0.6-1.1,0.6-1.4
				c0.4-4.9,1.4-9.4,2-14.4c0.3-2.1,0.6-4.3,1.1-6.6c0.9-3.2,0.4-6.5,1.1-9.8c0.2-0.3,0.6-0.8,0.9-0.6c0.9,0,2.1,0.3,3,0.4
				c3.2,0.2,6.5,0.2,9.8,0.3c1.3,0,2.3,0.3,3.6,0.2c0.4,0,0.9,0.4,1.4,0c0.8,0.6,1.7,0.3,2.5,0.3C574.4,173.1,576,173.1,576.7,173.8
				z"/>
			<path d="M546.4,172.9c0,0.3,0.2,0.4,0.2,0.6c-3.2,9.1-4.9,18.3-6,27.9c-0.2,0.4,0,1.3,0.3,1.4c0.9,0.8,2,1.1,2.3,2.1
				c0.3,0.9-0.2,1.7-1.1,1.9c-2.8,0.4-5.4-0.6-8.1-0.4h-0.4c-2.1-0.2-4.3,0.2-6.5-0.2c-2.5-0.3-4.9,0.9-7.4,0.3
				c-0.4,0-0.9-0.4-1.1-1.1c-0.2-1.1,0-2-0.2-3.1c-1.1-4.8-1.4-9.1-2.3-13.9c-0.9-4.9-1.4-9.6-2.5-14.5c-0.2-0.3-0.4-0.8-0.4-1.1
				c-0.2-0.8,0-1.5,0.9-1.9c0.4-0.2,0.9-0.2,1.4,0c2.8,1.1,5.7,0.3,8.7,0.4c0.4,0,1.1,0,1.4,0c4.7-0.2,9.4-0.4,14.1-0.2
				c0.9,0,2,0.3,3,0.3c0.6,0,1.4-0.3,2.1-0.2C545.5,171.7,546.3,172,546.4,172.9z"/>
			<path d="M507.8,172.3c-0.7,1-0.2,2.1,0,3.2c0.3,1.4,0.2,2.8,0.4,4.2c0.3,0.6,0.6,1.1,0.9,1.7c0.2,0.4-0.3,1.1-0.2,1.5
				c0.4,3.1,1.1,6,1.9,9.1c0.9,3.6,2.5,6.8,3.1,10.5c0,0.2-0.4,0.3-0.4,0.4c-0.2,0.9-0.6,2-1.5,2.1c-1.1,0.2-2-0.6-3-0.8
				c-1.3-0.3-2.6-0.4-3.8-0.3c-0.2,0-0.4-0.2-0.6,0.2c-0.9-0.4-2-0.2-3-0.2c-2.6,0.3-5.4,0.4-8.1,0.3c-4.8-0.2-9.4-0.8-14.2-0.4
				c-0.6,0-1.4,0.2-2,0.2c-0.8-0.2-1.5-0.4-1.4-1.3c0.2-3.7,0.8-7.4,1.1-11.3c0-1.4,0.2-2.6,0.3-4c0.6-3.8,0.8-7.7,0.8-11.6
				c0.2-0.9-0.3-1.9-0.2-2.8c0-2.1,2.6-1.3,4-1.4c7.3-0.4,14.4,0,21.8-0.9c1.3-0.2,2.5-0.8,3.6,0
				C507.6,171.2,508.1,171.9,507.8,172.3z"/>
			<path class="st9" d="M574.1,185.7c0,4.8,0.3,9.4,0.8,14.2c0,0.2-0.2,0.3-0.3,0.2c-3.9-4.8-7-9.3-10.2-14.4
				c-0.6-0.8-0.9-1.5-1.5-2.3c-0.8-1.4-1.7-2.6-2.6-4c-0.9-1.5-2.1-2.8-2.6-4.3c0.9-0.3,2,0,3-0.2c0.9-0.2,1.7,0.3,2.5,0.2
				c3.6,0,7.1,0.3,10.7,1.1c0.4,0.2,0.3,0.8,0.3,1.1C574.1,180,574.1,183,574.1,185.7z"/>
			<path class="st10" d="M568.5,197.4c1.9,2.6,3.8,4.5,5.3,7.3c0.2,0.3-0.3,0.8-0.4,0.6c-7-0.2-13.9-0.4-20.9-0.6
				c-0.3,0-1.1,0.3-1.1-0.3c-0.2-9.1,2.5-17.9,3.6-26.9C559.8,183.8,563.6,190.6,568.5,197.4z"/>
			<path class="st10" d="M538.5,197.8c-0.2,1.5-0.8,3-1.5,4.2c-0.3,0.6,0.2,1.3,0.3,1.9c-0.6,0.2-1.1,0.3-1.7,0.3
				c-4.5-0.3-8.8,0.4-13.3-0.6c-0.6-0.3-1.4-0.8-1.5-1.4c-0.9-5.4-1.7-10.4-2.6-15.8c-0.4-2.6-0.6-5.1-1.3-7.6
				c-0.4-1.4-0.8-3-0.4-4.2c0.4-0.9,1.9-0.3,3.1-0.4c0.3-0.2,0.6-0.3,0.8-0.3c1.1,0.4,2.1-0.3,3.2,0.2c0.4,3.2,0.4,6.4,0.2,9.6
				c-0.2,0.9,0.8,2,1.7,2c2.5,0,4.8-0.9,7.3-0.4c1.4,0.3,3.8,2.1,4,0c0.4-3.1-0.6-6.2-0.4-9.3c0-0.9-0.3-2.1,0.3-2.5
				c1.5-0.8,3.6,0,5.4,0.4c0.4,0,1.3,0.4,1.3,0.8C541.9,182.5,539.6,190,538.5,197.8"/>
			<path class="st9" d="M533.4,178.9c0.3,0.9,0.2,1.9,0,2.6c-0.2,0.3-0.6,0.4-0.9,0.4c-1.7,0.3-3.4,0.4-5.1,0.4
				c-0.3-0.2-0.4-0.4-0.6-0.8c0-1.3,0.2-2.3,0-3.6c0-0.3,0-0.9,0-1.3c0-1.1-0.2-2.1,0.2-3.2c2-0.2,4.2-0.3,6.2-0.3
				c0.2,1.3,0,2.3,0.2,3.6C533.3,177.6,533.3,178.3,533.4,178.9z"/>
			<path class="st9" d="M509,194.6c0.5,2.1,1.4,4.2,1.4,6.4c0,0.3-0.3,0.6-0.6,0.8c-5.4,0.9-10.7,0.9-16,0.8
				c-4.7-0.2-9.4,0.3-14.1-1.3c-0.2,0-0.6-0.2-0.8-0.4c-0.3-0.4-0.3-0.8-0.3-1.3c0.2-2.5,0.4-4.9,0.6-7.4c2-1.3,4-2,6.2-3
				c0.3,0,0.8,0,1.1-0.2c1.3-0.4,2.5-0.9,3.7-1.5c0.3,0,0.8-0.3,1.1-0.3c4.9-1.5,9.4-3.4,14.5-4c0.2,0,0.6,0.2,0.8,0.4
				C507.3,187.3,508.1,190.9,509,194.6z"/>
			<path class="st10" d="M505.6,178.3c0.3,0.9-0.2,1.9-0.9,2c-8.5,2.8-16.7,5.3-24.9,8.2c0.2-4.5,0.3-9,1.1-13.6
				c0-0.3,0.4-0.4,0.8-0.6c1.1-0.4,2.3-0.4,3.6-0.6c6.4-0.9,12.5-0.9,18.9-0.4c0.2,0,0.9,0.6,0.9,1.3
				C505,175.9,505.3,177.1,505.6,178.3z"/>
		</g>
		<g>
			<path d="M495.7,216.4v2.3h-1.5v8.4h-3.4v-8.4h-1.5v-2.3h1.5v-0.5c0-3.1,2-4.8,4.7-4.8c0.7,0,1.5,0.2,2,0.2v2.7
				c-0.8-0.1-1.1-0.2-1.5-0.2c-1,0-1.9,0.4-1.9,1.9v0.7L495.7,216.4L495.7,216.4z"/>
			<path d="M504.7,225.5c-1.1,1.2-2.1,1.7-3.5,1.7c-2.1,0-3.9-1.3-3.9-4.1v-6.9h3.4v6.6c0,1.5,0.8,2,1.7,2c1,0,2-0.8,2.3-1.9v-6.8
				h3.4V227h-3.4L504.7,225.5L504.7,225.5z"/>
			<path d="M514.2,217.9c1.1-1.2,2.1-1.7,3.5-1.7c1.7,0,3.9,0.9,3.9,4.1v6.8h-3.4v-6.5c0-1.5-0.7-2.1-1.7-2.1
				c-0.8,0-1.4,0.4-2.4,1.8v6.9h-3.4v-10.7h3.4L514.2,217.9L514.2,217.9z"/>
			<path d="M529.7,216.4v2.3h-1.5v8.4h-3.4v-8.4h-1.5v-2.3h1.5v-0.5c0-3.1,2-4.8,4.7-4.8c0.7,0,1.5,0.2,2,0.2v2.7
				c-0.8-0.1-1.1-0.2-1.5-0.2c-1,0-1.9,0.4-1.9,1.9v0.7L529.7,216.4L529.7,216.4z"/>
			<path d="M545.4,227.1h-2.3l-2.1-4.7h-6.7l-2,4.7H530l6.8-15.9h1.6L545.4,227.1z M535.1,220.4h4.9l-2.5-5.7L535.1,220.4z"/>
			<path d="M549.5,227.1h-2.3v-15.8h2.3V227.1z"/>
			<path d="M557,211.2c3.2,0,5.2,1.7,5.2,4.4c0,1.9-0.9,3.2-2.6,3.9c1.4,0.9,2.3,2.4,3.5,4.4c0.7,1.1,1.1,1.6,2.1,3.1h-2.7l-2.1-3.2
				c-2.1-3.2-3.1-3.7-4.2-3.7h-0.9v6.9h-2.3v-15.8L557,211.2L557,211.2L557,211.2z M555.3,218.2h1.4c2.5,0,3.1-1.3,3.1-2.5
				c0-1.4-0.9-2.4-3.1-2.4h-1.4V218.2z"/>
		</g>
	</g>
</g>
<g>
	<rect x="429.9" y="22.3" class="st11" width="194.7" height="111.2"/>
	<g>
		<path class="st12" d="M577.8,64.9c-0.8,0.5-1.7,0.8-2.5,0.8c-0.6,0-1.1-0.1-1.6-0.3c-0.1-0.1-0.8-0.6-2.5-1.5
			c-1-0.6-1.6-1.4-1.7-2.3c0-0.8,0.5-1.7,1.5-2.5c0.8-0.7,1.5-1.4,2.3-2c0.8,0.1,1.7,0.3,2.6,0.3c0.8,0.2,1.5,0.5,2,1.1
			c0.6,1.3,0.8,2.5,0.8,3.7C578.7,63.2,578.4,64.1,577.8,64.9z"/>
		<path class="st12" d="M518.6,87.8c-0.8,0.7-2.2,0.9-3.9,0.8c-2.1-0.2-3.5-0.2-4.2,0c-3.6,0.8-7.2,1-11.1,0.9
			c-0.4,0.5-0.6,1.3-0.6,2.3c0,0.1,0,0.3,0,0.5c0,0.2,0,0.3,0,0.5c0,0.8-0.2,1.5-0.4,2c-0.3,0.1-0.5,0.1-0.7,0.1
			c-0.5,0-1.1-0.2-1.8-0.6c-0.6-0.3-1.1-0.7-1.7-1c-0.3-0.2-0.5-0.3-0.5-0.6c0-0.1,0-0.3,0.1-0.4c0.1-0.2,0.1-0.3,0.1-0.4
			c0-0.2-0.1-0.3-0.2-0.5c-0.1-0.8-0.4-2.4-0.9-4.9c-0.4-2-0.7-3.7-0.7-5c-0.1-0.7-0.5-1.7-1.4-3c-0.9-1.3-1.4-2.3-1.4-3.1
			c0-0.6,0.2-1.2,0.6-1.8c0.6-0.7,1.2-1.4,1.8-2.1c0.8-0.8,1.5-1.4,2.3-1.5c1.3,0.5,3.6,0.8,6.9,1c3.3,0.2,5.6,0.5,7,1
			c2.2,0.9,3.5,2.7,3.9,5.3c0,1.1-0.5,2.2-1.5,3.3c-0.9,0.8-1.9,1.8-2.7,2.6c0.6,0.3,1.4,0.5,2.3,0.5c0.5,0,1.3-0.1,2.4-0.3
			c1-0.2,1.8-0.3,2.3-0.3c2,0,3.2,1.1,3.7,3.3C518.5,86.6,518.7,87.1,518.6,87.8z M503.5,77.4c-0.8-0.2-1.5-0.3-2.3-0.3
			c-1.1,0-2.3,0.3-3.5,0.7c-0.3,0.3-0.4,0.6-0.4,0.9c0,0.2,0.1,0.4,0.2,0.8c0.1,0.4,0.2,0.7,0.2,0.9
			C499.2,80.3,501.2,79.3,503.5,77.4z"/>
		<path class="st12" d="M546.6,85c0,1.4-0.2,3.5-0.7,6.3c-0.5,2.9-0.8-0.3-0.8,1c0,1.2,0.2,2.2,0.4,3.2c0.1,0.3,0.2,0.7,0.2,1.1
			c0,0.3-0.1,1.1-0.3,2.6c-0.1,0.4-0.1,0.9-0.1,1.5c-0.7,0.3-1.4,0.3-2,0.3c-0.8,0-1.8-0.2-2.6-0.6l-0.8-1.2l0.3-5.8
			c0.3-0.3,0.3-0.7,0.3-1.2c0-0.8,0-1.3,0-1.2c0-0.1,0-0.3,0-0.3l-0.3,0.3c-1.6,1.4-3.1,2.1-4.2,2.1c-0.4,0-0.8-0.1-1.2-0.2
			c-2.1-0.3-3.6-2.2-4.3-5.8c0.1-0.2,0.1-0.3,0.1-0.6c0-0.4-0.2-1.1-0.5-1.9c-0.3-0.8-0.5-1.4-0.5-2c0-0.6,0.2-1.1,0.6-1.6
			c0.2-0.3,0.5-0.6,1-0.8c0.6-0.3,1-0.5,1.2-0.6c2,0.1,3.4,1.1,4.2,3.1c0.1,0.2,0.1,0.4,0.1,0.6c0,0.3-0.1,0.7-0.3,1.2
			s-0.3,0.9-0.2,1.2c1.1-0.6,2.4-1.5,3.8-3c0.1-0.1,0.7-0.7,1.6-1.9c0.6-0.8,1.4-1.1,2.1-1.1l0.6,0.5l0,0c0.6,0,1,0.3,1.3,0.6
			c0.3,0.5,0.4,1,0.7,1.6c0.3,0.6,0.4,1.2,0.4,1.6C546.7,84.7,546.7,84.8,546.6,85z"/>
		<path class="st12" d="M563.9,73.4c-0.1,0.6-0.5,1.2-1.3,1.8c-0.9,0.2-2.2,0.5-3.8,0.9c-1.7,0.5-3,0.8-3.7,0.9
			c-0.1,0-0.2-0.1-0.3-0.1c-0.2,0-0.3,0-0.6,0.1c-0.3,0.1-0.5,0.2-0.6,0.3c-0.2,0.6-0.3,1.4-0.3,2.1c0,0.6-0.1,1.4,0,2.2
			c0.1,1.2,0.1,1.9,0.1,2.1c0,2,0.2,26.6,0.4,27.3c0.4-0.3,0.7-0.3,0.8-0.1c0.1,0.1,0.1,0.3,0.1,0.3c0,0.1,0,0.3-0.1,0.5
			c-0.1,0.3-0.1,0.4-0.1,0.5c0,0.2,0.1,0.4,0.2,0.5c0,0,0.1,0,0.3-0.1c0.1-0.1,0.3-0.1,0.3-0.1c0.1,0.2,0.2,0.3,0.2,0.6
			c0,0.2-0.1,0.5-0.3,0.9c-0.2,0.4-0.2,0.8-0.2,1c-0.2,0.2-0.3,0.4-0.7,0.6c-0.3,0.2-0.5,0.3-0.8,0.5c-0.2-0.2-0.5-0.3-0.9-0.5
			c-0.5-0.2-0.8-0.3-1-0.4c-0.5,0.1-1-0.2-1.6-0.7c-0.8-1-1.2-25.6-1.2-27.1c0-0.3,0-0.6,0-0.8c-0.1-0.2-0.2-0.3-0.2-0.6
			c0-0.1,0-0.2,0-0.3s0-0.3,0-0.3c0-0.3-0.1-0.4-0.2-0.5c0-0.6-0.1-1.7-0.3-3.2c-0.1-1.4-0.2-2.5-0.2-3.3c-0.3-0.4-0.8-0.6-1.3-0.6
			c-0.2,0-0.4,0-0.8,0.1c-0.3,0.1-0.7,0.1-0.8,0.1c-0.3-0.1-0.9,0-1.6,0.2c-0.8,0.2-1.4,0.3-1.7,0.3c-0.8,0-1.4-0.4-1.7-1.3
			c-0.3-0.2-0.5-0.4-0.7-0.8c-0.3-0.5-0.4-0.8-0.5-0.8c0-0.3,0.2-0.7,0.4-1.2c0.3-0.3,0.6-0.4,1.2-0.6c0.6-0.2,1-0.3,1.2-0.6
			c1.4-0.3,3-0.6,4.8-0.7c0.4,0,0.7-0.3,0.9-0.9c-0.3-0.8-0.3-11.4,0.1-12c0.4-0.5,0.7-0.8,0.7-0.8c0.3-0.3,0.6-0.4,0.9-0.3
			c0.1-0.1,0.3-0.1,0.3-0.1c0.3,0,0.7,0.2,1.1,0.5c0.4,0.3,0.8,0.5,1.1,0.5c0.3,0.2,0.5,0.6,0.6,1.2c0.1,0.3,0.3,0.4,0.4,0.6
			c0.2,0.2,0.3,10.3,0.6,10.3c0.8-0.2,1.7-0.4,2.8-0.8c0.9-0.3,1.8-0.6,2.7-0.9c0.2,0.1,0.6,0.2,1.4,0.3c0.6,0.1,1.1,0.2,1.4,0.4
			c0.4,0.4,0.8,0.8,1.2,1.3c0.4,0.5,0.7,1,0.7,1.4C564,73,563.9,73.2,563.9,73.4z"/>
		<path class="st12" d="M573.5,70.9c0.1,0.3,0.1,0.6,0.1,0.8c0,0.8-0.3,1.8-0.8,3.1c-0.6,1.4-0.8,2.5-0.8,3.1c0,0.2,0,0.4,0,0.7
			c0,0.3,0.1,0.8,0.2,1.5c0.2,0.7,0.2,1.1,0.2,1.4c0,0.5-0.1,0.9-0.3,1.3c0,0.2,0,0.4,0,0.7c0,0.5,0.2,1.4,0.4,2.4
			c0.3,1,0.4,1.8,0.4,2.4c0,0.3,0,0.5,0,0.7c-0.4,0.3-0.8,0.3-1.3,0.3c-0.6,0-1.4-0.3-2.4-0.8c-0.3-0.7-0.6-1.3-0.8-2
			c-0.3-0.8-0.5-1.4-0.6-2l-0.5-0.4l-4.8,0.8c-0.3,0.3-0.3,0.6-0.3,0.8c0,0.2,0,0.3,0.1,0.4l0.8-0.3c0,0.4,0.1,0.7,0.3,0.7
			c0.1,0,0.3-0.1,0.4-0.3c0.2-0.2,0.3-0.3,0.4-0.3c0.1,0,0.2,0,0.3,0.1c-0.1,2-0.4,4.1-1.2,6.5c-0.3,0.3-0.5,0.3-0.8,0.3
			c-0.2,0-0.6-0.1-1.1-0.3s-0.9-0.3-1.3-0.3c-0.8-0.7-1.4-1.7-1.7-3c0-0.2-0.3-1.4-0.6-3.7c-0.3-1.4-0.6-2.5-1.1-3.3
			c0-0.2-0.1-0.4-0.1-0.6c0-0.6,0.2-1.4,0.6-2.4c0.4-0.9,0.6-1.7,0.6-2.3c0-0.3-0.1-0.7-0.2-1.1c0.3-0.7,0.3-1.6,0.3-2.9
			c0-1.4,0.1-2.3,0.3-2.9c0.3-1,0.8-1.8,1.5-2.3c0.9-0.1,1.8,0.2,2.5,0.9c0.6,0.8,1.2,1.5,1.8,2.3c0.1,0.3,0.1,0.5,0.1,0.8
			c0,0.6-0.3,1.3-0.9,2.2c-0.6,0.9-0.9,1.7-0.9,2.3c0,0.2,0,0.4,0.1,0.6c0,0.7,0,1.1,0.1,1.2c0.8-0.3,1.5-1.1,2-2.5
			c2.1-2,3.7-4.2,4.7-6.8c0.5-0.6,1-0.8,1.5-0.8c0.2,0,0.3,0,0.4,0.1c0.1,0.1,0.1,0.2,0.1,0.4c0,0.2,0.1,0.3,0.3,0.4
			c0.2-0.1,0.3-0.1,0.4-0.1c0.3,0,0.7,0.3,0.9,0.8C573,70.4,573.3,70.8,573.5,70.9z M566.7,77.4c-1.8,0.1-3.1,0.7-4.1,1.9l2.8-0.5
			c0.1-0.1,0.3-0.3,0.8-0.4c0.3-0.2,0.5-0.3,0.5-0.6C566.8,77.6,566.8,77.5,566.7,77.4z"/>
		<path class="st12" d="M600.2,89.9c0.1,0.2,0.1,0.3,0.1,0.5c0,0.4-0.3,0.9-0.9,1.4c-0.3,0.1-0.6,0.1-0.9,0.1c-0.6,0-1.2-0.1-2-0.3
			c-0.6-0.2-1.2-0.4-1.8-0.7c-0.8-1.4-1.5-2.9-2.3-4.4c-0.8-1.8-1.5-3.2-2-4.5c-0.8,0.8-1.4,1.9-1.5,3.3c-0.1,1.3-0.2,2.5-0.3,3.7
			c-0.7,0.3-1.4,0.6-2.1,0.6c-1.3,0-2.9-0.7-4.8-2c-0.4-0.8-0.8-1.5-1.2-2.4c-0.5-0.9-0.9-1.6-1.4-2.1c-0.3,0.5-0.5,1.3-0.8,2.4
			c-0.3,1.2-0.5,2-0.6,2.3c-0.2,0.3-0.3,0.9-0.3,1.7c-0.1,0.8-0.3,1.4-0.3,1.8c-0.3,0.6-0.8,0.9-1.4,1.1c-1.8-0.1-3.1-0.5-3.8-1.2
			c-0.8-0.8-1.1-1.7-1.1-2.7c0-0.8,0.2-1.8,0.6-3.1c0.4-1.4,0.8-2.5,0.8-3.1c0.6-2,1.2-4.1,1.8-6.1c0.7-2.4,1.2-4.4,1.4-6.2
			c0.7-0.8,1.8-1.1,3.1-1.1c0.3,0,0.7,0,1.1,0c0.9,0.3,1.5,0.6,1.9,0.8c0.7,0.3,1.2,0.8,1.5,1.4c0,0.2,0,0.4,0.1,0.8
			c0.1,0.3,0.1,0.6,0.1,0.8c0,0.5-0.2,1-0.4,1.4c0,0.8,0,1.7,0,2.5c0.1,0.9,0.3,1.7,0.8,2.2c0.5-0.4,0.9-1.1,1.3-2
			c0.4-1.2,0.7-2,0.9-2.3c0.5-1.2,1.1-3.1,1.9-5.4c0.7-1.1,1.7-1.7,2.9-1.7c0.3,0,0.5,0,0.8,0.1c0.2,0.1,0.8,0.4,1.8,0.9
			c0.8,0.3,1.3,0.8,1.5,1.4c0.1,0.6,0.2,1.4,0.2,2.2c0,0.3,0,0.9-0.1,1.7c0,0.8-0.1,1.3-0.1,1.7c0,1.2,0.1,2.1,0.3,2.9
			C595.9,81.5,597.6,85.4,600.2,89.9z"/>
		<g>
			<path class="st12" d="M482.2,92.7c-0.1,0.3-0.3,0.3-0.5,0.4c-0.3,0-0.4,0.2-0.4,0.4c-0.3,0.1-0.7,0.1-1,0.1c-1,0-2-0.4-2.9-1.2
				c-0.5-0.4-1.3-1.3-2.3-2.5c-0.9-1.1-1.8-2-2.4-2.4c-0.3,0.5-0.3,1.3-0.3,2.3l0,0c0,0.5,0,0.9,0,1.2c0.1,0.1,0.2,0.2,0.2,0.3
				c0,0.1-0.1,0.3-0.2,0.5c-0.2,0.2-0.2,0.3-0.3,0.4c-0.4,0.5-0.9,0.8-1.6,0.8c-0.3,0-0.4,0-0.7-0.1c-0.8-0.2-1.6-0.8-2.5-1.7
				c-0.1-0.6-0.2-1.2-0.2-1.9c0-1.4,0.3-3.4,1-6.3c-0.3-0.5-0.5-1-0.5-1.7c0-1,0.3-2,0.9-2.8c0.3-0.3,0.5-0.3,0.8-0.3
				c0.2,0,0.4,0,0.8,0.1c0.3,0.1,0.6,0.1,0.8,0.1c0.6,0.6,1.2,1.2,1.9,1.7c0.7,0.8,1.1,1.4,1.2,2.1c0.3,0.5,0.7,1,1.3,1.7
				c0.5,0.5,0.9,1,1.4,1.5c0-1.3-0.3-2.9-0.7-4.9c-0.6-2.6-0.9-4.2-1-4.8c0.3-0.2,0.6-0.8,0.9-1.7c0.3-0.8,0.7-1.2,1.1-1.2
				c0.3,0,0.6,0.1,0.9,0.3c0.3,0.4,0.4,0.7,0.5,0.8c0.3,0.3,0.4,0.5,0.8,0.5c0.3,0.3,0.4,0.8,0.3,1.5c-0.1,0.8-0.1,1.4,0.1,1.6
				c1.2,3.6,2,8.2,2.4,13.9c0.3,0.3,0.3,0.6,0.3,0.7C482.3,92.5,482.3,92.6,482.2,92.7z"/>
		</g>
		<path class="st12" d="M489,81.7c0.3,0.6,0.5,1.2,0.5,1.8c0,0.4-0.1,0.8-0.3,1.1c-0.1,0.1-0.4,0.6-1.1,1.7
			c-0.4,0.7-0.9,1.1-1.6,1.2c-0.6,0-1.2-0.3-1.8-1c-0.5-0.5-0.9-1-1.4-1.6c0.1-0.6,0.2-1.2,0.3-1.8c0.1-0.6,0.3-1.1,0.8-1.4
			c0.9-0.4,1.8-0.6,2.6-0.6C487.8,81.1,488.5,81.3,489,81.7z"/>
		<path class="st12" d="M528.2,83.6c-0.4-0.9-0.6-1.7-0.6-2.3c0-0.3,0.1-0.7,0.2-1.1c-0.3-0.7-0.3-1.6-0.3-2.9
			c0-1.4-0.1-2.3-0.3-2.9c-0.3-1-0.8-1.8-1.5-2.3c-0.9-0.1-1.8,0.2-2.5,0.9c-0.6,0.8-1.2,1.5-1.8,2.3c-0.1,0.3-0.1,0.5-0.1,0.8
			c0,0.6,0.3,1.3,0.9,2.2s0.9,1.7,0.9,2.3c0,0.2,0,0.4-0.1,0.6c0,0.7-0.1,1.2-0.1,1.2l-0.3,0.8l-2.9-0.5c-0.1-0.1-0.3-0.3-0.8-0.4
			c-0.3-0.2-0.5-0.3-0.5-0.6c0-0.1,0-0.2,0.1-0.3c0.2-0.9-1.7-6.9-2.3-8.3c-0.5-0.6-1-0.8-1.5-0.8c-0.2,0-0.3,0-0.4,0.1
			c-0.1,0.1-0.1,0.2-0.1,0.4c0,0.2-0.1,0.3-0.3,0.4c-0.2-0.1-0.3-0.1-0.4-0.1c-0.3,0-0.7,0.3-0.9,0.8c-0.3,0.6-0.6,1-0.8,1.1
			c-0.1,0.3-0.1,0.6-0.1,0.8c0,0.8,0.3,1.8,0.8,3.1s0.8,2.5,0.8,3.1c0,0.2,0,0.4,0,0.7c0,0.3-0.1,0.8-0.2,1.5
			c-0.2,0.7-0.2,1.1-0.2,1.4c0,0.5,0.1,0.9,0.3,1.3c0,0.2,0,0.4,0,0.7c0,0.5-0.2,1.4-0.4,2.4c-0.3,1-0.4,1.8-0.4,2.4
			c0,0.3,0,0.5,0,0.7c0.4,0.3,0.8,0.3,1.3,0.3c0.6,0,1.4-0.3,2.4-0.8c0.3-0.7,0.6-1.3,0.8-2c0.3-0.8,0.5-1.4,0.6-2l0.5-0.4l4.8,0.8
			c0.3,0.3,0.3,0.6,0.3,0.8c0,0.2,0,0.3-0.1,0.4l-0.8-0.3c0,0.4-0.1,0.7-0.3,0.8c-0.1,0-0.3-0.1-0.4-0.3c-0.2-0.2-0.3-0.3-0.4-0.3
			s-0.2,0-0.3,0.1c0.1,2,0.4,4.1,1.2,6.5c0.3,0.3,0.5,0.3,0.8,0.3c0.2,0,0.6-0.1,1.1-0.3c0.5-0.3,0.9-0.3,1.3-0.3
			c0.8-0.7,1.4-1.7,1.7-3c0-0.2,0.3-1.4,0.6-3.7c0.3-1.4,0.6-2.5,1.1-3.3c0-0.2,0.1-0.4,0.1-0.6C528.8,85.3,528.5,84.5,528.2,83.6z"
			/>
		<path class="st12" d="M464.2,78c-0.5,0.3-1.1,0.5-1.7,0.5c-0.4,0-0.8-0.1-1-0.3c-0.1-0.1-0.6-0.4-1.6-1c-0.7-0.4-1-0.9-1.2-1.5
			c0-0.6,0.3-1.1,1-1.7c0.5-0.4,1-0.9,1.5-1.4c0.6,0.1,1.1,0.2,1.7,0.3c0.6,0.1,1,0.3,1.3,0.8c0.4,0.8,0.6,1.7,0.6,2.5
			C464.8,76.9,464.7,77.5,464.2,78z M466.3,97.4c-0.3,0.3-0.7,0.5-1.2,0.5c-0.3,0-0.8-0.1-1.5-0.3c-1.2-0.3-2-1-2.4-2.3
			c-0.2-0.5-0.4-1.6-0.6-3.3c-0.3-2.5-0.5-5.8-0.4-9.6c0.2-0.7,0.6-1.3,1.2-1.8c0.6-0.5,1.2-0.8,1.9-0.8s1.3,0.3,1.7,0.8
			c0.6,1.4,0.8,2.5,0.8,3.3c0,0.7-0.2,1.3-0.4,1.7c-0.1,0.8-0.1,1.4-0.1,2.1c0,2,0.3,3.8,0.8,5.6c0.4,0.3,0.6,0.7,0.6,1.3
			c0,0.3-0.1,0.6-0.2,1.2C466.3,96.7,466.3,97.2,466.3,97.4z"/>
	</g>
	<g>
		<path class="st13" d="M577.8,64.9c-0.8,0.5-1.7,0.8-2.5,0.8c-0.6,0-1.1-0.1-1.6-0.3c-0.1-0.1-0.8-0.6-2.5-1.5
			c-1-0.6-1.6-1.4-1.7-2.3c0-0.8,0.5-1.7,1.5-2.5c0.8-0.7,1.5-1.4,2.3-2c0.8,0.1,1.7,0.3,2.6,0.3c0.8,0.2,1.5,0.5,2,1.1
			c0.6,1.3,0.8,2.5,0.8,3.7C578.7,63.2,578.4,64.1,577.8,64.9z"/>
		<path class="st13" d="M518.6,87.8c-0.8,0.7-2.2,0.9-3.9,0.8c-2.1-0.2-3.5-0.2-4.2,0c-3.6,0.8-7.2,1-11.1,0.9
			c-0.4,0.5-0.6,1.3-0.6,2.3c0,0.1,0,0.3,0,0.5c0,0.2,0,0.3,0,0.5c0,0.8-0.2,1.5-0.4,2c-0.3,0.1-0.5,0.1-0.7,0.1
			c-0.5,0-1.1-0.2-1.8-0.6c-0.6-0.3-1.1-0.7-1.7-1c-0.3-0.2-0.5-0.3-0.5-0.6c0-0.1,0-0.3,0.1-0.4c0.1-0.2,0.1-0.3,0.1-0.4
			c0-0.2-0.1-0.3-0.2-0.5c-0.1-0.8-0.4-2.4-0.9-4.9c-0.4-2-0.7-3.7-0.7-5c-0.1-0.7-0.5-1.7-1.4-3c-0.9-1.3-1.4-2.3-1.4-3.1
			c0-0.6,0.2-1.2,0.6-1.8c0.6-0.7,1.2-1.4,1.8-2.1c0.8-0.8,1.5-1.4,2.3-1.5c1.3,0.5,3.6,0.8,6.9,1c3.3,0.2,5.6,0.5,7,1
			c2.2,0.9,3.5,2.7,3.9,5.3c0,1.1-0.5,2.2-1.5,3.3c-0.9,0.8-1.9,1.8-2.7,2.6c0.6,0.3,1.4,0.5,2.3,0.5c0.5,0,1.3-0.1,2.4-0.3
			c1-0.2,1.8-0.3,2.3-0.3c2,0,3.2,1.1,3.7,3.3C518.5,86.6,518.7,87.1,518.6,87.8z M503.5,77.4c-0.8-0.2-1.5-0.3-2.3-0.3
			c-1.1,0-2.3,0.3-3.5,0.7c-0.3,0.3-0.4,0.6-0.4,0.9c0,0.2,0.1,0.4,0.2,0.8c0.1,0.4,0.2,0.7,0.2,0.9
			C499.2,80.3,501.2,79.3,503.5,77.4z"/>
		<path class="st13" d="M546.6,85c0,1.4-0.2,3.5-0.7,6.3c-0.5,2.9-0.8-0.3-0.8,1c0,1.2,0.2,2.2,0.4,3.2c0.1,0.3,0.2,0.7,0.2,1.1
			c0,0.3-0.1,1.1-0.3,2.6c-0.1,0.4-0.1,0.9-0.1,1.5c-0.7,0.3-1.4,0.3-2,0.3c-0.8,0-1.8-0.2-2.6-0.6l-0.8-1.2l0.3-5.8
			c0.3-0.3,0.3-0.7,0.3-1.2c0-0.8,0-1.3,0-1.2c0-0.1,0-0.3,0-0.3l-0.3,0.3c-1.6,1.4-3.1,2.1-4.2,2.1c-0.4,0-0.8-0.1-1.2-0.2
			c-2.1-0.3-3.6-2.2-4.3-5.8c0.1-0.2,0.1-0.3,0.1-0.6c0-0.4-0.2-1.1-0.5-1.9c-0.3-0.8-0.5-1.4-0.5-2c0-0.6,0.2-1.1,0.6-1.6
			c0.2-0.3,0.5-0.6,1-0.8c0.6-0.3,1-0.5,1.2-0.6c2,0.1,3.4,1.1,4.2,3.1c0.1,0.2,0.1,0.4,0.1,0.6c0,0.3-0.1,0.7-0.3,1.2
			s-0.3,0.9-0.2,1.2c1.1-0.6,2.4-1.5,3.8-3c0.1-0.1,0.7-0.7,1.6-1.9c0.6-0.8,1.4-1.1,2.1-1.1l0.6,0.5l0,0c0.6,0,1,0.3,1.3,0.6
			c0.3,0.5,0.4,1,0.7,1.6c0.3,0.6,0.4,1.2,0.4,1.6C546.7,84.7,546.7,84.8,546.6,85z"/>
		<path class="st13" d="M573.5,70.9c0.1,0.3,0.1,0.6,0.1,0.8c0,0.8-0.3,1.8-0.8,3.1c-0.6,1.4-0.8,2.5-0.8,3.1c0,0.2,0,0.4,0,0.7
			c0,0.3,0.1,0.8,0.2,1.5c0.2,0.7,0.2,1.1,0.2,1.4c0,0.5-0.1,0.9-0.3,1.3c0,0.2,0,0.4,0,0.7c0,0.5,0.2,1.4,0.4,2.4
			c0.3,1,0.4,1.8,0.4,2.4c0,0.3,0,0.5,0,0.7c-0.4,0.3-0.8,0.3-1.3,0.3c-0.6,0-1.4-0.3-2.4-0.8c-0.3-0.7-0.6-1.3-0.8-2
			c-0.3-0.8-0.5-1.4-0.6-2l-0.5-0.4l-4.8,0.8c-0.3,0.3-0.3,0.6-0.3,0.8c0,0.2,0,0.3,0.1,0.4l0.8-0.3c0,0.4,0.1,0.7,0.3,0.7
			c0.1,0,0.3-0.1,0.4-0.3c0.2-0.2,0.3-0.3,0.4-0.3c0.1,0,0.2,0,0.3,0.1c-0.1,2-0.4,4.1-1.2,6.5c-0.3,0.3-0.5,0.3-0.8,0.3
			c-0.2,0-0.6-0.1-1.1-0.3s-0.9-0.3-1.3-0.3c-0.8-0.7-1.4-1.7-1.7-3c0-0.2-0.3-1.4-0.6-3.7c-0.3-1.4-0.6-2.5-1.1-3.3
			c0-0.2-0.1-0.4-0.1-0.6c0-0.6,0.2-1.4,0.6-2.4c0.4-0.9,0.6-1.7,0.6-2.3c0-0.3-0.1-0.7-0.2-1.1c0.3-0.7,0.3-1.6,0.3-2.9
			c0-1.4,0.1-2.3,0.3-2.9c0.3-1,0.8-1.8,1.5-2.3c0.9-0.1,1.8,0.2,2.5,0.9c0.6,0.8,1.2,1.5,1.8,2.3c0.1,0.3,0.1,0.5,0.1,0.8
			c0,0.6-0.3,1.3-0.9,2.2c-0.6,0.9-0.9,1.7-0.9,2.3c0,0.2,0,0.4,0.1,0.6c0,0.7,0,1.1,0.1,1.2c0.8-0.3,1.5-1.1,2-2.5
			c2.1-2,3.7-4.2,4.7-6.8c0.5-0.6,1-0.8,1.5-0.8c0.2,0,0.3,0,0.4,0.1c0.1,0.1,0.1,0.2,0.1,0.4c0,0.2,0.1,0.3,0.3,0.4
			c0.2-0.1,0.3-0.1,0.4-0.1c0.3,0,0.7,0.3,0.9,0.8C573,70.4,573.3,70.8,573.5,70.9z M566.7,77.4c-1.8,0.1-3.1,0.7-4.1,1.9l2.8-0.5
			c0.1-0.1,0.3-0.3,0.8-0.4c0.3-0.2,0.5-0.3,0.5-0.6C566.8,77.6,566.8,77.5,566.7,77.4z"/>
		<path class="st13" d="M600.2,89.9c0.1,0.2,0.1,0.3,0.1,0.5c0,0.4-0.3,0.9-0.9,1.4c-0.3,0.1-0.6,0.1-0.9,0.1c-0.6,0-1.2-0.1-2-0.3
			c-0.6-0.2-1.2-0.4-1.8-0.7c-0.8-1.4-1.5-2.9-2.3-4.4c-0.8-1.8-1.5-3.2-2-4.5c-0.8,0.8-1.4,1.9-1.5,3.3c-0.1,1.3-0.2,2.5-0.3,3.7
			c-0.7,0.3-1.4,0.6-2.1,0.6c-1.3,0-2.9-0.7-4.8-2c-0.4-0.8-0.8-1.5-1.2-2.4c-0.5-0.9-0.9-1.6-1.4-2.1c-0.3,0.5-0.5,1.3-0.8,2.4
			c-0.3,1.2-0.5,2-0.6,2.3c-0.2,0.3-0.3,0.9-0.3,1.7c-0.1,0.8-0.3,1.4-0.3,1.8c-0.3,0.6-0.8,0.9-1.4,1.1c-1.8-0.1-3.1-0.5-3.8-1.2
			c-0.8-0.8-1.1-1.7-1.1-2.7c0-0.8,0.2-1.8,0.6-3.1c0.4-1.4,0.8-2.5,0.8-3.1c0.6-2,1.2-4.1,1.8-6.1c0.7-2.4,1.2-4.4,1.4-6.2
			c0.7-0.8,1.8-1.1,3.1-1.1c0.3,0,0.7,0,1.1,0c0.9,0.3,1.5,0.6,1.9,0.8c0.7,0.3,1.2,0.8,1.5,1.4c0,0.2,0,0.4,0.1,0.8
			c0.1,0.3,0.1,0.6,0.1,0.8c0,0.5-0.2,1-0.4,1.4c0,0.8,0,1.7,0,2.5c0.1,0.9,0.3,1.7,0.8,2.2c0.5-0.4,0.9-1.1,1.3-2
			c0.4-1.2,0.7-2,0.9-2.3c0.5-1.2,1.1-3.1,1.9-5.4c0.7-1.1,1.7-1.7,2.9-1.7c0.3,0,0.5,0,0.8,0.1c0.2,0.1,0.8,0.4,1.8,0.9
			c0.8,0.3,1.3,0.8,1.5,1.4c0.1,0.6,0.2,1.4,0.2,2.2c0,0.3,0,0.9-0.1,1.7c0,0.8-0.1,1.3-0.1,1.7c0,1.2,0.1,2.1,0.3,2.9
			C595.9,81.5,597.6,85.4,600.2,89.9z"/>
		<g>
			<path class="st13" d="M482.2,92.7c-0.1,0.3-0.3,0.3-0.5,0.4c-0.3,0-0.4,0.2-0.4,0.4c-0.3,0.1-0.7,0.1-1,0.1c-1,0-2-0.4-2.9-1.2
				c-0.5-0.4-1.3-1.3-2.3-2.5c-0.9-1.1-1.8-2-2.4-2.4c-0.3,0.5-0.3,1.3-0.3,2.3l0,0c0,0.5,0,0.9,0,1.2c0.1,0.1,0.2,0.2,0.2,0.3
				c0,0.1-0.1,0.3-0.2,0.5c-0.2,0.2-0.2,0.3-0.3,0.4c-0.4,0.5-0.9,0.8-1.6,0.8c-0.3,0-0.4,0-0.7-0.1c-0.8-0.2-1.6-0.8-2.5-1.7
				c-0.1-0.6-0.2-1.2-0.2-1.9c0-1.4,0.3-3.4,1-6.3c-0.3-0.5-0.5-1-0.5-1.7c0-1,0.3-2,0.9-2.8c0.3-0.3,0.5-0.3,0.8-0.3
				c0.2,0,0.4,0,0.8,0.1c0.3,0.1,0.6,0.1,0.8,0.1c0.6,0.6,1.2,1.2,1.9,1.7c0.7,0.8,1.1,1.4,1.2,2.1c0.3,0.5,0.7,1,1.3,1.7
				c0.5,0.5,0.9,1,1.4,1.5c0-1.3-0.3-2.9-0.7-4.9c-0.6-2.6-0.9-4.2-1-4.8c0.3-0.2,0.6-0.8,0.9-1.7c0.3-0.8,0.7-1.2,1.1-1.2
				c0.3,0,0.6,0.1,0.9,0.3c0.3,0.4,0.4,0.7,0.5,0.8c0.3,0.3,0.4,0.5,0.8,0.5c0.3,0.3,0.4,0.8,0.3,1.5c-0.1,0.8-0.1,1.4,0.1,1.6
				c1.2,3.6,2,8.2,2.4,13.9c0.3,0.3,0.3,0.6,0.3,0.7C482.3,92.5,482.3,92.6,482.2,92.7z"/>
		</g>
		<path class="st13" d="M489,81.7c0.3,0.6,0.5,1.2,0.5,1.8c0,0.4-0.1,0.8-0.3,1.1c-0.1,0.1-0.4,0.6-1.1,1.7
			c-0.4,0.7-0.9,1.1-1.6,1.2c-0.6,0-1.2-0.3-1.8-1c-0.5-0.5-0.9-1-1.4-1.6c0.1-0.6,0.2-1.2,0.3-1.8c0.1-0.6,0.3-1.1,0.8-1.4
			c0.9-0.4,1.8-0.6,2.6-0.6C487.8,81.1,488.5,81.3,489,81.7z"/>
		<path class="st13" d="M528.2,83.6c-0.4-0.9-0.6-1.7-0.6-2.3c0-0.3,0.1-0.7,0.2-1.1c-0.3-0.7-0.3-1.6-0.3-2.9
			c0-1.4-0.1-2.3-0.3-2.9c-0.3-1-0.8-1.8-1.5-2.3c-0.9-0.1-1.8,0.2-2.5,0.9c-0.6,0.8-1.2,1.5-1.8,2.3c-0.1,0.3-0.1,0.5-0.1,0.8
			c0,0.6,0.3,1.3,0.9,2.2s0.9,1.7,0.9,2.3c0,0.2,0,0.4-0.1,0.6c0,0.7-0.1,1.2-0.1,1.2l-0.3,0.8l-2.9-0.5c-0.1-0.1-0.3-0.3-0.8-0.4
			c-0.3-0.2-0.5-0.3-0.5-0.6c0-0.1,0-0.2,0.1-0.3c0.2-0.9-1.7-6.9-2.3-8.3c-0.5-0.6-1-0.8-1.5-0.8c-0.2,0-0.3,0-0.4,0.1
			c-0.1,0.1-0.1,0.2-0.1,0.4c0,0.2-0.1,0.3-0.3,0.4c-0.2-0.1-0.3-0.1-0.4-0.1c-0.3,0-0.7,0.3-0.9,0.8c-0.3,0.6-0.6,1-0.8,1.1
			c-0.1,0.3-0.1,0.6-0.1,0.8c0,0.8,0.3,1.8,0.8,3.1s0.8,2.5,0.8,3.1c0,0.2,0,0.4,0,0.7c0,0.3-0.1,0.8-0.2,1.5
			c-0.2,0.7-0.2,1.1-0.2,1.4c0,0.5,0.1,0.9,0.3,1.3c0,0.2,0,0.4,0,0.7c0,0.5-0.2,1.4-0.4,2.4c-0.3,1-0.4,1.8-0.4,2.4
			c0,0.3,0,0.5,0,0.7c0.4,0.3,0.8,0.3,1.3,0.3c0.6,0,1.4-0.3,2.4-0.8c0.3-0.7,0.6-1.3,0.8-2c0.3-0.8,0.5-1.4,0.6-2l0.5-0.4l4.8,0.8
			c0.3,0.3,0.3,0.6,0.3,0.8c0,0.2,0,0.3-0.1,0.4l-0.8-0.3c0,0.4-0.1,0.7-0.3,0.8c-0.1,0-0.3-0.1-0.4-0.3c-0.2-0.2-0.3-0.3-0.4-0.3
			s-0.2,0-0.3,0.1c0.1,2,0.4,4.1,1.2,6.5c0.3,0.3,0.5,0.3,0.8,0.3c0.2,0,0.6-0.1,1.1-0.3c0.5-0.3,0.9-0.3,1.3-0.3
			c0.8-0.7,1.4-1.7,1.7-3c0-0.2,0.3-1.4,0.6-3.7c0.3-1.4,0.6-2.5,1.1-3.3c0-0.2,0.1-0.4,0.1-0.6C528.8,85.3,528.5,84.5,528.2,83.6z"
			/>
		<path class="st13" d="M464.2,78c-0.5,0.3-1.1,0.5-1.7,0.5c-0.4,0-0.8-0.1-1-0.3c-0.1-0.1-0.6-0.4-1.6-1c-0.7-0.4-1-0.9-1.2-1.5
			c0-0.6,0.3-1.1,1-1.7c0.5-0.4,1-0.9,1.5-1.4c0.6,0.1,1.1,0.2,1.7,0.3c0.6,0.1,1,0.3,1.3,0.8c0.4,0.8,0.6,1.7,0.6,2.5
			C464.8,76.9,464.7,77.5,464.2,78z M466.3,97.4c-0.3,0.3-0.7,0.5-1.2,0.5c-0.3,0-0.8-0.1-1.5-0.3c-1.2-0.3-2-1-2.4-2.3
			c-0.2-0.5-0.4-1.6-0.6-3.3c-0.3-2.5-0.5-5.8-0.4-9.6c0.2-0.7,0.6-1.3,1.2-1.8c0.6-0.5,1.2-0.8,1.9-0.8s1.3,0.3,1.7,0.8
			c0.6,1.4,0.8,2.5,0.8,3.3c0,0.7-0.2,1.3-0.4,1.7c-0.1,0.8-0.1,1.4-0.1,2.1c0,2,0.3,3.8,0.8,5.6c0.4,0.3,0.6,0.7,0.6,1.3
			c0,0.3-0.1,0.6-0.2,1.2C466.3,96.7,466.3,97.2,466.3,97.4z"/>
		<path class="st13" d="M563.9,73.4c-0.1,0.6-0.5,1.2-1.3,1.8c-0.9,0.2-2.2,0.5-3.8,0.9c-1.7,0.5-3,0.8-3.7,0.9
			c-0.1,0-0.2-0.1-0.3-0.1c-0.2,0-0.3,0-0.6,0.1c-0.3,0.1-0.5,0.2-0.6,0.3c-0.2,0.6-0.3,1.4-0.3,2.1c0,0.6-0.1,1.4,0,2.2
			c0.1,1.2,0.1,1.9,0.1,2.1c0,2,0.2,26.6,0.4,27.3c0.4-0.3,0.7-0.3,0.8-0.1c0.1,0.1,0.1,0.3,0.1,0.3c0,0.1,0,0.3-0.1,0.5
			c-0.1,0.3-0.1,0.4-0.1,0.5c0,0.2,0.1,0.4,0.2,0.5c0,0,0.1,0,0.3-0.1c0.1-0.1,0.3-0.1,0.3-0.1c0.1,0.2,0.2,0.3,0.2,0.6
			c0,0.2-0.1,0.5-0.3,0.9c-0.2,0.4-0.2,0.8-0.2,1c-0.2,0.2-0.3,0.4-0.7,0.6c-0.3,0.2-0.5,0.3-0.8,0.5c-0.2-0.2-0.5-0.3-0.9-0.5
			c-0.5-0.2-0.8-0.3-1-0.4c-0.5,0.1-1-0.2-1.6-0.7c-0.8-1-1.2-25.6-1.2-27.1c0-0.3,0-0.6,0-0.8c-0.1-0.2-0.2-0.3-0.2-0.6
			c0-0.1,0-0.2,0-0.3s0-0.3,0-0.3c0-0.3-0.1-0.4-0.2-0.5c0-0.6-0.1-1.7-0.3-3.2c-0.1-1.4-0.2-2.5-0.2-3.3c-0.3-0.4-0.8-0.6-1.3-0.6
			c-0.2,0-0.4,0-0.8,0.1c-0.3,0.1-0.7,0.1-0.8,0.1c-0.3-0.1-0.9,0-1.6,0.2c-0.8,0.2-1.4,0.3-1.7,0.3c-0.8,0-1.4-0.4-1.7-1.3
			c-0.3-0.2-0.5-0.4-0.7-0.8c-0.3-0.5-0.4-0.8-0.5-0.8c0-0.3,0.2-0.7,0.4-1.2c0.3-0.3,0.6-0.4,1.2-0.6c0.6-0.2,1-0.3,1.2-0.6
			c1.4-0.3,3-0.6,4.8-0.7c0.4,0,0.7-0.3,0.9-0.9c-0.3-0.8-0.3-11.4,0.1-12c0.4-0.5,0.7-0.8,0.7-0.8c0.3-0.3,0.6-0.4,0.9-0.3
			c0.1-0.1,0.3-0.1,0.3-0.1c0.3,0,0.7,0.2,1.1,0.5c0.4,0.3,0.8,0.5,1.1,0.5c0.3,0.2,0.5,0.6,0.6,1.2c0.1,0.3,0.3,0.4,0.4,0.6
			c0.2,0.2,0.3,10.3,0.6,10.3c0.8-0.2,1.7-0.4,2.8-0.8c0.9-0.3,1.8-0.6,2.7-0.9c0.2,0.1,0.6,0.2,1.4,0.3c0.6,0.1,1.1,0.2,1.4,0.4
			c0.4,0.4,0.8,0.8,1.2,1.3c0.4,0.5,0.7,1,0.7,1.4C564,73,563.9,73.2,563.9,73.4z"/>
	</g>
</g>
<g>
	<g>
		<path class="st14" d="M60.6,225.4C60.6,225.4,60.6,225.3,60.6,225.4L60.6,225.4c0.3-0.2,1.3-0.2,2-0.2c2,0,3,1,3,2.6
			c0,2.1-1.5,3.3-3.4,3.3c-0.2,0-0.7,0-0.8,0c-0.3,0-0.6,0-0.8,0l0,0c0,0,0-0.1,0.1-0.1l0.4-0.1c0.1,0,0.1,0,0.1-0.2
			c0-0.3,0-2.3,0-2.7c0-0.4,0-2.3,0-2.5c0-0.1,0-0.2-0.1-0.2L60.6,225.4z M62.3,230.9c1.3,0,2.5-0.8,2.5-3.1c0-1.5-0.8-2.5-2.2-2.5
			c-0.4,0-0.4,0.1-0.4,0.2c-0.1,0.7-0.2,5-0.1,5.3C62,230.9,62.1,230.9,62.3,230.9L62.3,230.9z"/>
		<path class="st14" d="M73.6,231.1C73.6,231.1,73.5,231.2,73.6,231.1c-0.2,0.1-0.8,0-2.9,0c-0.3,0-0.7,0-0.9,0l0,0
			c0,0,0-0.1,0.1-0.1l0.4-0.1c0.1,0,0.1-0.1,0.1-0.2c0-0.3,0-2.3,0-2.7c0-0.3,0-2.2,0-2.5c0-0.1,0-0.2-0.1-0.2l-0.4-0.1l-0.1-0.1
			l0,0c0.3,0,0.7,0,0.9,0c2,0,2.6,0,2.8,0c0.1,0,0.1,0,0.1,0.1v1.2l-0.1,0.1l0,0c-0.1-0.3-0.2-0.6-0.3-0.8c0-0.1-0.1-0.1-0.2-0.1
			c-0.6-0.1-1.4-0.1-1.7-0.1c-0.1,0-0.1,0-0.1,0.1c-0.1,0.6-0.1,2.2-0.1,2.5c0.8,0,1.8,0.1,2,0.1l0,0c0,0.1,0,0.2-0.1,0.2
			c-0.3,0-1.1,0.1-1.9,0.1c-0.1,0-0.1,0.1-0.1,0.1c0,0.3-0.1,2.3-0.1,2.5c0,0.1,0,0.1,0.1,0.1c0.4,0,1.4,0,2-0.1
			c0.2,0,0.2-0.1,0.3-0.2c0.2-0.3,0.3-0.4,0.4-0.7l0,0l0.1,0.1L73.6,231.1z"/>
		<path class="st14" d="M80.1,225.2L80.1,225.2C80.1,225.3,80.1,225.3,80.1,225.2l-0.5,0.2c-0.1,0-0.1,0.1-0.1,0.2
			c0,0.5-0.1,2-0.1,2.5c0,0.4-0.1,2.5-0.1,2.7c0,0.1,0.1,0.1,0.1,0.1c0.4,0,1.4,0,2-0.2c0.1,0,0.2-0.1,0.3-0.2l0.4-0.8l0,0l0.1,0.1
			L82,231c0,0.1,0,0.1-0.1,0.1c-0.2,0-0.8-0.1-2.9,0c-0.3,0-0.6,0-0.9,0l0,0c0,0,0-0.1,0.1-0.1l0.4-0.1c0.1,0,0.1,0,0.1-0.2
			c0-0.3,0-2.2,0-2.6c0-0.3,0-2.3,0-2.5c0-0.1,0-0.2-0.1-0.2l-0.4-0.1l-0.1-0.1l0,0L80.1,225.2L80.1,225.2z"/>
		<path class="st14" d="M87.9,225.2L87.9,225.2c0,0.1,0,0.2,0,0.2l-0.4,0.1c-0.1,0-0.1,0.1-0.1,0.1c0,0.6-0.1,2.2-0.1,2.6
			c0,0.4,0,2.5,0,2.6c0,0.1,0,0.1,0.1,0.1l0.4,0.1l0.1,0.1l0,0c-0.2,0-0.5,0-0.9,0s-0.8,0-0.9,0l0,0c0,0,0-0.1,0.1-0.1l0.4-0.1
			c0.1,0,0.1,0,0.1-0.2c0-0.3,0-2.2,0-2.7c0-0.5,0-2.2-0.1-2.5c0-0.1,0-0.2-0.1-0.2l-0.4-0.1l-0.1-0.1l0,0H87.9z"/>
		<path class="st14" d="M102.6,227.9C102.7,227.9,102.7,227.9,102.6,227.9C102.6,228,102.6,228,102.6,227.9l-0.3,0.2
			c-0.1,0-0.1,0.1-0.2,0.3c-0.1,0.5-0.3,1.1-0.6,1.4c0.3,0.3,0.8,0.8,1,1.3c0,0,0,0.1-0.1,0.1c-0.2,0-0.3,0-0.3-0.1
			c-0.3-0.3-0.6-0.6-0.9-0.9c-0.5,0.5-1.1,0.9-2.1,0.9c-0.9,0-1.8-0.4-1.8-1.4c0-0.8,0.6-1.3,1.2-1.5c0.1,0,0.2-0.1,0.3-0.1l0,0
			l-0.1-0.1c-0.4-0.3-0.8-0.8-0.8-1.4c0-0.8,0.8-1.4,1.7-1.4c0.8,0,1.4,0.4,1.4,1.2c0,0.6-0.6,1.1-1.2,1.4c0,0-0.1,0.1-0.2,0.1l0,0
			c0.7,0.6,1.4,1.3,1.8,1.7c0.2-0.3,0.3-0.9,0.3-1.3c0-0.2,0-0.2-0.1-0.2h-0.4l-0.1-0.1l0,0L102.6,227.9z M98.1,229.6
			c0,0.8,0.7,1.3,1.4,1.3s1.3-0.3,1.6-0.8c-0.6-0.5-1.6-1.4-2.1-1.9C98.4,228.5,98.1,229,98.1,229.6L98.1,229.6z M99.4,225.5
			c-0.4,0-0.9,0.3-0.9,1c0,0.5,0.3,0.8,0.8,1.4c0.5-0.3,0.8-0.8,0.8-1.4C100.2,225.8,99.9,225.5,99.4,225.5L99.4,225.5z"/>
		<path class="st14" d="M112,228.5c0-1.1,0.4-2,1-2.5c0.5-0.6,1.4-0.9,2.1-0.9c0.3,0,0.7,0.1,0.9,0.2l0.1,0.1l0.1,1.2
			c0,0.1-0.1,0.1-0.1,0.1l0,0c-0.2-0.3-0.3-0.7-0.4-1c0-0.1-0.1-0.2-0.2-0.2c-0.1-0.1-0.3-0.2-0.5-0.2c-0.5,0-1,0.3-1.4,0.8
			c-0.4,0.5-0.8,1.4-0.8,2.3c0,1.6,0.9,2.4,1.9,2.4c0.3,0,0.5,0,0.6-0.1c0.3-0.1,0.6-0.2,0.8-0.3c0,0,0,0,0,0.1v0.1
			c-0.3,0.2-0.7,0.3-1.1,0.4c-0.2,0-0.4,0.1-0.7,0.1C113.2,231.2,112,230.3,112,228.5L112,228.5z"/>
		<path class="st14" d="M122.8,225.2c0.2,0,0.3,0,0.5,0h0.1c0.3,1.2,1.4,4.2,1.7,5.4c0,0.1,0.1,0.2,0.2,0.2l0.3,0.1l0.1,0.1l0,0
			c-0.2,0-0.5,0-0.8,0c-0.4,0-0.8,0-1.1,0l0,0c0-0.1,0-0.1,0.1-0.1l0.5-0.1c0.1,0,0.1-0.1,0.1-0.2c-0.2-0.4-0.5-1.3-0.6-1.7
			c-0.4,0-1.6,0-2.2,0.1c-0.1,0-0.1,0-0.1,0.1c-0.1,0.3-0.3,1.1-0.4,1.5c0,0.1,0,0.2,0.1,0.2l0.6,0.1l0.1,0.1l0,0c-0.2,0-0.6,0-1,0
			c-0.3,0-0.6,0-0.7,0l0,0c0,0,0-0.1,0.1-0.1l0.3-0.1c0.1,0,0.2-0.1,0.2-0.2c0.5-1.2,1.5-4.1,2-5.3
			C122.5,225.2,122.5,225.2,122.8,225.2L122.8,225.2z M122.5,225.6c0,0.1-0.1,0.3-0.1,0.3c-0.3,0.8-0.7,2-0.8,2.6c0,0.1,0,0.1,0,0.1
			c0.4,0,1.7,0.1,2.1,0.1c-0.2-0.5-0.7-2-1-2.8C122.7,226,122.6,225.8,122.5,225.6L122.5,225.6z"/>
		<path class="st14" d="M133.7,226.5L133.7,226.5L133.7,226.5l-0.4-0.8c0-0.1-0.1-0.2-0.2-0.2c-0.4-0.1-1.1-0.1-1.4-0.1
			c0,0.6-0.1,2.2-0.1,2.6c0,0.6-0.1,2.5-0.1,2.8c0,0.1,0.1,0.1,0.1,0.1l0.6,0.1l0.1,0.1l0,0c-0.2,0-0.6,0-1.1,0c-0.4,0-0.8,0-1,0
			l0,0c0,0,0-0.1,0.1-0.1l0.5-0.1c0.1,0,0.1,0,0.1-0.2c0-0.3,0-2.3,0-2.7c0-0.3,0-2.1,0-2.6c-0.3,0-1,0-1.4,0.1
			c-0.1,0-0.2,0.1-0.2,0.2l-0.3,0.8l0,0c0,0-0.1,0-0.1-0.1l0.1-1.2c0-0.1,0-0.1,0.1-0.1s0.5,0.1,2.4,0.1s2.3,0,2.4,0
			c0.1,0,0.1,0,0.1,0.1L133.7,226.5z"/>
		<path class="st14" d="M141.4,231.1C141.4,231.1,141.4,231.2,141.4,231.1c-0.2,0.1-0.8,0-2.9,0c-0.3,0-0.7,0-0.9,0l0,0
			c0,0,0-0.1,0.1-0.1l0.4-0.1c0.1,0,0.1-0.1,0.1-0.2c0-0.3,0-2.3,0-2.7c0-0.3,0-2.2,0-2.5c0-0.1,0-0.2-0.1-0.2l-0.4-0.1l-0.1-0.1
			l0,0c0.3,0,0.7,0,0.9,0c2,0,2.6,0,2.8,0c0.1,0,0.1,0,0.1,0.1v1.2l-0.1,0.1l0,0c-0.1-0.3-0.2-0.6-0.3-0.8c0-0.1-0.1-0.1-0.2-0.1
			c-0.6-0.1-1.4-0.1-1.7-0.1c-0.1,0-0.1,0-0.1,0.1c-0.1,0.6-0.1,2.2-0.1,2.5c0.8,0,1.8,0.1,2,0.1l0,0c0,0.1,0,0.2-0.1,0.2
			c-0.3,0-1.1,0.1-1.9,0.1c-0.1,0-0.1,0.1-0.1,0.1c0,0.3-0.1,2.3-0.1,2.5c0,0.1,0,0.1,0.1,0.1c0.4,0,1.4,0,2-0.1
			c0.2,0,0.2-0.1,0.3-0.2c0.2-0.3,0.3-0.4,0.4-0.7l0,0l0.1,0.1L141.4,231.1z"/>
		<path class="st14" d="M149.9,226.7c0,0.8-0.8,1.4-1.3,1.6c0.4,0.6,1.1,1.7,1.4,2.5c0,0.1,0.1,0.1,0.2,0.1l0.4,0.1l0.1,0.1l0,0
			c-0.2,0-0.4,0-0.8,0c-0.3,0-0.6,0-1,0l0,0c0,0,0-0.1,0.1-0.1l0.4-0.1c0.1,0,0.2-0.1,0.1-0.1c-0.4-0.6-1.1-1.6-1.6-2.2l-0.1-0.1
			c-0.2,0-0.5,0-0.8,0c0,0.3-0.1,1.9-0.1,2.2c0,0.1,0,0.1,0.1,0.2l0.5,0.1l0.1,0.1l0,0c-0.3,0-0.7,0-1,0s-0.7,0-0.9,0l0,0
			c0-0.1,0-0.1,0.1-0.1l0.4-0.1c0.1,0,0.1-0.1,0.1-0.2c0-0.3,0-2.2,0-2.6c0-0.3,0-2.2,0-2.5c0-0.1,0-0.2-0.1-0.2h-0.4l-0.1-0.1l0,0
			c0.3,0,1.2-0.1,2-0.1C149.2,225.2,149.9,225.8,149.9,226.7L149.9,226.7z M147.4,228.3c0.8,0,1.6-0.6,1.6-1.6
			c0-0.8-0.6-1.4-1.5-1.4c-0.3,0-0.4,0-0.4,0.2c-0.1,0.7-0.1,2.5-0.1,2.7C147,228.3,147.1,228.3,147.4,228.3L147.4,228.3z"/>
		<path class="st14" d="M156.3,225.2L156.3,225.2c0,0.1,0,0.2,0,0.2l-0.4,0.1c-0.1,0-0.1,0.1-0.1,0.1c0,0.6-0.1,2.2-0.1,2.6
			c0,0.4,0,2.5,0,2.6c0,0.1,0,0.1,0.1,0.1l0.4,0.1l0.1,0.1l0,0c-0.2,0-0.5,0-0.9,0c-0.4,0-0.8,0-0.9,0l0,0c0,0,0-0.1,0.1-0.1
			l0.4-0.1c0.1,0,0.1,0,0.1-0.2c0-0.3,0-2.2,0-2.7c0-0.5,0-2.2-0.1-2.5c0-0.1,0-0.2-0.1-0.2l-0.4-0.1l-0.1-0.1l0,0H156.3z"/>
		<path class="st14" d="M161.7,225.2C161.8,225.2,161.8,225.2,161.7,225.2c0.5,0.8,2.3,3.7,2.9,4.8c0.1,0.1,0.1,0.3,0.2,0.3l0,0
			c0-0.2,0-0.3,0-0.4c0-0.8,0-3.9-0.1-4.3c0-0.1-0.1-0.2-0.2-0.2l-0.5-0.1l-0.1-0.1l0,0h1.6l0,0c0,0,0,0.1-0.1,0.1l-0.3,0.1
			c-0.1,0-0.2,0.1-0.2,0.3c0,0.3-0.1,1.8-0.1,2.5c0,0.4-0.1,2.6-0.1,3v0.1c-0.1,0-0.3,0.1-0.3,0.1c-0.1,0-0.1,0-0.2-0.1
			c-0.6-0.9-2.2-3.5-3-4.7c-0.1-0.1-0.1-0.2-0.2-0.3h-0.1c0,0.2,0,0.3,0,0.3c0,0.8-0.1,3.9-0.1,4.2c0,0.1,0,0.1,0.1,0.1l0.6,0.1
			l0.1,0.1l0,0c-0.2,0-0.5,0-0.8,0c-0.3,0-0.6,0-0.8,0l0,0c0,0,0-0.1,0.1-0.1l0.4-0.1c0.1,0,0.1,0,0.1-0.2c0-0.3,0-2.2,0-2.6
			c0-0.4-0.1-2.3-0.1-2.5c0-0.1,0-0.2-0.2-0.2l-0.4-0.1l-0.1-0.1l0,0h1.7L161.7,225.2L161.7,225.2z"/>
		<path class="st14" d="M174.7,228.5L174.7,228.5c0,0.1,0,0.1,0,0.2l-0.4,0.1c-0.1,0-0.1,0.1-0.1,0.1c-0.1,0.4-0.1,1.4-0.1,2
			c0,0,0,0.1-0.1,0.1c-0.3,0.1-0.8,0.2-1.4,0.2c-1.6,0-2.9-0.8-2.9-2.6c0-1.1,0.5-2,1.1-2.5c0.7-0.6,1.4-0.8,2.2-0.8
			c0.4,0,0.8,0.1,0.9,0.2c0.1,0,0.1,0.1,0.1,0.1l0.1,1.1l-0.1,0.1l0,0c-0.2-0.3-0.3-0.6-0.4-0.9c0-0.1-0.1-0.1-0.1-0.2
			c-0.1-0.1-0.3-0.2-0.6-0.2c-0.5,0-1,0.3-1.5,0.8c-0.4,0.5-0.8,1.3-0.8,2.4c0,1.7,1,2.5,2.2,2.5c0.2,0,0.4,0,0.6-0.1l0.1-0.1
			c0-0.6,0-1.5-0.1-1.9c0-0.1,0-0.2-0.1-0.2l-0.7-0.1l-0.1-0.1l0,0L174.7,228.5L174.7,228.5z"/>
	</g>
	<g>
		<path class="st15" d="M85.1,210.4L85.1,210.4l0.4-0.1c0.3-0.3,0.3-0.3,1.2-0.5l2-0.3l0.6,0.1l0.7-0.2l1.3-0.2
			c0.3-0.1,0.7-0.3,0.7-0.6v-0.1l-0.2-0.7l0.1-1c-0.1-0.4-0.3-0.6-0.8-0.7l-0.3-0.3c-0.5-0.8-0.6-0.8-1.4-1l-0.8-0.2h-0.8l-0.4,0.1
			c-0.3-0.1-0.3-0.2-0.3-0.4l-0.4,0.2l-0.5,0.4l-1.5,0.8c-0.3,0.2-0.5,0.3-0.6,0.5l-0.3,0.3c-0.1,0.2-0.3,0.3-0.4,0.3l-0.3-0.1
			l-0.4-0.3l-0.5-0.1c-0.3-0.1-0.7-0.4-0.7-0.6v-0.1l0.3-0.2l0.5-0.3l0.5-0.1l0.8-0.4l1-0.3l0.3-0.1l0.7-0.3l0.5,0.1l1.9-0.4h0.8
			h0.6l0.6,0.3l1.9,0.3l0.3,0.2v0.3l-0.3,0.2c0.1,0.3,0.2,0.5,0.3,0.5H92l0.4-0.2h0.1c0.1,0,0.2,0.1,0.2,0.2l0.3,0.6l0.3,0.3v0.3
			l-0.1,0.8c0,0.3,0.2,0.6,0.5,0.8l0.2,2.3l-0.4,0.6l0.5,0.6v0.2l-0.1,1.4l0.2,1.1v0.3v0.3l-0.3,0.1c0,0.6,0,0.6,0.3,1.3l0.3,0.5
			l-0.2,0.3l-0.3,0.3l-0.4,0.2l-0.6,0.3l-0.6,0.2c-0.3,0.1-0.6,0.3-0.7,0.3c-0.2,0-0.3-0.2-0.3-0.3c0-0.1,0.1-0.3,0.2-0.7
			c0.1-0.1,0.1-0.3,0.1-0.5l-0.3,0.2l-1.4,0.5c-0.3,0.1-0.6,0.2-0.8,0.2l0,0h-0.6l-0.8,0.3l-0.5,0.1l-1.4,0.3l-0.6-0.1l-0.4,0.2
			l-0.3,0.1H84l-1-0.3l-0.7-0.1c-0.9-0.2-1.7-0.7-2-1.4l-0.4-0.2l-0.1-0.3v-0.3l-0.3-0.8l0.6-1.1l0.2-0.5c0.1-0.3,0.1-0.2,0.6-0.6
			l1.2-1l0.5-0.2l0.8-0.3c0,0,0.1,0,0.2,0C84.2,210.6,84.5,210.3,85.1,210.4z M82.4,213.8l0.3,1.4l-0.3,0.8l0.3,0.3l0.4-0.5
			c0.5,0.4,0.6,0.5,1.5,0.7l0.3,0.4l1.1,0.1l0.3-0.3l0.3,0.2l0.3-0.1l0.2-0.1c0.2,0.1,0.4,0.1,0.4,0.1c0.3,0,0.8-0.2,1.2-0.4
			c0.1,0,0.2-0.1,0.3-0.2c1,0,1.4-0.2,1.9-0.6l0.3-0.4l0.8-0.6v-0.2v-0.2c0.3-0.1,0.3-0.2,0.3-0.6c-0.2-0.2-0.3-0.3-0.3-0.3l0.1-0.6
			l-0.1-1.4l0.2-0.4l-0.5-0.3l-0.3,0.1l-1.4-0.1h-0.7l-0.5-0.3l-0.3,0.2h-0.8l-0.6,0.3l-0.3-0.2l-0.4,0.3L84,212l-0.5,0.3l-0.4,0.6
			l-0.5,0.3c-0.1,0.1-0.1,0.2-0.1,0.3c0,0,0,0,0,0.1l0.2,0.2L82.4,213.8z"/>
		<path class="st15" d="M100.4,203.3c0.6,0.5,0.6,0.6,0.6,1.1v0.6v0.6l0.6-0.1l0.6-0.6l0.4-0.2l0.6-0.5l1.7-0.6l0.3-0.1l0.3-0.1
			c0.3,0.3,0.3,0.3,0.3,0.7l0.3,0.1l0.3-0.1v-0.4c0.3-0.2,0.4-0.3,0.6-0.3c0,0,0.1,0,0.3,0.1l0.1-0.1c0.2,0,0.3,0,0.3,0
			c0.6,0,1.1,0.5,1.3,1.4c0.1,0.3,0.1,0.4,0.3,0.5l0.3-0.3l0.5-0.5l0.6-0.3l0.8-0.5l0.3-0.1l0,0h0.7l0.6-0.2h0.9l0.5-0.1l0.5,0.3
			l0.6,0.2c0.6,0.2,0.9,0.5,0.8,1c-0.2,0.1-0.3,0.3-0.3,0.3c0,0.1,0.1,0.2,0.3,0.2c0.1,0,0.1,0,0.3-0.1l0.1,0.3l0.1,0.8l0.2,0.3v0.3
			l-0.1,1v0.8v0.3l-0.2,0.3c-0.1,0.2-0.2,0.3-0.2,0.3l0.2,1.7l0.1,0.5l0,0v1l0,0l0.1,0.5c0,0.1-0.2,0.2-0.3,0.3v0.5l0.3-0.1l0.1,0.3
			v1.1l0.3,0.7l-0.4,0.3l-0.8,0.4l-0.8,0.6c-0.1,0-0.2,0-0.3,0c-0.1,0-0.3,0-0.4-0.1l-0.1-0.8l0.1-0.4l0.3-0.8l-0.2-1.5l0.2-0.8
			v-0.8l0.3-0.8v-0.1c0-0.2-0.1-0.3-0.3-0.4v-0.3l-0.1-1.6c0-0.1,0-0.2,0-0.3l0.3-1.1l-0.4-0.6l-0.3-1.4l-0.2-0.3l-0.3-0.1l-0.7-0.4
			c-0.2-0.1-0.3-0.1-0.7-0.1c-0.9,0-1.6,0.1-2.5,0.5c-0.8,0.3-1.1,0.7-1.1,0.9v1.1l-0.4,0.3v0.1c0,0.2,0.2,0.3,0.4,0.5l0.1,3.6
			c-0.1,0.1-0.3,0.1-0.3,0.1c-0.1,0-0.1,0-0.3-0.1v0.3l0.4,0.8l-0.1,0.5l0.1,0.3c0.2,0.5,0.3,1.7,0.3,2.3c0,0,0,0.1-0.1,0.1
			l-0.3,0.1l-0.6,0.4l-0.9,0.3l-0.3,0.1c-0.1,0-0.3-0.1-0.3-0.3v-0.2l0.1-1.6l-0.1-1.4c0-0.4,0.1-0.5,0.4-0.8v-0.3l-0.3-0.5
			l-0.1-0.3l-0.3-0.4l0.1-0.4v-1.3l0.5-0.6c0-0.1,0-0.2,0-0.2c0-0.3-0.1-0.4-0.3-0.4c-0.1,0-0.2,0-0.2,0l-0.2-0.3V208v-0.6
			c0-1.5-0.3-2.3-1-2.3c-0.2,0-0.3,0-0.5,0.1l-0.3-0.5l-0.3,0.1l-0.3,0.3l-0.8,0.1l-0.8,0.3l-0.6,0.1l-0.3,0.2l-0.2,0.3
			c-0.5,1.2-0.7,1.6-0.7,2.4v0.3l0.1,2.1v0.3l-0.4,0.2l0.1,0.3l0.3,0.5v1.6l0.3,2.8c0,0.2-0.1,0.3-0.4,0.4l-1,0.5
			c-0.1,0.1-0.3,0.1-0.4,0.1c-0.1,0-0.3,0-0.5-0.1v-0.3v-0.1v-1.5l-0.1-0.6l0.3-0.4l0.1-0.4l-0.3-0.3v-0.3v-0.3l0.1-0.3l0.3-0.4
			l0.1-0.3V212c-0.4,0-0.5-0.1-0.5-1.8v-0.8v-0.3h0.3v-0.7l-0.1-0.5l-0.3-0.6l-0.1-1.2l-0.1-0.6l-0.1-0.4l-0.1,0.2l-0.3-0.3
			C98.5,204.2,99,203.9,100.4,203.3z"/>
		<path class="st15" d="M139.3,211.8c0-0.8,0.2-1.6,0.7-2.8c0.5-1.1,0.7-1.4,0.8-1.5l0.6-0.4l0.3-0.6c0.1-0.3,0.3-0.3,0.4-0.4
			l1.4-0.8l0.8-0.7l1-0.3l1.7-0.6l1.4-0.1h1.1c0.8,0,0.9,0.1,0.9,0.5c0.2,0.1,0.3,0.3,0.3,0.3c0.2,0,0.3-0.2,0.5-0.4l0.3,0.1l1,0.3
			l0.4,0.3l0.6,0.3l0.6,0.8c0.2,0.3,0.4,0.3,0.9,0.3c0.7,0.8,0.8,1.4,0.9,3.1l0.1,0.5l-0.3-0.1l0.1,0.3l-0.3,0.3
			c0.1,0.3,0.1,0.3,0.4,0.5v0.3c0,1.1-0.5,2.4-1.3,3.7c-0.5,0.7-0.9,1.1-1.3,1.5l-0.5,0.1l-2.9,1.4l-1.6,0.1l-1.2,0.3h-1.4l-0.5,0.1
			l-1.4-0.3h-0.6l-0.3-0.3l-0.8-0.1l-0.4-0.3c-1.1-0.8-1.4-1-1.4-1.2l-0.3-0.7l-0.5-0.3l-0.3-0.9l-0.2-0.4l0.2-0.1
			c0-0.3,0.1-0.3,0.3-0.4l-0.1-0.3l-0.5-0.3L139.3,211.8L139.3,211.8z M141.3,212.1c0,0,0,0.1,0.1,0.2c0.1-0.1,0.2-0.2,0.3-0.2
			s0.2,0,0.2,0.1l0.3,1.1l0.8,1.3l-0.1,0.8c0.1,0.1,0.2,0.1,0.3,0.1c0.1,0,0.3,0,0.3-0.2l0.3,0.1l1.9,1.1l1.9,0.2l1.1,0.2l1.2-0.3
			l0.8-0.2l1-1l0.8-0.3l0.3-0.3l0.8-1.7l0.4-0.3c0.1-0.2,0.3-0.3,0.3-0.3c0,0,0,0,0-0.1l-0.3-0.8l0.3-1.8l-0.6-1.8l-0.1-0.8
			l-0.2-0.3h-0.1c-0.2,0-0.3,0-0.3-0.3l-0.8-0.9l-0.3-0.3l-1.3-0.6c-0.3-0.5-0.3-0.6-0.6-0.6c-0.2,0-0.3,0-0.6,0.2
			c-0.3-0.1-0.5-0.2-0.6-0.2l-0.4,0.1h-0.8l-1,0.3l-0.3-0.3l-0.2,0.3l-1,0.6l-2,1.7l-0.3,0.3c-0.1,0.7-0.3,1-0.7,1.8l-0.3,0.3v0.1
			c0,0.4-0.1,0.5-0.5,0.6c0,0.1-0.1,0.2-0.1,0.3v0.1l0.5,0.5l0.1,0.3C141.5,211.9,141.3,212,141.3,212.1z"/>
		<path class="st15" d="M158.5,211.8c0-0.8,0.2-1.6,0.7-2.8c0.5-1.1,0.7-1.4,0.8-1.5l0.6-0.4l0.3-0.6c0.1-0.3,0.3-0.3,0.4-0.4
			l1.4-0.8l0.8-0.7l1-0.3l1.7-0.6l1.4-0.1h1.1c0.8,0,0.9,0.1,0.9,0.5c0.2,0.1,0.3,0.3,0.3,0.3c0.1,0,0.3-0.2,0.5-0.4l0.4,0.1l1,0.3
			l0.4,0.3l0.6,0.3l0.6,0.8c0.2,0.3,0.4,0.3,0.9,0.3c0.7,0.8,0.8,1.4,0.9,3.1l0.1,0.5l-0.3-0.1l0.1,0.3l-0.3,0.3
			c0.1,0.3,0.1,0.3,0.4,0.5v0.3c0,1.1-0.5,2.4-1.3,3.7c-0.5,0.7-0.9,1.1-1.3,1.5l-0.5,0.1l-2.9,1.4l-1.6,0.1l-1.2,0.3h-1.4l-0.5,0.1
			l-1.4-0.3H163l-0.3-0.3l-0.8-0.1l-0.4-0.3c-1.1-0.8-1.4-1-1.4-1.2l-0.3-0.7l-0.5-0.3l-0.3-0.9l-0.1-0.4l0.2-0.1
			c0-0.3,0.1-0.3,0.3-0.4l-0.1-0.3l-0.5-0.3L158.5,211.8L158.5,211.8L158.5,211.8z M160.5,212.1c0,0,0,0.1,0.1,0.2
			c0.1-0.1,0.2-0.2,0.3-0.2s0.2,0,0.2,0.1l0.3,1.1l0.8,1.3l-0.1,0.8c0.1,0.1,0.2,0.1,0.3,0.1c0.1,0,0.3,0,0.3-0.2l0.3,0.1l1.9,1.1
			l1.9,0.2l1.1,0.2l1.2-0.3l0.8-0.2l1-1l0.8-0.3l0.3-0.3l0.8-1.7l0.4-0.3c0.1-0.2,0.3-0.3,0.3-0.3c0,0,0,0,0-0.1l-0.3-0.8l0.3-1.8
			l-0.6-1.8l-0.1-0.8l-0.2-0.3h-0.1c-0.2,0-0.3,0-0.3-0.3l-0.8-0.7l-0.3-0.3l-1.3-0.6c-0.3-0.5-0.3-0.6-0.6-0.6
			c-0.2,0-0.3,0-0.6,0.2c-0.3-0.1-0.5-0.2-0.6-0.2l-0.4,0.1h-0.8l-1,0.3l-0.3-0.3l-0.2,0.3l-1,0.6l-2,1.7l-0.3,0.3
			c-0.1,0.7-0.3,1-0.7,1.8l-0.3,0.3v0.1c0,0.4-0.1,0.5-0.5,0.6c0,0.1-0.1,0.2-0.1,0.3v0.1l0.5,0.5l0.1,0.3
			C160.7,211.9,160.5,212,160.5,212.1z"/>
		<g>
			<path class="st15" d="M120.1,182.2c-0.3-0.4-0.7-0.8-1-1.2c-0.1-0.3-0.6-0.2-0.6-0.4c-0.3,0-0.4-0.2-0.5-0.3l0.1-0.1
				c0.1-0.3,0.2-0.8-0.1-1.1c-0.2-0.1-0.5,0-0.7,0.1c-0.1-0.1-0.2-0.1-0.3-0.1l-0.4,0.1c-0.1,0.2-0.2,0.3-0.2,0.6
				c-0.5,0.2-1,0.3-1.5,0.3c-0.2,0.3-0.5,0.3-0.6,0.5c-0.3,0.2-0.7,0.4-0.8,0.7c-0.6,0.3-1,0.8-1.6,1c-0.2,0.4-0.8,0.4-0.8,0.9h-0.1
				c-0.5,0.3-0.6,0.8-1.1,1.3l-2.2,2.6l-0.8,1l-2.5,3.1l-2.6,3.3l-1.6,2.2c-0.1,0.3-0.3,0.5-0.5,0.8c0.5-0.1,0.7-0.7,1-0.9l2.5-2.4
				c0.8-0.3,1.5-1.1,2.3-1.6v-0.1c0.9-0.8,1.8-1.7,2.7-2.4c0.4-0.7,1.2-0.9,1.6-1.5c0.3,0,0.5-0.2,0.8-0.3c0.1-0.3,0.6-0.3,0.7-0.6
				c0.3-0.1,0.6-0.5,0.8-0.6V187c0.1-0.1,0.1-0.2,0.2-0.1v-0.1c0.1,0,0.2,0,0.2,0.1v-0.1c0.1-0.1,0.1-0.1,0.2-0.1
				c-0.1-0.2,0.1-0.3,0.3-0.4c0.1,0,0.1,0,0.2,0.1v-0.1c0.4,0,0.3-0.7,0.8-0.4c0.1-0.1,0.4-0.4,0.5-0.5c0.1,0,0.1,0,0.2,0.1v-0.1
				h0.1c0.1-0.1,0.3-0.2,0.4-0.3c0.2,0.1,0.2-0.2,0.3-0.2h0.1l-0.7,4.5l-0.3,2.4l-0.6,3.7c-0.3,2.1-0.2,4.2-0.4,6.3
				c0.3-0.6,0.4-1.4,0.4-2c0.3-0.3,0.2-0.8,0.3-1c-0.1-0.2,0.2-0.3,0.2-0.5c-0.2-0.4,0.5-0.6,0.4-1c0.3-0.3,0.1-0.7,0.4-0.9
				c0.1-0.3,0.1-0.8,0.3-1.1v-0.1c0.1-0.2,0.3-0.5,0.2-0.8c0.1-0.2,0.3-0.3,0.2-0.4l0.1-0.1c0-0.1,0.1-0.2,0-0.3
				c0.3-0.1,0-0.4,0.3-0.5c0.1-0.3-0.1-0.8,0.3-0.9c0.2-0.1,0.3-0.3,0.2-0.4c0.1-0.1,0.3-0.2,0.2-0.3l0.2-0.1c0-0.1,0.2-0.2,0.1-0.3
				l0.3-0.3l0.1,0.1c0.1-0.1,0-0.2,0-0.3c0.1-0.3,0.4-0.8,0.6-1.2c0.2-0.2-0.1-0.4,0.2-0.4l-0.1-0.2h0.1l-0.1-0.1
				c0.3-0.1,0-0.3,0.3-0.4l-0.1-0.1c0.1-0.2,0.2-0.6,0.4-0.8c-0.1-0.3,0.3-0.4,0.2-0.7c0.1-0.3,0.2-0.3,0.3-0.7c0-0.5,0.4-1,0.4-1.7
				c0.2-0.3,0.2-1.1,0.3-1.3v-0.1l0.1-0.1C120,182.4,120.1,182.3,120.1,182.2z"/>
			<path class="st15" d="M143,190.4L143,190.4L143,190.4c-0.8-3.9-3.2-7.5-5.9-10.3c-0.6-0.3-0.8-1.1-1.4-1.4
				c-0.2-0.3-0.4-0.5-0.7-0.5c-0.1-0.3-0.4-0.6-0.6-0.6c0.1-0.3-0.3-0.2-0.2-0.4h-0.1c-0.3-0.2-0.5-0.5-0.8-0.4
				c-0.3-0.3-0.8-0.4-1.3-0.3c-0.3-0.3-0.7-0.1-1,0c-0.4,0.6-1.3,0.7-2,1l-0.3-0.2c0-0.4-0.5-0.7-0.5-1.2c-0.3-0.1-0.2-0.5-0.5-0.4
				l-0.1-0.1c-0.3-0.2-0.4-0.2-0.7,0c-0.5,0.5-0.5,1.2-0.6,1.8c-0.3,0.1,0,0.3-0.2,0.4c-0.2,0.3-0.2,0.5-0.5,0.8l0.1,0.1
				c-0.3,0.3-0.4,0.8-0.3,1.2c-0.2,0.8,0.3,1.6,0.3,2.3c0,0.3,0.3,0.6,0.2,0.8c0.3,0.7,0.4,1.3,0.5,1.9c0.7,1.5,0.2,3.1,0.3,4.8
				c0,0.7,0,1.4,0.2,2h-0.1c0.1,0.6-0.1,1.3,0,1.9h-0.1l0.1,0.2c-0.1-0.3,0.3-0.4,0.2-0.6l0.2-0.1c0.3,0.3-0.1,0.7-0.1,1
				c0.3-0.8,0.6-1.4,0.8-2.3c-0.1-0.2,0.1-0.4,0.2-0.5c0.1-0.3,0.1-0.5,0.2-0.8l0.6-3.7c0.2-1.3,0.3-2.6,0.4-3.9
				c0.3-1.1,0-2,0.1-3.1c-0.2-0.6-0.2-1.4-0.2-1.9c0.3-0.3,0.7-0.3,1.1-0.5c0.9-0.3,1.4,0.4,1.9,1c0.3,0.6,0.4,1.2,0.8,1.7
				c0.1,0.8,0.8,1,1.4,1.4c0.2,0.1,0.2,0.4,0.4,0.3c0.2,0.1,0.2,0.3,0.4,0.3c0.1,0.1,0.1,0.3,0.3,0.3c0.5,0.1,0.7,0.7,1.2,0.8
				c0.3,0.3,0.5,0.4,0.8,0.8h0.1c0.6,0.5,1,1.1,1.6,1.6c0.6,0.7,1.3,1.3,1.8,2c0.8,0.5,1.2,1.5,1.8,2.3l-0.3-0.7h0.1
				C142.7,189.5,143,190,143,190.4z"/>
			<path class="st15" d="M143.2,190.5L143.2,190.5C143.2,190.5,143.2,190.5,143.2,190.5L143.2,190.5z"/>
			<path class="st15" d="M136.9,208.6l-0.3-1.1l-0.1-0.3l-0.5-0.5l-0.3-0.7l-0.5-0.4l-0.3-0.3c0-0.1-0.1-0.1-0.2-0.1
				s-0.3,0.1-0.3,0.3l-0.5-0.1c-0.2-0.8-0.4-1-1.4-1.2c-0.5-0.1-0.8-0.2-1.9-0.2c-0.1-0.2-0.3-0.3-0.3-0.3h-0.8h-0.3l-0.1,0.3
				c-0.2,0.1-0.3,0.1-0.5,0.1s-0.3-0.1-0.5-0.3l-1.4,0.5c-0.4,0.2-0.8,0.3-1.1,0.3c-0.1,0-0.3,0-0.4-0.1c-0.3,0.3-0.5,0.5-0.8,0.5
				c-0.1,0-0.2,0-0.3-0.1v1.3c0-0.2-0.1-0.3-0.2-0.4c-0.5-1.3-0.6-1.5-0.3-1.7c0.1-0.1,0.3-0.1,0.5-0.2l-0.1-0.5v-1.2l-0.6-0.7
				c-0.2-0.3,0-0.5,0.6-0.8c-0.1-0.3-0.2-0.7-0.3-0.8l-0.5-0.4l0.3-0.4l0.3-0.6v-1.1l0.1-1.4l-0.2-1.4l0.1-1.1
				c-0.2-0.1-0.3-0.2-0.4-0.3c-0.2-0.2-0.2-0.3,0.3-1.3l0.1-1.3l-0.1-2.3c-0.4-0.9-0.5-0.9,0.1-1.4l-0.1-0.7v-0.8l0.3-3.8l-0.4-0.7
				l0.3-0.6v-2.1l0.1-1.4c0.7-0.4,1.3-0.7,1.8-1.3c0.5-0.3,1.2-0.6,1.3-1.3c-0.1-0.2-0.1-0.3-0.3-0.3c-0.7-0.1-1.4-0.5-2-0.3
				c-0.3-0.2-0.7,0-1-0.1v-0.2l0.5-0.3l0.3-2.3l-0.1-1.1l0.3-0.8c-0.7-0.3-1-0.3-1.6,0.2c-0.7,0.4-1.1,0.8-1.8,1.6
				c0.2,0.6,0.2,0.8-0.2,1.3l0.2,0.5l0.2,1.3v0.1c-0.8,0.1-1.8,0.2-2.6,0.1l-3,0.3c-2.7,0.4-5.5,1-8.2,2v0.1c0.9-0.2,2,0.1,2.9-0.1
				c0.3-0.1,0.6-0.2,0.8,0h0.1l0.1,0.2l0.3-0.1c0.3,0.3,0.8,0,1,0.3c0.3,0.2,0.5-0.2,0.7,0.2c1-0.1,2.1,0.3,3.1,0.3l0.1,0.1
				c0.8,0.1,1.7-0.2,2.4-0.3c0.8,0.1,1.6,0.2,2.4,0.2v0.7l0.3,1.5l-0.2,2.7c0.1,0.4,0.2,0.6,0.5,0.9l-0.6,0.8v4
				c0.3,0.2,0.4,0.3,0.5,0.3c0.3,0.3,0.2,0.7-0.4,1v0.6l0.4,0.3l-0.1,0.4l-0.3,0.6c-0.1,0-0.2,0-0.3,0l-0.1,0.8l0.3,2l-0.1,1.9v0.7
				c0,0.3,0.1,0.3,0.2,0.5h0.3c0.3,0.6,0.3,0.9,0.1,1.1c-0.1,0.1-0.3,0.1-0.6,0.2l0.1,0.8l0.4,0.4c-0.5,0.8-0.8,1.1-0.7,1.4l0.3,1.5
				l-0.3,4.7l0.3,1.4v7.7l0.4,2.5l-0.1,2l-0.1,1.5l0.7,0.5l0.7-0.1l0.8-0.7c1.5-1,1.9-1.6,1.6-2.7c-0.3-0.1-0.6-0.2-0.7-0.3
				c-0.1-0.1-0.2-0.2-0.2-0.4h0.4c0.2-0.3,0.1-0.3-0.1-0.6c0,0,0,0-0.1-0.1l1.1,0.3h0.7l0.9,0.3l0,0l1.4-0.3l1.2-0.3l1.4-0.5
				l0.8-0.3l1.6-1.5l0.8-0.5l0.6-0.8l0.3-0.4l0.1-0.3l0.1-0.2c-0.1-0.3-0.1-0.5-0.1-0.6c0-0.3,0.1-0.3,0.3-0.6l0.3,0.1
				c0.6-0.8,0.8-1.4,0.8-2c0-0.2,0-0.3-0.1-0.5L136.9,208.6z M134.4,211.5l-0.2,1l-0.3,0.8l-0.6,1.1l-0.5,0.5l-0.7,0.8
				c-0.3,0.4-1,0.8-1.9,0.8l-1.1,0.3l-1.4-0.1h-0.3l-0.3,0.2v-0.2l-0.4-0.1l-0.6-0.3h-0.5l-0.5-0.3l0,0l-0.3-0.9l-0.1-2l-0.3-1.3
				l-0.1-0.7l-0.5-0.9v-0.8l0.3-0.1l-0.1-0.7v-2c0-0.1,0-0.2,0-0.3l0.8-0.4l1.4-0.8c0.2-0.1,0.5-0.2,0.8-0.2l1.2,0.3l2.1,0.2
				l0.8,0.4l1.3,0.7c0.4,0.3,0.7,0.5,0.8,0.7l0.3,0.6l0.6,0.4c0.1,0,0.2,0.2,0.2,0.3v0.5l0.3,2L134.4,211.5z"/>
		</g>
		<g>
			<path class="st15" d="M45.4,210.2L45.4,210.2L45.4,210.2L45.4,210.2z"/>
			<path class="st15" d="M57.2,210.9L57.2,210.9L57.2,210.9z"/>
			<path class="st15" d="M58.2,205.5L58.2,205.5L58.2,205.5L58.2,205.5z"/>
			<path class="st15" d="M45.3,211L45.3,211L45.3,211L45.3,211z"/>
			<path class="st15" d="M56.6,211.5L56.6,211.5C56.6,211.5,56.6,211.5,56.6,211.5z"/>
			<path class="st15" d="M46.3,209.2C46.2,209.3,46.3,209.3,46.3,209.2L46.3,209.2z"/>
			<path class="st15" d="M57.5,210c0.1-0.4,0.3-0.7,0.4-1.1l0.2,0.2l-0.1,0.1c0.1,0,0.1,0.3,0.1,0.1l0.2-0.6h-0.1
				c-0.1-0.1-0.2-0.3-0.1-0.3c0.3-0.4-0.3-0.9,0.2-1.1c-0.1,0-0.1,0-0.2-0.1l0.2-0.2c0-0.1,0-0.1-0.1-0.2l0.1-0.1l-0.1-0.1
				c0-0.3,0-0.7,0-1l-0.1-0.1l0.1-0.1l-0.1-0.1c0.3-0.2-0.1-0.3,0.2-0.6c-0.3-0.3-0.1-0.4-0.2-0.8c0.2-0.2-0.1-0.3,0-0.5l-0.1-0.1
				l0.2-0.2c0,0.1,0.2,0.1,0.2,0.3c0-0.1-0.1-0.3,0.1-0.3l-0.1-0.1l0.1-0.1c-0.4-0.3,0-0.8-0.3-1.2c0.3-0.3-0.2-0.4,0-0.7
				c-0.3-0.4,0-0.8-0.3-1.2c0.1-0.1,0.3-0.2,0.1-0.3c0.1-0.8-0.2-1.5-0.3-2.3c0.3-1.4-1.5-1.4-2.2-2.3c-0.1-0.3-0.6-0.1-0.7-0.5
				c-0.3-0.1-0.5-0.3-0.7-0.6c-0.3-0.2-0.6-0.7-0.6-1c-0.3-0.5-0.8-0.9-1.1-1.5c0.3-0.7,0.6-1.3,0.8-2c0.2-0.3,0.1-0.7,0.1-0.9
				l0.1-0.1l-0.2-0.3c-0.8,0.3-1.7,0.4-2.5,0.7c-0.2,0-0.3,0.3-0.4,0.2c-2.6,1.3-5.2,3-7.6,4.8l-6,4.8c-0.5,0.3-1,0.5-1.4,0.9
				c0.8-0.4,1.9-0.8,2.8-1.3c0.7-0.5,1.5-0.8,2.3-1.4c0.5,0,0.6-0.5,1.1-0.4c0.9-0.5,1.9-0.8,2.9-1.1c0.7-0.3,1.4-0.3,2-0.8l0.1,0.1
				c0.1,0,0.2,0,0.3-0.1c0,0,0.1,0.1,0.2,0.1c0-0.1,0-0.1,0.1-0.2l0.1,0.1l0.1-0.1c0.1-0.1,0.3-0.3,0.3-0.1c1-0.6,2-1.1,3.1-1.5
				c-0.2,1.1-1,2.1-1.2,3.3h-0.1c-0.2,1.1-0.7,2.1-0.9,3.2c-0.1,0.3-0.3,0.5-0.3,0.8c-0.3,1-0.4,2-0.8,3l-1.1,3.5
				c-0.3,0.8-0.5,1.7-0.7,2.5c-0.3,0.2-0.2,0.6-0.2,0.8c0.1-0.3,0.3-0.7,0.4-1.1c0.2,0.3,0,0.7-0.2,1h0.1c0.2-0.2,0.3-0.4,0.3-0.6
				l0.3-0.3c0.1,0,0.1,0.1,0.1,0.1l0,0h0.1l-0.1-0.1l0.2-0.2l-0.1-0.1c0.3-0.1,0.1-0.5,0.5-0.5c0.4-0.1,0.3-0.7,0.7-0.8
				c0-0.4,0.4-0.4,0.7-0.7c0,0,0.1,0.1,0.1,0.2l0.3-0.6l0.1,0.1c0.3-0.3,0.3-0.6,0.5-0.8c0.3-0.1,0.1-0.6,0.5-0.6
				c0.1-0.5,0.3-1,0.6-1.4c-0.1-0.3,0.2-0.5,0.3-0.7c0-0.1,0-0.2,0.1-0.3l-0.1-0.1l0.1-0.1c-0.1-0.3,0.3-0.6,0.3-0.8
				c0.2-0.2,0.3-0.4,0.3-0.6c0-0.3,0.3-0.4,0.4-0.5c0.4-1.1,0.7-2.2,1.4-3.2c0.3,0.8,0.3,1.5,0.6,2.3c0,0.9,0.6,1.5,0.6,2.5
				c0,0.3,0.3,0.6,0.3,0.8c0.1,0.2,0,0.4,0.2,0.6c0.3,2.1,1.1,3.8,1.4,6c0.2,0.3,0.3,0.7,0.3,1.1c0,0.2,0.3,0.3,0.2,0.4
				c0.1,0,0.1,0.1,0.1,0.2l0.1-0.1l-0.1-0.1c0-0.1,0.1-0.2,0.2-0.2c0,0,0.1,0.1,0.1,0.2c0.1,0,0.2,0,0.3-0.1c0,0.1,0.2,0.3,0.1,0.3
				h0.1c0-0.2,0-0.3-0.1-0.5c0.1-0.2,0.2,0,0.3,0.1l0.1-0.1C57.2,210.6,57.6,210.3,57.5,210z"/>
			<path class="st15" d="M45.4,210.2c-0.2,0.2-0.2,0.5-0.2,0.7C45.3,210.7,45.4,210.4,45.4,210.2z"/>
			<path class="st15" d="M45.3,211c-0.1,0.1-0.1,0.1-0.1,0.2C45.2,211.2,45.2,211.1,45.3,211z"/>
			<path class="st15" d="M78.6,193.2C78.6,193.3,78.6,193.3,78.6,193.2L78.6,193.2L78.6,193.2z"/>
			<path class="st15" d="M79.2,193.9c-0.1-0.2-0.2-0.3-0.3-0.3l0.1-0.1c-0.1-0.2-0.3,0-0.4-0.2c-0.2-0.1-0.1-0.4-0.3-0.4l0.1-0.1
				l-0.1-0.1l-0.1,0.1l-0.2-0.2l0.1-0.1l-0.2-0.1l-0.1,0.1c-0.1,0-0.1,0-0.2-0.1l0.1-0.1l-0.1-0.1l-0.1,0.1l-0.3-0.3l0.1-0.1
				c-0.1,0-0.1,0-0.2,0.1c-0.1,0-0.1-0.2-0.1-0.3l-0.1,0.1c-0.1-0.3-0.3-0.3-0.6-0.5l0.1-0.1c-0.2,0-0.1-0.3-0.3-0.3l-0.1,0.1
				c0-0.3-0.3-0.1-0.4-0.3c-0.1-0.1-0.3-0.2-0.3-0.3l-0.1,0.1l-0.3-0.3c-0.3-0.3-0.6-0.4-0.8-0.7h-0.2c-1.9-2-4.2-3.1-6.4-4.8
				l-0.1,0.1l-0.2-0.2c-0.2-0.2-0.5-0.3-0.7-0.3c-0.1-0.1-0.1-0.2-0.2-0.3c-0.1-0.1-0.3-0.2-0.3-0.1c-0.5-0.5-1.2-0.4-1.7-0.8
				c-0.3,0-0.6-0.3-0.8-0.3c-0.4-0.3-0.7,0.3-1,0.4c-0.3,1,0.9,1.3,1.4,2c1,0.7,0.8,2,2.2,2.3s2.6,0.6,3.9,1.1
				c1.6,0.8,3.1,1.9,4.8,2.6l2.7,1.6l1.1,0.8c-0.2-0.1-0.2-0.3-0.4-0.3c0-0.2-0.4-0.3-0.3-0.5C78.6,193.4,79,193.5,79.2,193.9z"/>
			<path class="st15" d="M77.3,208.7L77.3,208.7c0.1-0.2,0.2-0.3,0.2-0.4c0-0.3-0.3-0.8-0.6-1.3l-0.3,0.1c-0.1,0-0.3-0.2-0.5-0.4
				c0.1-0.2,0.1-0.3,0.1-0.5c0-0.3-0.2-0.4-0.8-0.7l-0.3-0.2v-0.2l-1.7-0.9l-0.3,0.1l-0.3-0.3h-0.3c-0.2-0.3-0.3-0.4-0.8-0.4h-0.3
				c-0.2,0.2-0.3,0.3-0.5,0.3c-0.2,0-0.3-0.3-0.3-0.8l-1-0.3l-0.1,0.2l-0.4-0.2l-0.4-0.3l-0.4-0.3V202l0.5-0.4l1.4-0.8l0.5-0.5
				l0.7-0.3v-0.5c0-0.2,0.2-0.3,0.3-0.3h0.3l0.2-0.3c0.3-0.3,0.3-0.8,0.3-0.9c0-0.3-0.2-0.3-0.8-0.8l-0.4-0.1h-0.5l-0.3-0.1
				l-0.6-0.1l-0.3,0.3c-0.5-0.3-0.8-0.4-1.4-0.4l-1.3-0.1l-1.3-0.2l-0.6,0.2l-0.1,0.1l-0.3-0.1l-0.3-0.3l-1.7,0.1
				c0.2-0.2,0.2-0.3,0.2-0.4l-0.4-1.3l0.3-3.7l-0.3-1.1v-6.2l-0.4-2l0.1-1.6l0.1-1.3l-0.7-0.4l-0.8,0.1l-0.8,0.5
				c-1.6,0.8-2,1.3-1.7,2.1c0.4,0.1,0.7,0.2,0.8,0.3c0.1,0.1,0.2,0.2,0.2,0.3h-0.5c-0.2,0.2-0.1,0.3,0.1,0.4c0,0,0.1,0.1,0.2,0.1
				l-0.3,0.3l0.2,0.4l0.3,1.1l0.1,1.5l0.3,1l0.2,0.5l0.6,0.8v0.7l-0.3,0.1l0.1,0.5v1.6c0,0.3,0.1,0.6,0.2,0.8c0.6,1,0.7,1.2,0.3,1.4
				c-0.2,0.1-0.3,0.1-0.5,0.2l0.1,0.4v1l0.7,0.6c0.2,0.2,0,0.4-0.6,0.7c0.1,0.2,0.1,0.3,0.2,0.5c-0.2,0-0.3,0.1-0.5,0.3l-0.3,0.3
				l-0.8,0.3l-0.3,0.3v0.3h0.1l0.1,0.2l0.5-0.1c0.3,0.3,0.5,0.3,0.8,0.3l0,0H60v0.3l-0.1,1.1l0.2,1.2l-0.1,0.8
				c0.2,0.1,0.3,0.1,0.4,0.2c0.2,0.2,0.2,0.3-0.3,1l-0.1,1l0.1,1.9c0.5,0.7,0.5,0.8-0.1,1.1l0.1,0.6v0.6l-0.4,3.1l0.4,0.5L60,212
				v1.7l-0.2,2.1H59l-1.2,0.5l-0.4,0.3v0.3l0.1,0.5c0.1,0.1,0.3,0.1,0.3,0.1s0.3-0.1,0.5-0.3l0.3-0.2l-0.1-0.3l0.6,0.1
				c0.1,0.2,0.3,0.3,0.3,0.3l0.5-0.1l0,0v0.3l-0.6,0.3l-0.4,1.9l0.1,0.8l-0.3,0.6c0.8,0.3,1.1,0.2,1.8-0.1c0.7-0.3,1.2-0.6,2-1.3
				c-0.2-0.4-0.2-0.6,0.3-1l-0.2-0.4l-0.2-0.8l0.4,0.2l0.3-0.3c1.4,0.7,2.1,0.8,4.2,0.8c2.3,0,3.4-0.2,4.9-1.3
				c0.5-0.2,0.6-0.3,1.3-0.7l0.9-0.6l1.1-0.9l-0.1-0.2l-0.3-0.2h0.3v-0.5l0.3-0.1c0.1,0,0.3,0.1,0.4,0.3l0.2-0.3l0.6-1.2l0.5-0.8
				v-0.5l0.2-0.9c0,0,0-0.1,0-0.2c0-0.3-0.2-0.6-0.6-1.2L77.3,208.7z M64.2,197.6l1.5,0.2l0.3-0.1l0.3,0.3l0.4-0.1
				c0.5,0,1,0.2,2.2,0.8c0,0.8-0.1,1.1-0.2,1.4c-0.2,0.4-0.8,1-1.3,1.2l-1.5,0.4l-0.5,0.5c-0.1,0.1-0.2,0.1-0.3,0.1
				s-0.3-0.1-0.4-0.3l-0.4,0.1c-0.3,0.1-0.4,0.2-0.6,0.2h-1.2l-0.1,0.1l-0.2-0.9l0.1-1.5v-0.6c0-0.2-0.1-0.3-0.3-0.4h-0.3
				c-0.3-0.5-0.3-0.8-0.1-0.8c0.2-0.1,0.4-0.1,0.7-0.1v-0.3c0.3-0.1,0.6-0.1,0.9-0.1L64.2,197.6z M74.5,212.5l-0.1,0.6l-0.3,0.4
				l-0.5,1c-0.2,0.4-0.4,0.8-0.7,0.9l-0.8,0.5l-0.6,0.5l-0.5,0.3l-0.5,0.2c-0.2,0.1-0.3,0.1-0.5,0.1h-2l-1.4,0.1l-1.6-0.3l-1.2-0.1
				l-1.1-0.3l-0.4-0.1l-0.1-0.3l0.1-0.3l0.5-0.1V215l0.1-0.8l-0.3-1.2l0.2-2.2c-0.1-0.3-0.2-0.5-0.6-0.8l0.6-0.6v-3.2
				c-0.3-0.1-0.5-0.3-0.6-0.3c-0.3-0.3-0.3-0.5,0.4-0.8v-0.4l-0.5-0.3l0.1-0.3l0.3-0.5c0.1,0,0.2,0,0.3,0v-0.3
				c0,0.2,0.1,0.3,0.1,0.3l1,0.1l0.7,0.2h0.7L66,204l0.3,0.2h0.3v-0.3l0.3,0.1c0.1-0.2,0.1-0.3,0.3-0.3c0.2,0,0.3,0.1,0.5,0.3
				l0.5,0.6l0.8,0.1l0.4,0.3l2.3,0.8c0.2,0.1,0.3,0.3,0.8,0.7h0.3l0.6,0.2l0.2,0.3l0.2,0.4c0,0.1,0.2,0.3,0.4,0.5
				c0.3,0.4,0.5,0.8,0.6,1.9l0.3,1.4v0.2L74.5,212.5z"/>
		</g>
	</g>
</g>
<rect x="16.2" y="22.3" class="st16" width="194.7" height="111.2"/>
<path class="st17" d="M56.1,78.5h-5.9c-0.4,0-0.6-0.3-0.6-0.5c0-0.3,0.3-0.5,0.6-0.5h5.9c0.4,0,0.6,0.3,0.6,0.5
	C56.7,78.3,56.5,78.5,56.1,78.5z"/>
<path class="st17" d="M69.3,78.5h-5.9c-0.4,0-0.6-0.3-0.6-0.5c0-0.3,0.3-0.5,0.6-0.5h5.9c0.4,0,0.6,0.3,0.6,0.5
	C70,78.3,69.7,78.5,69.3,78.5z"/>
<path class="st17" d="M79.9,84.8c-3.1,0-5.2-2.2-5.2-4.8v-4.2c0-2.5,2-4.8,5.2-4.8c2.5,0,4.2,1.4,4.7,2.9c0.1,0.2,0.2,0.6-0.2,0.8
	l-1.4,0.8c-0.3,0.2-0.7,0.2-0.8-0.2c-0.5-0.9-1-1.8-2.3-1.8c-1.4,0-2.1,1.1-2.1,2V80c0,1,0.8,2,2.1,2c1.3,0,1.8-0.8,2.3-1.8
	c0.2-0.3,0.5-0.3,0.8-0.2l1.4,0.8c0.3,0.3,0.3,0.7,0.2,0.8C84.1,83.4,82.5,84.8,79.9,84.8z"/>
<path class="st17" d="M97.4,84.6h-1.8c-0.4,0-0.6-0.3-0.6-0.6v-4.4c0-0.2-0.1-0.3-0.3-0.3h-3.6c-0.2,0-0.3,0.1-0.3,0.3V84
	c0,0.4-0.3,0.6-0.6,0.6h-1.8c-0.4,0-0.6-0.3-0.6-0.6V72c0-0.4,0.3-0.6,0.6-0.6h1.8c0.4,0,0.6,0.3,0.6,0.6v4.4c0,0.2,0.1,0.3,0.3,0.3
	h3.6c0.2,0,0.3-0.1,0.3-0.3V72c0-0.4,0.3-0.6,0.6-0.6h1.8c0.4,0,0.6,0.3,0.6,0.6v12C98.1,84.3,97.8,84.6,97.4,84.6z"/>
<path class="st17" d="M110.1,79.2h-5.7c-0.2,0-0.3,0.1-0.3,0.3v0.5c0,1,0.8,2,2.1,2c1.3,0,1.8-0.8,2.3-1.8c0.2-0.3,0.5-0.3,0.8-0.2
	l1.4,0.8c0.3,0.3,0.3,0.7,0.2,0.8c-0.5,1.4-2.1,2.9-4.7,2.9c-3.1,0-5.2-2.2-5.2-4.8v-4.2c0-2.5,2-4.8,5.2-4.8c3.1,0,5.2,2.2,5.2,4.8
	v2.1C111.3,78.8,110.8,79.2,110.1,79.2z M108.3,75.8c0-1-0.8-2-2.1-2c-1.4,0-2.1,1.1-2.1,2v0.5c0,0.2,0.1,0.3,0.3,0.3h3.6
	c0.2,0,0.3-0.1,0.3-0.3V75.8L108.3,75.8z"/>
<path class="st17" d="M123.9,84.6h-1.8c-0.4,0-0.6-0.3-0.6-0.6v-8.2c0-1-0.8-2-2.1-2c-1.4,0-2.1,1.1-2.1,2V84c0,0.4-0.3,0.6-0.6,0.6
	h-1.8c-0.4,0-0.6-0.3-0.6-0.6V72c0-0.4,0.3-0.6,0.6-0.6h1.1c0.3,0,0.4,0.1,0.5,0.3c0.2,0.2,0.3,0.2,0.4,0.1c0.8-0.4,1.5-0.7,2.5-0.7
	c3.1,0,5.2,2.2,5.2,4.8V84C124.6,84.3,124.3,84.6,123.9,84.6z"/>
<path class="st17" d="M132.4,90.5c-2,0-3.6-0.8-4.6-1.5c-0.3-0.3-0.4-0.6-0.3-0.8l0.8-1.2c0.3-0.4,0.6-0.4,0.8-0.3
	c0.8,0.5,1.9,1.1,3.2,1.1c1.3,0,2.4-0.4,2.4-1.6s-1.2-1.6-2.4-1.6h-2.1c-0.4,0-0.6-0.3-0.6-0.6v-3.5c0-0.4-0.2-0.7-0.3-0.8
	c-0.9-0.8-1.8-2-1.8-3.7c0-2.5,2-4.8,5.2-4.8c0.8,0,1.3,0.2,1.6,0.2c0.9,0,1.4-0.8,2.9-0.8c0.4,0,0.6,0.3,0.6,0.6v1.5
	c0,0.4-0.2,0.6-0.4,0.6c-0.2,0.1-0.3,0.3-0.2,0.5c0.3,0.5,0.5,1.2,0.5,2.3c0,2.5-2,4.6-4.8,4.8c-0.2,0-0.3,0.1-0.3,0.3v0.7
	c0,0.2,0.1,0.3,0.3,0.3c2.7,0.1,4.8,1.5,4.8,4.2C137.8,88.8,135.8,90.5,132.4,90.5z M132.6,73.8c-1.4,0-2.1,1.1-2.1,2
	c0,1,0.8,2,2.1,2s2.1-1,2.1-2S134,73.8,132.6,73.8z"/>
<path class="st17" d="M149.7,74c-0.3,0-0.6-0.3-0.8-0.7l-1.9-4.2c-0.6-1.3-1.7-1.3-2.2,0l-2,4.2c-0.2,0.4-0.4,0.7-0.8,0.7
	c-0.5,0-0.6-0.4-0.4-0.8l3.2-6.9c0.2-0.4,0.4-0.8,0.9-0.8s0.8,0.4,1,0.8l3.2,6.9C150.3,73.6,150.2,74,149.7,74z"/>
<path class="st17" d="M163.7,84.6h-9.1c-0.4,0-0.6-0.3-0.6-0.6c0-3.7,1.6-5.3,6.5-7.6c0.4-0.3,0.6-0.5,0.6-1c0-0.7-0.7-1.6-1.9-1.6
	s-1.8,0.7-2.4,1.7c-0.2,0.3-0.5,0.3-0.8,0.2l-1.3-0.8c-0.3-0.2-0.3-0.5-0.2-0.8c0.7-1.4,2.2-2.9,4.7-2.9c2.9,0,4.8,2,4.8,4.2
	c0,1.7-0.8,2.6-2,3.3c-3,1.6-4.4,2.4-4.5,3.1c0,0.2,0.1,0.3,0.3,0.3h5.9c0.4,0,0.6,0.3,0.6,0.6V84C164.3,84.3,164.1,84.6,163.7,84.6
	z"/>
<path class="st18" d="M293,116.5c2.5,2.1,5.8,3.2,9,3c2.5-0.2,4.7-1.1,6.6-2.6c-5.9-0.2-11.5-0.7-16.9-1.6
	C292.1,115.8,292.5,116.2,293,116.5z"/>
<path class="st19" d="M287.4,110.2c-0.7-0.1-1.3-0.2-2-0.3l0.1,0.3l0.4,2.3c0.8,0.3,1.8,0.4,2.7,0.7c-0.5-0.8-0.8-1.8-1.2-2.8h-0.1
	C287.4,110.4,287.4,110.3,287.4,110.2z"/>
<path class="st20" d="M310.4,115.2c0.8-1,1.5-2.1,2-3.2c-5.3-0.2-10.4-0.4-15.5-0.8c-2.7-0.2-5.3-0.3-7.9-0.5
	c0.3,1.1,0.8,2.1,1.4,3.1c5.9,1.2,12.5,2,19.3,2.2C309.9,115.7,310.2,115.4,310.4,115.2z"/>
<path class="st18" d="M323,115.6c10.4-0.8,20.5-2.8,29.2-5.8c-8.8,1.1-18.1,1.9-27.5,2.1c-4,0.1-8,0.1-12,0
	c-0.6,1.4-1.3,2.6-2.3,3.8c-0.1,0.1-0.1,0.1-0.2,0.2C314.5,116,318.8,115.9,323,115.6z"/>
<path class="st21" d="M356.8,109.2c-0.8,0.1-1.6,0.3-2.4,0.3c-9.3,3.5-20,5.9-31.3,6.9c-4.7,0.3-9.3,0.5-13.8,0.4
	c-2.1,2-4.9,3.2-7.9,3.5c-3.5,0.3-7-0.8-9.7-3.1c-0.8-0.7-1.5-1.4-2.1-2.3c-1.2-0.3-2.4-0.5-3.5-0.8l0.8,4.5
	c10,2.7,21.7,4.7,34.1,5.4c9.7,0.6,18.9,0.5,27.4-0.3C352.4,119.5,355.4,114.5,356.8,109.2z"/>
<path class="st20" d="M358.1,101.2c0.1,2.2,0,4.4-0.4,6.6c0.9-0.3,1.9-0.8,2.8-1.2C360,104.7,359.1,102.9,358.1,101.2z"/>
<path class="st22" d="M287.3,109.9c-0.2-0.6-0.3-1.3-0.3-1.9l-1.8,0.6l0.2,1.1C286,109.7,286.6,109.8,287.3,109.9z"/>
<path class="st18" d="M361.1,108.7c-1.2,0.2-2.4,0.3-3.6,0.5c-1.1,5.2-3.5,10.2-7,14.6c3.2-0.3,6.4-0.7,9.3-1.2
	c1.4-3.6,2.1-7.3,1.7-11.2C361.4,110.5,361.2,109.6,361.1,108.7z"/>
<path class="st20" d="M360.6,107c-0.8,0.4-1.8,0.8-2.7,1.2c1-0.2,2-0.3,3-0.4C360.8,107.5,360.7,107.3,360.6,107z"/>
<path class="st13" d="M301.7,58.2c-10.1,15.2-13.7,32.9-8.2,47.6c0.5,1.3,1,2.5,1.6,3.7c1.4-0.5,2.9-1.2,4.4-2
	C296.3,92.1,297,74.7,301.7,58.2z"/>
<path class="st22" d="M316.2,84.8l-3.6,0.1c-0.3,0-0.3-0.1-0.3-0.3c0-0.2,0.1-0.2,0.4-0.2l0.8-0.2c0.6-0.1,0.7-0.3,0.5-0.8l-0.8-1.9
	c-0.3-0.7-0.4-0.8-1-0.8h-2.7c-0.4,0-0.8,0.1-0.9,0.2c-0.1,0.1-0.1,0.1-0.3,0.6l-0.7,1.7c-0.3,0.9,0.7,1.3,1.4,1.3h0.5
	c0.1,0,0.2,0,0.2,0.2c0,0.2-0.1,0.3-0.3,0.3c-0.3,0-2-0.2-2.5-0.2c-0.6,0-1.6,0.2-1.9,0.2c-0.3,0-0.5,0-0.5-0.2
	c0-0.3,0.3-0.3,0.8-0.3s1.1-0.3,1.6-1.4l3.6-8.5c0-0.1,0.1-0.3-0.3-0.4l-0.7-0.3c-0.3-0.1-0.5-0.3-0.5-0.3s0.1-0.2,0.2-0.2l3.3-0.5
	c0.2,0,0.3-0.1,0.5-0.1c0.2,0,0.2,0.3,0.2,0.6c0,0.2,0,0.6,0.2,0.8l3.9,9.1c0.3,0.6,0.7,0.9,1.2,1c6-16.5,3.1-34.4,9.9-50.8
	c-10.7,5.9-19.5,14.3-25.9,23.6c-4.8,16.4-4.1,33.7-0.8,49c2.1-1.4,4.4-3.3,6.6-5.7c4.8-5,7.9-10.3,9.9-15.8L316.2,84.8z"/>
<path class="st22" d="M309.3,79.2c-0.1,0.1-0.2,0.4-0.2,0.7c0,0.2,0.3,0.3,1.1,0.3h1.9c0.3,0,0.6-0.1,0.6-0.3c0,0,0-0.1,0-0.2
	l-1.7-4.3L309.3,79.2z"/>
<path class="st13" d="M330.2,74.6l-0.3,0.8c-0.2,0.5-0.3,0.8-0.7,0.8c-0.2,0-0.3-0.1-0.8-0.6s-1.4-1.1-2.1-1.1c-2,0-1.6,2.7-1.6,4.1
	v4.3c0,0.7,0,1.4,0.5,1.4l0.8,0.1c0.2,0,0.3,0.1,0.3,0.2c0,0.2-0.3,0.3-0.7,0.3h-3.5l-1.8,0.1c-0.3,0-0.4-0.1-0.4-0.2s0-0.2,0.1-0.2
	l1.4-0.2c0.3-0.1,0.7,0,0.7-1.4c0-5.7,1.7-9.9,6.4-9.9c1.4,0,2,0.3,2,0.8C330.2,74.1,330.2,74.4,330.2,74.6z"/>
<path class="st13" d="M344.2,75.8c-1,0-0.8-0.6-1.8-0.6c-0.3,0-1.2,0-0.9,0.5c0.3,0.6,0.6,1.7,0.6,2.1c0,1.7-0.8,4.1-4.8,4.5
	c0,0.2-0.1,0.5-0.1,1.1l0.1,1.1c0,0.3,0.3,0.3,0.9,0.3c2.5,0,3.7,1.4,3.7,4.3c0,2.5-2,5.6-5,5.6c-0.6,0-1.5-0.3-1.5-1.2
	c0-0.7,0.3-1.4,2-1.7c2.1-0.3,3.7-1,3.7-2.5c0-1.5-1.4-1.7-3-1.8h-2c-0.1,0-0.3,0-0.3-0.3c0-0.7,0.5-0.9,0.5-3.1
	c0-1.2-0.1-1.9-0.2-1.9c-3.4-0.4-4.5-2.6-4.5-4.6c0-1.5,1.2-4.4,5.2-4.4c2.7,0,3.5,1.4,3.9,1.4c0.6,0,1.7-1,3-1
	c0.9,0,1.4,0.4,1.4,1.4C345,75.5,344.7,75.8,344.2,75.8z M336.9,73.9c-1.3,0-2.2,0.7-2.2,3.9c0,2.6,0.7,3.9,2.1,3.9
	c1.5,0,2.3-1.1,2.3-3.6C339,75.2,338.3,73.9,336.9,73.9z"/>
<path class="st13" d="M352.7,85.1c-3.5,0-6.4-2.2-6.4-6c0-3.7,3-6,6.4-6c3.4,0,6.4,2.2,6.4,6C359.1,82.8,356.1,85.1,352.7,85.1z
	 M352.7,73.6c-1.7,0-3.1,1.6-3.1,5.4s1.4,5.4,3.1,5.4s3.1-1.6,3.1-5.4C355.9,75.2,354.4,73.6,352.7,73.6z"/>
<path class="st23" d="M345.7,88.4L345.7,88.4c-0.3,0-0.3,0-0.3-0.1c0-0.1,0-0.1,0.2-0.1h0.7h0.8c0.1,0,0.1,0,0.1,0.1
	c0,0.1,0,0.1-0.1,0.1l-0.3,0.1c-0.2,0-0.2,0.3-0.2,0.4v2.5c0,1,0.3,1.5,1.3,1.5s1.3-0.5,1.3-1.5v-2.5c0-0.2-0.1-0.3-0.2-0.4
	l-0.3-0.1c-0.1,0-0.1-0.1-0.1-0.1s0-0.1,0.1-0.1h0.8h0.7c0.2,0,0.2,0,0.2,0.1c0,0.1-0.1,0.1-0.2,0.1h-0.1c-0.2,0-0.4,0.2-0.4,0.4
	v2.4c0,1-0.8,1.8-1.9,1.8h-0.3c-1,0-1.9-0.8-1.9-1.8v-2.3C346.1,88.6,345.9,88.4,345.7,88.4z"/>
<path class="st23" d="M353.4,93c-1.1,0-1.7-0.6-1.7-1c0-0.2,0.1-0.3,0.3-0.3c0.3,0,0.3,0.2,0.4,0.4c0.2,0.3,0.4,0.7,1,0.7
	c0.6,0,1-0.4,1-0.8c0-0.3-0.4-0.7-0.8-0.8c-1.4-0.6-1.7-1.1-1.7-1.7c0-0.7,0.6-1.2,1.4-1.2c0.8,0,1.3,0.3,1.4,0.3v0.1l0.1,0.8
	c0,0.1,0,0.2-0.1,0.2s-0.1,0-0.1-0.1l-0.3-0.5c-0.2-0.3-0.6-0.7-0.9-0.7c-0.5,0-0.9,0.3-0.9,0.8c0,0.3,0.2,0.6,0.8,0.8l0.8,0.4
	c0.6,0.3,0.9,0.7,0.9,1.2C355,92.4,354.3,93,353.4,93z"/>
<path class="st23" d="M357.6,92.8c0,0.1-0.1,0.1-0.2,0.1c-0.1,0-0.8-0.1-0.9-0.1c-0.3,0-0.6,0.1-0.8,0.1c-0.1,0-0.2,0-0.2-0.1
	s0.1-0.1,0.3-0.1c0.2,0,0.4-0.1,0.6-0.6l1.4-3.3c0,0,0-0.1-0.2-0.2l-0.3-0.1c-0.1-0.1-0.2-0.1-0.2-0.2c0,0,0-0.1,0.1-0.1l0.9-0.2
	c0.1,0,0.2-0.1,0.2-0.1s0.1,0.1,0.1,0.3c0,0.1,0,0.3,0.1,0.3l1.5,3.6c0.1,0.3,0.3,0.4,0.5,0.4c0.2,0,0.3,0,0.3,0.1s0,0.1-0.1,0.1
	H360l-1.1,0.1c-0.1,0-0.2,0-0.2-0.1c0-0.1,0-0.1,0.2-0.1l0.4-0.1c0.3,0,0.3-0.2,0.3-0.3l-0.3-0.8c-0.1-0.3-0.2-0.3-0.4-0.3h-1.2
	c-0.2,0-0.3,0-0.3,0.1c0,0-0.1,0-0.2,0.3l-0.3,0.7c-0.2,0.3,0.3,0.5,0.6,0.5L357.6,92.8C357.6,92.7,357.6,92.7,357.6,92.8z
	 M357.3,91c0,0.1,0.2,0.1,0.4,0.1h0.8c0.2,0,0.3,0,0.3-0.1c0,0,0,0,0-0.1l-0.7-1.9l-0.7,1.6C357.4,90.7,357.3,90.9,357.3,91z"/>
<g>
	<path class="st24" d="M293,116.5c2.5,2.1,5.8,3.2,9,3c2.5-0.2,4.7-1.1,6.6-2.6c-5.9-0.2-11.5-0.7-16.9-1.6
		C292.1,115.8,292.5,116.2,293,116.5z"/>
	<path class="st25" d="M287.4,110.2c-0.7-0.1-1.3-0.2-2-0.3l0.1,0.3l0.4,2.3c0.8,0.3,1.8,0.4,2.7,0.7c-0.5-0.8-0.8-1.8-1.2-2.8h-0.1
		C287.4,110.4,287.4,110.3,287.4,110.2z"/>
	<path class="st25" d="M310.4,115.2c0.8-1,1.5-2.1,2-3.2c-5.3-0.2-10.4-0.4-15.5-0.8c-2.7-0.2-5.3-0.3-7.9-0.5
		c0.3,1.1,0.8,2.1,1.4,3.1c5.9,1.2,12.5,2,19.3,2.2C309.9,115.7,310.2,115.4,310.4,115.2z"/>
	<path class="st24" d="M323,115.6c10.4-0.8,20.5-2.8,29.2-5.8c-8.8,1.1-18.1,1.9-27.5,2.1c-4,0.1-8,0.1-12,0
		c-0.6,1.4-1.3,2.6-2.3,3.8c-0.1,0.1-0.1,0.1-0.2,0.2C314.5,116,318.8,115.9,323,115.6z"/>
	<path class="st26" d="M356.8,109.2c-0.8,0.1-1.6,0.3-2.4,0.3c-9.3,3.5-20,5.9-31.3,6.9c-4.7,0.3-9.3,0.5-13.8,0.4
		c-2.1,2-4.9,3.2-7.9,3.5c-3.5,0.3-7-0.8-9.7-3.1c-0.8-0.7-1.5-1.4-2.1-2.3c-1.2-0.3-2.4-0.5-3.5-0.8l0.8,4.5
		c10,2.7,21.7,4.7,34.1,5.4c9.7,0.6,18.9,0.5,27.4-0.3C352.4,119.5,355.4,114.5,356.8,109.2z"/>
	<path class="st27" d="M358.1,101.2c0.1,2.2,0,4.4-0.4,6.6c0.9-0.3,1.9-0.8,2.8-1.2C360,104.7,359.1,102.9,358.1,101.2z"/>
	<path class="st28" d="M287.3,109.9c-0.2-0.6-0.3-1.3-0.3-1.9l-1.8,0.6l0.2,1.1C286,109.7,286.6,109.8,287.3,109.9z"/>
	<path class="st29" d="M361.1,108.7c-1.2,0.2-2.4,0.3-3.6,0.5c-1.1,5.2-3.5,10.2-7,14.6c3.2-0.3,6.4-0.7,9.3-1.2
		c1.4-3.6,2.1-7.3,1.7-11.2C361.4,110.5,361.2,109.6,361.1,108.7z"/>
	<path class="st29" d="M360.6,107c-0.8,0.4-1.8,0.8-2.7,1.2c1-0.2,2-0.3,3-0.4C360.8,107.5,360.7,107.3,360.6,107z"/>
</g>
<path class="st30" d="M301.7,58.2c-10.1,15.2-13.7,32.9-8.2,47.6c0.5,1.3,1,2.5,1.6,3.7c1.4-0.5,2.9-1.2,4.4-2
	C296.3,92.1,297,74.7,301.7,58.2z"/>
<g>
	<path class="st31" d="M316.2,84.8l-3.6,0.1c-0.3,0-0.3-0.1-0.3-0.3c0-0.2,0.1-0.2,0.4-0.2l0.8-0.2c0.6-0.1,0.7-0.3,0.5-0.8
		l-0.8-1.9c-0.3-0.7-0.4-0.8-1-0.8h-2.7c-0.4,0-0.8,0.1-0.9,0.2c-0.1,0.1-0.1,0.1-0.3,0.6l-0.7,1.7c-0.3,0.9,0.7,1.3,1.4,1.3h0.5
		c0.1,0,0.2,0,0.2,0.2c0,0.2-0.1,0.3-0.3,0.3c-0.3,0-2-0.2-2.5-0.2c-0.6,0-1.6,0.2-1.9,0.2c-0.3,0-0.5,0-0.5-0.2
		c0-0.3,0.3-0.3,0.8-0.3s1.1-0.3,1.6-1.4l3.6-8.5c0-0.1,0.1-0.3-0.3-0.4l-0.7-0.3c-0.3-0.1-0.5-0.3-0.5-0.3s0.1-0.2,0.2-0.2l3.3-0.5
		c0.2,0,0.3-0.1,0.5-0.1c0.2,0,0.2,0.3,0.2,0.6c0,0.2,0,0.6,0.2,0.8l3.9,9.1c0.3,0.6,0.7,0.9,1.2,1c6-16.5,3.1-34.4,9.9-50.8
		c-10.7,5.9-19.5,14.3-25.9,23.6c-4.8,16.4-4.1,33.7-0.8,49c2.1-1.4,4.4-3.3,6.6-5.7c4.8-5,7.9-10.3,9.9-15.8L316.2,84.8z"/>
	<path class="st31" d="M309.3,79.2c-0.1,0.1-0.2,0.4-0.2,0.7c0,0.2,0.3,0.3,1.1,0.3h1.9c0.3,0,0.6-0.1,0.6-0.3c0,0,0-0.1,0-0.2
		l-1.7-4.3L309.3,79.2z"/>
</g>
<path class="st30" d="M330.2,74.6l-0.3,0.8c-0.2,0.5-0.3,0.8-0.7,0.8c-0.2,0-0.3-0.1-0.8-0.6s-1.4-1.1-2.1-1.1c-2,0-1.6,2.7-1.6,4.1
	v4.3c0,0.7,0,1.4,0.5,1.4l0.8,0.1c0.2,0,0.3,0.1,0.3,0.2c0,0.2-0.3,0.3-0.7,0.3h-3.5l-1.8,0.1c-0.3,0-0.4-0.1-0.4-0.2s0-0.2,0.1-0.2
	l1.4-0.2c0.3-0.1,0.7,0,0.7-1.4c0-5.7,1.7-9.9,6.4-9.9c1.4,0,2,0.3,2,0.8C330.2,74.1,330.2,74.4,330.2,74.6z"/>
<path class="st30" d="M344.2,75.8c-1,0-0.8-0.6-1.8-0.6c-0.3,0-1.2,0-0.9,0.5c0.3,0.6,0.6,1.7,0.6,2.1c0,1.7-0.8,4.1-4.8,4.5
	c0,0.2-0.1,0.5-0.1,1.1l0.1,1.1c0,0.3,0.3,0.3,0.9,0.3c2.5,0,3.7,1.4,3.7,4.3c0,2.5-2,5.6-5,5.6c-0.6,0-1.5-0.3-1.5-1.2
	c0-0.7,0.3-1.4,2-1.7c2.1-0.3,3.7-1,3.7-2.5c0-1.5-1.4-1.7-3-1.8h-2c-0.1,0-0.3,0-0.3-0.3c0-0.7,0.5-0.9,0.5-3.1
	c0-1.2-0.1-1.9-0.2-1.9c-3.4-0.4-4.5-2.6-4.5-4.6c0-1.5,1.2-4.4,5.2-4.4c2.7,0,3.5,1.4,3.9,1.4c0.6,0,1.7-1,3-1
	c0.9,0,1.4,0.4,1.4,1.4C345,75.5,344.7,75.8,344.2,75.8z M336.9,73.9c-1.3,0-2.2,0.7-2.2,3.9c0,2.6,0.7,3.9,2.1,3.9
	c1.5,0,2.3-1.1,2.3-3.6C339,75.2,338.3,73.9,336.9,73.9z"/>
<path class="st30" d="M352.7,85.1c-3.5,0-6.4-2.2-6.4-6c0-3.7,3-6,6.4-6c3.4,0,6.4,2.2,6.4,6C359.1,82.8,356.1,85.1,352.7,85.1z
	 M352.7,73.6c-1.7,0-3.1,1.6-3.1,5.4s1.4,5.4,3.1,5.4s3.1-1.6,3.1-5.4C355.9,75.2,354.4,73.6,352.7,73.6z"/>
<path class="st23" d="M345.7,88.4L345.7,88.4c-0.3,0-0.3,0-0.3-0.1c0-0.1,0-0.1,0.2-0.1h0.7h0.8c0.1,0,0.1,0,0.1,0.1
	c0,0.1,0,0.1-0.1,0.1l-0.3,0.1c-0.2,0-0.2,0.3-0.2,0.4v2.5c0,1,0.3,1.5,1.3,1.5s1.3-0.5,1.3-1.5v-2.5c0-0.2-0.1-0.3-0.2-0.4
	l-0.3-0.1c-0.1,0-0.1-0.1-0.1-0.1s0-0.1,0.1-0.1h0.8h0.7c0.2,0,0.2,0,0.2,0.1c0,0.1-0.1,0.1-0.2,0.1h-0.1c-0.2,0-0.4,0.2-0.4,0.4
	v2.4c0,1-0.8,1.8-1.9,1.8h-0.3c-1,0-1.9-0.8-1.9-1.8v-2.3C346.1,88.6,345.9,88.4,345.7,88.4z"/>
<path class="st23" d="M353.4,93c-1.1,0-1.7-0.6-1.7-1c0-0.2,0.1-0.3,0.3-0.3c0.3,0,0.3,0.2,0.4,0.4c0.2,0.3,0.4,0.7,1,0.7
	c0.6,0,1-0.4,1-0.8c0-0.3-0.4-0.7-0.8-0.8c-1.4-0.6-1.7-1.1-1.7-1.7c0-0.7,0.6-1.2,1.4-1.2c0.8,0,1.3,0.3,1.4,0.3v0.1l0.1,0.8
	c0,0.1,0,0.2-0.1,0.2s-0.1,0-0.1-0.1l-0.3-0.5c-0.2-0.3-0.6-0.7-0.9-0.7c-0.5,0-0.9,0.3-0.9,0.8c0,0.3,0.2,0.6,0.8,0.8l0.8,0.4
	c0.6,0.3,0.9,0.7,0.9,1.2C355,92.4,354.3,93,353.4,93z"/>
<path class="st23" d="M357.6,92.8c0,0.1-0.1,0.1-0.2,0.1c-0.1,0-0.8-0.1-0.9-0.1c-0.3,0-0.6,0.1-0.8,0.1c-0.1,0-0.2,0-0.2-0.1
	s0.1-0.1,0.3-0.1c0.2,0,0.4-0.1,0.6-0.6l1.4-3.3c0,0,0-0.1-0.2-0.2l-0.3-0.1c-0.1-0.1-0.2-0.1-0.2-0.2c0,0,0-0.1,0.1-0.1l0.9-0.2
	c0.1,0,0.2-0.1,0.2-0.1s0.1,0.1,0.1,0.3c0,0.1,0,0.3,0.1,0.3l1.5,3.6c0.1,0.3,0.3,0.4,0.5,0.4c0.2,0,0.3,0,0.3,0.1s0,0.1-0.1,0.1
	H360l-1.1,0.1c-0.1,0-0.2,0-0.2-0.1c0-0.1,0-0.1,0.2-0.1l0.4-0.1c0.3,0,0.3-0.2,0.3-0.3l-0.3-0.8c-0.1-0.3-0.2-0.3-0.4-0.3h-1.2
	c-0.2,0-0.3,0-0.3,0.1c0,0-0.1,0-0.2,0.3l-0.3,0.7c-0.2,0.3,0.3,0.5,0.6,0.5L357.6,92.8C357.6,92.7,357.6,92.7,357.6,92.8z
	 M357.3,91c0,0.1,0.2,0.1,0.4,0.1h0.8c0.2,0,0.3,0,0.3-0.1c0,0,0,0,0-0.1l-0.7-1.9l-0.7,1.6C357.4,90.7,357.3,90.9,357.3,91z"/>
</svg>
